%TF.GenerationSoftware,KiCad,Pcbnew,7.0.1*%
%TF.CreationDate,2023-05-22T19:39:57-04:00*%
%TF.ProjectId,Drone_PCB,44726f6e-655f-4504-9342-2e6b69636164,rev?*%
%TF.SameCoordinates,Original*%
%TF.FileFunction,Copper,L2,Bot*%
%TF.FilePolarity,Positive*%
%FSLAX46Y46*%
G04 Gerber Fmt 4.6, Leading zero omitted, Abs format (unit mm)*
G04 Created by KiCad (PCBNEW 7.0.1) date 2023-05-22 19:39:57*
%MOMM*%
%LPD*%
G01*
G04 APERTURE LIST*
G04 Aperture macros list*
%AMRoundRect*
0 Rectangle with rounded corners*
0 $1 Rounding radius*
0 $2 $3 $4 $5 $6 $7 $8 $9 X,Y pos of 4 corners*
0 Add a 4 corners polygon primitive as box body*
4,1,4,$2,$3,$4,$5,$6,$7,$8,$9,$2,$3,0*
0 Add four circle primitives for the rounded corners*
1,1,$1+$1,$2,$3*
1,1,$1+$1,$4,$5*
1,1,$1+$1,$6,$7*
1,1,$1+$1,$8,$9*
0 Add four rect primitives between the rounded corners*
20,1,$1+$1,$2,$3,$4,$5,0*
20,1,$1+$1,$4,$5,$6,$7,0*
20,1,$1+$1,$6,$7,$8,$9,0*
20,1,$1+$1,$8,$9,$2,$3,0*%
%AMFreePoly0*
4,1,17,0.253536,0.253536,0.255000,0.250000,0.255000,0.005000,0.330000,0.005000,0.333536,0.003536,0.335000,0.000000,0.335000,-0.250000,0.333536,-0.253536,0.330000,-0.255000,-0.250000,-0.255000,-0.253536,-0.253536,-0.255000,-0.250000,-0.255000,0.250000,-0.253536,0.253536,-0.250000,0.255000,0.250000,0.255000,0.253536,0.253536,0.253536,0.253536,$1*%
G04 Aperture macros list end*
%TA.AperFunction,ComponentPad*%
%ADD10RoundRect,1.500000X1.500000X1.500000X-1.500000X1.500000X-1.500000X-1.500000X1.500000X-1.500000X0*%
%TD*%
%TA.AperFunction,ComponentPad*%
%ADD11C,6.000000*%
%TD*%
%TA.AperFunction,ComponentPad*%
%ADD12R,1.438000X1.438000*%
%TD*%
%TA.AperFunction,ComponentPad*%
%ADD13C,1.438000*%
%TD*%
%TA.AperFunction,ComponentPad*%
%ADD14C,2.265000*%
%TD*%
%TA.AperFunction,ComponentPad*%
%ADD15R,1.700000X1.700000*%
%TD*%
%TA.AperFunction,ComponentPad*%
%ADD16O,1.700000X1.700000*%
%TD*%
%TA.AperFunction,ComponentPad*%
%ADD17C,0.600000*%
%TD*%
%TA.AperFunction,ComponentPad*%
%ADD18O,0.900000X1.800000*%
%TD*%
%TA.AperFunction,SMDPad,CuDef*%
%ADD19R,0.500000X0.500000*%
%TD*%
%TA.AperFunction,SMDPad,CuDef*%
%ADD20FreePoly0,270.000000*%
%TD*%
%TA.AperFunction,ViaPad*%
%ADD21C,0.600000*%
%TD*%
%TA.AperFunction,Conductor*%
%ADD22C,0.150000*%
%TD*%
%TA.AperFunction,Conductor*%
%ADD23C,0.300000*%
%TD*%
%TA.AperFunction,Conductor*%
%ADD24C,0.400000*%
%TD*%
%TA.AperFunction,Conductor*%
%ADD25C,0.200000*%
%TD*%
%TA.AperFunction,Conductor*%
%ADD26C,0.600000*%
%TD*%
G04 APERTURE END LIST*
D10*
%TO.P,J13,1,Pin_1*%
%TO.N,Net-(J13-Pin_1)*%
X213295000Y-73393900D03*
D11*
%TO.P,J13,2,Pin_2*%
%TO.N,Net-(J13-Pin_2)*%
X206095000Y-73393900D03*
%TD*%
D12*
%TO.P,S1,1*%
%TO.N,Net-(J13-Pin_1)*%
X196095000Y-71043900D03*
D13*
%TO.P,S1,2*%
%TO.N,GND*%
X194095000Y-71043900D03*
%TO.P,S1,3*%
%TO.N,unconnected-(S1-Pad3)*%
X192095000Y-71043900D03*
%TO.P,S1,4*%
%TO.N,Net-(J13-Pin_2)*%
X196095000Y-68543900D03*
%TO.P,S1,5*%
%TO.N,Net-(J14-Pin_2)*%
X194095000Y-68543900D03*
%TO.P,S1,6*%
%TO.N,unconnected-(S1-Pad6)*%
X192095000Y-68543900D03*
D14*
%TO.P,S1,S1*%
%TO.N,N/C*%
X199095000Y-69793900D03*
%TO.P,S1,S2*%
X189095000Y-69793900D03*
%TD*%
D15*
%TO.P,J11,1*%
%TO.N,/PWM7A*%
X213110000Y-101725000D03*
D16*
%TO.P,J11,2*%
%TO.N,/IMU_AD0*%
X215650000Y-101725000D03*
%TO.P,J11,3*%
%TO.N,/PWM7B*%
X213110000Y-99185000D03*
%TO.P,J11,4*%
%TO.N,/IMU_FSYNC*%
X215650000Y-99185000D03*
%TO.P,J11,5*%
%TO.N,/ADC0{slash}PWM5A*%
X213110000Y-96645000D03*
%TO.P,J11,6*%
%TO.N,/IMU_INT*%
X215650000Y-96645000D03*
%TO.P,J11,7*%
%TO.N,/ADC1{slash}PWM5B*%
X213110000Y-94105000D03*
%TO.P,J11,8*%
%TO.N,/DIST_GPIO*%
X215650000Y-94105000D03*
%TO.P,J11,9*%
%TO.N,/ADC2{slash}PWM6A*%
X213110000Y-91565000D03*
%TO.P,J11,10*%
%TO.N,Net-(J11-Pad10)*%
X215650000Y-91565000D03*
%TO.P,J11,11*%
%TO.N,/ADC3{slash}PWM6B*%
X213110000Y-89025000D03*
%TO.P,J11,12*%
%TO.N,Net-(J11-Pad12)*%
X215650000Y-89025000D03*
%TD*%
D15*
%TO.P,J5,1,Pin_1*%
%TO.N,GND*%
X192600000Y-114200000D03*
D16*
%TO.P,J5,2,Pin_2*%
%TO.N,/WiFi_TX{slash}GPIO1*%
X192600000Y-116740000D03*
%TO.P,J5,3,Pin_3*%
%TO.N,unconnected-(J5-Pin_3-Pad3)*%
X195140000Y-114200000D03*
%TO.P,J5,4,Pin_4*%
%TO.N,Net-(J5-Pin_4)*%
X195140000Y-116740000D03*
%TO.P,J5,5,Pin_5*%
X197680000Y-114200000D03*
%TO.P,J5,6,Pin_6*%
%TO.N,Net-(J5-Pin_6)*%
X197680000Y-116740000D03*
%TO.P,J5,7,Pin_7*%
%TO.N,/WiFi_RX{slash}GPIO3*%
X200220000Y-114200000D03*
%TO.P,J5,8,Pin_8*%
%TO.N,+3V3*%
X200220000Y-116740000D03*
%TD*%
D17*
%TO.P,U1,57,GND*%
%TO.N,GND*%
X191087500Y-93925000D03*
X191087500Y-95200000D03*
X191087500Y-96475000D03*
X192362500Y-93925000D03*
X192362500Y-95200000D03*
X192362500Y-96475000D03*
X193637500Y-93925000D03*
X193637500Y-95200000D03*
X193637500Y-96475000D03*
%TD*%
D15*
%TO.P,J7,1,Pin_1*%
%TO.N,/M2_PWM_A*%
X172200000Y-104600000D03*
D16*
%TO.P,J7,2,Pin_2*%
%TO.N,GND*%
X172200000Y-107140000D03*
%TO.P,J7,3,Pin_3*%
%TO.N,/M2_PWM_B*%
X172200000Y-109680000D03*
%TO.P,J7,4,Pin_4*%
%TO.N,GND*%
X172200000Y-112220000D03*
%TD*%
D15*
%TO.P,J9,1,Pin_1*%
%TO.N,/M4_PWM_A*%
X224400000Y-76800000D03*
D16*
%TO.P,J9,2,Pin_2*%
%TO.N,GND*%
X224400000Y-79340000D03*
%TO.P,J9,3,Pin_3*%
%TO.N,/M4_PWM_B*%
X224400000Y-81880000D03*
%TO.P,J9,4,Pin_4*%
%TO.N,GND*%
X224400000Y-84420000D03*
%TD*%
D15*
%TO.P,J12,1,Pin_1*%
%TO.N,GND*%
X214820000Y-106800000D03*
D16*
%TO.P,J12,2,Pin_2*%
X212280000Y-106800000D03*
%TO.P,J12,3,Pin_3*%
X209740000Y-106800000D03*
%TO.P,J12,4,Pin_4*%
X207200000Y-106800000D03*
%TD*%
D15*
%TO.P,J8,1,Pin_1*%
%TO.N,/M3_PWM_A*%
X224400000Y-103860000D03*
D16*
%TO.P,J8,2,Pin_2*%
%TO.N,GND*%
X224400000Y-106400000D03*
%TO.P,J8,3,Pin_3*%
%TO.N,/M3_PWM_B*%
X224400000Y-108940000D03*
%TO.P,J8,4,Pin_4*%
%TO.N,GND*%
X224400000Y-111480000D03*
%TD*%
D15*
%TO.P,J15,1,Pin_1*%
%TO.N,GND*%
X206295000Y-81793900D03*
D16*
%TO.P,J15,2,Pin_2*%
%TO.N,Net-(J14-Pin_2)*%
X206295000Y-84333900D03*
%TD*%
D15*
%TO.P,J10,1,Pin_1*%
%TO.N,GND*%
X178600000Y-98600000D03*
D16*
%TO.P,J10,2,Pin_2*%
%TO.N,/UART1_TX*%
X181140000Y-98600000D03*
%TO.P,J10,3,Pin_3*%
%TO.N,/UART1_RX*%
X183680000Y-98600000D03*
%TO.P,J10,4,Pin_4*%
%TO.N,+3V3*%
X186220000Y-98600000D03*
%TD*%
D15*
%TO.P,J14,1,Pin_1*%
%TO.N,GND*%
X201720000Y-81683900D03*
D16*
%TO.P,J14,2,Pin_2*%
%TO.N,Net-(J14-Pin_2)*%
X201720000Y-84223900D03*
%TD*%
D15*
%TO.P,J4,1,Pin_1*%
%TO.N,GND*%
X174690000Y-91200000D03*
D16*
%TO.P,J4,2,Pin_2*%
%TO.N,+5V*%
X172150000Y-91200000D03*
%TO.P,J4,3,Pin_3*%
%TO.N,+3V3*%
X174690000Y-93740000D03*
%TO.P,J4,4,Pin_4*%
%TO.N,+1V8*%
X172150000Y-93740000D03*
%TO.P,J4,5,Pin_5*%
%TO.N,/SPI0_RX*%
X174690000Y-96280000D03*
%TO.P,J4,6,Pin_6*%
%TO.N,/SPI0_CSn*%
X172150000Y-96280000D03*
%TO.P,J4,7,Pin_7*%
%TO.N,/SPI0_TX*%
X174690000Y-98820000D03*
%TO.P,J4,8,Pin_8*%
%TO.N,/SPI0_SCK*%
X172150000Y-98820000D03*
%TD*%
D18*
%TO.P,J2,S5,SHIELD*%
%TO.N,GND*%
X186164000Y-68274900D03*
%TO.P,J2,S6,SHIELD*%
X179564000Y-68274900D03*
%TD*%
D15*
%TO.P,J3,1,Pin_1*%
%TO.N,Net-(J3-Pin_1)*%
X193720000Y-104600000D03*
D16*
%TO.P,J3,2,Pin_2*%
%TO.N,GND*%
X196260000Y-104600000D03*
%TO.P,J3,3,Pin_3*%
%TO.N,Net-(J3-Pin_3)*%
X198800000Y-104600000D03*
%TD*%
D15*
%TO.P,J17,1,Pin_1*%
%TO.N,GND*%
X215495000Y-81793900D03*
D16*
%TO.P,J17,2,Pin_2*%
%TO.N,Net-(J14-Pin_2)*%
X215495000Y-84333900D03*
%TD*%
D15*
%TO.P,J16,1,Pin_1*%
%TO.N,GND*%
X210895000Y-81793900D03*
D16*
%TO.P,J16,2,Pin_2*%
%TO.N,Net-(J14-Pin_2)*%
X210895000Y-84333900D03*
%TD*%
D15*
%TO.P,J6,1,Pin_1*%
%TO.N,/M1_PWM_A*%
X172200000Y-76000000D03*
D16*
%TO.P,J6,2,Pin_2*%
%TO.N,GND*%
X172200000Y-78540000D03*
%TO.P,J6,3,Pin_3*%
%TO.N,/M1_PWM_B*%
X172200000Y-81080000D03*
%TO.P,J6,4,Pin_4*%
%TO.N,GND*%
X172200000Y-83620000D03*
%TD*%
D19*
%TO.P,U6,12,GND4*%
%TO.N,GND*%
X220000000Y-102200000D03*
%TO.P,U6,11,AVDD*%
%TO.N,+3V3*%
X219200000Y-102200000D03*
%TO.P,U6,10,SCL*%
%TO.N,/DIST_SCL*%
X219200000Y-101400000D03*
%TO.P,U6,9,SDA*%
%TO.N,/DIST_SDA*%
X219200000Y-100600000D03*
%TO.P,U6,8,DNC*%
%TO.N,unconnected-(U6-DNC-Pad8)*%
X219200000Y-99800000D03*
%TO.P,U6,7,GPIO1*%
%TO.N,/DIST_GPIO*%
X219200000Y-99000000D03*
%TO.P,U6,6,GND3*%
%TO.N,GND*%
X220000000Y-99000000D03*
%TO.P,U6,5,XSHUT*%
%TO.N,Net-(U6-XSHUT)*%
X220800000Y-99000000D03*
%TO.P,U6,4,GND2*%
%TO.N,GND*%
X220800000Y-99800000D03*
%TO.P,U6,3,GND*%
X220800000Y-100600000D03*
%TO.P,U6,2,AVSSVCSEL*%
X220800000Y-101400000D03*
D20*
%TO.P,U6,1,AVDDVCSEL*%
%TO.N,+3V3*%
X220800000Y-102200000D03*
%TD*%
D21*
%TO.N,/M4_PWM_A*%
X219000000Y-84400000D03*
X204800000Y-91600000D03*
X201200000Y-95600000D03*
%TO.N,/M4_PWM_B*%
X194800000Y-96000000D03*
X202800000Y-89200000D03*
X204000000Y-88000000D03*
%TO.N,/M3_PWM_B*%
X206400000Y-104400000D03*
%TO.N,/M3_PWM_A*%
X206400000Y-102800000D03*
%TO.N,/DIST_SDA*%
X205400000Y-100000000D03*
%TO.N,/DIST_SCL*%
X206200000Y-101400000D03*
%TO.N,+3V3*%
X219200000Y-105200000D03*
%TO.N,GND*%
X220000000Y-103400000D03*
%TO.N,/DIST_GPIO*%
X222800000Y-99800000D03*
%TO.N,Net-(U6-XSHUT)*%
X221800000Y-98800000D03*
%TO.N,GND*%
X181800000Y-75000000D03*
%TO.N,+3V3*%
X184400000Y-100600000D03*
%TO.N,GND*%
X192800000Y-102400000D03*
X208000000Y-98000000D03*
X195800000Y-83200000D03*
X209270878Y-96729122D03*
X196400000Y-89000000D03*
X181600000Y-91000000D03*
X190400000Y-85600000D03*
X192000000Y-97600000D03*
X185200000Y-96200000D03*
%TO.N,/SPI1_CSn*%
X185400000Y-101200000D03*
X189810932Y-96682651D03*
%TO.N,/QSPI_SD1*%
X183800000Y-88200000D03*
X186400000Y-90200000D03*
%TO.N,Net-(U1-XIN)*%
X190400000Y-104600000D03*
X189718375Y-99524500D03*
%TO.N,+1V8*%
X189400000Y-77000000D03*
X205600000Y-94600000D03*
X200000000Y-94000000D03*
%TO.N,/WiFi_TX{slash}GPIO1*%
X200800000Y-106400000D03*
X198200000Y-109000000D03*
%TO.N,/M1_PWM_A*%
X187600000Y-92800000D03*
%TO.N,/M1_PWM_B*%
X185400000Y-93000000D03*
%TO.N,/M2_PWM_A*%
X185400000Y-94000000D03*
%TO.N,/M2_PWM_B*%
X186270878Y-93999500D03*
%TO.N,/WiFi_RX{slash}GPIO3*%
X197327496Y-101272504D03*
%TO.N,/PWM7A*%
X190687000Y-97491526D03*
%TO.N,Net-(U1-RUN)*%
X197200000Y-99200000D03*
X194800000Y-97600000D03*
%TO.N,/PWM7B*%
X194088959Y-97362986D03*
%TO.N,/ADC0{slash}PWM5A*%
X194913000Y-95000000D03*
%TO.N,/ADC1{slash}PWM5B*%
X194859715Y-93869512D03*
%TO.N,/ADC2{slash}PWM6A*%
X194827167Y-93095207D03*
%TO.N,/ADC3{slash}PWM6B*%
X197200000Y-93200000D03*
%TO.N,+3V3*%
X183000000Y-107000000D03*
X203800000Y-91600000D03*
X197400000Y-91400000D03*
X192953520Y-97695276D03*
%TO.N,Net-(J5-Pin_6)*%
X206800000Y-113200000D03*
%TD*%
D22*
%TO.N,/M4_PWM_A*%
X219000000Y-84400000D02*
X219000000Y-83219720D01*
X219000000Y-83219720D02*
X224400000Y-77819720D01*
X224400000Y-77819720D02*
X224400000Y-76800000D01*
X204000000Y-92400000D02*
X204800000Y-91600000D01*
X201200000Y-92400000D02*
X204000000Y-92400000D01*
X201200000Y-95600000D02*
X201200000Y-92400000D01*
D23*
%TO.N,+1V8*%
X205600000Y-94600000D02*
X206000000Y-94200000D01*
X206000000Y-91200000D02*
X191800000Y-77000000D01*
X206000000Y-94200000D02*
X206000000Y-91200000D01*
X191800000Y-77000000D02*
X189400000Y-77000000D01*
D22*
X200000000Y-94000000D02*
X200000000Y-95302944D01*
X200000000Y-95302944D02*
X200400000Y-95702944D01*
X200400000Y-95702944D02*
X200400000Y-96302944D01*
X200400000Y-96302944D02*
X200497056Y-96400000D01*
X200497056Y-96400000D02*
X203800000Y-96400000D01*
X203800000Y-96400000D02*
X205600000Y-94600000D01*
%TO.N,/ADC3{slash}PWM6B*%
X197200000Y-93200000D02*
X197472792Y-93200000D01*
X197472792Y-93200000D02*
X200100000Y-95827208D01*
X200100000Y-95827208D02*
X200100000Y-96427208D01*
X205435000Y-96700000D02*
X213110000Y-89025000D01*
X200100000Y-96427208D02*
X200372792Y-96700000D01*
X200372792Y-96700000D02*
X205435000Y-96700000D01*
%TO.N,/ADC2{slash}PWM6A*%
X194827167Y-93095207D02*
X195456960Y-93725000D01*
X195456960Y-93725000D02*
X197573528Y-93725000D01*
X197573528Y-93725000D02*
X199800000Y-95951472D01*
X199800000Y-95951472D02*
X199800000Y-96551472D01*
X199800000Y-96551472D02*
X200248528Y-97000000D01*
X200248528Y-97000000D02*
X205559264Y-97000000D01*
X205559264Y-97000000D02*
X210994264Y-91565000D01*
X210994264Y-91565000D02*
X213110000Y-91565000D01*
%TO.N,/ADC1{slash}PWM5B*%
X194859715Y-93869512D02*
X195288856Y-94298653D01*
X195288856Y-94298653D02*
X197722917Y-94298653D01*
X199500000Y-96075736D02*
X199500000Y-96675736D01*
X197722917Y-94298653D02*
X199500000Y-96075736D01*
X199500000Y-96675736D02*
X200124264Y-97300000D01*
X206675736Y-97300000D02*
X209870736Y-94105000D01*
X200124264Y-97300000D02*
X206675736Y-97300000D01*
X209870736Y-94105000D02*
X213110000Y-94105000D01*
%TO.N,/ADC0{slash}PWM5A*%
X194913000Y-95000000D02*
X195113000Y-95200000D01*
X200000000Y-97600000D02*
X206800000Y-97600000D01*
X195113000Y-95200000D02*
X198200000Y-95200000D01*
X199200000Y-96800000D02*
X200000000Y-97600000D01*
X198200000Y-95200000D02*
X199200000Y-96200000D01*
X199200000Y-96200000D02*
X199200000Y-96800000D01*
X212665000Y-96200000D02*
X213110000Y-96645000D01*
X206800000Y-97600000D02*
X208200000Y-96200000D01*
X208200000Y-96200000D02*
X212665000Y-96200000D01*
%TO.N,/M4_PWM_B*%
X194302167Y-95502167D02*
X194800000Y-96000000D01*
X194302167Y-92497833D02*
X194302167Y-95502167D01*
X194800000Y-92000000D02*
X194302167Y-92497833D01*
X194800000Y-92000000D02*
X195600000Y-92000000D01*
X195600000Y-92000000D02*
X198400000Y-89200000D01*
X198400000Y-89200000D02*
X202800000Y-89200000D01*
%TO.N,GND*%
X196400000Y-89000000D02*
X196200000Y-89000000D01*
X196200000Y-89000000D02*
X193200000Y-92000000D01*
X193200000Y-92000000D02*
X193200000Y-93487500D01*
X193200000Y-93487500D02*
X193637500Y-93925000D01*
D24*
X195800000Y-83200000D02*
X194200000Y-84800000D01*
X194200000Y-84800000D02*
X194200000Y-91000000D01*
X194200000Y-91000000D02*
X192362500Y-92837500D01*
X192362500Y-92837500D02*
X192362500Y-93925000D01*
D22*
%TO.N,/M4_PWM_B*%
X206591100Y-85408900D02*
X204000000Y-88000000D01*
X220871100Y-85408900D02*
X206591100Y-85408900D01*
X224400000Y-81880000D02*
X220871100Y-85408900D01*
%TO.N,/M3_PWM_B*%
X205875000Y-104925000D02*
X206400000Y-104400000D01*
X205875000Y-106995280D02*
X205875000Y-104925000D01*
X207819720Y-108940000D02*
X205875000Y-106995280D01*
X224400000Y-108940000D02*
X207819720Y-108940000D01*
%TO.N,/M3_PWM_A*%
X224400000Y-103860000D02*
X222060000Y-106200000D01*
X217345000Y-106200000D02*
X216145000Y-105000000D01*
X222060000Y-106200000D02*
X217345000Y-106200000D01*
X216145000Y-105000000D02*
X208600000Y-105000000D01*
X208600000Y-105000000D02*
X206400000Y-102800000D01*
%TO.N,GND*%
X220800000Y-101400000D02*
X221200000Y-101400000D01*
X221200000Y-101400000D02*
X222400000Y-102600000D01*
X222400000Y-102600000D02*
X225800000Y-102600000D01*
X225800000Y-102600000D02*
X225800000Y-104610000D01*
X225800000Y-104610000D02*
X225475000Y-104935000D01*
X225475000Y-104935000D02*
X224400000Y-104935000D01*
X224400000Y-104935000D02*
X224400000Y-106400000D01*
%TO.N,/DIST_SDA*%
X205847504Y-100447504D02*
X205400000Y-100000000D01*
X219047504Y-100447504D02*
X205847504Y-100447504D01*
X219200000Y-100600000D02*
X219047504Y-100447504D01*
%TO.N,/DIST_SCL*%
X206200000Y-101400000D02*
X206200000Y-101600000D01*
X208800000Y-104200000D02*
X206200000Y-101400000D01*
X215400000Y-104200000D02*
X208800000Y-104200000D01*
X219200000Y-101400000D02*
X218800000Y-101400000D01*
X218800000Y-101400000D02*
X216000000Y-104200000D01*
X216000000Y-104200000D02*
X215400000Y-104200000D01*
%TO.N,+3V3*%
X219200000Y-102200000D02*
X219200000Y-104200000D01*
X219200000Y-104200000D02*
X219200000Y-105200000D01*
X219942463Y-104200000D02*
X219200000Y-104200000D01*
X220800000Y-102200000D02*
X220800000Y-103342463D01*
X220800000Y-103342463D02*
X219942463Y-104200000D01*
%TO.N,GND*%
X220000000Y-102200000D02*
X220000000Y-103400000D01*
%TO.N,/DIST_GPIO*%
X222800000Y-99800000D02*
X222800000Y-99600000D01*
X219525000Y-98275000D02*
X222075000Y-98275000D01*
X222800000Y-99000000D02*
X222800000Y-99800000D01*
X222075000Y-98275000D02*
X222800000Y-99000000D01*
X219200000Y-98600000D02*
X219525000Y-98275000D01*
X219200000Y-99000000D02*
X219200000Y-98600000D01*
X219200000Y-99000000D02*
X219200000Y-97655000D01*
X219200000Y-97655000D02*
X215650000Y-94105000D01*
%TO.N,Net-(U6-XSHUT)*%
X221600000Y-99000000D02*
X221800000Y-98800000D01*
X220800000Y-99000000D02*
X221600000Y-99000000D01*
%TO.N,GND*%
X220800000Y-99800000D02*
X220400000Y-99800000D01*
X220400000Y-99800000D02*
X220000000Y-99400000D01*
X220000000Y-99400000D02*
X220000000Y-99000000D01*
X220800000Y-101400000D02*
X220800000Y-99800000D01*
X220000000Y-102200000D02*
X220000000Y-101800000D01*
X220000000Y-101800000D02*
X220400000Y-101400000D01*
X220400000Y-101400000D02*
X220800000Y-101400000D01*
X179564000Y-68274900D02*
X179564000Y-72764000D01*
X179564000Y-72764000D02*
X181800000Y-75000000D01*
%TO.N,/M2_PWM_A*%
X185400000Y-94000000D02*
X184000000Y-94000000D01*
X184000000Y-94000000D02*
X179800000Y-98200000D01*
X179800000Y-98200000D02*
X179800000Y-99950000D01*
X179800000Y-99950000D02*
X175150000Y-104600000D01*
X175150000Y-104600000D02*
X172200000Y-104600000D01*
%TO.N,GND*%
X181600000Y-91000000D02*
X188162500Y-91000000D01*
X193563959Y-97563959D02*
X192475000Y-96475000D01*
X193800000Y-98200000D02*
X193800000Y-97816490D01*
X186200000Y-95200000D02*
X191087500Y-95200000D01*
X193800000Y-101400000D02*
X193800000Y-98200000D01*
X192475000Y-96475000D02*
X192362500Y-96475000D01*
X185200000Y-96200000D02*
X186200000Y-95200000D01*
X190400000Y-85600000D02*
X193000000Y-85600000D01*
X193000000Y-85600000D02*
X196400000Y-89000000D01*
X193779724Y-98220276D02*
X193800000Y-98200000D01*
X209270878Y-96729122D02*
X208000000Y-98000000D01*
X192620276Y-98220276D02*
X193779724Y-98220276D01*
X188162500Y-91000000D02*
X191087500Y-93925000D01*
X192800000Y-102400000D02*
X193800000Y-101400000D01*
X193563959Y-97580449D02*
X193563959Y-97563959D01*
X192000000Y-97600000D02*
X192620276Y-98220276D01*
X196260000Y-110540000D02*
X192600000Y-114200000D01*
X196260000Y-104600000D02*
X196260000Y-110540000D01*
X193800000Y-97816490D02*
X193563959Y-97580449D01*
%TO.N,/SPI1_CSn*%
X189810932Y-98689480D02*
X187300412Y-101200000D01*
X187300412Y-101200000D02*
X185400000Y-101200000D01*
X189810932Y-96682651D02*
X189810932Y-98689480D01*
%TO.N,/QSPI_SD1*%
X183800000Y-88200000D02*
X185800000Y-90200000D01*
X185800000Y-90200000D02*
X186400000Y-90200000D01*
%TO.N,Net-(U1-XIN)*%
X189800000Y-99606125D02*
X189718375Y-99524500D01*
X189800000Y-104000000D02*
X189800000Y-99606125D01*
X190400000Y-104600000D02*
X189800000Y-104000000D01*
%TO.N,/WiFi_TX{slash}GPIO1*%
X198200000Y-109000000D02*
X200800000Y-106400000D01*
%TO.N,/M1_PWM_A*%
X181075000Y-84275000D02*
X181075000Y-91275000D01*
X181075000Y-91275000D02*
X182200000Y-92400000D01*
X182200000Y-92400000D02*
X187200000Y-92400000D01*
X187200000Y-92400000D02*
X187600000Y-92800000D01*
X172200000Y-75400000D02*
X181075000Y-84275000D01*
D23*
%TO.N,/M1_PWM_B*%
X179800000Y-91800000D02*
X179800000Y-88080000D01*
X181000000Y-93000000D02*
X179800000Y-91800000D01*
X185400000Y-93000000D02*
X181000000Y-93000000D01*
X179800000Y-88080000D02*
X172200000Y-80480000D01*
D22*
%TO.N,/M2_PWM_B*%
X186270878Y-93999500D02*
X186270878Y-94129122D01*
X182400000Y-99480000D02*
X172200000Y-109680000D01*
X186270878Y-93999500D02*
X186471378Y-94200000D01*
X182400000Y-98000000D02*
X182400000Y-99480000D01*
X186471378Y-94200000D02*
X186600000Y-94200000D01*
X186270878Y-94129122D02*
X182400000Y-98000000D01*
%TO.N,/WiFi_RX{slash}GPIO3*%
X197600000Y-101545008D02*
X197600000Y-111580000D01*
X197327496Y-101272504D02*
X197600000Y-101545008D01*
X197600000Y-111580000D02*
X200220000Y-114200000D01*
%TO.N,/PWM7A*%
X190687000Y-101887000D02*
X190687000Y-97491526D01*
X194457537Y-103400000D02*
X192200000Y-103400000D01*
X192200000Y-103400000D02*
X190687000Y-101887000D01*
X213110000Y-101725000D02*
X212132504Y-100747504D01*
X212132504Y-100747504D02*
X197110033Y-100747504D01*
X197110033Y-100747504D02*
X194457537Y-103400000D01*
%TO.N,Net-(U1-RUN)*%
X194800000Y-97600000D02*
X196400000Y-99200000D01*
X196400000Y-99200000D02*
X197200000Y-99200000D01*
%TO.N,/PWM7B*%
X194451945Y-97000000D02*
X195742463Y-97000000D01*
X197927463Y-99185000D02*
X213110000Y-99185000D01*
X194088959Y-97362986D02*
X194451945Y-97000000D01*
X195742463Y-97000000D02*
X197927463Y-99185000D01*
%TO.N,+3V3*%
X189220000Y-96000000D02*
X186220000Y-99000000D01*
D25*
X197600000Y-91600000D02*
X197400000Y-91400000D01*
D22*
X189870037Y-96000000D02*
X189220000Y-96000000D01*
X183000000Y-102220000D02*
X186220000Y-99000000D01*
X183000000Y-107000000D02*
X183000000Y-102220000D01*
X192258244Y-97000000D02*
X190870037Y-97000000D01*
X192953520Y-97695276D02*
X192258244Y-97000000D01*
D25*
X203800000Y-91600000D02*
X197600000Y-91600000D01*
D22*
X190870037Y-97000000D02*
X189870037Y-96000000D01*
D26*
%TO.N,Net-(J14-Pin_2)*%
X195426000Y-69874900D02*
X197264000Y-69874900D01*
X197264000Y-69874900D02*
X197264000Y-79767900D01*
X194095000Y-68543900D02*
X195426000Y-69874900D01*
X197264000Y-79767900D02*
X201720000Y-84223900D01*
D24*
%TO.N,Net-(J5-Pin_6)*%
X204460000Y-115540000D02*
X198880000Y-115540000D01*
X206800000Y-113200000D02*
X204460000Y-115540000D01*
X198880000Y-115540000D02*
X197680000Y-116740000D01*
%TD*%
M02*
