%TF.GenerationSoftware,KiCad,Pcbnew,7.0.1*%
%TF.CreationDate,2023-05-22T19:39:57-04:00*%
%TF.ProjectId,Drone_PCB,44726f6e-655f-4504-9342-2e6b69636164,rev?*%
%TF.SameCoordinates,Original*%
%TF.FileFunction,Paste,Top*%
%TF.FilePolarity,Positive*%
%FSLAX46Y46*%
G04 Gerber Fmt 4.6, Leading zero omitted, Abs format (unit mm)*
G04 Created by KiCad (PCBNEW 7.0.1) date 2023-05-22 19:39:57*
%MOMM*%
%LPD*%
G01*
G04 APERTURE LIST*
G04 Aperture macros list*
%AMRoundRect*
0 Rectangle with rounded corners*
0 $1 Rounding radius*
0 $2 $3 $4 $5 $6 $7 $8 $9 X,Y pos of 4 corners*
0 Add a 4 corners polygon primitive as box body*
4,1,4,$2,$3,$4,$5,$6,$7,$8,$9,$2,$3,0*
0 Add four circle primitives for the rounded corners*
1,1,$1+$1,$2,$3*
1,1,$1+$1,$4,$5*
1,1,$1+$1,$6,$7*
1,1,$1+$1,$8,$9*
0 Add four rect primitives between the rounded corners*
20,1,$1+$1,$2,$3,$4,$5,0*
20,1,$1+$1,$4,$5,$6,$7,0*
20,1,$1+$1,$6,$7,$8,$9,0*
20,1,$1+$1,$8,$9,$2,$3,0*%
G04 Aperture macros list end*
%ADD10R,0.558800X0.711200*%
%ADD11RoundRect,0.250000X-0.292217X-0.292217X0.292217X-0.292217X0.292217X0.292217X-0.292217X0.292217X0*%
%ADD12RoundRect,0.050000X-0.387500X-0.050000X0.387500X-0.050000X0.387500X0.050000X-0.387500X0.050000X0*%
%ADD13RoundRect,0.050000X-0.050000X-0.387500X0.050000X-0.387500X0.050000X0.387500X-0.050000X0.387500X0*%
%ADD14R,0.711200X0.558800*%
%ADD15R,0.762000X0.990600*%
%ADD16R,0.630000X0.560000*%
%ADD17R,0.900000X0.700000*%
%ADD18R,0.600000X0.590000*%
%ADD19RoundRect,0.075600X0.194400X-0.224400X0.194400X0.224400X-0.194400X0.224400X-0.194400X-0.224400X0*%
%ADD20R,0.482600X1.397000*%
%ADD21R,0.558800X1.397000*%
%ADD22R,0.609600X1.549400*%
%ADD23R,1.701800X0.990600*%
%ADD24R,0.540000X0.600000*%
%ADD25R,0.800000X1.500000*%
%ADD26R,1.000000X0.950000*%
%ADD27R,1.300000X1.400000*%
%ADD28R,1.400000X1.900000*%
%ADD29RoundRect,0.006600X0.103400X-0.313400X0.103400X0.313400X-0.103400X0.313400X-0.103400X-0.313400X0*%
%ADD30RoundRect,0.006600X0.313400X0.103400X-0.313400X0.103400X-0.313400X-0.103400X0.313400X-0.103400X0*%
%ADD31RoundRect,0.006600X-0.103400X0.313400X-0.103400X-0.313400X0.103400X-0.313400X0.103400X0.313400X0*%
%ADD32RoundRect,0.006600X-0.313400X-0.103400X0.313400X-0.103400X0.313400X0.103400X-0.313400X0.103400X0*%
%ADD33R,5.600000X2.100000*%
%ADD34R,2.000000X1.500000*%
%ADD35R,2.000000X3.800000*%
%ADD36R,0.400000X1.350000*%
%ADD37R,1.600000X1.400000*%
%ADD38R,1.900000X1.900000*%
%ADD39R,1.524000X0.533400*%
G04 APERTURE END LIST*
%TO.C,U4*%
G36*
X196714400Y-77304800D02*
G01*
X196079400Y-77939800D01*
X196079400Y-78295400D01*
X195520600Y-78295400D01*
X195520600Y-77939800D01*
X194885600Y-77304800D01*
X194885600Y-75044200D01*
X196714400Y-75044200D01*
X196714400Y-77304800D01*
G37*
%TO.C,U7*%
G36*
X190889600Y-82075400D02*
G01*
X187638400Y-82075400D01*
X187638400Y-80526000D01*
X190889600Y-80526000D01*
X190889600Y-82075400D01*
G37*
%TD*%
D10*
%TO.C,C13*%
X194000000Y-90120700D03*
X194000000Y-89079300D03*
%TD*%
D11*
%TO.C,U1*%
X191725000Y-94562500D03*
X191725000Y-95837500D03*
X193000000Y-94562500D03*
X193000000Y-95837500D03*
D12*
X188925000Y-92600000D03*
X188925000Y-93000000D03*
X188925000Y-93400000D03*
X188925000Y-93800000D03*
X188925000Y-94200000D03*
X188925000Y-94600000D03*
X188925000Y-95000000D03*
X188925000Y-95400000D03*
X188925000Y-95800000D03*
X188925000Y-96200000D03*
X188925000Y-96600000D03*
X188925000Y-97000000D03*
X188925000Y-97400000D03*
X188925000Y-97800000D03*
D13*
X189762500Y-98637500D03*
X190162500Y-98637500D03*
X190562500Y-98637500D03*
X190962500Y-98637500D03*
X191362500Y-98637500D03*
X191762500Y-98637500D03*
X192162500Y-98637500D03*
X192562500Y-98637500D03*
X192962500Y-98637500D03*
X193362500Y-98637500D03*
X193762500Y-98637500D03*
X194162500Y-98637500D03*
X194562500Y-98637500D03*
X194962500Y-98637500D03*
D12*
X195800000Y-97800000D03*
X195800000Y-97400000D03*
X195800000Y-97000000D03*
X195800000Y-96600000D03*
X195800000Y-96200000D03*
X195800000Y-95800000D03*
X195800000Y-95400000D03*
X195800000Y-95000000D03*
X195800000Y-94600000D03*
X195800000Y-94200000D03*
X195800000Y-93800000D03*
X195800000Y-93400000D03*
X195800000Y-93000000D03*
X195800000Y-92600000D03*
D13*
X194962500Y-91762500D03*
X194562500Y-91762500D03*
X194162500Y-91762500D03*
X193762500Y-91762500D03*
X193362500Y-91762500D03*
X192962500Y-91762500D03*
X192562500Y-91762500D03*
X192162500Y-91762500D03*
X191762500Y-91762500D03*
X191362500Y-91762500D03*
X190962500Y-91762500D03*
X190562500Y-91762500D03*
X190162500Y-91762500D03*
X189762500Y-91762500D03*
%TD*%
D10*
%TO.C,C25*%
X194295000Y-81714600D03*
X194295000Y-80673200D03*
%TD*%
D14*
%TO.C,C19*%
X186279300Y-96200000D03*
X187320700Y-96200000D03*
%TD*%
D15*
%TO.C,C11*%
X186752600Y-72800000D03*
X185000000Y-72800000D03*
%TD*%
D16*
%TO.C,C24*%
X220000000Y-104200000D03*
X220000000Y-105070000D03*
%TD*%
D17*
%TO.C,R3*%
X175000000Y-75600000D03*
X175000000Y-76900000D03*
%TD*%
D15*
%TO.C,C10*%
X181123700Y-101400000D03*
X182876300Y-101400000D03*
%TD*%
D18*
%TO.C,R2*%
X193400000Y-86980000D03*
X193400000Y-87820000D03*
%TD*%
D19*
%TO.C,C4*%
X190370000Y-105600000D03*
X191230000Y-105600000D03*
%TD*%
D14*
%TO.C,C22*%
X196679300Y-90400000D03*
X197720700Y-90400000D03*
%TD*%
D20*
%TO.C,U4*%
X194305000Y-78993900D03*
D21*
X195800000Y-78993900D03*
D20*
X197295000Y-78993900D03*
%TD*%
D19*
%TO.C,C5*%
X190170000Y-103000000D03*
X191030000Y-103000000D03*
%TD*%
D22*
%TO.C,U7*%
X191562700Y-74849100D03*
X189264000Y-74849100D03*
X186965300Y-74849100D03*
%TD*%
D23*
%TO.C,SW4*%
X218942500Y-93100000D03*
X224657500Y-93100000D03*
X218942500Y-96100000D03*
X224657500Y-96100000D03*
%TD*%
D24*
%TO.C,R12*%
X222800000Y-98800000D03*
X223664000Y-98800000D03*
%TD*%
D25*
%TO.C,J1*%
X179800000Y-105400000D03*
X180900000Y-105800000D03*
X182000000Y-105400000D03*
X183100000Y-105200000D03*
X184200000Y-105400000D03*
X185300000Y-105200000D03*
X186400000Y-105400000D03*
X187500000Y-105400000D03*
D26*
X185300000Y-116485000D03*
D27*
X186690000Y-116260000D03*
X180990000Y-116260000D03*
D28*
X175140000Y-102110000D03*
X188290000Y-103110000D03*
%TD*%
D29*
%TO.C,U3*%
X201800000Y-95545000D03*
X202200000Y-95545000D03*
X202600000Y-95545000D03*
X203000000Y-95545000D03*
X203400000Y-95545000D03*
X203800000Y-95545000D03*
D30*
X204345000Y-95000000D03*
X204345000Y-94600000D03*
X204345000Y-94200000D03*
X204345000Y-93800000D03*
X204345000Y-93400000D03*
X204345000Y-93000000D03*
D31*
X203800000Y-92455000D03*
X203400000Y-92455000D03*
X203000000Y-92455000D03*
X202600000Y-92455000D03*
X202200000Y-92455000D03*
X201800000Y-92455000D03*
D32*
X201255000Y-93000000D03*
X201255000Y-93400000D03*
X201255000Y-93800000D03*
X201255000Y-94200000D03*
X201255000Y-94600000D03*
X201255000Y-95000000D03*
%TD*%
D33*
%TO.C,Y1*%
X192450000Y-109400000D03*
X201950000Y-109400000D03*
%TD*%
D14*
%TO.C,C7*%
X200920700Y-88800000D03*
X199879300Y-88800000D03*
%TD*%
D23*
%TO.C,SW3*%
X208542500Y-111700000D03*
X214257500Y-111700000D03*
X208542500Y-114700000D03*
X214257500Y-114700000D03*
%TD*%
D14*
%TO.C,C17*%
X198320700Y-96200000D03*
X197279300Y-96200000D03*
%TD*%
D10*
%TO.C,C26*%
X197295000Y-81714600D03*
X197295000Y-80673200D03*
%TD*%
D14*
%TO.C,C3*%
X187879300Y-85400000D03*
X188920700Y-85400000D03*
%TD*%
D17*
%TO.C,R4*%
X190600000Y-100000000D03*
X190600000Y-101300000D03*
%TD*%
D14*
%TO.C,C8*%
X208320700Y-93400000D03*
X207279300Y-93400000D03*
%TD*%
D24*
%TO.C,R11*%
X222768000Y-100800000D03*
X223632000Y-100800000D03*
%TD*%
D10*
%TO.C,C9*%
X205800000Y-96720700D03*
X205800000Y-95679300D03*
%TD*%
D15*
%TO.C,C2*%
X186200000Y-82200000D03*
X184447400Y-82200000D03*
%TD*%
D10*
%TO.C,C16*%
X189800000Y-87720700D03*
X189800000Y-86679300D03*
%TD*%
D18*
%TO.C,R1*%
X192200000Y-86980000D03*
X192200000Y-87820000D03*
%TD*%
D10*
%TO.C,C15*%
X193400000Y-100279300D03*
X193400000Y-101320700D03*
%TD*%
D34*
%TO.C,U2*%
X183950000Y-80100000D03*
X183950000Y-77800000D03*
X183950000Y-75500000D03*
D35*
X177650000Y-77800000D03*
%TD*%
D10*
%TO.C,C6*%
X218400000Y-104079300D03*
X218400000Y-105120700D03*
%TD*%
D23*
%TO.C,SW1*%
X177057500Y-72700000D03*
X171342500Y-72700000D03*
X177057500Y-69700000D03*
X171342500Y-69700000D03*
%TD*%
D36*
%TO.C,J2*%
X184164000Y-70949900D03*
X183514000Y-70949900D03*
X182864000Y-70949900D03*
X182214000Y-70949900D03*
X181564000Y-70949900D03*
D37*
X186064000Y-70724900D03*
X179664000Y-70724900D03*
D38*
X181664000Y-68274900D03*
X184064000Y-68274900D03*
%TD*%
D17*
%TO.C,R10*%
X205400000Y-116450000D03*
X205400000Y-115150000D03*
%TD*%
D14*
%TO.C,C21*%
X197558600Y-92200000D03*
X198600000Y-92200000D03*
%TD*%
D23*
%TO.C,SW5*%
X221400000Y-87600000D03*
X227115000Y-87600000D03*
X221400000Y-90600000D03*
X227115000Y-90600000D03*
%TD*%
D10*
%TO.C,C20*%
X191000000Y-87720700D03*
X191000000Y-86679300D03*
%TD*%
D14*
%TO.C,C18*%
X186279300Y-91800000D03*
X187320700Y-91800000D03*
%TD*%
D10*
%TO.C,C23*%
X192200000Y-100279300D03*
X192200000Y-101320700D03*
%TD*%
D39*
%TO.C,U5*%
X178755100Y-84695000D03*
X178755100Y-85965000D03*
X178755100Y-87235000D03*
X178755100Y-88505000D03*
X186044900Y-88505000D03*
X186044900Y-87235000D03*
X186044900Y-85965000D03*
X186044900Y-84695000D03*
%TD*%
D17*
%TO.C,R9*%
X203400000Y-116450000D03*
X203400000Y-115150000D03*
%TD*%
D15*
%TO.C,C1*%
X183476300Y-73200000D03*
X181723700Y-73200000D03*
%TD*%
%TO.C,C12*%
X192847400Y-73800000D03*
X194600000Y-73800000D03*
%TD*%
D23*
%TO.C,SW2*%
X209257500Y-102300000D03*
X203542500Y-102300000D03*
X209257500Y-99300000D03*
X203542500Y-99300000D03*
%TD*%
D10*
%TO.C,C14*%
X195200000Y-90120700D03*
X195200000Y-89079300D03*
%TD*%
M02*
