%TF.GenerationSoftware,KiCad,Pcbnew,7.0.1*%
%TF.CreationDate,2023-05-22T19:39:57-04:00*%
%TF.ProjectId,Drone_PCB,44726f6e-655f-4504-9342-2e6b69636164,rev?*%
%TF.SameCoordinates,Original*%
%TF.FileFunction,Copper,L1,Top*%
%TF.FilePolarity,Positive*%
%FSLAX46Y46*%
G04 Gerber Fmt 4.6, Leading zero omitted, Abs format (unit mm)*
G04 Created by KiCad (PCBNEW 7.0.1) date 2023-05-22 19:39:57*
%MOMM*%
%LPD*%
G01*
G04 APERTURE LIST*
G04 Aperture macros list*
%AMRoundRect*
0 Rectangle with rounded corners*
0 $1 Rounding radius*
0 $2 $3 $4 $5 $6 $7 $8 $9 X,Y pos of 4 corners*
0 Add a 4 corners polygon primitive as box body*
4,1,4,$2,$3,$4,$5,$6,$7,$8,$9,$2,$3,0*
0 Add four circle primitives for the rounded corners*
1,1,$1+$1,$2,$3*
1,1,$1+$1,$4,$5*
1,1,$1+$1,$6,$7*
1,1,$1+$1,$8,$9*
0 Add four rect primitives between the rounded corners*
20,1,$1+$1,$2,$3,$4,$5,0*
20,1,$1+$1,$4,$5,$6,$7,0*
20,1,$1+$1,$6,$7,$8,$9,0*
20,1,$1+$1,$8,$9,$2,$3,0*%
G04 Aperture macros list end*
%TA.AperFunction,ComponentPad*%
%ADD10RoundRect,1.500000X1.500000X1.500000X-1.500000X1.500000X-1.500000X-1.500000X1.500000X-1.500000X0*%
%TD*%
%TA.AperFunction,ComponentPad*%
%ADD11C,6.000000*%
%TD*%
%TA.AperFunction,ComponentPad*%
%ADD12R,1.438000X1.438000*%
%TD*%
%TA.AperFunction,ComponentPad*%
%ADD13C,1.438000*%
%TD*%
%TA.AperFunction,ComponentPad*%
%ADD14C,2.265000*%
%TD*%
%TA.AperFunction,SMDPad,CuDef*%
%ADD15R,0.558800X0.711200*%
%TD*%
%TA.AperFunction,ComponentPad*%
%ADD16R,1.700000X1.700000*%
%TD*%
%TA.AperFunction,ComponentPad*%
%ADD17O,1.700000X1.700000*%
%TD*%
%TA.AperFunction,SMDPad,CuDef*%
%ADD18RoundRect,0.050000X-0.387500X-0.050000X0.387500X-0.050000X0.387500X0.050000X-0.387500X0.050000X0*%
%TD*%
%TA.AperFunction,SMDPad,CuDef*%
%ADD19RoundRect,0.050000X-0.050000X-0.387500X0.050000X-0.387500X0.050000X0.387500X-0.050000X0.387500X0*%
%TD*%
%TA.AperFunction,ComponentPad*%
%ADD20C,0.600000*%
%TD*%
%TA.AperFunction,SMDPad,CuDef*%
%ADD21RoundRect,0.144000X-1.456000X-1.456000X1.456000X-1.456000X1.456000X1.456000X-1.456000X1.456000X0*%
%TD*%
%TA.AperFunction,SMDPad,CuDef*%
%ADD22R,0.711200X0.558800*%
%TD*%
%TA.AperFunction,SMDPad,CuDef*%
%ADD23R,0.762000X0.990600*%
%TD*%
%TA.AperFunction,SMDPad,CuDef*%
%ADD24R,0.630000X0.560000*%
%TD*%
%TA.AperFunction,SMDPad,CuDef*%
%ADD25R,0.900000X0.700000*%
%TD*%
%TA.AperFunction,SMDPad,CuDef*%
%ADD26R,0.600000X0.590000*%
%TD*%
%TA.AperFunction,SMDPad,CuDef*%
%ADD27RoundRect,0.075600X0.194400X-0.224400X0.194400X0.224400X-0.194400X0.224400X-0.194400X-0.224400X0*%
%TD*%
%TA.AperFunction,SMDPad,CuDef*%
%ADD28R,0.482600X1.397000*%
%TD*%
%TA.AperFunction,SMDPad,CuDef*%
%ADD29R,0.558800X1.397000*%
%TD*%
%TA.AperFunction,SMDPad,CuDef*%
%ADD30R,0.609600X1.549400*%
%TD*%
%TA.AperFunction,SMDPad,CuDef*%
%ADD31R,1.701800X0.990600*%
%TD*%
%TA.AperFunction,SMDPad,CuDef*%
%ADD32R,0.540000X0.600000*%
%TD*%
%TA.AperFunction,SMDPad,CuDef*%
%ADD33R,0.800000X1.500000*%
%TD*%
%TA.AperFunction,SMDPad,CuDef*%
%ADD34R,1.000000X0.950000*%
%TD*%
%TA.AperFunction,SMDPad,CuDef*%
%ADD35R,1.300000X1.400000*%
%TD*%
%TA.AperFunction,SMDPad,CuDef*%
%ADD36R,1.400000X1.900000*%
%TD*%
%TA.AperFunction,SMDPad,CuDef*%
%ADD37RoundRect,0.006600X0.103400X-0.313400X0.103400X0.313400X-0.103400X0.313400X-0.103400X-0.313400X0*%
%TD*%
%TA.AperFunction,SMDPad,CuDef*%
%ADD38RoundRect,0.006600X0.313400X0.103400X-0.313400X0.103400X-0.313400X-0.103400X0.313400X-0.103400X0*%
%TD*%
%TA.AperFunction,SMDPad,CuDef*%
%ADD39RoundRect,0.006600X-0.103400X0.313400X-0.103400X-0.313400X0.103400X-0.313400X0.103400X0.313400X0*%
%TD*%
%TA.AperFunction,SMDPad,CuDef*%
%ADD40RoundRect,0.006600X-0.313400X-0.103400X0.313400X-0.103400X0.313400X0.103400X-0.313400X0.103400X0*%
%TD*%
%TA.AperFunction,SMDPad,CuDef*%
%ADD41R,5.600000X2.100000*%
%TD*%
%TA.AperFunction,SMDPad,CuDef*%
%ADD42R,2.000000X1.500000*%
%TD*%
%TA.AperFunction,SMDPad,CuDef*%
%ADD43R,2.000000X3.800000*%
%TD*%
%TA.AperFunction,SMDPad,CuDef*%
%ADD44R,0.400000X1.350000*%
%TD*%
%TA.AperFunction,SMDPad,CuDef*%
%ADD45R,1.600000X1.400000*%
%TD*%
%TA.AperFunction,SMDPad,CuDef*%
%ADD46R,1.900000X1.900000*%
%TD*%
%TA.AperFunction,ComponentPad*%
%ADD47O,0.900000X1.800000*%
%TD*%
%TA.AperFunction,SMDPad,CuDef*%
%ADD48R,1.524000X0.533400*%
%TD*%
%TA.AperFunction,ViaPad*%
%ADD49C,0.600000*%
%TD*%
%TA.AperFunction,Conductor*%
%ADD50C,0.150000*%
%TD*%
%TA.AperFunction,Conductor*%
%ADD51C,0.400000*%
%TD*%
%TA.AperFunction,Conductor*%
%ADD52C,0.200000*%
%TD*%
%TA.AperFunction,Conductor*%
%ADD53C,0.300000*%
%TD*%
%TA.AperFunction,Conductor*%
%ADD54C,0.600000*%
%TD*%
%TA.AperFunction,Conductor*%
%ADD55C,1.000000*%
%TD*%
G04 APERTURE END LIST*
%TA.AperFunction,EtchedComponent*%
%TO.C,U4*%
G36*
X196739800Y-77330200D02*
G01*
X196079400Y-77965200D01*
X196079400Y-78295400D01*
X195520600Y-78295400D01*
X195520600Y-77939800D01*
X194860200Y-77330200D01*
X194860200Y-74891800D01*
X196739800Y-74891800D01*
X196739800Y-77330200D01*
G37*
%TD.AperFunction*%
%TA.AperFunction,EtchedComponent*%
%TO.C,U7*%
G36*
X190889600Y-82075400D02*
G01*
X187638400Y-82075400D01*
X187638400Y-80526000D01*
X190889600Y-80526000D01*
X190889600Y-82075400D01*
G37*
%TD.AperFunction*%
%TD*%
D10*
%TO.P,J13,1,Pin_1*%
%TO.N,Net-(J13-Pin_1)*%
X213295000Y-73393900D03*
D11*
%TO.P,J13,2,Pin_2*%
%TO.N,Net-(J13-Pin_2)*%
X206095000Y-73393900D03*
%TD*%
D12*
%TO.P,S1,1*%
%TO.N,Net-(J13-Pin_1)*%
X196095000Y-71043900D03*
D13*
%TO.P,S1,2*%
%TO.N,GND*%
X194095000Y-71043900D03*
%TO.P,S1,3*%
%TO.N,unconnected-(S1-Pad3)*%
X192095000Y-71043900D03*
%TO.P,S1,4*%
%TO.N,Net-(J13-Pin_2)*%
X196095000Y-68543900D03*
%TO.P,S1,5*%
%TO.N,Net-(J14-Pin_2)*%
X194095000Y-68543900D03*
%TO.P,S1,6*%
%TO.N,unconnected-(S1-Pad6)*%
X192095000Y-68543900D03*
D14*
%TO.P,S1,S1*%
%TO.N,N/C*%
X199095000Y-69793900D03*
%TO.P,S1,S2*%
X189095000Y-69793900D03*
%TD*%
D15*
%TO.P,C13,1*%
%TO.N,+1V1*%
X194000000Y-90120700D03*
%TO.P,C13,2*%
%TO.N,GND*%
X194000000Y-89079300D03*
%TD*%
D16*
%TO.P,J11,1*%
%TO.N,/PWM7A*%
X213110000Y-101725000D03*
D17*
%TO.P,J11,2*%
%TO.N,/IMU_AD0*%
X215650000Y-101725000D03*
%TO.P,J11,3*%
%TO.N,/PWM7B*%
X213110000Y-99185000D03*
%TO.P,J11,4*%
%TO.N,/IMU_FSYNC*%
X215650000Y-99185000D03*
%TO.P,J11,5*%
%TO.N,/ADC0{slash}PWM5A*%
X213110000Y-96645000D03*
%TO.P,J11,6*%
%TO.N,/IMU_INT*%
X215650000Y-96645000D03*
%TO.P,J11,7*%
%TO.N,/ADC1{slash}PWM5B*%
X213110000Y-94105000D03*
%TO.P,J11,8*%
%TO.N,/DIST_GPIO*%
X215650000Y-94105000D03*
%TO.P,J11,9*%
%TO.N,/ADC2{slash}PWM6A*%
X213110000Y-91565000D03*
%TO.P,J11,10*%
%TO.N,Net-(J11-Pad10)*%
X215650000Y-91565000D03*
%TO.P,J11,11*%
%TO.N,/ADC3{slash}PWM6B*%
X213110000Y-89025000D03*
%TO.P,J11,12*%
%TO.N,Net-(J11-Pad12)*%
X215650000Y-89025000D03*
%TD*%
D16*
%TO.P,J5,1,Pin_1*%
%TO.N,GND*%
X192600000Y-114200000D03*
D17*
%TO.P,J5,2,Pin_2*%
%TO.N,/WiFi_TX{slash}GPIO1*%
X192600000Y-116740000D03*
%TO.P,J5,3,Pin_3*%
%TO.N,unconnected-(J5-Pin_3-Pad3)*%
X195140000Y-114200000D03*
%TO.P,J5,4,Pin_4*%
%TO.N,Net-(J5-Pin_4)*%
X195140000Y-116740000D03*
%TO.P,J5,5,Pin_5*%
X197680000Y-114200000D03*
%TO.P,J5,6,Pin_6*%
%TO.N,Net-(J5-Pin_6)*%
X197680000Y-116740000D03*
%TO.P,J5,7,Pin_7*%
%TO.N,/WiFi_RX{slash}GPIO3*%
X200220000Y-114200000D03*
%TO.P,J5,8,Pin_8*%
%TO.N,+3V3*%
X200220000Y-116740000D03*
%TD*%
D18*
%TO.P,U1,1,IOVDD*%
%TO.N,+3V3*%
X188925000Y-92600000D03*
%TO.P,U1,2,GPIO0*%
%TO.N,/M1_PWM_A*%
X188925000Y-93000000D03*
%TO.P,U1,3,GPIO1*%
%TO.N,/M1_PWM_B*%
X188925000Y-93400000D03*
%TO.P,U1,4,GPIO2*%
%TO.N,/M2_PWM_A*%
X188925000Y-93800000D03*
%TO.P,U1,5,GPIO3*%
%TO.N,/M2_PWM_B*%
X188925000Y-94200000D03*
%TO.P,U1,6,GPIO4*%
%TO.N,/SPI0_RX*%
X188925000Y-94600000D03*
%TO.P,U1,7,GPIO5*%
%TO.N,/SPI0_CSn*%
X188925000Y-95000000D03*
%TO.P,U1,8,GPIO6*%
%TO.N,/SPI0_SCK*%
X188925000Y-95400000D03*
%TO.P,U1,9,GPIO7*%
%TO.N,/SPI0_TX*%
X188925000Y-95800000D03*
%TO.P,U1,10,IOVDD*%
%TO.N,+3V3*%
X188925000Y-96200000D03*
%TO.P,U1,11,GPIO8*%
%TO.N,/UART1_TX*%
X188925000Y-96600000D03*
%TO.P,U1,12,GPIO9*%
%TO.N,/UART1_RX*%
X188925000Y-97000000D03*
%TO.P,U1,13,GPIO10*%
%TO.N,/SPI1_SCK*%
X188925000Y-97400000D03*
%TO.P,U1,14,GPIO11*%
%TO.N,/SPI1_TX*%
X188925000Y-97800000D03*
D19*
%TO.P,U1,15,GPIO12*%
%TO.N,/SPI1_RX*%
X189762500Y-98637500D03*
%TO.P,U1,16,GPIO13*%
%TO.N,/SPI1_CSn*%
X190162500Y-98637500D03*
%TO.P,U1,17,GPIO14*%
%TO.N,/PWM7A*%
X190562500Y-98637500D03*
%TO.P,U1,18,GPIO15*%
%TO.N,/PWM7B*%
X190962500Y-98637500D03*
%TO.P,U1,19,TESTEN*%
%TO.N,GND*%
X191362500Y-98637500D03*
%TO.P,U1,20,XIN*%
%TO.N,Net-(U1-XIN)*%
X191762500Y-98637500D03*
%TO.P,U1,21,XOUT*%
%TO.N,Net-(U1-XOUT)*%
X192162500Y-98637500D03*
%TO.P,U1,22,IOVDD*%
%TO.N,+3V3*%
X192562500Y-98637500D03*
%TO.P,U1,23,DVDD*%
%TO.N,+1V1*%
X192962500Y-98637500D03*
%TO.P,U1,24,SWCLK*%
%TO.N,Net-(J3-Pin_1)*%
X193362500Y-98637500D03*
%TO.P,U1,25,SWD*%
%TO.N,Net-(J3-Pin_3)*%
X193762500Y-98637500D03*
%TO.P,U1,26,RUN*%
%TO.N,Net-(U1-RUN)*%
X194162500Y-98637500D03*
%TO.P,U1,27,GPIO16*%
%TO.N,/WiFi_TX{slash}GPIO1*%
X194562500Y-98637500D03*
%TO.P,U1,28,GPIO17*%
%TO.N,/WiFi_RX{slash}GPIO3*%
X194962500Y-98637500D03*
D18*
%TO.P,U1,29,GPIO18*%
%TO.N,/DIST_SDA*%
X195800000Y-97800000D03*
%TO.P,U1,30,GPIO19*%
%TO.N,/DIST_SCL*%
X195800000Y-97400000D03*
%TO.P,U1,31,GPIO20*%
%TO.N,/M3_PWM_A*%
X195800000Y-97000000D03*
%TO.P,U1,32,GPIO21*%
%TO.N,/M3_PWM_B*%
X195800000Y-96600000D03*
%TO.P,U1,33,IOVDD*%
%TO.N,+3V3*%
X195800000Y-96200000D03*
%TO.P,U1,34,GPIO22*%
%TO.N,/M4_PWM_A*%
X195800000Y-95800000D03*
%TO.P,U1,35,GPIO23*%
%TO.N,/M4_PWM_B*%
X195800000Y-95400000D03*
%TO.P,U1,36,GPIO24*%
%TO.N,/IMU_SDA*%
X195800000Y-95000000D03*
%TO.P,U1,37,GPIO25*%
%TO.N,/IMU_SCL*%
X195800000Y-94600000D03*
%TO.P,U1,38,GPIO26_ADC0*%
%TO.N,/ADC0{slash}PWM5A*%
X195800000Y-94200000D03*
%TO.P,U1,39,GPIO27_ADC1*%
%TO.N,/ADC1{slash}PWM5B*%
X195800000Y-93800000D03*
%TO.P,U1,40,GPIO28_ADC2*%
%TO.N,/ADC2{slash}PWM6A*%
X195800000Y-93400000D03*
%TO.P,U1,41,GPIO29_ADC3*%
%TO.N,/ADC3{slash}PWM6B*%
X195800000Y-93000000D03*
%TO.P,U1,42,IOVDD*%
%TO.N,+3V3*%
X195800000Y-92600000D03*
D19*
%TO.P,U1,43,ADC_AVDD*%
X194962500Y-91762500D03*
%TO.P,U1,44,VREG_IN*%
X194562500Y-91762500D03*
%TO.P,U1,45,VREG_VOUT*%
%TO.N,+1V1*%
X194162500Y-91762500D03*
%TO.P,U1,46,USB_DM*%
%TO.N,Net-(U1-USB_DM)*%
X193762500Y-91762500D03*
%TO.P,U1,47,USB_DP*%
%TO.N,Net-(U1-USB_DP)*%
X193362500Y-91762500D03*
%TO.P,U1,48,USB_VDD*%
%TO.N,+3V3*%
X192962500Y-91762500D03*
%TO.P,U1,49,IOVDD*%
X192562500Y-91762500D03*
%TO.P,U1,50,DVDD*%
%TO.N,+1V1*%
X192162500Y-91762500D03*
%TO.P,U1,51,QSPI_SD3*%
%TO.N,/QSPI_SD3*%
X191762500Y-91762500D03*
%TO.P,U1,52,QSPI_SCLK*%
%TO.N,/QSPI_SLCK*%
X191362500Y-91762500D03*
%TO.P,U1,53,QSPI_SD0*%
%TO.N,/QSPI_SD0*%
X190962500Y-91762500D03*
%TO.P,U1,54,QSPI_SD2*%
%TO.N,/QSPI_SD2*%
X190562500Y-91762500D03*
%TO.P,U1,55,QSPI_SD1*%
%TO.N,/QSPI_SD1*%
X190162500Y-91762500D03*
%TO.P,U1,56,QSPI_SS*%
%TO.N,/QSPI_SS*%
X189762500Y-91762500D03*
D20*
%TO.P,U1,57,GND*%
%TO.N,GND*%
X191087500Y-93925000D03*
X191087500Y-95200000D03*
X191087500Y-96475000D03*
X192362500Y-93925000D03*
X192362500Y-95200000D03*
D21*
X192362500Y-95200000D03*
D20*
X192362500Y-96475000D03*
X193637500Y-93925000D03*
X193637500Y-95200000D03*
X193637500Y-96475000D03*
%TD*%
D15*
%TO.P,C25,1*%
%TO.N,GND*%
X194295000Y-81714600D03*
%TO.P,C25,2*%
%TO.N,+5V*%
X194295000Y-80673200D03*
%TD*%
D22*
%TO.P,C19,1*%
%TO.N,GND*%
X186279300Y-96200000D03*
%TO.P,C19,2*%
%TO.N,+3V3*%
X187320700Y-96200000D03*
%TD*%
D16*
%TO.P,J7,1,Pin_1*%
%TO.N,/M2_PWM_A*%
X172200000Y-104600000D03*
D17*
%TO.P,J7,2,Pin_2*%
%TO.N,GND*%
X172200000Y-107140000D03*
%TO.P,J7,3,Pin_3*%
%TO.N,/M2_PWM_B*%
X172200000Y-109680000D03*
%TO.P,J7,4,Pin_4*%
%TO.N,GND*%
X172200000Y-112220000D03*
%TD*%
D23*
%TO.P,C11,1*%
%TO.N,GND*%
X186752600Y-72800000D03*
%TO.P,C11,2*%
%TO.N,+5V*%
X185000000Y-72800000D03*
%TD*%
D24*
%TO.P,C24,1*%
%TO.N,GND*%
X220000000Y-104200000D03*
%TO.P,C24,2*%
%TO.N,+3V3*%
X220000000Y-105070000D03*
%TD*%
D25*
%TO.P,R3,1*%
%TO.N,Net-(R3-Pad1)*%
X175000000Y-75600000D03*
%TO.P,R3,2*%
%TO.N,/QSPI_SS*%
X175000000Y-76900000D03*
%TD*%
D23*
%TO.P,C10,1*%
%TO.N,GND*%
X181123700Y-101400000D03*
%TO.P,C10,2*%
%TO.N,+3V3*%
X182876300Y-101400000D03*
%TD*%
D26*
%TO.P,R2,1*%
%TO.N,/USB-*%
X193400000Y-86980000D03*
%TO.P,R2,2*%
%TO.N,Net-(U1-USB_DM)*%
X193400000Y-87820000D03*
%TD*%
D27*
%TO.P,C4,1*%
%TO.N,Net-(U1-XIN)*%
X190370000Y-105600000D03*
%TO.P,C4,2*%
%TO.N,GND*%
X191230000Y-105600000D03*
%TD*%
D22*
%TO.P,C22,1*%
%TO.N,+3V3*%
X196679300Y-90400000D03*
%TO.P,C22,2*%
%TO.N,GND*%
X197720700Y-90400000D03*
%TD*%
D28*
%TO.P,U4,1,VO*%
%TO.N,+5V*%
X194305000Y-78993900D03*
D29*
%TO.P,U4,2,GND*%
%TO.N,GND*%
X195800000Y-78993900D03*
D28*
%TO.P,U4,3,VI*%
%TO.N,Net-(J14-Pin_2)*%
X197295000Y-78993900D03*
%TD*%
D27*
%TO.P,C5,1*%
%TO.N,Net-(C5-Pad1)*%
X190170000Y-103000000D03*
%TO.P,C5,2*%
%TO.N,GND*%
X191030000Y-103000000D03*
%TD*%
D30*
%TO.P,U7,1,GND*%
%TO.N,GND*%
X191562700Y-74849100D03*
%TO.P,U7,2,VO*%
%TO.N,+1V8*%
X189264000Y-74849100D03*
%TO.P,U7,3,VI*%
%TO.N,+5V*%
X186965300Y-74849100D03*
%TD*%
D16*
%TO.P,J9,1,Pin_1*%
%TO.N,/M4_PWM_A*%
X224400000Y-76800000D03*
D17*
%TO.P,J9,2,Pin_2*%
%TO.N,GND*%
X224400000Y-79340000D03*
%TO.P,J9,3,Pin_3*%
%TO.N,/M4_PWM_B*%
X224400000Y-81880000D03*
%TO.P,J9,4,Pin_4*%
%TO.N,GND*%
X224400000Y-84420000D03*
%TD*%
D31*
%TO.P,SW4,1*%
%TO.N,Net-(J11-Pad10)*%
X218942500Y-93100000D03*
%TO.P,SW4,2*%
%TO.N,GND*%
X224657500Y-93100000D03*
%TO.P,SW4,3*%
%TO.N,Net-(J11-Pad10)*%
X218942500Y-96100000D03*
%TO.P,SW4,4*%
%TO.N,GND*%
X224657500Y-96100000D03*
%TD*%
D32*
%TO.P,R12,1*%
%TO.N,Net-(U6-XSHUT)*%
X222800000Y-98800000D03*
%TO.P,R12,2*%
%TO.N,+3V3*%
X223664000Y-98800000D03*
%TD*%
D16*
%TO.P,J12,1,Pin_1*%
%TO.N,GND*%
X214820000Y-106800000D03*
D17*
%TO.P,J12,2,Pin_2*%
X212280000Y-106800000D03*
%TO.P,J12,3,Pin_3*%
X209740000Y-106800000D03*
%TO.P,J12,4,Pin_4*%
X207200000Y-106800000D03*
%TD*%
D33*
%TO.P,J1,1,DATA2*%
%TO.N,unconnected-(J1-DATA2-Pad1)*%
X179800000Y-105400000D03*
%TO.P,J1,2,DATA3/CD*%
%TO.N,/SPI1_CSn*%
X180900000Y-105800000D03*
%TO.P,J1,3,CMD*%
%TO.N,/SPI1_TX*%
X182000000Y-105400000D03*
%TO.P,J1,4,VDD*%
%TO.N,+3V3*%
X183100000Y-105200000D03*
%TO.P,J1,5,CLK*%
%TO.N,/SPI1_SCK*%
X184200000Y-105400000D03*
%TO.P,J1,6,VSS*%
%TO.N,GND*%
X185300000Y-105200000D03*
%TO.P,J1,7,DATA0*%
%TO.N,/SPI1_RX*%
X186400000Y-105400000D03*
%TO.P,J1,8,DATA1*%
%TO.N,unconnected-(J1-DATA1-Pad8)*%
X187500000Y-105400000D03*
D34*
%TO.P,J1,9,DETECH*%
%TO.N,unconnected-(J1-DETECH-Pad9)*%
X185300000Y-116485000D03*
D35*
%TO.P,J1,P1*%
%TO.N,N/C*%
X186690000Y-116260000D03*
%TO.P,J1,P2*%
X180990000Y-116260000D03*
D36*
%TO.P,J1,P3*%
X175140000Y-102110000D03*
%TO.P,J1,P4*%
X188290000Y-103110000D03*
%TD*%
D16*
%TO.P,J8,1,Pin_1*%
%TO.N,/M3_PWM_A*%
X224400000Y-103860000D03*
D17*
%TO.P,J8,2,Pin_2*%
%TO.N,GND*%
X224400000Y-106400000D03*
%TO.P,J8,3,Pin_3*%
%TO.N,/M3_PWM_B*%
X224400000Y-108940000D03*
%TO.P,J8,4,Pin_4*%
%TO.N,GND*%
X224400000Y-111480000D03*
%TD*%
D37*
%TO.P,U3,1,NC*%
%TO.N,unconnected-(U3-NC-Pad1)*%
X201800000Y-95545000D03*
%TO.P,U3,2,NC*%
%TO.N,unconnected-(U3-NC-Pad2)*%
X202200000Y-95545000D03*
%TO.P,U3,3,NC*%
%TO.N,unconnected-(U3-NC-Pad3)*%
X202600000Y-95545000D03*
%TO.P,U3,4,NC*%
%TO.N,unconnected-(U3-NC-Pad4)*%
X203000000Y-95545000D03*
%TO.P,U3,5,NC*%
%TO.N,unconnected-(U3-NC-Pad5)*%
X203400000Y-95545000D03*
%TO.P,U3,6,NC*%
%TO.N,unconnected-(U3-NC-Pad6)*%
X203800000Y-95545000D03*
D38*
%TO.P,U3,7,AUX_CL*%
%TO.N,unconnected-(U3-AUX_CL-Pad7)*%
X204345000Y-95000000D03*
%TO.P,U3,8,VDDIO*%
%TO.N,+1V8*%
X204345000Y-94600000D03*
%TO.P,U3,9,AD0/SDO*%
%TO.N,/IMU_AD0*%
X204345000Y-94200000D03*
%TO.P,U3,10,REGOUT*%
%TO.N,Net-(U3-REGOUT)*%
X204345000Y-93800000D03*
%TO.P,U3,11,FSYNC*%
%TO.N,/IMU_FSYNC*%
X204345000Y-93400000D03*
%TO.P,U3,12,INT1*%
%TO.N,/IMU_INT*%
X204345000Y-93000000D03*
D39*
%TO.P,U3,13,VDD*%
%TO.N,+3V3*%
X203800000Y-92455000D03*
%TO.P,U3,14,NC*%
%TO.N,unconnected-(U3-NC-Pad14)*%
X203400000Y-92455000D03*
%TO.P,U3,15,NC*%
%TO.N,unconnected-(U3-NC-Pad15)*%
X203000000Y-92455000D03*
%TO.P,U3,16,NC*%
%TO.N,unconnected-(U3-NC-Pad16)*%
X202600000Y-92455000D03*
%TO.P,U3,17,NC*%
%TO.N,unconnected-(U3-NC-Pad17)*%
X202200000Y-92455000D03*
%TO.P,U3,18,GND*%
%TO.N,GND*%
X201800000Y-92455000D03*
D40*
%TO.P,U3,19,RESV_19*%
%TO.N,unconnected-(U3-RESV_19-Pad19)*%
X201255000Y-93000000D03*
%TO.P,U3,20,RESV_20*%
%TO.N,GND*%
X201255000Y-93400000D03*
%TO.P,U3,21,AUX_DA*%
%TO.N,unconnected-(U3-AUX_DA-Pad21)*%
X201255000Y-93800000D03*
%TO.P,U3,22,~{CS}*%
%TO.N,+1V8*%
X201255000Y-94200000D03*
%TO.P,U3,23,SCL/SCLK*%
%TO.N,/IMU_SCL*%
X201255000Y-94600000D03*
%TO.P,U3,24,SDA/SDI*%
%TO.N,/IMU_SDA*%
X201255000Y-95000000D03*
%TD*%
D41*
%TO.P,Y1,1*%
%TO.N,Net-(C5-Pad1)*%
X192450000Y-109400000D03*
%TO.P,Y1,2*%
%TO.N,Net-(U1-XIN)*%
X201950000Y-109400000D03*
%TD*%
D16*
%TO.P,J15,1,Pin_1*%
%TO.N,GND*%
X206295000Y-81793900D03*
D17*
%TO.P,J15,2,Pin_2*%
%TO.N,Net-(J14-Pin_2)*%
X206295000Y-84333900D03*
%TD*%
D22*
%TO.P,C7,1*%
%TO.N,+3V3*%
X200920700Y-88800000D03*
%TO.P,C7,2*%
%TO.N,GND*%
X199879300Y-88800000D03*
%TD*%
D31*
%TO.P,SW3,1*%
%TO.N,Net-(J5-Pin_6)*%
X208542500Y-111700000D03*
%TO.P,SW3,2*%
%TO.N,GND*%
X214257500Y-111700000D03*
%TO.P,SW3,3*%
%TO.N,Net-(J5-Pin_6)*%
X208542500Y-114700000D03*
%TO.P,SW3,4*%
%TO.N,GND*%
X214257500Y-114700000D03*
%TD*%
D22*
%TO.P,C17,1*%
%TO.N,GND*%
X198320700Y-96200000D03*
%TO.P,C17,2*%
%TO.N,+3V3*%
X197279300Y-96200000D03*
%TD*%
D15*
%TO.P,C26,1*%
%TO.N,GND*%
X197295000Y-81714600D03*
%TO.P,C26,2*%
%TO.N,Net-(J14-Pin_2)*%
X197295000Y-80673200D03*
%TD*%
D22*
%TO.P,C3,1*%
%TO.N,+3V3*%
X187879300Y-85400000D03*
%TO.P,C3,2*%
%TO.N,GND*%
X188920700Y-85400000D03*
%TD*%
D25*
%TO.P,R4,1*%
%TO.N,Net-(U1-XOUT)*%
X190600000Y-100000000D03*
%TO.P,R4,2*%
%TO.N,Net-(C5-Pad1)*%
X190600000Y-101300000D03*
%TD*%
D22*
%TO.P,C8,1*%
%TO.N,GND*%
X208320700Y-93400000D03*
%TO.P,C8,2*%
%TO.N,Net-(U3-REGOUT)*%
X207279300Y-93400000D03*
%TD*%
D16*
%TO.P,J10,1,Pin_1*%
%TO.N,GND*%
X178600000Y-98600000D03*
D17*
%TO.P,J10,2,Pin_2*%
%TO.N,/UART1_TX*%
X181140000Y-98600000D03*
%TO.P,J10,3,Pin_3*%
%TO.N,/UART1_RX*%
X183680000Y-98600000D03*
%TO.P,J10,4,Pin_4*%
%TO.N,+3V3*%
X186220000Y-98600000D03*
%TD*%
D32*
%TO.P,R11,1*%
%TO.N,/DIST_GPIO*%
X222768000Y-100800000D03*
%TO.P,R11,2*%
%TO.N,+3V3*%
X223632000Y-100800000D03*
%TD*%
D15*
%TO.P,C9,1*%
%TO.N,GND*%
X205800000Y-96720700D03*
%TO.P,C9,2*%
%TO.N,+1V8*%
X205800000Y-95679300D03*
%TD*%
D16*
%TO.P,J14,1,Pin_1*%
%TO.N,GND*%
X201720000Y-81683900D03*
D17*
%TO.P,J14,2,Pin_2*%
%TO.N,Net-(J14-Pin_2)*%
X201720000Y-84223900D03*
%TD*%
D16*
%TO.P,J4,1,Pin_1*%
%TO.N,GND*%
X174690000Y-91200000D03*
D17*
%TO.P,J4,2,Pin_2*%
%TO.N,+5V*%
X172150000Y-91200000D03*
%TO.P,J4,3,Pin_3*%
%TO.N,+3V3*%
X174690000Y-93740000D03*
%TO.P,J4,4,Pin_4*%
%TO.N,+1V8*%
X172150000Y-93740000D03*
%TO.P,J4,5,Pin_5*%
%TO.N,/SPI0_RX*%
X174690000Y-96280000D03*
%TO.P,J4,6,Pin_6*%
%TO.N,/SPI0_CSn*%
X172150000Y-96280000D03*
%TO.P,J4,7,Pin_7*%
%TO.N,/SPI0_TX*%
X174690000Y-98820000D03*
%TO.P,J4,8,Pin_8*%
%TO.N,/SPI0_SCK*%
X172150000Y-98820000D03*
%TD*%
D23*
%TO.P,C2,1*%
%TO.N,GND*%
X186200000Y-82200000D03*
%TO.P,C2,2*%
%TO.N,+3V3*%
X184447400Y-82200000D03*
%TD*%
D15*
%TO.P,C16,1*%
%TO.N,+1V1*%
X189800000Y-87720700D03*
%TO.P,C16,2*%
%TO.N,GND*%
X189800000Y-86679300D03*
%TD*%
D26*
%TO.P,R1,1*%
%TO.N,/USB+*%
X192200000Y-86980000D03*
%TO.P,R1,2*%
%TO.N,Net-(U1-USB_DP)*%
X192200000Y-87820000D03*
%TD*%
D15*
%TO.P,C15,1*%
%TO.N,+1V1*%
X193400000Y-100279300D03*
%TO.P,C15,2*%
%TO.N,GND*%
X193400000Y-101320700D03*
%TD*%
D42*
%TO.P,U2,1,GND*%
%TO.N,GND*%
X183950000Y-80100000D03*
%TO.P,U2,2,VO*%
%TO.N,+3V3*%
X183950000Y-77800000D03*
%TO.P,U2,3,VI*%
%TO.N,+5V*%
X183950000Y-75500000D03*
D43*
%TO.P,U2,4*%
%TO.N,N/C*%
X177650000Y-77800000D03*
%TD*%
D15*
%TO.P,C6,1*%
%TO.N,GND*%
X218400000Y-104079300D03*
%TO.P,C6,2*%
%TO.N,+3V3*%
X218400000Y-105120700D03*
%TD*%
D31*
%TO.P,SW1,4*%
%TO.N,Net-(R3-Pad1)*%
X177057500Y-72700000D03*
%TO.P,SW1,3*%
%TO.N,GND*%
X171342500Y-72700000D03*
%TO.P,SW1,2*%
%TO.N,Net-(R3-Pad1)*%
X177057500Y-69700000D03*
%TO.P,SW1,1*%
%TO.N,GND*%
X171342500Y-69700000D03*
%TD*%
D44*
%TO.P,J2,1,VUSB*%
%TO.N,+5V*%
X184164000Y-70949900D03*
%TO.P,J2,2,D-*%
%TO.N,/USB-*%
X183514000Y-70949900D03*
%TO.P,J2,3,D+*%
%TO.N,/USB+*%
X182864000Y-70949900D03*
%TO.P,J2,4,ID*%
%TO.N,unconnected-(J2-ID-Pad4)*%
X182214000Y-70949900D03*
%TO.P,J2,5,GND*%
%TO.N,GND*%
X181564000Y-70949900D03*
D45*
%TO.P,J2,S1,SHIELD*%
X186064000Y-70724900D03*
%TO.P,J2,S2,SHIELD*%
X179664000Y-70724900D03*
D46*
%TO.P,J2,S3,SHIELD*%
X181664000Y-68274900D03*
%TO.P,J2,S4,SHIELD*%
X184064000Y-68274900D03*
D47*
%TO.P,J2,S5,SHIELD*%
X186164000Y-68274900D03*
%TO.P,J2,S6,SHIELD*%
X179564000Y-68274900D03*
%TD*%
D16*
%TO.P,J3,1,Pin_1*%
%TO.N,Net-(J3-Pin_1)*%
X193720000Y-104600000D03*
D17*
%TO.P,J3,2,Pin_2*%
%TO.N,GND*%
X196260000Y-104600000D03*
%TO.P,J3,3,Pin_3*%
%TO.N,Net-(J3-Pin_3)*%
X198800000Y-104600000D03*
%TD*%
D25*
%TO.P,R10,1*%
%TO.N,+3V3*%
X205400000Y-116450000D03*
%TO.P,R10,2*%
%TO.N,Net-(J5-Pin_4)*%
X205400000Y-115150000D03*
%TD*%
D22*
%TO.P,C21,1*%
%TO.N,+3V3*%
X197558600Y-92200000D03*
%TO.P,C21,2*%
%TO.N,GND*%
X198600000Y-92200000D03*
%TD*%
D31*
%TO.P,SW5,1*%
%TO.N,Net-(J11-Pad12)*%
X221400000Y-87600000D03*
%TO.P,SW5,2*%
%TO.N,GND*%
X227115000Y-87600000D03*
%TO.P,SW5,3*%
%TO.N,Net-(J11-Pad12)*%
X221400000Y-90600000D03*
%TO.P,SW5,4*%
%TO.N,GND*%
X227115000Y-90600000D03*
%TD*%
D15*
%TO.P,C20,1*%
%TO.N,+3V3*%
X191000000Y-87720700D03*
%TO.P,C20,2*%
%TO.N,GND*%
X191000000Y-86679300D03*
%TD*%
D22*
%TO.P,C18,1*%
%TO.N,GND*%
X186279300Y-91800000D03*
%TO.P,C18,2*%
%TO.N,+3V3*%
X187320700Y-91800000D03*
%TD*%
D15*
%TO.P,C23,1*%
%TO.N,+3V3*%
X192200000Y-100279300D03*
%TO.P,C23,2*%
%TO.N,GND*%
X192200000Y-101320700D03*
%TD*%
D16*
%TO.P,J17,1,Pin_1*%
%TO.N,GND*%
X215495000Y-81793900D03*
D17*
%TO.P,J17,2,Pin_2*%
%TO.N,Net-(J14-Pin_2)*%
X215495000Y-84333900D03*
%TD*%
D48*
%TO.P,U5,1,/CS*%
%TO.N,/QSPI_SS*%
X178755100Y-84695000D03*
%TO.P,U5,2,DO(IO1)*%
%TO.N,/QSPI_SD1*%
X178755100Y-85965000D03*
%TO.P,U5,3,/WP(IO2)*%
%TO.N,/QSPI_SD2*%
X178755100Y-87235000D03*
%TO.P,U5,4,GND*%
%TO.N,GND*%
X178755100Y-88505000D03*
%TO.P,U5,5,DI(IO0)*%
%TO.N,/QSPI_SD0*%
X186044900Y-88505000D03*
%TO.P,U5,6,CLK*%
%TO.N,/QSPI_SLCK*%
X186044900Y-87235000D03*
%TO.P,U5,7,/HOLD_/RESET*%
%TO.N,/QSPI_SD3*%
X186044900Y-85965000D03*
%TO.P,U5,8,VCC*%
%TO.N,+3V3*%
X186044900Y-84695000D03*
%TD*%
D25*
%TO.P,R9,1*%
%TO.N,+3V3*%
X203400000Y-116450000D03*
%TO.P,R9,2*%
%TO.N,Net-(J5-Pin_6)*%
X203400000Y-115150000D03*
%TD*%
D16*
%TO.P,J16,1,Pin_1*%
%TO.N,GND*%
X210895000Y-81793900D03*
D17*
%TO.P,J16,2,Pin_2*%
%TO.N,Net-(J14-Pin_2)*%
X210895000Y-84333900D03*
%TD*%
D23*
%TO.P,C1,1*%
%TO.N,+5V*%
X183476300Y-73200000D03*
%TO.P,C1,2*%
%TO.N,GND*%
X181723700Y-73200000D03*
%TD*%
%TO.P,C12,1*%
%TO.N,+1V8*%
X192847400Y-73800000D03*
%TO.P,C12,2*%
%TO.N,GND*%
X194600000Y-73800000D03*
%TD*%
D31*
%TO.P,SW2,1*%
%TO.N,GND*%
X209257500Y-102300000D03*
%TO.P,SW2,2*%
%TO.N,Net-(U1-RUN)*%
X203542500Y-102300000D03*
%TO.P,SW2,3*%
%TO.N,GND*%
X209257500Y-99300000D03*
%TO.P,SW2,4*%
%TO.N,Net-(U1-RUN)*%
X203542500Y-99300000D03*
%TD*%
D16*
%TO.P,J6,1,Pin_1*%
%TO.N,/M1_PWM_A*%
X172200000Y-76000000D03*
D17*
%TO.P,J6,2,Pin_2*%
%TO.N,GND*%
X172200000Y-78540000D03*
%TO.P,J6,3,Pin_3*%
%TO.N,/M1_PWM_B*%
X172200000Y-81080000D03*
%TO.P,J6,4,Pin_4*%
%TO.N,GND*%
X172200000Y-83620000D03*
%TD*%
D15*
%TO.P,C14,1*%
%TO.N,+3V3*%
X195200000Y-90120700D03*
%TO.P,C14,2*%
%TO.N,GND*%
X195200000Y-89079300D03*
%TD*%
D49*
%TO.N,/M4_PWM_A*%
X219000000Y-84400000D03*
X204800000Y-91600000D03*
X201200000Y-95600000D03*
%TO.N,/M4_PWM_B*%
X194800000Y-96000000D03*
X202800000Y-89200000D03*
X204000000Y-88000000D03*
%TO.N,/M3_PWM_B*%
X206400000Y-104400000D03*
%TO.N,/M3_PWM_A*%
X206400000Y-102800000D03*
%TO.N,/DIST_SDA*%
X205400000Y-100000000D03*
%TO.N,/DIST_SCL*%
X206200000Y-101400000D03*
%TO.N,+3V3*%
X219200000Y-105200000D03*
%TO.N,GND*%
X220000000Y-103400000D03*
%TO.N,/DIST_GPIO*%
X222800000Y-99800000D03*
%TO.N,Net-(U6-XSHUT)*%
X221800000Y-98800000D03*
%TO.N,GND*%
X181800000Y-75000000D03*
%TO.N,+3V3*%
X184400000Y-100600000D03*
%TO.N,GND*%
X192800000Y-102400000D03*
X208000000Y-98000000D03*
X195800000Y-83200000D03*
X209270878Y-96729122D03*
X196400000Y-89000000D03*
X181600000Y-91000000D03*
X190400000Y-85600000D03*
X192000000Y-97600000D03*
X185200000Y-96200000D03*
%TO.N,/SPI1_CSn*%
X185400000Y-101200000D03*
X189810932Y-96682651D03*
%TO.N,/QSPI_SD1*%
X183800000Y-88200000D03*
X186400000Y-90200000D03*
%TO.N,Net-(U1-XIN)*%
X190400000Y-104600000D03*
X189718375Y-99524500D03*
%TO.N,+1V8*%
X189400000Y-77000000D03*
X205600000Y-94600000D03*
X200000000Y-94000000D03*
%TO.N,/WiFi_TX{slash}GPIO1*%
X200800000Y-106400000D03*
X198200000Y-109000000D03*
%TO.N,/M1_PWM_A*%
X187600000Y-92800000D03*
%TO.N,/M1_PWM_B*%
X185400000Y-93000000D03*
%TO.N,/M2_PWM_A*%
X185400000Y-94000000D03*
%TO.N,/M2_PWM_B*%
X186270878Y-93999500D03*
%TO.N,/WiFi_RX{slash}GPIO3*%
X197327496Y-101272504D03*
%TO.N,/PWM7A*%
X190687000Y-97491526D03*
%TO.N,Net-(U1-RUN)*%
X197200000Y-99200000D03*
X194800000Y-97600000D03*
%TO.N,/PWM7B*%
X194088959Y-97362986D03*
%TO.N,/ADC0{slash}PWM5A*%
X194913000Y-95000000D03*
%TO.N,/ADC1{slash}PWM5B*%
X194859715Y-93869512D03*
%TO.N,/ADC2{slash}PWM6A*%
X194827167Y-93095207D03*
%TO.N,/ADC3{slash}PWM6B*%
X197200000Y-93200000D03*
%TO.N,+3V3*%
X183000000Y-107000000D03*
X203800000Y-91600000D03*
X197400000Y-91400000D03*
X192953520Y-97695276D03*
%TO.N,Net-(J5-Pin_6)*%
X206800000Y-113200000D03*
%TD*%
D50*
%TO.N,GND*%
X194600000Y-73800000D02*
X194600000Y-73179900D01*
X194600000Y-73179900D02*
X194095000Y-72674900D01*
X194600000Y-73800000D02*
X194600000Y-76639100D01*
X194600000Y-76639100D02*
X194095000Y-77144100D01*
D51*
X195695000Y-78993900D02*
X195800000Y-78993900D01*
X194896300Y-78195200D02*
X195695000Y-78993900D01*
X194896300Y-77945400D02*
X194896300Y-78195200D01*
X194095000Y-77144100D02*
X194896300Y-77945400D01*
D50*
%TO.N,+3V3*%
X218400000Y-105120700D02*
X219120700Y-105120700D01*
X219120700Y-105120700D02*
X219200000Y-105200000D01*
%TO.N,/M4_PWM_A*%
X204800000Y-91600000D02*
X210000000Y-86400000D01*
X217000000Y-86400000D02*
X219000000Y-84400000D01*
X210000000Y-86400000D02*
X217000000Y-86400000D01*
X200800000Y-95600000D02*
X201200000Y-95600000D01*
X196898700Y-95600000D02*
X200800000Y-95600000D01*
X196698700Y-95800000D02*
X196898700Y-95600000D01*
X195800000Y-95800000D02*
X196698700Y-95800000D01*
%TO.N,/M4_PWM_B*%
X195800000Y-95400000D02*
X196226409Y-95400000D01*
%TO.N,GND*%
X214820000Y-106800000D02*
X217420000Y-104200000D01*
X217420000Y-104200000D02*
X220000000Y-104200000D01*
D51*
X198320700Y-96200000D02*
X198520700Y-96400000D01*
X198520700Y-96400000D02*
X205479300Y-96400000D01*
X205479300Y-96400000D02*
X205800000Y-96720700D01*
D50*
%TO.N,/M4_PWM_B*%
X194800000Y-96000000D02*
X194800000Y-95973591D01*
X194800000Y-95973591D02*
X195373591Y-95400000D01*
X195373591Y-95400000D02*
X195800000Y-95400000D01*
%TO.N,/ADC1{slash}PWM5B*%
X194859715Y-93869512D02*
X195177207Y-93869512D01*
X195177207Y-93869512D02*
X195246719Y-93800000D01*
X195246719Y-93800000D02*
X195800000Y-93800000D01*
%TO.N,/ADC2{slash}PWM6A*%
X194827167Y-93095207D02*
X195131960Y-93400000D01*
X195131960Y-93400000D02*
X195800000Y-93400000D01*
%TO.N,/ADC0{slash}PWM5A*%
X195270983Y-94200000D02*
X195800000Y-94200000D01*
X194913000Y-94557983D02*
X195270983Y-94200000D01*
X194913000Y-95000000D02*
X194913000Y-94557983D01*
%TO.N,/M4_PWM_B*%
X204000000Y-88000000D02*
X202800000Y-89200000D01*
%TO.N,GND*%
X227115000Y-87600000D02*
X221657500Y-82142500D01*
X221657500Y-82142500D02*
X221308900Y-81793900D01*
X224400000Y-79340000D02*
X221657500Y-82082500D01*
X221657500Y-82082500D02*
X221657500Y-82142500D01*
%TO.N,+3V3*%
X195800000Y-96200000D02*
X197279300Y-96200000D01*
%TO.N,/M3_PWM_B*%
X206400000Y-104400000D02*
X207025000Y-103775000D01*
X207025000Y-103775000D02*
X207025000Y-99225000D01*
X196323528Y-96600000D02*
X195800000Y-96600000D01*
X207025000Y-99225000D02*
X204738236Y-96938236D01*
X204738236Y-96938236D02*
X196661764Y-96938236D01*
X196661764Y-96938236D02*
X196323528Y-96600000D01*
%TO.N,/M3_PWM_A*%
X206400000Y-102800000D02*
X206725000Y-102475000D01*
X206725000Y-102475000D02*
X206725000Y-99500736D01*
X204624264Y-97400000D02*
X196699264Y-97400000D01*
X206725000Y-99500736D02*
X204624264Y-97400000D01*
X196699264Y-97400000D02*
X196299264Y-97000000D01*
X196299264Y-97000000D02*
X195800000Y-97000000D01*
%TO.N,/DIST_SCL*%
X196275000Y-97400000D02*
X195800000Y-97400000D01*
%TO.N,/DIST_SDA*%
X196500000Y-98100000D02*
X196200000Y-97800000D01*
X204138700Y-98100000D02*
X196500000Y-98100000D01*
X205400000Y-99361300D02*
X204138700Y-98100000D01*
X205400000Y-100000000D02*
X205400000Y-99361300D01*
%TO.N,/DIST_SCL*%
X206200000Y-101400000D02*
X206200000Y-99400000D01*
X206200000Y-99400000D02*
X204600000Y-97800000D01*
X204600000Y-97800000D02*
X196675000Y-97800000D01*
X196675000Y-97800000D02*
X196275000Y-97400000D01*
D51*
%TO.N,GND*%
X209257500Y-99300000D02*
X206957500Y-97000000D01*
X206957500Y-97000000D02*
X206079300Y-97000000D01*
X206079300Y-97000000D02*
X205800000Y-96720700D01*
D50*
%TO.N,+3V3*%
X220000000Y-105070000D02*
X220000000Y-105400000D01*
X220000000Y-105400000D02*
X220000000Y-110753700D01*
X223632000Y-100800000D02*
X223632000Y-101768000D01*
X223632000Y-101768000D02*
X220000000Y-105400000D01*
X223632000Y-100800000D02*
X223632000Y-98832000D01*
X223632000Y-98832000D02*
X223664000Y-98800000D01*
%TO.N,GND*%
X224400000Y-111480000D02*
X225475000Y-110405000D01*
X225475000Y-110405000D02*
X225475000Y-107475000D01*
X225475000Y-107475000D02*
X224400000Y-106400000D01*
X214257500Y-111700000D02*
X214257500Y-107362500D01*
X214257500Y-107362500D02*
X214820000Y-106800000D01*
X214257500Y-114700000D02*
X214257500Y-111700000D01*
%TO.N,+3V3*%
X220000000Y-110753700D02*
X218800000Y-111953700D01*
X218800000Y-111953700D02*
X218800000Y-114400000D01*
X218800000Y-114400000D02*
X216750000Y-116450000D01*
X216750000Y-116450000D02*
X205400000Y-116450000D01*
X219200000Y-105200000D02*
X219870000Y-105200000D01*
X219870000Y-105200000D02*
X220000000Y-105070000D01*
%TO.N,GND*%
X220000000Y-103400000D02*
X220000000Y-104200000D01*
%TO.N,/DIST_GPIO*%
X222768000Y-100800000D02*
X222768000Y-99832000D01*
X222768000Y-99832000D02*
X222800000Y-99800000D01*
X222968000Y-99968000D02*
X222800000Y-99800000D01*
%TO.N,Net-(U6-XSHUT)*%
X221800000Y-98800000D02*
X222800000Y-98800000D01*
%TO.N,GND*%
X224400000Y-106400000D02*
X225475000Y-105325000D01*
X225475000Y-105325000D02*
X225475000Y-96917500D01*
X225475000Y-96917500D02*
X224657500Y-96100000D01*
D51*
%TO.N,+3V3*%
X203800000Y-91600000D02*
X200584900Y-88384900D01*
D50*
%TO.N,/IMU_INT*%
X214405000Y-95400000D02*
X215650000Y-96645000D01*
X212884720Y-95400000D02*
X214405000Y-95400000D01*
X209584720Y-92100000D02*
X212884720Y-95400000D01*
X205245000Y-92100000D02*
X209584720Y-92100000D01*
X204345000Y-93000000D02*
X205245000Y-92100000D01*
%TO.N,/IMU_FSYNC*%
X212944720Y-98000000D02*
X214465000Y-98000000D01*
X212000000Y-97055280D02*
X212944720Y-98000000D01*
X212000000Y-95057537D02*
X212000000Y-97055280D01*
X209342463Y-92400000D02*
X212000000Y-95057537D01*
X206800000Y-92400000D02*
X209342463Y-92400000D01*
X205800000Y-93400000D02*
X206800000Y-92400000D01*
X214465000Y-98000000D02*
X215650000Y-99185000D01*
X204345000Y-93400000D02*
X205800000Y-93400000D01*
%TO.N,GND*%
X186752600Y-72800000D02*
X186752600Y-72447400D01*
X186752600Y-72447400D02*
X187269550Y-71930450D01*
%TO.N,+5V*%
X185000000Y-72800000D02*
X184564000Y-72800000D01*
X184564000Y-72800000D02*
X184164000Y-73200000D01*
D51*
X184164000Y-74624900D02*
X184164000Y-73200000D01*
X184164000Y-73200000D02*
X184164000Y-70949900D01*
D50*
X183476300Y-73200000D02*
X184164000Y-73200000D01*
%TO.N,GND*%
X181800000Y-75000000D02*
X181723700Y-74923700D01*
X181723700Y-74923700D02*
X181723700Y-73200000D01*
D52*
%TO.N,/USB-*%
X183514000Y-70949900D02*
X183514000Y-71674900D01*
X183514000Y-71674900D02*
X182893926Y-72294974D01*
X180200000Y-79400000D02*
X184400000Y-83600000D01*
X182893926Y-72294974D02*
X180800000Y-72294974D01*
X180800000Y-72294974D02*
X180200000Y-72894974D01*
X180200000Y-72894974D02*
X180200000Y-79400000D01*
X184400000Y-83600000D02*
X190800000Y-83600000D01*
X190800000Y-83600000D02*
X193400000Y-86200000D01*
X193400000Y-86200000D02*
X193400000Y-86980000D01*
%TO.N,/USB+*%
X182864000Y-70949900D02*
X182864000Y-71674900D01*
X180725100Y-71874900D02*
X179800000Y-72800000D01*
X182864000Y-71674900D02*
X182664000Y-71874900D01*
X183400000Y-84000000D02*
X190200000Y-84000000D01*
X182664000Y-71874900D02*
X180725100Y-71874900D01*
X179800000Y-72800000D02*
X179800000Y-80400000D01*
X192200000Y-86000000D02*
X192200000Y-86980000D01*
X179800000Y-80400000D02*
X183400000Y-84000000D01*
X190200000Y-84000000D02*
X192200000Y-86000000D01*
D50*
%TO.N,+1V8*%
X192847400Y-73800000D02*
X192847400Y-75093900D01*
X192847400Y-75093900D02*
X190941300Y-77000000D01*
X190941300Y-77000000D02*
X189400000Y-77000000D01*
%TO.N,GND*%
X194600000Y-73800000D02*
X194243200Y-73800000D01*
X188920700Y-85400000D02*
X190200000Y-85400000D01*
X190200000Y-85400000D02*
X190400000Y-85600000D01*
%TO.N,+3V3*%
X186044900Y-84695000D02*
X187600000Y-84695000D01*
X187600000Y-84695000D02*
X190237463Y-84695000D01*
X187879300Y-85400000D02*
X187879300Y-84974300D01*
X187879300Y-84974300D02*
X187600000Y-84695000D01*
%TO.N,GND*%
X186200000Y-82200000D02*
X186050000Y-82200000D01*
X186050000Y-82200000D02*
X185920700Y-82070700D01*
D51*
%TO.N,+3V3*%
X184236396Y-82800000D02*
X184118198Y-82681802D01*
X184118198Y-82681802D02*
X182600000Y-81163604D01*
D50*
X184447400Y-82200000D02*
X184447400Y-82352600D01*
X184447400Y-82352600D02*
X184118198Y-82681802D01*
D51*
%TO.N,GND*%
X186064000Y-70724900D02*
X187269550Y-71930450D01*
X187269550Y-71930450D02*
X187939000Y-72599900D01*
D50*
X187069550Y-71930450D02*
X187269550Y-71930450D01*
%TO.N,+3V3*%
X183600000Y-101400000D02*
X184400000Y-100600000D01*
X182876300Y-101400000D02*
X183600000Y-101400000D01*
%TO.N,GND*%
X181123700Y-101400000D02*
X178600000Y-98876300D01*
X178600000Y-98876300D02*
X178600000Y-98600000D01*
X198600000Y-91279300D02*
X197720700Y-90400000D01*
X191030000Y-105600000D02*
X191230000Y-105800000D01*
D51*
X194295000Y-81714600D02*
X194974400Y-81714600D01*
D50*
X191362500Y-98211091D02*
X191773591Y-97800000D01*
X192800000Y-102400000D02*
X193400000Y-101800000D01*
D51*
X183950000Y-80100000D02*
X185920700Y-82070700D01*
D52*
X178600000Y-99000000D02*
X181400000Y-96200000D01*
D50*
X192200000Y-101320700D02*
X192200000Y-101800000D01*
D52*
X181400000Y-96200000D02*
X185200000Y-96200000D01*
D50*
X191773591Y-97800000D02*
X192000000Y-97600000D01*
X199500000Y-93100000D02*
X198600000Y-92200000D01*
X170986900Y-73055600D02*
X170986900Y-77326900D01*
D51*
X195800000Y-80899000D02*
X196615600Y-81714600D01*
D50*
X191362500Y-98637500D02*
X191362500Y-98211091D01*
X207200000Y-104357500D02*
X209257500Y-102300000D01*
D51*
X181664000Y-68274900D02*
X179564000Y-68274900D01*
D50*
X191362500Y-96200000D02*
X192362500Y-95200000D01*
X194000000Y-89079300D02*
X195200000Y-89079300D01*
X196260000Y-104940000D02*
X196260000Y-104600000D01*
X199800000Y-93400000D02*
X199500000Y-93100000D01*
D51*
X181564000Y-68374900D02*
X181664000Y-68274900D01*
X184064000Y-68274900D02*
X184064000Y-68724900D01*
X191664000Y-72674900D02*
X194095000Y-72674900D01*
D50*
X191030000Y-103000000D02*
X191630000Y-102400000D01*
X224657500Y-93100000D02*
X224657500Y-93057500D01*
D53*
X174000000Y-79740000D02*
X174000000Y-81220000D01*
D50*
X183400000Y-108000000D02*
X173060000Y-108000000D01*
D51*
X184064000Y-68724900D02*
X186064000Y-70724900D01*
X184064000Y-68274900D02*
X186164000Y-68274900D01*
D50*
X172200000Y-112220000D02*
X173275000Y-111145000D01*
X198600000Y-92200000D02*
X198600000Y-91279300D01*
X227115000Y-90600000D02*
X227115000Y-87600000D01*
X195000000Y-106200000D02*
X196260000Y-104940000D01*
X192200000Y-101800000D02*
X192800000Y-102400000D01*
D51*
X187939000Y-76111000D02*
X187939000Y-72599900D01*
D50*
X196400000Y-89079300D02*
X196400000Y-89000000D01*
X182400000Y-91800000D02*
X181600000Y-91000000D01*
X193400000Y-101800000D02*
X193400000Y-101320700D01*
D53*
X172200000Y-83020000D02*
X174690000Y-85510000D01*
D50*
X191630000Y-102400000D02*
X192800000Y-102400000D01*
X186279300Y-96200000D02*
X185200000Y-96200000D01*
D53*
X178755100Y-88505000D02*
X174785000Y-88505000D01*
D50*
X224657500Y-93057500D02*
X227115000Y-90600000D01*
X190830000Y-103200000D02*
X191030000Y-103000000D01*
D54*
X194095000Y-71381900D02*
X194095000Y-71043900D01*
D50*
X207200000Y-106800000D02*
X207200000Y-104357500D01*
X192000000Y-97600000D02*
X192000000Y-97800000D01*
X199879300Y-88800000D02*
X199320700Y-88800000D01*
D51*
X179664000Y-70274900D02*
X181664000Y-68274900D01*
D50*
X199320700Y-88800000D02*
X197720700Y-90400000D01*
D51*
X187939000Y-72599900D02*
X188014000Y-72674900D01*
D50*
X173275000Y-108215000D02*
X172200000Y-107140000D01*
X214820000Y-106800000D02*
X207200000Y-106800000D01*
X171342500Y-69700000D02*
X171342500Y-72700000D01*
X173275000Y-111145000D02*
X173275000Y-110600000D01*
D53*
X174000000Y-81220000D02*
X172200000Y-83020000D01*
D50*
X191030000Y-103000000D02*
X191030000Y-105600000D01*
D51*
X183950000Y-80100000D02*
X187939000Y-76111000D01*
D50*
X181600000Y-91000000D02*
X179105000Y-88505000D01*
X191230000Y-105600000D02*
X191830000Y-106200000D01*
D51*
X195800000Y-80899000D02*
X195800000Y-83200000D01*
D53*
X174690000Y-88600000D02*
X174690000Y-91200000D01*
D50*
X201800000Y-92455000D02*
X200145000Y-92455000D01*
X186279300Y-91800000D02*
X182400000Y-91800000D01*
D54*
X201720000Y-79006900D02*
X194095000Y-71381900D01*
D50*
X200145000Y-92455000D02*
X199500000Y-93100000D01*
D51*
X194974400Y-81714600D02*
X195800000Y-80889000D01*
X191562700Y-72776200D02*
X191664000Y-72674900D01*
X195800000Y-80889000D02*
X195800000Y-78993900D01*
D50*
X173060000Y-108000000D02*
X172200000Y-107140000D01*
X196400000Y-89000000D02*
X197720700Y-90400000D01*
X170986900Y-77326900D02*
X172200000Y-78540000D01*
D54*
X215385000Y-81683900D02*
X215495000Y-81793900D01*
D50*
X221308900Y-81793900D02*
X215495000Y-81793900D01*
D53*
X172200000Y-77940000D02*
X174000000Y-79740000D01*
D50*
X189800000Y-86200000D02*
X190400000Y-85600000D01*
D51*
X191562700Y-74849100D02*
X191562700Y-72776200D01*
D50*
X189800000Y-86679300D02*
X189800000Y-86200000D01*
X195200000Y-89079300D02*
X196400000Y-89079300D01*
D51*
X179664000Y-70724900D02*
X179664000Y-70274900D01*
D54*
X201720000Y-81683900D02*
X215385000Y-81683900D01*
D50*
X190400000Y-85600000D02*
X191000000Y-86200000D01*
X179105000Y-88505000D02*
X178755100Y-88505000D01*
X201255000Y-93400000D02*
X199800000Y-93400000D01*
X191000000Y-86200000D02*
X191000000Y-86679300D01*
D51*
X194095000Y-71043900D02*
X194095000Y-72674900D01*
X209257500Y-99300000D02*
X209257500Y-102300000D01*
D50*
X173275000Y-110600000D02*
X173275000Y-108215000D01*
D51*
X181664000Y-68274900D02*
X184064000Y-68274900D01*
D53*
X174785000Y-88505000D02*
X174690000Y-88600000D01*
D54*
X201720000Y-81683900D02*
X201720000Y-79006900D01*
D51*
X188014000Y-72674900D02*
X191664000Y-72674900D01*
X181564000Y-70949900D02*
X181564000Y-68374900D01*
D50*
X185300000Y-105200000D02*
X185300000Y-106100000D01*
D51*
X196615600Y-81714600D02*
X197295000Y-81714600D01*
X195800000Y-78993900D02*
X195800000Y-80899000D01*
D50*
X209270878Y-96729122D02*
X208320700Y-95778944D01*
D53*
X174690000Y-85510000D02*
X174690000Y-88600000D01*
D50*
X191830000Y-106200000D02*
X195000000Y-106200000D01*
X171342500Y-72700000D02*
X170986900Y-73055600D01*
X185300000Y-106100000D02*
X183400000Y-108000000D01*
D51*
X185920700Y-82070700D02*
X185920700Y-82200000D01*
D50*
X192783153Y-96475000D02*
X193637500Y-96475000D01*
X224657500Y-96100000D02*
X224657500Y-93100000D01*
X208320700Y-95778944D02*
X208320700Y-93400000D01*
%TO.N,Net-(U1-USB_DP)*%
X192862500Y-89838236D02*
X192200000Y-89175736D01*
X193362500Y-91336091D02*
X192862500Y-90836091D01*
X192862500Y-90836091D02*
X192862500Y-89838236D01*
X193362500Y-91762500D02*
X193362500Y-91336091D01*
X192200000Y-89175736D02*
X192200000Y-87820000D01*
%TO.N,Net-(U1-USB_DM)*%
X193200000Y-90600000D02*
X193200000Y-88020000D01*
X193200000Y-88020000D02*
X193400000Y-87820000D01*
X193762500Y-91162500D02*
X193200000Y-90600000D01*
X193762500Y-91762500D02*
X193762500Y-91162500D01*
%TO.N,/QSPI_SS*%
X175000000Y-76900000D02*
X175000000Y-80939900D01*
X189295600Y-91295600D02*
X189762500Y-91762500D01*
X183095600Y-91295600D02*
X189295600Y-91295600D01*
X178755100Y-84695000D02*
X177400000Y-84695000D01*
X179800000Y-88000000D02*
X183095600Y-91295600D01*
X177400000Y-84695000D02*
X177400000Y-88000000D01*
X177400000Y-88000000D02*
X179800000Y-88000000D01*
X175000000Y-80939900D02*
X178755100Y-84695000D01*
%TO.N,+1V1*%
X194162500Y-90283200D02*
X194000000Y-90120700D01*
D52*
X192962500Y-98637500D02*
X192962500Y-99841800D01*
X192962500Y-99841800D02*
X193400000Y-100279300D01*
D50*
X192162500Y-91762500D02*
X192162500Y-90083200D01*
X194162500Y-91762500D02*
X194162500Y-90283200D01*
X192162500Y-90083200D02*
X189800000Y-87720700D01*
%TO.N,/SPI1_CSn*%
X180900000Y-105800000D02*
X180900000Y-104900000D01*
X184400000Y-101400000D02*
X185400000Y-101200000D01*
X190162500Y-97034219D02*
X190162500Y-98637500D01*
X189810932Y-96682651D02*
X190162500Y-97034219D01*
X185400000Y-101200000D02*
X185400000Y-101400000D01*
X180900000Y-104900000D02*
X184400000Y-101400000D01*
%TO.N,/SPI1_TX*%
X182000000Y-105400000D02*
X182000000Y-104700000D01*
X188925000Y-97800000D02*
X188893375Y-97831625D01*
X182000000Y-104700000D02*
X184300000Y-102400000D01*
X185200000Y-102400000D02*
X188925000Y-98675000D01*
X184300000Y-102400000D02*
X185200000Y-102400000D01*
X188925000Y-98675000D02*
X188925000Y-97800000D01*
%TO.N,/QSPI_SD3*%
X186765000Y-85965000D02*
X191762500Y-90962500D01*
X191762500Y-90962500D02*
X191762500Y-91762500D01*
X186044900Y-85965000D02*
X186765000Y-85965000D01*
%TO.N,/QSPI_SLCK*%
X187610736Y-87235000D02*
X191362500Y-90986764D01*
X191362500Y-90986764D02*
X191362500Y-91762500D01*
X186044900Y-87235000D02*
X187610736Y-87235000D01*
%TO.N,/QSPI_SD0*%
X188456472Y-88505000D02*
X190962500Y-91011028D01*
X186044900Y-88505000D02*
X188456472Y-88505000D01*
X190962500Y-91011028D02*
X190962500Y-91762500D01*
%TO.N,/QSPI_SD2*%
X188800000Y-89400000D02*
X190600000Y-91200000D01*
X178755100Y-87235000D02*
X180435000Y-87235000D01*
X182600000Y-89400000D02*
X188800000Y-89400000D01*
X180435000Y-87235000D02*
X182600000Y-89400000D01*
X190600000Y-91200000D02*
X190600000Y-91400000D01*
%TO.N,/QSPI_SD1*%
X190162500Y-91336091D02*
X190162500Y-91762500D01*
X178755100Y-85965000D02*
X181565000Y-85965000D01*
X181565000Y-85965000D02*
X183800000Y-88200000D01*
X189026409Y-90200000D02*
X190162500Y-91336091D01*
X186400000Y-90200000D02*
X189026409Y-90200000D01*
%TO.N,Net-(U1-XIN)*%
X190400000Y-104600000D02*
X190370000Y-104630000D01*
X189817875Y-99425000D02*
X191401409Y-99425000D01*
X189718375Y-99524500D02*
X189817875Y-99425000D01*
X191762500Y-99063909D02*
X191762500Y-98637500D01*
X192370000Y-107600000D02*
X190370000Y-105600000D01*
X201950000Y-109400000D02*
X200150000Y-107600000D01*
X191401409Y-99425000D02*
X191762500Y-99063909D01*
X200150000Y-107600000D02*
X192370000Y-107600000D01*
X190370000Y-104630000D02*
X190370000Y-105800000D01*
%TO.N,Net-(C5-Pad1)*%
X190170000Y-103000000D02*
X190170000Y-103887537D01*
X190600000Y-102570000D02*
X190600000Y-101300000D01*
X189800000Y-104257537D02*
X189800000Y-106750000D01*
X190170000Y-103000000D02*
X190600000Y-102570000D01*
X190170000Y-103887537D02*
X189800000Y-104257537D01*
X189800000Y-106750000D02*
X192450000Y-109400000D01*
%TO.N,Net-(U3-REGOUT)*%
X204345000Y-93800000D02*
X205233273Y-93800000D01*
X205233273Y-93800000D02*
X205258273Y-93775000D01*
X205999264Y-93775000D02*
X206024264Y-93800000D01*
X206024264Y-93800000D02*
X206879300Y-93800000D01*
X206879300Y-93800000D02*
X207279300Y-93400000D01*
X205258273Y-93775000D02*
X205999264Y-93775000D01*
%TO.N,+1V8*%
X200200000Y-94200000D02*
X200000000Y-94000000D01*
X204345000Y-94600000D02*
X205600000Y-94600000D01*
X201255000Y-94200000D02*
X200200000Y-94200000D01*
D53*
X189264000Y-74849100D02*
X189264000Y-76864000D01*
D50*
X205800000Y-94800000D02*
X205600000Y-94600000D01*
D53*
X189264000Y-76864000D02*
X189400000Y-77000000D01*
D50*
X205800000Y-95679300D02*
X205800000Y-94800000D01*
%TO.N,/SPI1_SCK*%
X189426409Y-98125000D02*
X189600000Y-97951409D01*
X189600000Y-97600000D02*
X189400000Y-97400000D01*
X184200000Y-105400000D02*
X184200000Y-103824264D01*
X184200000Y-103824264D02*
X189426409Y-98597855D01*
X189426409Y-98597855D02*
X189426409Y-98125000D01*
X189600000Y-97951409D02*
X189600000Y-97600000D01*
X188925000Y-97400000D02*
X188498591Y-97400000D01*
%TO.N,/SPI1_RX*%
X186400000Y-105400000D02*
X186400000Y-102100412D01*
X186400000Y-102100412D02*
X189762500Y-98737912D01*
X189762500Y-98737912D02*
X189762500Y-98637500D01*
D52*
%TO.N,Net-(J3-Pin_1)*%
X193929400Y-104390600D02*
X193720000Y-104600000D01*
X193362500Y-98637500D02*
X193362500Y-99491900D01*
X193362500Y-99491900D02*
X193544300Y-99673700D01*
X193929400Y-99673700D02*
X193929400Y-104390600D01*
X193544300Y-99673700D02*
X193929400Y-99673700D01*
%TO.N,Net-(J3-Pin_3)*%
X193923700Y-99323700D02*
X194074375Y-99323700D01*
X193762500Y-99162500D02*
X193923700Y-99323700D01*
X198800000Y-104049325D02*
X198800000Y-104600000D01*
X193762500Y-98637500D02*
X193762500Y-99162500D01*
X194074375Y-99323700D02*
X198800000Y-104049325D01*
D50*
%TO.N,/WiFi_TX{slash}GPIO1*%
X198513236Y-103200000D02*
X194562500Y-99249264D01*
X193675000Y-115665000D02*
X193675000Y-113525000D01*
X193675000Y-113525000D02*
X198200000Y-109000000D01*
X200800000Y-105079720D02*
X200200000Y-104479720D01*
X200200000Y-103200000D02*
X198513236Y-103200000D01*
X200200000Y-104479720D02*
X200200000Y-103200000D01*
X200800000Y-106400000D02*
X200800000Y-105079720D01*
X194562500Y-99249264D02*
X194562500Y-98637500D01*
X192600000Y-116740000D02*
X193675000Y-115665000D01*
%TO.N,Net-(U1-XOUT)*%
X191695600Y-99904400D02*
X191695600Y-99698700D01*
X190600000Y-100000000D02*
X191600000Y-100000000D01*
X191600000Y-100000000D02*
X191695600Y-99904400D01*
X191695600Y-99698700D02*
X191901300Y-99698700D01*
X192162500Y-99437500D02*
X192162500Y-98637500D01*
X191901300Y-99698700D02*
X192162500Y-99437500D01*
%TO.N,/M1_PWM_A*%
X187600000Y-92800000D02*
X187800000Y-93000000D01*
X187800000Y-93000000D02*
X188925000Y-93000000D01*
%TO.N,/M1_PWM_B*%
X186766727Y-93000000D02*
X187166727Y-93400000D01*
X185400000Y-93000000D02*
X186766727Y-93000000D01*
X187166727Y-93400000D02*
X188925000Y-93400000D01*
%TO.N,/M2_PWM_A*%
X187142463Y-93800000D02*
X188925000Y-93800000D01*
X186817463Y-93475000D02*
X187142463Y-93800000D01*
X185400000Y-94000000D02*
X185925000Y-93475000D01*
X185925000Y-93475000D02*
X186817463Y-93475000D01*
%TO.N,/M2_PWM_B*%
X186471378Y-94200000D02*
X188925000Y-94200000D01*
X186270878Y-93999500D02*
X186471378Y-94200000D01*
%TO.N,Net-(J5-Pin_4)*%
X204650000Y-114400000D02*
X202200000Y-114400000D01*
X200925000Y-113125000D02*
X198755000Y-113125000D01*
X195140000Y-116740000D02*
X197680000Y-114200000D01*
X202200000Y-114400000D02*
X200925000Y-113125000D01*
X205400000Y-115150000D02*
X204650000Y-114400000D01*
X198755000Y-113125000D02*
X197680000Y-114200000D01*
D52*
%TO.N,/UART1_TX*%
X187926300Y-96600000D02*
X187526300Y-97000000D01*
X188925000Y-96600000D02*
X187926300Y-96600000D01*
X183140000Y-97000000D02*
X181140000Y-99000000D01*
X187526300Y-97000000D02*
X183140000Y-97000000D01*
%TO.N,/UART1_RX*%
X188021274Y-97000000D02*
X187671275Y-97350000D01*
X187671275Y-97350000D02*
X185330000Y-97350000D01*
X185330000Y-97350000D02*
X183680000Y-99000000D01*
X188925000Y-97000000D02*
X188021274Y-97000000D01*
D50*
%TO.N,/WiFi_RX{slash}GPIO3*%
X194962500Y-99225000D02*
X194962500Y-98637500D01*
X197010004Y-101272504D02*
X194962500Y-99225000D01*
X197327496Y-101272504D02*
X197010004Y-101272504D01*
%TO.N,/SPI0_SCK*%
X188925000Y-95400000D02*
X188498591Y-95400000D01*
X188498591Y-95400000D02*
X188398591Y-95300000D01*
%TO.N,/SPI0_TX*%
X188925000Y-95800000D02*
X187901300Y-95800000D01*
X187901300Y-95800000D02*
X187701300Y-95600000D01*
%TO.N,/PWM7A*%
X190562500Y-97616026D02*
X190562500Y-98637500D01*
X190687000Y-97491526D02*
X190562500Y-97616026D01*
%TO.N,Net-(U1-RUN)*%
X194162500Y-98211091D02*
X194162500Y-98637500D01*
D51*
X203542500Y-100800000D02*
X203542500Y-102300000D01*
D50*
X194773591Y-97600000D02*
X194162500Y-98211091D01*
X194800000Y-97600000D02*
X194773591Y-97600000D01*
D51*
X203542500Y-99300000D02*
X203542500Y-100800000D01*
D50*
X198800000Y-100800000D02*
X197200000Y-99200000D01*
X203542500Y-100800000D02*
X198800000Y-100800000D01*
%TO.N,/IMU_AD0*%
X205382537Y-94075000D02*
X205875000Y-94075000D01*
X204345000Y-94200000D02*
X205257537Y-94200000D01*
X205875000Y-94075000D02*
X212450000Y-100650000D01*
X214575000Y-100650000D02*
X215650000Y-101725000D01*
X212450000Y-100650000D02*
X214575000Y-100650000D01*
X205257537Y-94200000D02*
X205382537Y-94075000D01*
%TO.N,/PWM7B*%
X191212000Y-97708989D02*
X190962500Y-97958489D01*
X190962500Y-97958489D02*
X190962500Y-98637500D01*
X193750973Y-97025000D02*
X191461063Y-97025000D01*
X191212000Y-97274063D02*
X191212000Y-97708989D01*
X191461063Y-97025000D02*
X191212000Y-97274063D01*
X194088959Y-97362986D02*
X193750973Y-97025000D01*
%TO.N,Net-(J11-Pad10)*%
X215650000Y-91565000D02*
X217185000Y-93100000D01*
X217185000Y-93100000D02*
X218942500Y-93100000D01*
X218942500Y-93100000D02*
X218942500Y-96100000D01*
%TO.N,/ADC3{slash}PWM6B*%
X195800000Y-93000000D02*
X197000000Y-93000000D01*
X197000000Y-93000000D02*
X197200000Y-93200000D01*
%TO.N,Net-(J11-Pad12)*%
X221400000Y-88800000D02*
X221175000Y-89025000D01*
X221175000Y-89025000D02*
X215650000Y-89025000D01*
X221400000Y-88800000D02*
X221400000Y-87600000D01*
X221400000Y-90600000D02*
X221400000Y-88800000D01*
D54*
%TO.N,Net-(J13-Pin_1)*%
X213295000Y-73393900D02*
X209845000Y-76843900D01*
X209845000Y-76843900D02*
X201895000Y-76843900D01*
X201895000Y-76843900D02*
X196095000Y-71043900D01*
%TO.N,Net-(J13-Pin_2)*%
X206095000Y-73393900D02*
X200912500Y-68211400D01*
X196427500Y-68211400D02*
X196095000Y-68543900D01*
X200912500Y-68211400D02*
X196427500Y-68211400D01*
D50*
%TO.N,/IMU_SDA*%
X201255000Y-95000000D02*
X195800000Y-95000000D01*
%TO.N,/IMU_SCL*%
X196226409Y-94600000D02*
X195800000Y-94600000D01*
X196326409Y-94700000D02*
X196226409Y-94600000D01*
X200716600Y-94700000D02*
X196326409Y-94700000D01*
X201255000Y-94600000D02*
X200816600Y-94600000D01*
X200816600Y-94600000D02*
X200716600Y-94700000D01*
%TO.N,+3V3*%
X191504400Y-85961937D02*
X191504400Y-87216300D01*
X192962500Y-91762500D02*
X192562500Y-91762500D01*
X200220000Y-116740000D02*
X203110000Y-116740000D01*
D52*
X197400000Y-91120700D02*
X196679300Y-90400000D01*
D50*
X192953520Y-97695276D02*
X192562500Y-98086296D01*
D52*
X203800000Y-92455000D02*
X203800000Y-91600000D01*
X192562500Y-99916800D02*
X192200000Y-100279300D01*
D51*
X200584900Y-88170600D02*
X196006996Y-88170600D01*
D50*
X188925000Y-92600000D02*
X188125000Y-91800000D01*
X203400000Y-116450000D02*
X205400000Y-116450000D01*
D52*
X197400000Y-91400000D02*
X197400000Y-91120700D01*
D50*
X188125000Y-91800000D02*
X187320700Y-91800000D01*
D51*
X196006996Y-88170600D02*
X190986396Y-83150000D01*
D50*
X183100000Y-105200000D02*
X183100000Y-106900000D01*
D52*
X197400000Y-92041400D02*
X197558600Y-92200000D01*
D51*
X190986396Y-83150000D02*
X184750000Y-83150000D01*
D52*
X192562500Y-98637500D02*
X192562500Y-99916800D01*
D50*
X192562500Y-98086296D02*
X192562500Y-98637500D01*
D51*
X182600000Y-81163604D02*
X182600000Y-79150000D01*
D50*
X183100000Y-106900000D02*
X183000000Y-107000000D01*
D51*
X200584900Y-88384900D02*
X200584900Y-88170600D01*
D50*
X191504400Y-87216300D02*
X191000000Y-87720700D01*
X194562500Y-91762500D02*
X195200000Y-91125000D01*
X195200000Y-91125000D02*
X195200000Y-90120700D01*
D52*
X197400000Y-91400000D02*
X197400000Y-92041400D01*
D50*
X190237463Y-84695000D02*
X191504400Y-85961937D01*
D51*
X184750000Y-83150000D02*
X184400000Y-82800000D01*
D50*
X194962500Y-91762500D02*
X196325000Y-90400000D01*
X191000000Y-88400000D02*
X191000000Y-87720700D01*
X186806791Y-92313909D02*
X187320700Y-91800000D01*
X203110000Y-116740000D02*
X203400000Y-116450000D01*
D51*
X182600000Y-79150000D02*
X183950000Y-77800000D01*
D50*
X192562500Y-91762500D02*
X192562500Y-89962500D01*
X196200000Y-92200000D02*
X197558600Y-92200000D01*
X188925000Y-96200000D02*
X187320700Y-96200000D01*
X195800000Y-92600000D02*
X196200000Y-92200000D01*
D51*
X184400000Y-82800000D02*
X184236396Y-82800000D01*
D50*
X192562500Y-89962500D02*
X191000000Y-88400000D01*
X196325000Y-90400000D02*
X196679300Y-90400000D01*
%TO.N,Net-(R3-Pad1)*%
X175000000Y-74757500D02*
X177057500Y-72700000D01*
X175000000Y-75600000D02*
X175000000Y-74757500D01*
X177057500Y-72700000D02*
X177057500Y-69700000D01*
D51*
%TO.N,+5V*%
X184088200Y-74849100D02*
X184014000Y-74774900D01*
X194295000Y-80673200D02*
X194295000Y-79003900D01*
X184014000Y-74774900D02*
X184164000Y-74624900D01*
X194295000Y-79003900D02*
X194305000Y-78993900D01*
X186965300Y-74849100D02*
X184088200Y-74849100D01*
D54*
%TO.N,Net-(J14-Pin_2)*%
X215385000Y-84223900D02*
X215495000Y-84333900D01*
X201720000Y-84223900D02*
X198169300Y-80673200D01*
X198169300Y-80673200D02*
X197295000Y-80673200D01*
D51*
X197295000Y-80673200D02*
X197295000Y-78993900D01*
D54*
X201720000Y-84223900D02*
X215385000Y-84223900D01*
D55*
X206185000Y-84223900D02*
X206295000Y-84333900D01*
D50*
%TO.N,Net-(J5-Pin_6)*%
X199145000Y-115275000D02*
X197680000Y-116740000D01*
D51*
X208542500Y-114700000D02*
X208300000Y-114700000D01*
D50*
X203275000Y-115275000D02*
X199145000Y-115275000D01*
D51*
X208300000Y-114700000D02*
X206800000Y-113200000D01*
D50*
X203400000Y-115150000D02*
X203275000Y-115275000D01*
D51*
X208542500Y-114700000D02*
X208542500Y-111700000D01*
%TD*%
M02*
