%TF.GenerationSoftware,KiCad,Pcbnew,7.0.1*%
%TF.CreationDate,2023-05-24T15:14:25-04:00*%
%TF.ProjectId,Drone_PCB,44726f6e-655f-4504-9342-2e6b69636164,rev?*%
%TF.SameCoordinates,Original*%
%TF.FileFunction,Paste,Top*%
%TF.FilePolarity,Positive*%
%FSLAX46Y46*%
G04 Gerber Fmt 4.6, Leading zero omitted, Abs format (unit mm)*
G04 Created by KiCad (PCBNEW 7.0.1) date 2023-05-24 15:14:25*
%MOMM*%
%LPD*%
G01*
G04 APERTURE LIST*
G04 Aperture macros list*
%AMRoundRect*
0 Rectangle with rounded corners*
0 $1 Rounding radius*
0 $2 $3 $4 $5 $6 $7 $8 $9 X,Y pos of 4 corners*
0 Add a 4 corners polygon primitive as box body*
4,1,4,$2,$3,$4,$5,$6,$7,$8,$9,$2,$3,0*
0 Add four circle primitives for the rounded corners*
1,1,$1+$1,$2,$3*
1,1,$1+$1,$4,$5*
1,1,$1+$1,$6,$7*
1,1,$1+$1,$8,$9*
0 Add four rect primitives between the rounded corners*
20,1,$1+$1,$2,$3,$4,$5,0*
20,1,$1+$1,$4,$5,$6,$7,0*
20,1,$1+$1,$6,$7,$8,$9,0*
20,1,$1+$1,$8,$9,$2,$3,0*%
G04 Aperture macros list end*
%ADD10R,0.590000X0.630000*%
%ADD11R,0.700000X0.900000*%
%ADD12R,0.630000X0.590000*%
%ADD13R,1.200000X2.200000*%
%ADD14R,3.500000X2.200000*%
%ADD15R,2.100000X5.600000*%
%ADD16R,1.701800X0.990600*%
%ADD17R,0.990600X1.701800*%
%ADD18RoundRect,0.250000X-0.292217X-0.292217X0.292217X-0.292217X0.292217X0.292217X-0.292217X0.292217X0*%
%ADD19RoundRect,0.050000X-0.387500X-0.050000X0.387500X-0.050000X0.387500X0.050000X-0.387500X0.050000X0*%
%ADD20RoundRect,0.050000X-0.050000X-0.387500X0.050000X-0.387500X0.050000X0.387500X-0.050000X0.387500X0*%
%ADD21R,0.930000X0.870000*%
%ADD22R,1.524000X0.533400*%
%ADD23R,1.250000X0.855600*%
%ADD24R,0.540000X0.600000*%
%ADD25RoundRect,0.075600X0.194400X-0.224400X0.194400X0.224400X-0.194400X0.224400X-0.194400X-0.224400X0*%
%ADD26R,0.630000X0.560000*%
%ADD27RoundRect,0.006600X-0.313400X-0.103400X0.313400X-0.103400X0.313400X0.103400X-0.313400X0.103400X0*%
%ADD28RoundRect,0.006600X0.103400X-0.313400X0.103400X0.313400X-0.103400X0.313400X-0.103400X-0.313400X0*%
%ADD29RoundRect,0.006600X0.313400X0.103400X-0.313400X0.103400X-0.313400X-0.103400X0.313400X-0.103400X0*%
%ADD30RoundRect,0.006600X-0.103400X0.313400X-0.103400X-0.313400X0.103400X-0.313400X0.103400X0.313400X0*%
%ADD31R,0.900000X0.700000*%
%ADD32R,1.549400X0.609600*%
%ADD33R,0.800000X1.500000*%
%ADD34R,1.000000X0.950000*%
%ADD35R,1.300000X1.400000*%
%ADD36R,1.400000X1.900000*%
%ADD37R,0.600000X0.590000*%
%ADD38R,0.482600X1.397000*%
%ADD39R,0.558800X1.397000*%
%ADD40R,0.400000X1.350000*%
%ADD41R,1.600000X1.400000*%
%ADD42R,1.900000X1.900000*%
G04 APERTURE END LIST*
%TO.C,U7*%
G36*
X132148900Y-112025600D02*
G01*
X130599500Y-112025600D01*
X130599500Y-108774400D01*
X132148900Y-108774400D01*
X132148900Y-112025600D01*
G37*
%TO.C,U4*%
G36*
X150914400Y-103304800D02*
G01*
X150279400Y-103939800D01*
X150279400Y-104295400D01*
X149720600Y-104295400D01*
X149720600Y-103939800D01*
X149085600Y-103304800D01*
X149085600Y-101044200D01*
X150914400Y-101044200D01*
X150914400Y-103304800D01*
G37*
%TD*%
D10*
%TO.C,C3*%
X127840000Y-111600000D03*
X127000000Y-111600000D03*
%TD*%
D11*
%TO.C,R10*%
X161050000Y-139600000D03*
X159750000Y-139600000D03*
%TD*%
D12*
%TO.C,C8*%
X143600000Y-146820000D03*
X143600000Y-145980000D03*
%TD*%
D13*
%TO.C,U2*%
X149700000Y-110100000D03*
X147400000Y-110100000D03*
X145100000Y-110100000D03*
D14*
X147400000Y-116300000D03*
%TD*%
D15*
%TO.C,Y1*%
X132800000Y-136250000D03*
X132800000Y-145750000D03*
%TD*%
D16*
%TO.C,SW5*%
X175400000Y-119800000D03*
X181115000Y-119800000D03*
X175400000Y-122800000D03*
X181115000Y-122800000D03*
%TD*%
D17*
%TO.C,SW2*%
X146500000Y-138857500D03*
X146500000Y-133142500D03*
X149500000Y-138857500D03*
X149500000Y-133142500D03*
%TD*%
D12*
%TO.C,C6*%
X149600000Y-125020000D03*
X149600000Y-124180000D03*
%TD*%
D11*
%TO.C,R6*%
X152850000Y-123400000D03*
X151550000Y-123400000D03*
%TD*%
D18*
%TO.C,U1*%
X136762500Y-125037500D03*
X136762500Y-126312500D03*
X138037500Y-125037500D03*
X138037500Y-126312500D03*
D19*
X133962500Y-123075000D03*
X133962500Y-123475000D03*
X133962500Y-123875000D03*
X133962500Y-124275000D03*
X133962500Y-124675000D03*
X133962500Y-125075000D03*
X133962500Y-125475000D03*
X133962500Y-125875000D03*
X133962500Y-126275000D03*
X133962500Y-126675000D03*
X133962500Y-127075000D03*
X133962500Y-127475000D03*
X133962500Y-127875000D03*
X133962500Y-128275000D03*
D20*
X134800000Y-129112500D03*
X135200000Y-129112500D03*
X135600000Y-129112500D03*
X136000000Y-129112500D03*
X136400000Y-129112500D03*
X136800000Y-129112500D03*
X137200000Y-129112500D03*
X137600000Y-129112500D03*
X138000000Y-129112500D03*
X138400000Y-129112500D03*
X138800000Y-129112500D03*
X139200000Y-129112500D03*
X139600000Y-129112500D03*
X140000000Y-129112500D03*
D19*
X140837500Y-128275000D03*
X140837500Y-127875000D03*
X140837500Y-127475000D03*
X140837500Y-127075000D03*
X140837500Y-126675000D03*
X140837500Y-126275000D03*
X140837500Y-125875000D03*
X140837500Y-125475000D03*
X140837500Y-125075000D03*
X140837500Y-124675000D03*
X140837500Y-124275000D03*
X140837500Y-123875000D03*
X140837500Y-123475000D03*
X140837500Y-123075000D03*
D20*
X140000000Y-122237500D03*
X139600000Y-122237500D03*
X139200000Y-122237500D03*
X138800000Y-122237500D03*
X138400000Y-122237500D03*
X138000000Y-122237500D03*
X137600000Y-122237500D03*
X137200000Y-122237500D03*
X136800000Y-122237500D03*
X136400000Y-122237500D03*
X136000000Y-122237500D03*
X135600000Y-122237500D03*
X135200000Y-122237500D03*
X134800000Y-122237500D03*
%TD*%
D10*
%TO.C,C23*%
X143000000Y-121800000D03*
X143840000Y-121800000D03*
%TD*%
%TO.C,C20*%
X130820000Y-128400000D03*
X129980000Y-128400000D03*
%TD*%
D21*
%TO.C,C14*%
X142800000Y-119762500D03*
X142800000Y-118202500D03*
%TD*%
D12*
%TO.C,C16*%
X138400000Y-131180000D03*
X138400000Y-132020000D03*
%TD*%
D21*
%TO.C,C26*%
X154000000Y-106980000D03*
X154000000Y-105420000D03*
%TD*%
D22*
%TO.C,U5*%
X123592600Y-114932500D03*
X123592600Y-116202500D03*
X123592600Y-117472500D03*
X123592600Y-118742500D03*
X130882400Y-118742500D03*
X130882400Y-117472500D03*
X130882400Y-116202500D03*
X130882400Y-114932500D03*
%TD*%
D23*
%TO.C,C11*%
X135600000Y-103472200D03*
X135600000Y-105327800D03*
%TD*%
D21*
%TO.C,C13*%
X140800000Y-119780000D03*
X140800000Y-118220000D03*
%TD*%
D17*
%TO.C,SW1*%
X118700000Y-109342500D03*
X118700000Y-115057500D03*
X115700000Y-109342500D03*
X115700000Y-115057500D03*
%TD*%
D24*
%TO.C,R12*%
X153232000Y-129000000D03*
X152368000Y-129000000D03*
%TD*%
D12*
%TO.C,C18*%
X138200000Y-118980000D03*
X138200000Y-119820000D03*
%TD*%
D25*
%TO.C,C4*%
X136370000Y-139000000D03*
X137230000Y-139000000D03*
%TD*%
D24*
%TO.C,R11*%
X155368000Y-123600000D03*
X156232000Y-123600000D03*
%TD*%
D12*
%TO.C,C9*%
X141420000Y-146820000D03*
X141420000Y-145980000D03*
%TD*%
%TO.C,C15*%
X136200000Y-119020000D03*
X136200000Y-118180000D03*
%TD*%
D26*
%TO.C,C24*%
X149600000Y-127165000D03*
X149600000Y-128035000D03*
%TD*%
D11*
%TO.C,R3*%
X119550000Y-118000000D03*
X120850000Y-118000000D03*
%TD*%
D10*
%TO.C,C22*%
X132020000Y-122637500D03*
X131180000Y-122637500D03*
%TD*%
%TO.C,C25*%
X149800000Y-107000000D03*
X148960000Y-107000000D03*
%TD*%
D25*
%TO.C,C5*%
X136370000Y-136200000D03*
X137230000Y-136200000D03*
%TD*%
D11*
%TO.C,R5*%
X152850000Y-120800000D03*
X151550000Y-120800000D03*
%TD*%
D27*
%TO.C,U3*%
X140955000Y-141500000D03*
X140955000Y-141900000D03*
X140955000Y-142300000D03*
X140955000Y-142700000D03*
X140955000Y-143100000D03*
X140955000Y-143500000D03*
D28*
X141500000Y-144045000D03*
X141900000Y-144045000D03*
X142300000Y-144045000D03*
X142700000Y-144045000D03*
X143100000Y-144045000D03*
X143500000Y-144045000D03*
D29*
X144045000Y-143500000D03*
X144045000Y-143100000D03*
X144045000Y-142700000D03*
X144045000Y-142300000D03*
X144045000Y-141900000D03*
X144045000Y-141500000D03*
D30*
X143500000Y-140955000D03*
X143100000Y-140955000D03*
X142700000Y-140955000D03*
X142300000Y-140955000D03*
X141900000Y-140955000D03*
X141500000Y-140955000D03*
%TD*%
D23*
%TO.C,C10*%
X127800000Y-129872200D03*
X127800000Y-131727800D03*
%TD*%
D31*
%TO.C,R9*%
X163600000Y-143150000D03*
X163600000Y-144450000D03*
%TD*%
D12*
%TO.C,C17*%
X136400000Y-132020000D03*
X136400000Y-131180000D03*
%TD*%
D24*
%TO.C,R8*%
X141264000Y-135600000D03*
X140400000Y-135600000D03*
%TD*%
D16*
%TO.C,SW4*%
X175400000Y-126600000D03*
X181115000Y-126600000D03*
X175400000Y-129600000D03*
X181115000Y-129600000D03*
%TD*%
D32*
%TO.C,U7*%
X137825800Y-112698700D03*
X137825800Y-110400000D03*
X137825800Y-108101300D03*
%TD*%
D33*
%TO.C,J1*%
X119800000Y-137940000D03*
X120900000Y-138340000D03*
X122000000Y-137940000D03*
X123100000Y-137740000D03*
X124200000Y-137940000D03*
X125300000Y-137740000D03*
X126400000Y-137940000D03*
X127500000Y-137940000D03*
D34*
X125300000Y-149025000D03*
D35*
X126690000Y-148800000D03*
X120990000Y-148800000D03*
D36*
X115140000Y-134650000D03*
X128290000Y-135650000D03*
%TD*%
D37*
%TO.C,R2*%
X140000000Y-115600000D03*
X140000000Y-116440000D03*
%TD*%
D38*
%TO.C,U4*%
X148505000Y-104993900D03*
D39*
X150000000Y-104993900D03*
D38*
X151495000Y-104993900D03*
%TD*%
D10*
%TO.C,C19*%
X143840000Y-123400000D03*
X143000000Y-123400000D03*
%TD*%
D23*
%TO.C,C12*%
X140200000Y-110672200D03*
X140200000Y-112527800D03*
%TD*%
D31*
%TO.C,R4*%
X134200000Y-130950000D03*
X134200000Y-132250000D03*
%TD*%
D10*
%TO.C,C21*%
X142980000Y-127000000D03*
X143820000Y-127000000D03*
%TD*%
D40*
%TO.C,J2*%
X143300000Y-104400000D03*
X142650000Y-104400000D03*
X142000000Y-104400000D03*
X141350000Y-104400000D03*
X140700000Y-104400000D03*
D41*
X145200000Y-104175000D03*
X138800000Y-104175000D03*
D42*
X140800000Y-101725000D03*
X143200000Y-101725000D03*
%TD*%
D23*
%TO.C,C2*%
X152200000Y-110072200D03*
X152200000Y-111927800D03*
%TD*%
D37*
%TO.C,R1*%
X138200000Y-115780000D03*
X138200000Y-116620000D03*
%TD*%
D23*
%TO.C,C1*%
X152200000Y-115527800D03*
X152200000Y-113672200D03*
%TD*%
D24*
%TO.C,R7*%
X142568000Y-137800000D03*
X143432000Y-137800000D03*
%TD*%
D17*
%TO.C,SW3*%
X166600000Y-145257500D03*
X166600000Y-139542500D03*
X169600000Y-145257500D03*
X169600000Y-139542500D03*
%TD*%
D10*
%TO.C,C7*%
X146380000Y-143800000D03*
X147220000Y-143800000D03*
%TD*%
M02*
