%TF.GenerationSoftware,KiCad,Pcbnew,7.0.1*%
%TF.CreationDate,2023-05-24T15:14:26-04:00*%
%TF.ProjectId,Drone_PCB,44726f6e-655f-4504-9342-2e6b69636164,rev?*%
%TF.SameCoordinates,Original*%
%TF.FileFunction,Legend,Top*%
%TF.FilePolarity,Positive*%
%FSLAX46Y46*%
G04 Gerber Fmt 4.6, Leading zero omitted, Abs format (unit mm)*
G04 Created by KiCad (PCBNEW 7.0.1) date 2023-05-24 15:14:26*
%MOMM*%
%LPD*%
G01*
G04 APERTURE LIST*
%ADD10C,0.120000*%
%ADD11C,0.150000*%
%ADD12C,0.300000*%
%ADD13C,0.225000*%
%ADD14C,0.098425*%
%ADD15C,0.078847*%
%ADD16C,0.125000*%
%ADD17C,0.123775*%
%ADD18C,0.078850*%
%ADD19C,0.200000*%
%ADD20C,0.127000*%
%ADD21C,0.152400*%
G04 APERTURE END LIST*
D10*
X117000000Y-127100000D02*
X117000000Y-122000000D01*
X111380000Y-127100000D02*
X119600000Y-127100000D01*
X119600000Y-132200000D01*
X111380000Y-132200000D01*
X111380000Y-127100000D01*
X117000000Y-124550000D02*
X114410000Y-124550000D01*
X119600000Y-129650000D02*
X111380000Y-129650000D01*
X114400000Y-122000000D02*
X119600000Y-122000000D01*
X119600000Y-127100000D01*
X114400000Y-127100000D01*
X114400000Y-122000000D01*
X117000000Y-124550000D02*
X119590000Y-124550000D01*
X115660000Y-132180000D02*
X115660000Y-127140000D01*
D11*
X113260000Y-125909523D02*
X113307619Y-125766666D01*
X113307619Y-125766666D02*
X113307619Y-125528571D01*
X113307619Y-125528571D02*
X113260000Y-125433333D01*
X113260000Y-125433333D02*
X113212380Y-125385714D01*
X113212380Y-125385714D02*
X113117142Y-125338095D01*
X113117142Y-125338095D02*
X113021904Y-125338095D01*
X113021904Y-125338095D02*
X112926666Y-125385714D01*
X112926666Y-125385714D02*
X112879047Y-125433333D01*
X112879047Y-125433333D02*
X112831428Y-125528571D01*
X112831428Y-125528571D02*
X112783809Y-125719047D01*
X112783809Y-125719047D02*
X112736190Y-125814285D01*
X112736190Y-125814285D02*
X112688571Y-125861904D01*
X112688571Y-125861904D02*
X112593333Y-125909523D01*
X112593333Y-125909523D02*
X112498095Y-125909523D01*
X112498095Y-125909523D02*
X112402857Y-125861904D01*
X112402857Y-125861904D02*
X112355238Y-125814285D01*
X112355238Y-125814285D02*
X112307619Y-125719047D01*
X112307619Y-125719047D02*
X112307619Y-125480952D01*
X112307619Y-125480952D02*
X112355238Y-125338095D01*
X113307619Y-124909523D02*
X112307619Y-124909523D01*
X112307619Y-124909523D02*
X112307619Y-124528571D01*
X112307619Y-124528571D02*
X112355238Y-124433333D01*
X112355238Y-124433333D02*
X112402857Y-124385714D01*
X112402857Y-124385714D02*
X112498095Y-124338095D01*
X112498095Y-124338095D02*
X112640952Y-124338095D01*
X112640952Y-124338095D02*
X112736190Y-124385714D01*
X112736190Y-124385714D02*
X112783809Y-124433333D01*
X112783809Y-124433333D02*
X112831428Y-124528571D01*
X112831428Y-124528571D02*
X112831428Y-124909523D01*
X113307619Y-123909523D02*
X112307619Y-123909523D01*
X112307619Y-123242857D02*
X112307619Y-123147619D01*
X112307619Y-123147619D02*
X112355238Y-123052381D01*
X112355238Y-123052381D02*
X112402857Y-123004762D01*
X112402857Y-123004762D02*
X112498095Y-122957143D01*
X112498095Y-122957143D02*
X112688571Y-122909524D01*
X112688571Y-122909524D02*
X112926666Y-122909524D01*
X112926666Y-122909524D02*
X113117142Y-122957143D01*
X113117142Y-122957143D02*
X113212380Y-123004762D01*
X113212380Y-123004762D02*
X113260000Y-123052381D01*
X113260000Y-123052381D02*
X113307619Y-123147619D01*
X113307619Y-123147619D02*
X113307619Y-123242857D01*
X113307619Y-123242857D02*
X113260000Y-123338095D01*
X113260000Y-123338095D02*
X113212380Y-123385714D01*
X113212380Y-123385714D02*
X113117142Y-123433333D01*
X113117142Y-123433333D02*
X112926666Y-123480952D01*
X112926666Y-123480952D02*
X112688571Y-123480952D01*
X112688571Y-123480952D02*
X112498095Y-123433333D01*
X112498095Y-123433333D02*
X112402857Y-123385714D01*
X112402857Y-123385714D02*
X112355238Y-123338095D01*
X112355238Y-123338095D02*
X112307619Y-123242857D01*
X107161904Y-137477619D02*
X106590476Y-137477619D01*
X106876190Y-137477619D02*
X106876190Y-136477619D01*
X106876190Y-136477619D02*
X106780952Y-136620476D01*
X106780952Y-136620476D02*
X106685714Y-136715714D01*
X106685714Y-136715714D02*
X106590476Y-136763333D01*
X107923809Y-136953809D02*
X108066666Y-137001428D01*
X108066666Y-137001428D02*
X108114285Y-137049047D01*
X108114285Y-137049047D02*
X108161904Y-137144285D01*
X108161904Y-137144285D02*
X108161904Y-137287142D01*
X108161904Y-137287142D02*
X108114285Y-137382380D01*
X108114285Y-137382380D02*
X108066666Y-137430000D01*
X108066666Y-137430000D02*
X107971428Y-137477619D01*
X107971428Y-137477619D02*
X107590476Y-137477619D01*
X107590476Y-137477619D02*
X107590476Y-136477619D01*
X107590476Y-136477619D02*
X107923809Y-136477619D01*
X107923809Y-136477619D02*
X108019047Y-136525238D01*
X108019047Y-136525238D02*
X108066666Y-136572857D01*
X108066666Y-136572857D02*
X108114285Y-136668095D01*
X108114285Y-136668095D02*
X108114285Y-136763333D01*
X108114285Y-136763333D02*
X108066666Y-136858571D01*
X108066666Y-136858571D02*
X108019047Y-136906190D01*
X108019047Y-136906190D02*
X107923809Y-136953809D01*
X107923809Y-136953809D02*
X107590476Y-136953809D01*
D12*
X171757142Y-133445000D02*
X172900000Y-133445000D01*
X112476190Y-146193333D02*
X114000000Y-146193333D01*
X113238095Y-146955238D02*
X113238095Y-145431428D01*
X112476190Y-143593333D02*
X114000000Y-143593333D01*
X171476190Y-146393333D02*
X173000000Y-146393333D01*
X172238095Y-147155238D02*
X172238095Y-145631428D01*
X179420000Y-112993333D02*
X180943810Y-112993333D01*
D11*
X105238095Y-128277619D02*
X105238095Y-127277619D01*
X105238095Y-127277619D02*
X105571428Y-127991904D01*
X105571428Y-127991904D02*
X105904761Y-127277619D01*
X105904761Y-127277619D02*
X105904761Y-128277619D01*
X106380952Y-128277619D02*
X106380952Y-127277619D01*
X106809523Y-128230000D02*
X106952380Y-128277619D01*
X106952380Y-128277619D02*
X107190475Y-128277619D01*
X107190475Y-128277619D02*
X107285713Y-128230000D01*
X107285713Y-128230000D02*
X107333332Y-128182380D01*
X107333332Y-128182380D02*
X107380951Y-128087142D01*
X107380951Y-128087142D02*
X107380951Y-127991904D01*
X107380951Y-127991904D02*
X107333332Y-127896666D01*
X107333332Y-127896666D02*
X107285713Y-127849047D01*
X107285713Y-127849047D02*
X107190475Y-127801428D01*
X107190475Y-127801428D02*
X106999999Y-127753809D01*
X106999999Y-127753809D02*
X106904761Y-127706190D01*
X106904761Y-127706190D02*
X106857142Y-127658571D01*
X106857142Y-127658571D02*
X106809523Y-127563333D01*
X106809523Y-127563333D02*
X106809523Y-127468095D01*
X106809523Y-127468095D02*
X106857142Y-127372857D01*
X106857142Y-127372857D02*
X106904761Y-127325238D01*
X106904761Y-127325238D02*
X106999999Y-127277619D01*
X106999999Y-127277619D02*
X107238094Y-127277619D01*
X107238094Y-127277619D02*
X107380951Y-127325238D01*
X107999999Y-127277619D02*
X108190475Y-127277619D01*
X108190475Y-127277619D02*
X108285713Y-127325238D01*
X108285713Y-127325238D02*
X108380951Y-127420476D01*
X108380951Y-127420476D02*
X108428570Y-127610952D01*
X108428570Y-127610952D02*
X108428570Y-127944285D01*
X108428570Y-127944285D02*
X108380951Y-128134761D01*
X108380951Y-128134761D02*
X108285713Y-128230000D01*
X108285713Y-128230000D02*
X108190475Y-128277619D01*
X108190475Y-128277619D02*
X107999999Y-128277619D01*
X107999999Y-128277619D02*
X107904761Y-128230000D01*
X107904761Y-128230000D02*
X107809523Y-128134761D01*
X107809523Y-128134761D02*
X107761904Y-127944285D01*
X107761904Y-127944285D02*
X107761904Y-127610952D01*
X107761904Y-127610952D02*
X107809523Y-127420476D01*
X107809523Y-127420476D02*
X107904761Y-127325238D01*
X107904761Y-127325238D02*
X107999999Y-127277619D01*
X153677619Y-102971428D02*
X153677619Y-102780952D01*
X153677619Y-102780952D02*
X153725238Y-102685714D01*
X153725238Y-102685714D02*
X153820476Y-102590476D01*
X153820476Y-102590476D02*
X154010952Y-102542857D01*
X154010952Y-102542857D02*
X154344285Y-102542857D01*
X154344285Y-102542857D02*
X154534761Y-102590476D01*
X154534761Y-102590476D02*
X154630000Y-102685714D01*
X154630000Y-102685714D02*
X154677619Y-102780952D01*
X154677619Y-102780952D02*
X154677619Y-102971428D01*
X154677619Y-102971428D02*
X154630000Y-103066666D01*
X154630000Y-103066666D02*
X154534761Y-103161904D01*
X154534761Y-103161904D02*
X154344285Y-103209523D01*
X154344285Y-103209523D02*
X154010952Y-103209523D01*
X154010952Y-103209523D02*
X153820476Y-103161904D01*
X153820476Y-103161904D02*
X153725238Y-103066666D01*
X153725238Y-103066666D02*
X153677619Y-102971428D01*
X154153809Y-101780952D02*
X154153809Y-102114285D01*
X154677619Y-102114285D02*
X153677619Y-102114285D01*
X153677619Y-102114285D02*
X153677619Y-101638095D01*
X154153809Y-100923809D02*
X154153809Y-101257142D01*
X154677619Y-101257142D02*
X153677619Y-101257142D01*
X153677619Y-101257142D02*
X153677619Y-100780952D01*
X101808571Y-112477619D02*
X101903809Y-112477619D01*
X101903809Y-112477619D02*
X101999047Y-112525238D01*
X101999047Y-112525238D02*
X102046666Y-112572857D01*
X102046666Y-112572857D02*
X102094285Y-112668095D01*
X102094285Y-112668095D02*
X102141904Y-112858571D01*
X102141904Y-112858571D02*
X102141904Y-113096666D01*
X102141904Y-113096666D02*
X102094285Y-113287142D01*
X102094285Y-113287142D02*
X102046666Y-113382380D01*
X102046666Y-113382380D02*
X101999047Y-113430000D01*
X101999047Y-113430000D02*
X101903809Y-113477619D01*
X101903809Y-113477619D02*
X101808571Y-113477619D01*
X101808571Y-113477619D02*
X101713333Y-113430000D01*
X101713333Y-113430000D02*
X101665714Y-113382380D01*
X101665714Y-113382380D02*
X101618095Y-113287142D01*
X101618095Y-113287142D02*
X101570476Y-113096666D01*
X101570476Y-113096666D02*
X101570476Y-112858571D01*
X101570476Y-112858571D02*
X101618095Y-112668095D01*
X101618095Y-112668095D02*
X101665714Y-112572857D01*
X101665714Y-112572857D02*
X101713333Y-112525238D01*
X101713333Y-112525238D02*
X101808571Y-112477619D01*
X102522857Y-113191904D02*
X102999047Y-113191904D01*
X102427619Y-113477619D02*
X102760952Y-112477619D01*
X102760952Y-112477619D02*
X103094285Y-113477619D01*
X156942857Y-129693928D02*
X157300000Y-129693928D01*
X156871428Y-129908214D02*
X157121428Y-129158214D01*
X157121428Y-129158214D02*
X157371428Y-129908214D01*
X157621428Y-129908214D02*
X157621428Y-129158214D01*
X157621428Y-129158214D02*
X157799999Y-129158214D01*
X157799999Y-129158214D02*
X157907142Y-129193928D01*
X157907142Y-129193928D02*
X157978571Y-129265357D01*
X157978571Y-129265357D02*
X158014285Y-129336785D01*
X158014285Y-129336785D02*
X158049999Y-129479642D01*
X158049999Y-129479642D02*
X158049999Y-129586785D01*
X158049999Y-129586785D02*
X158014285Y-129729642D01*
X158014285Y-129729642D02*
X157978571Y-129801071D01*
X157978571Y-129801071D02*
X157907142Y-129872500D01*
X157907142Y-129872500D02*
X157799999Y-129908214D01*
X157799999Y-129908214D02*
X157621428Y-129908214D01*
X158799999Y-129836785D02*
X158764285Y-129872500D01*
X158764285Y-129872500D02*
X158657142Y-129908214D01*
X158657142Y-129908214D02*
X158585714Y-129908214D01*
X158585714Y-129908214D02*
X158478571Y-129872500D01*
X158478571Y-129872500D02*
X158407142Y-129801071D01*
X158407142Y-129801071D02*
X158371428Y-129729642D01*
X158371428Y-129729642D02*
X158335714Y-129586785D01*
X158335714Y-129586785D02*
X158335714Y-129479642D01*
X158335714Y-129479642D02*
X158371428Y-129336785D01*
X158371428Y-129336785D02*
X158407142Y-129265357D01*
X158407142Y-129265357D02*
X158478571Y-129193928D01*
X158478571Y-129193928D02*
X158585714Y-129158214D01*
X158585714Y-129158214D02*
X158657142Y-129158214D01*
X158657142Y-129158214D02*
X158764285Y-129193928D01*
X158764285Y-129193928D02*
X158799999Y-129229642D01*
X159264285Y-129158214D02*
X159335714Y-129158214D01*
X159335714Y-129158214D02*
X159407142Y-129193928D01*
X159407142Y-129193928D02*
X159442857Y-129229642D01*
X159442857Y-129229642D02*
X159478571Y-129301071D01*
X159478571Y-129301071D02*
X159514285Y-129443928D01*
X159514285Y-129443928D02*
X159514285Y-129622500D01*
X159514285Y-129622500D02*
X159478571Y-129765357D01*
X159478571Y-129765357D02*
X159442857Y-129836785D01*
X159442857Y-129836785D02*
X159407142Y-129872500D01*
X159407142Y-129872500D02*
X159335714Y-129908214D01*
X159335714Y-129908214D02*
X159264285Y-129908214D01*
X159264285Y-129908214D02*
X159192857Y-129872500D01*
X159192857Y-129872500D02*
X159157142Y-129836785D01*
X159157142Y-129836785D02*
X159121428Y-129765357D01*
X159121428Y-129765357D02*
X159085714Y-129622500D01*
X159085714Y-129622500D02*
X159085714Y-129443928D01*
X159085714Y-129443928D02*
X159121428Y-129301071D01*
X159121428Y-129301071D02*
X159157142Y-129229642D01*
X159157142Y-129229642D02*
X159192857Y-129193928D01*
X159192857Y-129193928D02*
X159264285Y-129158214D01*
X160371428Y-129122500D02*
X159728571Y-130086785D01*
X160978571Y-129158214D02*
X160621428Y-129158214D01*
X160621428Y-129158214D02*
X160585714Y-129515357D01*
X160585714Y-129515357D02*
X160621428Y-129479642D01*
X160621428Y-129479642D02*
X160692857Y-129443928D01*
X160692857Y-129443928D02*
X160871428Y-129443928D01*
X160871428Y-129443928D02*
X160942857Y-129479642D01*
X160942857Y-129479642D02*
X160978571Y-129515357D01*
X160978571Y-129515357D02*
X161014285Y-129586785D01*
X161014285Y-129586785D02*
X161014285Y-129765357D01*
X161014285Y-129765357D02*
X160978571Y-129836785D01*
X160978571Y-129836785D02*
X160942857Y-129872500D01*
X160942857Y-129872500D02*
X160871428Y-129908214D01*
X160871428Y-129908214D02*
X160692857Y-129908214D01*
X160692857Y-129908214D02*
X160621428Y-129872500D01*
X160621428Y-129872500D02*
X160585714Y-129836785D01*
X161300000Y-129693928D02*
X161657143Y-129693928D01*
X161228571Y-129908214D02*
X161478571Y-129158214D01*
X161478571Y-129158214D02*
X161728571Y-129908214D01*
D12*
X153614285Y-139316428D02*
X153971428Y-140816428D01*
X153971428Y-140816428D02*
X154257142Y-139745000D01*
X154257142Y-139745000D02*
X154542857Y-140816428D01*
X154542857Y-140816428D02*
X154900000Y-139316428D01*
X155471428Y-140816428D02*
X155471428Y-139816428D01*
X155471428Y-139316428D02*
X155400000Y-139387857D01*
X155400000Y-139387857D02*
X155471428Y-139459285D01*
X155471428Y-139459285D02*
X155542857Y-139387857D01*
X155542857Y-139387857D02*
X155471428Y-139316428D01*
X155471428Y-139316428D02*
X155471428Y-139459285D01*
X156685714Y-140030714D02*
X156185714Y-140030714D01*
X156185714Y-140816428D02*
X156185714Y-139316428D01*
X156185714Y-139316428D02*
X156900000Y-139316428D01*
X157471428Y-140816428D02*
X157471428Y-139816428D01*
X157471428Y-139316428D02*
X157400000Y-139387857D01*
X157400000Y-139387857D02*
X157471428Y-139459285D01*
X157471428Y-139459285D02*
X157542857Y-139387857D01*
X157542857Y-139387857D02*
X157471428Y-139316428D01*
X157471428Y-139316428D02*
X157471428Y-139459285D01*
D11*
X181953333Y-112477619D02*
X182572380Y-112477619D01*
X182572380Y-112477619D02*
X182239047Y-112858571D01*
X182239047Y-112858571D02*
X182381904Y-112858571D01*
X182381904Y-112858571D02*
X182477142Y-112906190D01*
X182477142Y-112906190D02*
X182524761Y-112953809D01*
X182524761Y-112953809D02*
X182572380Y-113049047D01*
X182572380Y-113049047D02*
X182572380Y-113287142D01*
X182572380Y-113287142D02*
X182524761Y-113382380D01*
X182524761Y-113382380D02*
X182477142Y-113430000D01*
X182477142Y-113430000D02*
X182381904Y-113477619D01*
X182381904Y-113477619D02*
X182096190Y-113477619D01*
X182096190Y-113477619D02*
X182000952Y-113430000D01*
X182000952Y-113430000D02*
X181953333Y-113382380D01*
X182953333Y-113191904D02*
X183429523Y-113191904D01*
X182858095Y-113477619D02*
X183191428Y-112477619D01*
X183191428Y-112477619D02*
X183524761Y-113477619D01*
X102161904Y-137477619D02*
X101590476Y-137477619D01*
X101876190Y-137477619D02*
X101876190Y-136477619D01*
X101876190Y-136477619D02*
X101780952Y-136620476D01*
X101780952Y-136620476D02*
X101685714Y-136715714D01*
X101685714Y-136715714D02*
X101590476Y-136763333D01*
X102542857Y-137191904D02*
X103019047Y-137191904D01*
X102447619Y-137477619D02*
X102780952Y-136477619D01*
X102780952Y-136477619D02*
X103114285Y-137477619D01*
X153178573Y-138293928D02*
X153535716Y-138293928D01*
X153107144Y-138508214D02*
X153357144Y-137758214D01*
X153357144Y-137758214D02*
X153607144Y-138508214D01*
X153857144Y-138008214D02*
X153857144Y-138508214D01*
X153857144Y-138079642D02*
X153892858Y-138043928D01*
X153892858Y-138043928D02*
X153964287Y-138008214D01*
X153964287Y-138008214D02*
X154071430Y-138008214D01*
X154071430Y-138008214D02*
X154142858Y-138043928D01*
X154142858Y-138043928D02*
X154178573Y-138115357D01*
X154178573Y-138115357D02*
X154178573Y-138508214D01*
X154428572Y-138008214D02*
X154714286Y-138008214D01*
X154535715Y-137758214D02*
X154535715Y-138401071D01*
X154535715Y-138401071D02*
X154571429Y-138472500D01*
X154571429Y-138472500D02*
X154642858Y-138508214D01*
X154642858Y-138508214D02*
X154714286Y-138508214D01*
X155250000Y-138472500D02*
X155178572Y-138508214D01*
X155178572Y-138508214D02*
X155035715Y-138508214D01*
X155035715Y-138508214D02*
X154964286Y-138472500D01*
X154964286Y-138472500D02*
X154928572Y-138401071D01*
X154928572Y-138401071D02*
X154928572Y-138115357D01*
X154928572Y-138115357D02*
X154964286Y-138043928D01*
X154964286Y-138043928D02*
X155035715Y-138008214D01*
X155035715Y-138008214D02*
X155178572Y-138008214D01*
X155178572Y-138008214D02*
X155250000Y-138043928D01*
X155250000Y-138043928D02*
X155285715Y-138115357D01*
X155285715Y-138115357D02*
X155285715Y-138186785D01*
X155285715Y-138186785D02*
X154928572Y-138258214D01*
X155607143Y-138008214D02*
X155607143Y-138508214D01*
X155607143Y-138079642D02*
X155642857Y-138043928D01*
X155642857Y-138043928D02*
X155714286Y-138008214D01*
X155714286Y-138008214D02*
X155821429Y-138008214D01*
X155821429Y-138008214D02*
X155892857Y-138043928D01*
X155892857Y-138043928D02*
X155928572Y-138115357D01*
X155928572Y-138115357D02*
X155928572Y-138508214D01*
X156285714Y-138008214D02*
X156285714Y-138508214D01*
X156285714Y-138079642D02*
X156321428Y-138043928D01*
X156321428Y-138043928D02*
X156392857Y-138008214D01*
X156392857Y-138008214D02*
X156500000Y-138008214D01*
X156500000Y-138008214D02*
X156571428Y-138043928D01*
X156571428Y-138043928D02*
X156607143Y-138115357D01*
X156607143Y-138115357D02*
X156607143Y-138508214D01*
X157285714Y-138508214D02*
X157285714Y-138115357D01*
X157285714Y-138115357D02*
X157249999Y-138043928D01*
X157249999Y-138043928D02*
X157178571Y-138008214D01*
X157178571Y-138008214D02*
X157035714Y-138008214D01*
X157035714Y-138008214D02*
X156964285Y-138043928D01*
X157285714Y-138472500D02*
X157214285Y-138508214D01*
X157214285Y-138508214D02*
X157035714Y-138508214D01*
X157035714Y-138508214D02*
X156964285Y-138472500D01*
X156964285Y-138472500D02*
X156928571Y-138401071D01*
X156928571Y-138401071D02*
X156928571Y-138329642D01*
X156928571Y-138329642D02*
X156964285Y-138258214D01*
X156964285Y-138258214D02*
X157035714Y-138222500D01*
X157035714Y-138222500D02*
X157214285Y-138222500D01*
X157214285Y-138222500D02*
X157285714Y-138186785D01*
X158499999Y-138508214D02*
X158499999Y-137936785D01*
X158357142Y-138079642D02*
X158499999Y-137936785D01*
X158499999Y-137936785D02*
X158642856Y-138079642D01*
X105238095Y-125677619D02*
X105238095Y-124677619D01*
X105238095Y-124677619D02*
X105571428Y-125391904D01*
X105571428Y-125391904D02*
X105904761Y-124677619D01*
X105904761Y-124677619D02*
X105904761Y-125677619D01*
X106571428Y-124677619D02*
X106761904Y-124677619D01*
X106761904Y-124677619D02*
X106857142Y-124725238D01*
X106857142Y-124725238D02*
X106952380Y-124820476D01*
X106952380Y-124820476D02*
X106999999Y-125010952D01*
X106999999Y-125010952D02*
X106999999Y-125344285D01*
X106999999Y-125344285D02*
X106952380Y-125534761D01*
X106952380Y-125534761D02*
X106857142Y-125630000D01*
X106857142Y-125630000D02*
X106761904Y-125677619D01*
X106761904Y-125677619D02*
X106571428Y-125677619D01*
X106571428Y-125677619D02*
X106476190Y-125630000D01*
X106476190Y-125630000D02*
X106380952Y-125534761D01*
X106380952Y-125534761D02*
X106333333Y-125344285D01*
X106333333Y-125344285D02*
X106333333Y-125010952D01*
X106333333Y-125010952D02*
X106380952Y-124820476D01*
X106380952Y-124820476D02*
X106476190Y-124725238D01*
X106476190Y-124725238D02*
X106571428Y-124677619D01*
X107380952Y-125630000D02*
X107523809Y-125677619D01*
X107523809Y-125677619D02*
X107761904Y-125677619D01*
X107761904Y-125677619D02*
X107857142Y-125630000D01*
X107857142Y-125630000D02*
X107904761Y-125582380D01*
X107904761Y-125582380D02*
X107952380Y-125487142D01*
X107952380Y-125487142D02*
X107952380Y-125391904D01*
X107952380Y-125391904D02*
X107904761Y-125296666D01*
X107904761Y-125296666D02*
X107857142Y-125249047D01*
X107857142Y-125249047D02*
X107761904Y-125201428D01*
X107761904Y-125201428D02*
X107571428Y-125153809D01*
X107571428Y-125153809D02*
X107476190Y-125106190D01*
X107476190Y-125106190D02*
X107428571Y-125058571D01*
X107428571Y-125058571D02*
X107380952Y-124963333D01*
X107380952Y-124963333D02*
X107380952Y-124868095D01*
X107380952Y-124868095D02*
X107428571Y-124772857D01*
X107428571Y-124772857D02*
X107476190Y-124725238D01*
X107476190Y-124725238D02*
X107571428Y-124677619D01*
X107571428Y-124677619D02*
X107809523Y-124677619D01*
X107809523Y-124677619D02*
X107952380Y-124725238D01*
X108380952Y-125677619D02*
X108380952Y-124677619D01*
X160507142Y-131758214D02*
X161007142Y-131758214D01*
X161007142Y-131758214D02*
X160685714Y-132508214D01*
X161542857Y-132115357D02*
X161650000Y-132151071D01*
X161650000Y-132151071D02*
X161685714Y-132186785D01*
X161685714Y-132186785D02*
X161721428Y-132258214D01*
X161721428Y-132258214D02*
X161721428Y-132365357D01*
X161721428Y-132365357D02*
X161685714Y-132436785D01*
X161685714Y-132436785D02*
X161650000Y-132472500D01*
X161650000Y-132472500D02*
X161578571Y-132508214D01*
X161578571Y-132508214D02*
X161292857Y-132508214D01*
X161292857Y-132508214D02*
X161292857Y-131758214D01*
X161292857Y-131758214D02*
X161542857Y-131758214D01*
X161542857Y-131758214D02*
X161614286Y-131793928D01*
X161614286Y-131793928D02*
X161650000Y-131829642D01*
X161650000Y-131829642D02*
X161685714Y-131901071D01*
X161685714Y-131901071D02*
X161685714Y-131972500D01*
X161685714Y-131972500D02*
X161650000Y-132043928D01*
X161650000Y-132043928D02*
X161614286Y-132079642D01*
X161614286Y-132079642D02*
X161542857Y-132115357D01*
X161542857Y-132115357D02*
X161292857Y-132115357D01*
X168178571Y-127308214D02*
X168178571Y-126558214D01*
X168178571Y-126558214D02*
X168357142Y-126558214D01*
X168357142Y-126558214D02*
X168464285Y-126593928D01*
X168464285Y-126593928D02*
X168535714Y-126665357D01*
X168535714Y-126665357D02*
X168571428Y-126736785D01*
X168571428Y-126736785D02*
X168607142Y-126879642D01*
X168607142Y-126879642D02*
X168607142Y-126986785D01*
X168607142Y-126986785D02*
X168571428Y-127129642D01*
X168571428Y-127129642D02*
X168535714Y-127201071D01*
X168535714Y-127201071D02*
X168464285Y-127272500D01*
X168464285Y-127272500D02*
X168357142Y-127308214D01*
X168357142Y-127308214D02*
X168178571Y-127308214D01*
X169500000Y-127308214D02*
X169500000Y-126558214D01*
X169857143Y-127308214D02*
X169857143Y-126558214D01*
X169857143Y-126558214D02*
X170285714Y-127308214D01*
X170285714Y-127308214D02*
X170285714Y-126558214D01*
X170535714Y-126558214D02*
X170964286Y-126558214D01*
X170750000Y-127308214D02*
X170750000Y-126558214D01*
X117878095Y-123316666D02*
X118640000Y-123316666D01*
D12*
X109256190Y-112793333D02*
X110780000Y-112793333D01*
D11*
X105238095Y-122696666D02*
X106000000Y-122696666D01*
X182180952Y-136572857D02*
X182228571Y-136525238D01*
X182228571Y-136525238D02*
X182323809Y-136477619D01*
X182323809Y-136477619D02*
X182561904Y-136477619D01*
X182561904Y-136477619D02*
X182657142Y-136525238D01*
X182657142Y-136525238D02*
X182704761Y-136572857D01*
X182704761Y-136572857D02*
X182752380Y-136668095D01*
X182752380Y-136668095D02*
X182752380Y-136763333D01*
X182752380Y-136763333D02*
X182704761Y-136906190D01*
X182704761Y-136906190D02*
X182133333Y-137477619D01*
X182133333Y-137477619D02*
X182752380Y-137477619D01*
X183133333Y-137191904D02*
X183609523Y-137191904D01*
X183038095Y-137477619D02*
X183371428Y-136477619D01*
X183371428Y-136477619D02*
X183704761Y-137477619D01*
D12*
X171757142Y-135245000D02*
X172900000Y-135245000D01*
X171476190Y-106193333D02*
X173000000Y-106193333D01*
D11*
X168428571Y-132115357D02*
X168178571Y-132115357D01*
X168178571Y-132508214D02*
X168178571Y-131758214D01*
X168178571Y-131758214D02*
X168535714Y-131758214D01*
X168785714Y-132472500D02*
X168892857Y-132508214D01*
X168892857Y-132508214D02*
X169071428Y-132508214D01*
X169071428Y-132508214D02*
X169142857Y-132472500D01*
X169142857Y-132472500D02*
X169178571Y-132436785D01*
X169178571Y-132436785D02*
X169214285Y-132365357D01*
X169214285Y-132365357D02*
X169214285Y-132293928D01*
X169214285Y-132293928D02*
X169178571Y-132222500D01*
X169178571Y-132222500D02*
X169142857Y-132186785D01*
X169142857Y-132186785D02*
X169071428Y-132151071D01*
X169071428Y-132151071D02*
X168928571Y-132115357D01*
X168928571Y-132115357D02*
X168857142Y-132079642D01*
X168857142Y-132079642D02*
X168821428Y-132043928D01*
X168821428Y-132043928D02*
X168785714Y-131972500D01*
X168785714Y-131972500D02*
X168785714Y-131901071D01*
X168785714Y-131901071D02*
X168821428Y-131829642D01*
X168821428Y-131829642D02*
X168857142Y-131793928D01*
X168857142Y-131793928D02*
X168928571Y-131758214D01*
X168928571Y-131758214D02*
X169107142Y-131758214D01*
X169107142Y-131758214D02*
X169214285Y-131793928D01*
X169678571Y-132151071D02*
X169678571Y-132508214D01*
X169428571Y-131758214D02*
X169678571Y-132151071D01*
X169678571Y-132151071D02*
X169928571Y-131758214D01*
X170178571Y-132508214D02*
X170178571Y-131758214D01*
X170178571Y-131758214D02*
X170607142Y-132508214D01*
X170607142Y-132508214D02*
X170607142Y-131758214D01*
X171392856Y-132436785D02*
X171357142Y-132472500D01*
X171357142Y-132472500D02*
X171249999Y-132508214D01*
X171249999Y-132508214D02*
X171178571Y-132508214D01*
X171178571Y-132508214D02*
X171071428Y-132472500D01*
X171071428Y-132472500D02*
X170999999Y-132401071D01*
X170999999Y-132401071D02*
X170964285Y-132329642D01*
X170964285Y-132329642D02*
X170928571Y-132186785D01*
X170928571Y-132186785D02*
X170928571Y-132079642D01*
X170928571Y-132079642D02*
X170964285Y-131936785D01*
X170964285Y-131936785D02*
X170999999Y-131865357D01*
X170999999Y-131865357D02*
X171071428Y-131793928D01*
X171071428Y-131793928D02*
X171178571Y-131758214D01*
X171178571Y-131758214D02*
X171249999Y-131758214D01*
X171249999Y-131758214D02*
X171357142Y-131793928D01*
X171357142Y-131793928D02*
X171392856Y-131829642D01*
D12*
X171757142Y-134045000D02*
X172900000Y-134045000D01*
D11*
X177778571Y-117558214D02*
X177778571Y-118165357D01*
X177778571Y-118165357D02*
X177814285Y-118236785D01*
X177814285Y-118236785D02*
X177850000Y-118272500D01*
X177850000Y-118272500D02*
X177921428Y-118308214D01*
X177921428Y-118308214D02*
X178064285Y-118308214D01*
X178064285Y-118308214D02*
X178135714Y-118272500D01*
X178135714Y-118272500D02*
X178171428Y-118236785D01*
X178171428Y-118236785D02*
X178207142Y-118165357D01*
X178207142Y-118165357D02*
X178207142Y-117558214D01*
X178564285Y-118308214D02*
X178564285Y-117558214D01*
X178564285Y-117558214D02*
X178849999Y-117558214D01*
X178849999Y-117558214D02*
X178921428Y-117593928D01*
X178921428Y-117593928D02*
X178957142Y-117629642D01*
X178957142Y-117629642D02*
X178992856Y-117701071D01*
X178992856Y-117701071D02*
X178992856Y-117808214D01*
X178992856Y-117808214D02*
X178957142Y-117879642D01*
X178957142Y-117879642D02*
X178921428Y-117915357D01*
X178921428Y-117915357D02*
X178849999Y-117951071D01*
X178849999Y-117951071D02*
X178564285Y-117951071D01*
D12*
X174400000Y-136993333D02*
X175923810Y-136993333D01*
D11*
X116128095Y-128857619D02*
X116128095Y-127857619D01*
X116128095Y-127857619D02*
X116461428Y-128571904D01*
X116461428Y-128571904D02*
X116794761Y-127857619D01*
X116794761Y-127857619D02*
X116794761Y-128857619D01*
X117270952Y-128857619D02*
X117270952Y-127857619D01*
X117699523Y-128810000D02*
X117842380Y-128857619D01*
X117842380Y-128857619D02*
X118080475Y-128857619D01*
X118080475Y-128857619D02*
X118175713Y-128810000D01*
X118175713Y-128810000D02*
X118223332Y-128762380D01*
X118223332Y-128762380D02*
X118270951Y-128667142D01*
X118270951Y-128667142D02*
X118270951Y-128571904D01*
X118270951Y-128571904D02*
X118223332Y-128476666D01*
X118223332Y-128476666D02*
X118175713Y-128429047D01*
X118175713Y-128429047D02*
X118080475Y-128381428D01*
X118080475Y-128381428D02*
X117889999Y-128333809D01*
X117889999Y-128333809D02*
X117794761Y-128286190D01*
X117794761Y-128286190D02*
X117747142Y-128238571D01*
X117747142Y-128238571D02*
X117699523Y-128143333D01*
X117699523Y-128143333D02*
X117699523Y-128048095D01*
X117699523Y-128048095D02*
X117747142Y-127952857D01*
X117747142Y-127952857D02*
X117794761Y-127905238D01*
X117794761Y-127905238D02*
X117889999Y-127857619D01*
X117889999Y-127857619D02*
X118128094Y-127857619D01*
X118128094Y-127857619D02*
X118270951Y-127905238D01*
X118889999Y-127857619D02*
X119080475Y-127857619D01*
X119080475Y-127857619D02*
X119175713Y-127905238D01*
X119175713Y-127905238D02*
X119270951Y-128000476D01*
X119270951Y-128000476D02*
X119318570Y-128190952D01*
X119318570Y-128190952D02*
X119318570Y-128524285D01*
X119318570Y-128524285D02*
X119270951Y-128714761D01*
X119270951Y-128714761D02*
X119175713Y-128810000D01*
X119175713Y-128810000D02*
X119080475Y-128857619D01*
X119080475Y-128857619D02*
X118889999Y-128857619D01*
X118889999Y-128857619D02*
X118794761Y-128810000D01*
X118794761Y-128810000D02*
X118699523Y-128714761D01*
X118699523Y-128714761D02*
X118651904Y-128524285D01*
X118651904Y-128524285D02*
X118651904Y-128190952D01*
X118651904Y-128190952D02*
X118699523Y-128000476D01*
X118699523Y-128000476D02*
X118794761Y-127905238D01*
X118794761Y-127905238D02*
X118889999Y-127857619D01*
X115434285Y-122797619D02*
X114958095Y-122797619D01*
X114958095Y-122797619D02*
X114910476Y-123273809D01*
X114910476Y-123273809D02*
X114958095Y-123226190D01*
X114958095Y-123226190D02*
X115053333Y-123178571D01*
X115053333Y-123178571D02*
X115291428Y-123178571D01*
X115291428Y-123178571D02*
X115386666Y-123226190D01*
X115386666Y-123226190D02*
X115434285Y-123273809D01*
X115434285Y-123273809D02*
X115481904Y-123369047D01*
X115481904Y-123369047D02*
X115481904Y-123607142D01*
X115481904Y-123607142D02*
X115434285Y-123702380D01*
X115434285Y-123702380D02*
X115386666Y-123750000D01*
X115386666Y-123750000D02*
X115291428Y-123797619D01*
X115291428Y-123797619D02*
X115053333Y-123797619D01*
X115053333Y-123797619D02*
X114958095Y-123750000D01*
X114958095Y-123750000D02*
X114910476Y-123702380D01*
X115767619Y-122797619D02*
X116100952Y-123797619D01*
X116100952Y-123797619D02*
X116434285Y-122797619D01*
D12*
X171476190Y-103593333D02*
X173000000Y-103593333D01*
X172238095Y-104355238D02*
X172238095Y-102831428D01*
D11*
X177038095Y-136572857D02*
X177085714Y-136525238D01*
X177085714Y-136525238D02*
X177180952Y-136477619D01*
X177180952Y-136477619D02*
X177419047Y-136477619D01*
X177419047Y-136477619D02*
X177514285Y-136525238D01*
X177514285Y-136525238D02*
X177561904Y-136572857D01*
X177561904Y-136572857D02*
X177609523Y-136668095D01*
X177609523Y-136668095D02*
X177609523Y-136763333D01*
X177609523Y-136763333D02*
X177561904Y-136906190D01*
X177561904Y-136906190D02*
X176990476Y-137477619D01*
X176990476Y-137477619D02*
X177609523Y-137477619D01*
X178371428Y-136953809D02*
X178514285Y-137001428D01*
X178514285Y-137001428D02*
X178561904Y-137049047D01*
X178561904Y-137049047D02*
X178609523Y-137144285D01*
X178609523Y-137144285D02*
X178609523Y-137287142D01*
X178609523Y-137287142D02*
X178561904Y-137382380D01*
X178561904Y-137382380D02*
X178514285Y-137430000D01*
X178514285Y-137430000D02*
X178419047Y-137477619D01*
X178419047Y-137477619D02*
X178038095Y-137477619D01*
X178038095Y-137477619D02*
X178038095Y-136477619D01*
X178038095Y-136477619D02*
X178371428Y-136477619D01*
X178371428Y-136477619D02*
X178466666Y-136525238D01*
X178466666Y-136525238D02*
X178514285Y-136572857D01*
X178514285Y-136572857D02*
X178561904Y-136668095D01*
X178561904Y-136668095D02*
X178561904Y-136763333D01*
X178561904Y-136763333D02*
X178514285Y-136858571D01*
X178514285Y-136858571D02*
X178466666Y-136906190D01*
X178466666Y-136906190D02*
X178371428Y-136953809D01*
X178371428Y-136953809D02*
X178038095Y-136953809D01*
X111830476Y-131460000D02*
X111973333Y-131507619D01*
X111973333Y-131507619D02*
X112211428Y-131507619D01*
X112211428Y-131507619D02*
X112306666Y-131460000D01*
X112306666Y-131460000D02*
X112354285Y-131412380D01*
X112354285Y-131412380D02*
X112401904Y-131317142D01*
X112401904Y-131317142D02*
X112401904Y-131221904D01*
X112401904Y-131221904D02*
X112354285Y-131126666D01*
X112354285Y-131126666D02*
X112306666Y-131079047D01*
X112306666Y-131079047D02*
X112211428Y-131031428D01*
X112211428Y-131031428D02*
X112020952Y-130983809D01*
X112020952Y-130983809D02*
X111925714Y-130936190D01*
X111925714Y-130936190D02*
X111878095Y-130888571D01*
X111878095Y-130888571D02*
X111830476Y-130793333D01*
X111830476Y-130793333D02*
X111830476Y-130698095D01*
X111830476Y-130698095D02*
X111878095Y-130602857D01*
X111878095Y-130602857D02*
X111925714Y-130555238D01*
X111925714Y-130555238D02*
X112020952Y-130507619D01*
X112020952Y-130507619D02*
X112259047Y-130507619D01*
X112259047Y-130507619D02*
X112401904Y-130555238D01*
X113401904Y-131412380D02*
X113354285Y-131460000D01*
X113354285Y-131460000D02*
X113211428Y-131507619D01*
X113211428Y-131507619D02*
X113116190Y-131507619D01*
X113116190Y-131507619D02*
X112973333Y-131460000D01*
X112973333Y-131460000D02*
X112878095Y-131364761D01*
X112878095Y-131364761D02*
X112830476Y-131269523D01*
X112830476Y-131269523D02*
X112782857Y-131079047D01*
X112782857Y-131079047D02*
X112782857Y-130936190D01*
X112782857Y-130936190D02*
X112830476Y-130745714D01*
X112830476Y-130745714D02*
X112878095Y-130650476D01*
X112878095Y-130650476D02*
X112973333Y-130555238D01*
X112973333Y-130555238D02*
X113116190Y-130507619D01*
X113116190Y-130507619D02*
X113211428Y-130507619D01*
X113211428Y-130507619D02*
X113354285Y-130555238D01*
X113354285Y-130555238D02*
X113401904Y-130602857D01*
X114306666Y-131507619D02*
X113830476Y-131507619D01*
X113830476Y-131507619D02*
X113830476Y-130507619D01*
X114640000Y-131507619D02*
X114640000Y-130507619D01*
X115211428Y-131507619D02*
X114782857Y-130936190D01*
X115211428Y-130507619D02*
X114640000Y-131079047D01*
X110122380Y-124638095D02*
X109312857Y-124638095D01*
X109312857Y-124638095D02*
X109217619Y-124685714D01*
X109217619Y-124685714D02*
X109170000Y-124733333D01*
X109170000Y-124733333D02*
X109122380Y-124828571D01*
X109122380Y-124828571D02*
X109122380Y-125019047D01*
X109122380Y-125019047D02*
X109170000Y-125114285D01*
X109170000Y-125114285D02*
X109217619Y-125161904D01*
X109217619Y-125161904D02*
X109312857Y-125209523D01*
X109312857Y-125209523D02*
X110122380Y-125209523D01*
X109408095Y-125638095D02*
X109408095Y-126114285D01*
X109122380Y-125542857D02*
X110122380Y-125876190D01*
X110122380Y-125876190D02*
X109122380Y-126209523D01*
X109122380Y-127114285D02*
X109598571Y-126780952D01*
X109122380Y-126542857D02*
X110122380Y-126542857D01*
X110122380Y-126542857D02*
X110122380Y-126923809D01*
X110122380Y-126923809D02*
X110074761Y-127019047D01*
X110074761Y-127019047D02*
X110027142Y-127066666D01*
X110027142Y-127066666D02*
X109931904Y-127114285D01*
X109931904Y-127114285D02*
X109789047Y-127114285D01*
X109789047Y-127114285D02*
X109693809Y-127066666D01*
X109693809Y-127066666D02*
X109646190Y-127019047D01*
X109646190Y-127019047D02*
X109598571Y-126923809D01*
X109598571Y-126923809D02*
X109598571Y-126542857D01*
X110122380Y-127400000D02*
X110122380Y-127971428D01*
X109122380Y-127685714D02*
X110122380Y-127685714D01*
X109122380Y-128828571D02*
X109122380Y-128257143D01*
X109122380Y-128542857D02*
X110122380Y-128542857D01*
X110122380Y-128542857D02*
X109979523Y-128447619D01*
X109979523Y-128447619D02*
X109884285Y-128352381D01*
X109884285Y-128352381D02*
X109836666Y-128257143D01*
X107008571Y-112477619D02*
X107103809Y-112477619D01*
X107103809Y-112477619D02*
X107199047Y-112525238D01*
X107199047Y-112525238D02*
X107246666Y-112572857D01*
X107246666Y-112572857D02*
X107294285Y-112668095D01*
X107294285Y-112668095D02*
X107341904Y-112858571D01*
X107341904Y-112858571D02*
X107341904Y-113096666D01*
X107341904Y-113096666D02*
X107294285Y-113287142D01*
X107294285Y-113287142D02*
X107246666Y-113382380D01*
X107246666Y-113382380D02*
X107199047Y-113430000D01*
X107199047Y-113430000D02*
X107103809Y-113477619D01*
X107103809Y-113477619D02*
X107008571Y-113477619D01*
X107008571Y-113477619D02*
X106913333Y-113430000D01*
X106913333Y-113430000D02*
X106865714Y-113382380D01*
X106865714Y-113382380D02*
X106818095Y-113287142D01*
X106818095Y-113287142D02*
X106770476Y-113096666D01*
X106770476Y-113096666D02*
X106770476Y-112858571D01*
X106770476Y-112858571D02*
X106818095Y-112668095D01*
X106818095Y-112668095D02*
X106865714Y-112572857D01*
X106865714Y-112572857D02*
X106913333Y-112525238D01*
X106913333Y-112525238D02*
X107008571Y-112477619D01*
X108103809Y-112953809D02*
X108246666Y-113001428D01*
X108246666Y-113001428D02*
X108294285Y-113049047D01*
X108294285Y-113049047D02*
X108341904Y-113144285D01*
X108341904Y-113144285D02*
X108341904Y-113287142D01*
X108341904Y-113287142D02*
X108294285Y-113382380D01*
X108294285Y-113382380D02*
X108246666Y-113430000D01*
X108246666Y-113430000D02*
X108151428Y-113477619D01*
X108151428Y-113477619D02*
X107770476Y-113477619D01*
X107770476Y-113477619D02*
X107770476Y-112477619D01*
X107770476Y-112477619D02*
X108103809Y-112477619D01*
X108103809Y-112477619D02*
X108199047Y-112525238D01*
X108199047Y-112525238D02*
X108246666Y-112572857D01*
X108246666Y-112572857D02*
X108294285Y-112668095D01*
X108294285Y-112668095D02*
X108294285Y-112763333D01*
X108294285Y-112763333D02*
X108246666Y-112858571D01*
X108246666Y-112858571D02*
X108199047Y-112906190D01*
X108199047Y-112906190D02*
X108103809Y-112953809D01*
X108103809Y-112953809D02*
X107770476Y-112953809D01*
X105342857Y-129877619D02*
X105961904Y-129877619D01*
X105961904Y-129877619D02*
X105628571Y-130258571D01*
X105628571Y-130258571D02*
X105771428Y-130258571D01*
X105771428Y-130258571D02*
X105866666Y-130306190D01*
X105866666Y-130306190D02*
X105914285Y-130353809D01*
X105914285Y-130353809D02*
X105961904Y-130449047D01*
X105961904Y-130449047D02*
X105961904Y-130687142D01*
X105961904Y-130687142D02*
X105914285Y-130782380D01*
X105914285Y-130782380D02*
X105866666Y-130830000D01*
X105866666Y-130830000D02*
X105771428Y-130877619D01*
X105771428Y-130877619D02*
X105485714Y-130877619D01*
X105485714Y-130877619D02*
X105390476Y-130830000D01*
X105390476Y-130830000D02*
X105342857Y-130782380D01*
X106247619Y-129877619D02*
X106580952Y-130877619D01*
X106580952Y-130877619D02*
X106914285Y-129877619D01*
X107152381Y-129877619D02*
X107771428Y-129877619D01*
X107771428Y-129877619D02*
X107438095Y-130258571D01*
X107438095Y-130258571D02*
X107580952Y-130258571D01*
X107580952Y-130258571D02*
X107676190Y-130306190D01*
X107676190Y-130306190D02*
X107723809Y-130353809D01*
X107723809Y-130353809D02*
X107771428Y-130449047D01*
X107771428Y-130449047D02*
X107771428Y-130687142D01*
X107771428Y-130687142D02*
X107723809Y-130782380D01*
X107723809Y-130782380D02*
X107676190Y-130830000D01*
X107676190Y-130830000D02*
X107580952Y-130877619D01*
X107580952Y-130877619D02*
X107295238Y-130877619D01*
X107295238Y-130877619D02*
X107200000Y-130830000D01*
X107200000Y-130830000D02*
X107152381Y-130782380D01*
X176810476Y-112477619D02*
X177429523Y-112477619D01*
X177429523Y-112477619D02*
X177096190Y-112858571D01*
X177096190Y-112858571D02*
X177239047Y-112858571D01*
X177239047Y-112858571D02*
X177334285Y-112906190D01*
X177334285Y-112906190D02*
X177381904Y-112953809D01*
X177381904Y-112953809D02*
X177429523Y-113049047D01*
X177429523Y-113049047D02*
X177429523Y-113287142D01*
X177429523Y-113287142D02*
X177381904Y-113382380D01*
X177381904Y-113382380D02*
X177334285Y-113430000D01*
X177334285Y-113430000D02*
X177239047Y-113477619D01*
X177239047Y-113477619D02*
X176953333Y-113477619D01*
X176953333Y-113477619D02*
X176858095Y-113430000D01*
X176858095Y-113430000D02*
X176810476Y-113382380D01*
X178191428Y-112953809D02*
X178334285Y-113001428D01*
X178334285Y-113001428D02*
X178381904Y-113049047D01*
X178381904Y-113049047D02*
X178429523Y-113144285D01*
X178429523Y-113144285D02*
X178429523Y-113287142D01*
X178429523Y-113287142D02*
X178381904Y-113382380D01*
X178381904Y-113382380D02*
X178334285Y-113430000D01*
X178334285Y-113430000D02*
X178239047Y-113477619D01*
X178239047Y-113477619D02*
X177858095Y-113477619D01*
X177858095Y-113477619D02*
X177858095Y-112477619D01*
X177858095Y-112477619D02*
X178191428Y-112477619D01*
X178191428Y-112477619D02*
X178286666Y-112525238D01*
X178286666Y-112525238D02*
X178334285Y-112572857D01*
X178334285Y-112572857D02*
X178381904Y-112668095D01*
X178381904Y-112668095D02*
X178381904Y-112763333D01*
X178381904Y-112763333D02*
X178334285Y-112858571D01*
X178334285Y-112858571D02*
X178286666Y-112906190D01*
X178286666Y-112906190D02*
X178191428Y-112953809D01*
X178191428Y-112953809D02*
X177858095Y-112953809D01*
D12*
X171757142Y-134645000D02*
X172900000Y-134645000D01*
D11*
X116128095Y-131527619D02*
X116128095Y-130527619D01*
X116128095Y-130527619D02*
X116461428Y-131241904D01*
X116461428Y-131241904D02*
X116794761Y-130527619D01*
X116794761Y-130527619D02*
X116794761Y-131527619D01*
X117461428Y-130527619D02*
X117651904Y-130527619D01*
X117651904Y-130527619D02*
X117747142Y-130575238D01*
X117747142Y-130575238D02*
X117842380Y-130670476D01*
X117842380Y-130670476D02*
X117889999Y-130860952D01*
X117889999Y-130860952D02*
X117889999Y-131194285D01*
X117889999Y-131194285D02*
X117842380Y-131384761D01*
X117842380Y-131384761D02*
X117747142Y-131480000D01*
X117747142Y-131480000D02*
X117651904Y-131527619D01*
X117651904Y-131527619D02*
X117461428Y-131527619D01*
X117461428Y-131527619D02*
X117366190Y-131480000D01*
X117366190Y-131480000D02*
X117270952Y-131384761D01*
X117270952Y-131384761D02*
X117223333Y-131194285D01*
X117223333Y-131194285D02*
X117223333Y-130860952D01*
X117223333Y-130860952D02*
X117270952Y-130670476D01*
X117270952Y-130670476D02*
X117366190Y-130575238D01*
X117366190Y-130575238D02*
X117461428Y-130527619D01*
X118270952Y-131480000D02*
X118413809Y-131527619D01*
X118413809Y-131527619D02*
X118651904Y-131527619D01*
X118651904Y-131527619D02*
X118747142Y-131480000D01*
X118747142Y-131480000D02*
X118794761Y-131432380D01*
X118794761Y-131432380D02*
X118842380Y-131337142D01*
X118842380Y-131337142D02*
X118842380Y-131241904D01*
X118842380Y-131241904D02*
X118794761Y-131146666D01*
X118794761Y-131146666D02*
X118747142Y-131099047D01*
X118747142Y-131099047D02*
X118651904Y-131051428D01*
X118651904Y-131051428D02*
X118461428Y-131003809D01*
X118461428Y-131003809D02*
X118366190Y-130956190D01*
X118366190Y-130956190D02*
X118318571Y-130908571D01*
X118318571Y-130908571D02*
X118270952Y-130813333D01*
X118270952Y-130813333D02*
X118270952Y-130718095D01*
X118270952Y-130718095D02*
X118318571Y-130622857D01*
X118318571Y-130622857D02*
X118366190Y-130575238D01*
X118366190Y-130575238D02*
X118461428Y-130527619D01*
X118461428Y-130527619D02*
X118699523Y-130527619D01*
X118699523Y-130527619D02*
X118842380Y-130575238D01*
X119270952Y-131527619D02*
X119270952Y-130527619D01*
D13*
X166666667Y-146657619D02*
X166904762Y-147657619D01*
X166904762Y-147657619D02*
X167095238Y-146943333D01*
X167095238Y-146943333D02*
X167285714Y-147657619D01*
X167285714Y-147657619D02*
X167523810Y-146657619D01*
X167904762Y-147657619D02*
X167904762Y-146990952D01*
X167904762Y-146657619D02*
X167857143Y-146705238D01*
X167857143Y-146705238D02*
X167904762Y-146752857D01*
X167904762Y-146752857D02*
X167952381Y-146705238D01*
X167952381Y-146705238D02*
X167904762Y-146657619D01*
X167904762Y-146657619D02*
X167904762Y-146752857D01*
X168714285Y-147133809D02*
X168380952Y-147133809D01*
X168380952Y-147657619D02*
X168380952Y-146657619D01*
X168380952Y-146657619D02*
X168857142Y-146657619D01*
X169238095Y-147657619D02*
X169238095Y-146990952D01*
X169238095Y-146657619D02*
X169190476Y-146705238D01*
X169190476Y-146705238D02*
X169238095Y-146752857D01*
X169238095Y-146752857D02*
X169285714Y-146705238D01*
X169285714Y-146705238D02*
X169238095Y-146657619D01*
X169238095Y-146657619D02*
X169238095Y-146752857D01*
X166547618Y-149277619D02*
X166214285Y-148801428D01*
X165976190Y-149277619D02*
X165976190Y-148277619D01*
X165976190Y-148277619D02*
X166357142Y-148277619D01*
X166357142Y-148277619D02*
X166452380Y-148325238D01*
X166452380Y-148325238D02*
X166499999Y-148372857D01*
X166499999Y-148372857D02*
X166547618Y-148468095D01*
X166547618Y-148468095D02*
X166547618Y-148610952D01*
X166547618Y-148610952D02*
X166499999Y-148706190D01*
X166499999Y-148706190D02*
X166452380Y-148753809D01*
X166452380Y-148753809D02*
X166357142Y-148801428D01*
X166357142Y-148801428D02*
X165976190Y-148801428D01*
X166976190Y-148753809D02*
X167309523Y-148753809D01*
X167452380Y-149277619D02*
X166976190Y-149277619D01*
X166976190Y-149277619D02*
X166976190Y-148277619D01*
X166976190Y-148277619D02*
X167452380Y-148277619D01*
X167833333Y-149230000D02*
X167976190Y-149277619D01*
X167976190Y-149277619D02*
X168214285Y-149277619D01*
X168214285Y-149277619D02*
X168309523Y-149230000D01*
X168309523Y-149230000D02*
X168357142Y-149182380D01*
X168357142Y-149182380D02*
X168404761Y-149087142D01*
X168404761Y-149087142D02*
X168404761Y-148991904D01*
X168404761Y-148991904D02*
X168357142Y-148896666D01*
X168357142Y-148896666D02*
X168309523Y-148849047D01*
X168309523Y-148849047D02*
X168214285Y-148801428D01*
X168214285Y-148801428D02*
X168023809Y-148753809D01*
X168023809Y-148753809D02*
X167928571Y-148706190D01*
X167928571Y-148706190D02*
X167880952Y-148658571D01*
X167880952Y-148658571D02*
X167833333Y-148563333D01*
X167833333Y-148563333D02*
X167833333Y-148468095D01*
X167833333Y-148468095D02*
X167880952Y-148372857D01*
X167880952Y-148372857D02*
X167928571Y-148325238D01*
X167928571Y-148325238D02*
X168023809Y-148277619D01*
X168023809Y-148277619D02*
X168261904Y-148277619D01*
X168261904Y-148277619D02*
X168404761Y-148325238D01*
X168833333Y-148753809D02*
X169166666Y-148753809D01*
X169309523Y-149277619D02*
X168833333Y-149277619D01*
X168833333Y-149277619D02*
X168833333Y-148277619D01*
X168833333Y-148277619D02*
X169309523Y-148277619D01*
X169595238Y-148277619D02*
X170166666Y-148277619D01*
X169880952Y-149277619D02*
X169880952Y-148277619D01*
D11*
X168178571Y-124908214D02*
X168178571Y-124158214D01*
X168178571Y-124158214D02*
X168357142Y-124158214D01*
X168357142Y-124158214D02*
X168464285Y-124193928D01*
X168464285Y-124193928D02*
X168535714Y-124265357D01*
X168535714Y-124265357D02*
X168571428Y-124336785D01*
X168571428Y-124336785D02*
X168607142Y-124479642D01*
X168607142Y-124479642D02*
X168607142Y-124586785D01*
X168607142Y-124586785D02*
X168571428Y-124729642D01*
X168571428Y-124729642D02*
X168535714Y-124801071D01*
X168535714Y-124801071D02*
X168464285Y-124872500D01*
X168464285Y-124872500D02*
X168357142Y-124908214D01*
X168357142Y-124908214D02*
X168178571Y-124908214D01*
X169071428Y-124158214D02*
X169214285Y-124158214D01*
X169214285Y-124158214D02*
X169285714Y-124193928D01*
X169285714Y-124193928D02*
X169357142Y-124265357D01*
X169357142Y-124265357D02*
X169392857Y-124408214D01*
X169392857Y-124408214D02*
X169392857Y-124658214D01*
X169392857Y-124658214D02*
X169357142Y-124801071D01*
X169357142Y-124801071D02*
X169285714Y-124872500D01*
X169285714Y-124872500D02*
X169214285Y-124908214D01*
X169214285Y-124908214D02*
X169071428Y-124908214D01*
X169071428Y-124908214D02*
X169000000Y-124872500D01*
X169000000Y-124872500D02*
X168928571Y-124801071D01*
X168928571Y-124801071D02*
X168892857Y-124658214D01*
X168892857Y-124658214D02*
X168892857Y-124408214D01*
X168892857Y-124408214D02*
X168928571Y-124265357D01*
X168928571Y-124265357D02*
X169000000Y-124193928D01*
X169000000Y-124193928D02*
X169071428Y-124158214D01*
X169642856Y-124158214D02*
X169821428Y-124908214D01*
X169821428Y-124908214D02*
X169964285Y-124372500D01*
X169964285Y-124372500D02*
X170107142Y-124908214D01*
X170107142Y-124908214D02*
X170285714Y-124158214D01*
X170571428Y-124908214D02*
X170571428Y-124158214D01*
X170571428Y-124158214D02*
X170999999Y-124908214D01*
X170999999Y-124908214D02*
X170999999Y-124158214D01*
X168877619Y-103971428D02*
X168877619Y-103780952D01*
X168877619Y-103780952D02*
X168925238Y-103685714D01*
X168925238Y-103685714D02*
X169020476Y-103590476D01*
X169020476Y-103590476D02*
X169210952Y-103542857D01*
X169210952Y-103542857D02*
X169544285Y-103542857D01*
X169544285Y-103542857D02*
X169734761Y-103590476D01*
X169734761Y-103590476D02*
X169830000Y-103685714D01*
X169830000Y-103685714D02*
X169877619Y-103780952D01*
X169877619Y-103780952D02*
X169877619Y-103971428D01*
X169877619Y-103971428D02*
X169830000Y-104066666D01*
X169830000Y-104066666D02*
X169734761Y-104161904D01*
X169734761Y-104161904D02*
X169544285Y-104209523D01*
X169544285Y-104209523D02*
X169210952Y-104209523D01*
X169210952Y-104209523D02*
X169020476Y-104161904D01*
X169020476Y-104161904D02*
X168925238Y-104066666D01*
X168925238Y-104066666D02*
X168877619Y-103971428D01*
X169877619Y-103114285D02*
X168877619Y-103114285D01*
X168877619Y-103114285D02*
X169877619Y-102542857D01*
X169877619Y-102542857D02*
X168877619Y-102542857D01*
X113319523Y-128812380D02*
X113271904Y-128860000D01*
X113271904Y-128860000D02*
X113129047Y-128907619D01*
X113129047Y-128907619D02*
X113033809Y-128907619D01*
X113033809Y-128907619D02*
X112890952Y-128860000D01*
X112890952Y-128860000D02*
X112795714Y-128764761D01*
X112795714Y-128764761D02*
X112748095Y-128669523D01*
X112748095Y-128669523D02*
X112700476Y-128479047D01*
X112700476Y-128479047D02*
X112700476Y-128336190D01*
X112700476Y-128336190D02*
X112748095Y-128145714D01*
X112748095Y-128145714D02*
X112795714Y-128050476D01*
X112795714Y-128050476D02*
X112890952Y-127955238D01*
X112890952Y-127955238D02*
X113033809Y-127907619D01*
X113033809Y-127907619D02*
X113129047Y-127907619D01*
X113129047Y-127907619D02*
X113271904Y-127955238D01*
X113271904Y-127955238D02*
X113319523Y-128002857D01*
X113700476Y-128860000D02*
X113843333Y-128907619D01*
X113843333Y-128907619D02*
X114081428Y-128907619D01*
X114081428Y-128907619D02*
X114176666Y-128860000D01*
X114176666Y-128860000D02*
X114224285Y-128812380D01*
X114224285Y-128812380D02*
X114271904Y-128717142D01*
X114271904Y-128717142D02*
X114271904Y-128621904D01*
X114271904Y-128621904D02*
X114224285Y-128526666D01*
X114224285Y-128526666D02*
X114176666Y-128479047D01*
X114176666Y-128479047D02*
X114081428Y-128431428D01*
X114081428Y-128431428D02*
X113890952Y-128383809D01*
X113890952Y-128383809D02*
X113795714Y-128336190D01*
X113795714Y-128336190D02*
X113748095Y-128288571D01*
X113748095Y-128288571D02*
X113700476Y-128193333D01*
X113700476Y-128193333D02*
X113700476Y-128098095D01*
X113700476Y-128098095D02*
X113748095Y-128002857D01*
X113748095Y-128002857D02*
X113795714Y-127955238D01*
X113795714Y-127955238D02*
X113890952Y-127907619D01*
X113890952Y-127907619D02*
X114129047Y-127907619D01*
X114129047Y-127907619D02*
X114271904Y-127955238D01*
D12*
X179600000Y-136993333D02*
X181123810Y-136993333D01*
D11*
X176578571Y-131908214D02*
X176578571Y-131158214D01*
X176578571Y-131158214D02*
X176757142Y-131158214D01*
X176757142Y-131158214D02*
X176864285Y-131193928D01*
X176864285Y-131193928D02*
X176935714Y-131265357D01*
X176935714Y-131265357D02*
X176971428Y-131336785D01*
X176971428Y-131336785D02*
X177007142Y-131479642D01*
X177007142Y-131479642D02*
X177007142Y-131586785D01*
X177007142Y-131586785D02*
X176971428Y-131729642D01*
X176971428Y-131729642D02*
X176935714Y-131801071D01*
X176935714Y-131801071D02*
X176864285Y-131872500D01*
X176864285Y-131872500D02*
X176757142Y-131908214D01*
X176757142Y-131908214D02*
X176578571Y-131908214D01*
X177471428Y-131158214D02*
X177614285Y-131158214D01*
X177614285Y-131158214D02*
X177685714Y-131193928D01*
X177685714Y-131193928D02*
X177757142Y-131265357D01*
X177757142Y-131265357D02*
X177792857Y-131408214D01*
X177792857Y-131408214D02*
X177792857Y-131658214D01*
X177792857Y-131658214D02*
X177757142Y-131801071D01*
X177757142Y-131801071D02*
X177685714Y-131872500D01*
X177685714Y-131872500D02*
X177614285Y-131908214D01*
X177614285Y-131908214D02*
X177471428Y-131908214D01*
X177471428Y-131908214D02*
X177400000Y-131872500D01*
X177400000Y-131872500D02*
X177328571Y-131801071D01*
X177328571Y-131801071D02*
X177292857Y-131658214D01*
X177292857Y-131658214D02*
X177292857Y-131408214D01*
X177292857Y-131408214D02*
X177328571Y-131265357D01*
X177328571Y-131265357D02*
X177400000Y-131193928D01*
X177400000Y-131193928D02*
X177471428Y-131158214D01*
X178042856Y-131158214D02*
X178221428Y-131908214D01*
X178221428Y-131908214D02*
X178364285Y-131372500D01*
X178364285Y-131372500D02*
X178507142Y-131908214D01*
X178507142Y-131908214D02*
X178685714Y-131158214D01*
X178971428Y-131908214D02*
X178971428Y-131158214D01*
X178971428Y-131158214D02*
X179399999Y-131908214D01*
X179399999Y-131908214D02*
X179399999Y-131158214D01*
X156942857Y-127293928D02*
X157300000Y-127293928D01*
X156871428Y-127508214D02*
X157121428Y-126758214D01*
X157121428Y-126758214D02*
X157371428Y-127508214D01*
X157621428Y-127508214D02*
X157621428Y-126758214D01*
X157621428Y-126758214D02*
X157799999Y-126758214D01*
X157799999Y-126758214D02*
X157907142Y-126793928D01*
X157907142Y-126793928D02*
X157978571Y-126865357D01*
X157978571Y-126865357D02*
X158014285Y-126936785D01*
X158014285Y-126936785D02*
X158049999Y-127079642D01*
X158049999Y-127079642D02*
X158049999Y-127186785D01*
X158049999Y-127186785D02*
X158014285Y-127329642D01*
X158014285Y-127329642D02*
X157978571Y-127401071D01*
X157978571Y-127401071D02*
X157907142Y-127472500D01*
X157907142Y-127472500D02*
X157799999Y-127508214D01*
X157799999Y-127508214D02*
X157621428Y-127508214D01*
X158799999Y-127436785D02*
X158764285Y-127472500D01*
X158764285Y-127472500D02*
X158657142Y-127508214D01*
X158657142Y-127508214D02*
X158585714Y-127508214D01*
X158585714Y-127508214D02*
X158478571Y-127472500D01*
X158478571Y-127472500D02*
X158407142Y-127401071D01*
X158407142Y-127401071D02*
X158371428Y-127329642D01*
X158371428Y-127329642D02*
X158335714Y-127186785D01*
X158335714Y-127186785D02*
X158335714Y-127079642D01*
X158335714Y-127079642D02*
X158371428Y-126936785D01*
X158371428Y-126936785D02*
X158407142Y-126865357D01*
X158407142Y-126865357D02*
X158478571Y-126793928D01*
X158478571Y-126793928D02*
X158585714Y-126758214D01*
X158585714Y-126758214D02*
X158657142Y-126758214D01*
X158657142Y-126758214D02*
X158764285Y-126793928D01*
X158764285Y-126793928D02*
X158799999Y-126829642D01*
X159514285Y-127508214D02*
X159085714Y-127508214D01*
X159299999Y-127508214D02*
X159299999Y-126758214D01*
X159299999Y-126758214D02*
X159228571Y-126865357D01*
X159228571Y-126865357D02*
X159157142Y-126936785D01*
X159157142Y-126936785D02*
X159085714Y-126972500D01*
X160371428Y-126722500D02*
X159728571Y-127686785D01*
X160978571Y-126758214D02*
X160621428Y-126758214D01*
X160621428Y-126758214D02*
X160585714Y-127115357D01*
X160585714Y-127115357D02*
X160621428Y-127079642D01*
X160621428Y-127079642D02*
X160692857Y-127043928D01*
X160692857Y-127043928D02*
X160871428Y-127043928D01*
X160871428Y-127043928D02*
X160942857Y-127079642D01*
X160942857Y-127079642D02*
X160978571Y-127115357D01*
X160978571Y-127115357D02*
X161014285Y-127186785D01*
X161014285Y-127186785D02*
X161014285Y-127365357D01*
X161014285Y-127365357D02*
X160978571Y-127436785D01*
X160978571Y-127436785D02*
X160942857Y-127472500D01*
X160942857Y-127472500D02*
X160871428Y-127508214D01*
X160871428Y-127508214D02*
X160692857Y-127508214D01*
X160692857Y-127508214D02*
X160621428Y-127472500D01*
X160621428Y-127472500D02*
X160585714Y-127436785D01*
X161585714Y-127115357D02*
X161692857Y-127151071D01*
X161692857Y-127151071D02*
X161728571Y-127186785D01*
X161728571Y-127186785D02*
X161764285Y-127258214D01*
X161764285Y-127258214D02*
X161764285Y-127365357D01*
X161764285Y-127365357D02*
X161728571Y-127436785D01*
X161728571Y-127436785D02*
X161692857Y-127472500D01*
X161692857Y-127472500D02*
X161621428Y-127508214D01*
X161621428Y-127508214D02*
X161335714Y-127508214D01*
X161335714Y-127508214D02*
X161335714Y-126758214D01*
X161335714Y-126758214D02*
X161585714Y-126758214D01*
X161585714Y-126758214D02*
X161657143Y-126793928D01*
X161657143Y-126793928D02*
X161692857Y-126829642D01*
X161692857Y-126829642D02*
X161728571Y-126901071D01*
X161728571Y-126901071D02*
X161728571Y-126972500D01*
X161728571Y-126972500D02*
X161692857Y-127043928D01*
X161692857Y-127043928D02*
X161657143Y-127079642D01*
X161657143Y-127079642D02*
X161585714Y-127115357D01*
X161585714Y-127115357D02*
X161335714Y-127115357D01*
D12*
X114123809Y-103606666D02*
X112600000Y-103606666D01*
X113361904Y-102844761D02*
X113361904Y-104368571D01*
D11*
X152077619Y-137390476D02*
X151601428Y-137723809D01*
X152077619Y-137961904D02*
X151077619Y-137961904D01*
X151077619Y-137961904D02*
X151077619Y-137580952D01*
X151077619Y-137580952D02*
X151125238Y-137485714D01*
X151125238Y-137485714D02*
X151172857Y-137438095D01*
X151172857Y-137438095D02*
X151268095Y-137390476D01*
X151268095Y-137390476D02*
X151410952Y-137390476D01*
X151410952Y-137390476D02*
X151506190Y-137438095D01*
X151506190Y-137438095D02*
X151553809Y-137485714D01*
X151553809Y-137485714D02*
X151601428Y-137580952D01*
X151601428Y-137580952D02*
X151601428Y-137961904D01*
X151553809Y-136961904D02*
X151553809Y-136628571D01*
X152077619Y-136485714D02*
X152077619Y-136961904D01*
X152077619Y-136961904D02*
X151077619Y-136961904D01*
X151077619Y-136961904D02*
X151077619Y-136485714D01*
X152030000Y-136104761D02*
X152077619Y-135961904D01*
X152077619Y-135961904D02*
X152077619Y-135723809D01*
X152077619Y-135723809D02*
X152030000Y-135628571D01*
X152030000Y-135628571D02*
X151982380Y-135580952D01*
X151982380Y-135580952D02*
X151887142Y-135533333D01*
X151887142Y-135533333D02*
X151791904Y-135533333D01*
X151791904Y-135533333D02*
X151696666Y-135580952D01*
X151696666Y-135580952D02*
X151649047Y-135628571D01*
X151649047Y-135628571D02*
X151601428Y-135723809D01*
X151601428Y-135723809D02*
X151553809Y-135914285D01*
X151553809Y-135914285D02*
X151506190Y-136009523D01*
X151506190Y-136009523D02*
X151458571Y-136057142D01*
X151458571Y-136057142D02*
X151363333Y-136104761D01*
X151363333Y-136104761D02*
X151268095Y-136104761D01*
X151268095Y-136104761D02*
X151172857Y-136057142D01*
X151172857Y-136057142D02*
X151125238Y-136009523D01*
X151125238Y-136009523D02*
X151077619Y-135914285D01*
X151077619Y-135914285D02*
X151077619Y-135676190D01*
X151077619Y-135676190D02*
X151125238Y-135533333D01*
X151553809Y-135104761D02*
X151553809Y-134771428D01*
X152077619Y-134628571D02*
X152077619Y-135104761D01*
X152077619Y-135104761D02*
X151077619Y-135104761D01*
X151077619Y-135104761D02*
X151077619Y-134628571D01*
X151077619Y-134342856D02*
X151077619Y-133771428D01*
X152077619Y-134057142D02*
X151077619Y-134057142D01*
X156942857Y-122093928D02*
X157300000Y-122093928D01*
X156871428Y-122308214D02*
X157121428Y-121558214D01*
X157121428Y-121558214D02*
X157371428Y-122308214D01*
X157621428Y-122308214D02*
X157621428Y-121558214D01*
X157621428Y-121558214D02*
X157799999Y-121558214D01*
X157799999Y-121558214D02*
X157907142Y-121593928D01*
X157907142Y-121593928D02*
X157978571Y-121665357D01*
X157978571Y-121665357D02*
X158014285Y-121736785D01*
X158014285Y-121736785D02*
X158049999Y-121879642D01*
X158049999Y-121879642D02*
X158049999Y-121986785D01*
X158049999Y-121986785D02*
X158014285Y-122129642D01*
X158014285Y-122129642D02*
X157978571Y-122201071D01*
X157978571Y-122201071D02*
X157907142Y-122272500D01*
X157907142Y-122272500D02*
X157799999Y-122308214D01*
X157799999Y-122308214D02*
X157621428Y-122308214D01*
X158799999Y-122236785D02*
X158764285Y-122272500D01*
X158764285Y-122272500D02*
X158657142Y-122308214D01*
X158657142Y-122308214D02*
X158585714Y-122308214D01*
X158585714Y-122308214D02*
X158478571Y-122272500D01*
X158478571Y-122272500D02*
X158407142Y-122201071D01*
X158407142Y-122201071D02*
X158371428Y-122129642D01*
X158371428Y-122129642D02*
X158335714Y-121986785D01*
X158335714Y-121986785D02*
X158335714Y-121879642D01*
X158335714Y-121879642D02*
X158371428Y-121736785D01*
X158371428Y-121736785D02*
X158407142Y-121665357D01*
X158407142Y-121665357D02*
X158478571Y-121593928D01*
X158478571Y-121593928D02*
X158585714Y-121558214D01*
X158585714Y-121558214D02*
X158657142Y-121558214D01*
X158657142Y-121558214D02*
X158764285Y-121593928D01*
X158764285Y-121593928D02*
X158799999Y-121629642D01*
X159049999Y-121558214D02*
X159514285Y-121558214D01*
X159514285Y-121558214D02*
X159264285Y-121843928D01*
X159264285Y-121843928D02*
X159371428Y-121843928D01*
X159371428Y-121843928D02*
X159442857Y-121879642D01*
X159442857Y-121879642D02*
X159478571Y-121915357D01*
X159478571Y-121915357D02*
X159514285Y-121986785D01*
X159514285Y-121986785D02*
X159514285Y-122165357D01*
X159514285Y-122165357D02*
X159478571Y-122236785D01*
X159478571Y-122236785D02*
X159442857Y-122272500D01*
X159442857Y-122272500D02*
X159371428Y-122308214D01*
X159371428Y-122308214D02*
X159157142Y-122308214D01*
X159157142Y-122308214D02*
X159085714Y-122272500D01*
X159085714Y-122272500D02*
X159049999Y-122236785D01*
X160371428Y-121522500D02*
X159728571Y-122486785D01*
X160942857Y-121558214D02*
X160799999Y-121558214D01*
X160799999Y-121558214D02*
X160728571Y-121593928D01*
X160728571Y-121593928D02*
X160692857Y-121629642D01*
X160692857Y-121629642D02*
X160621428Y-121736785D01*
X160621428Y-121736785D02*
X160585714Y-121879642D01*
X160585714Y-121879642D02*
X160585714Y-122165357D01*
X160585714Y-122165357D02*
X160621428Y-122236785D01*
X160621428Y-122236785D02*
X160657142Y-122272500D01*
X160657142Y-122272500D02*
X160728571Y-122308214D01*
X160728571Y-122308214D02*
X160871428Y-122308214D01*
X160871428Y-122308214D02*
X160942857Y-122272500D01*
X160942857Y-122272500D02*
X160978571Y-122236785D01*
X160978571Y-122236785D02*
X161014285Y-122165357D01*
X161014285Y-122165357D02*
X161014285Y-121986785D01*
X161014285Y-121986785D02*
X160978571Y-121915357D01*
X160978571Y-121915357D02*
X160942857Y-121879642D01*
X160942857Y-121879642D02*
X160871428Y-121843928D01*
X160871428Y-121843928D02*
X160728571Y-121843928D01*
X160728571Y-121843928D02*
X160657142Y-121879642D01*
X160657142Y-121879642D02*
X160621428Y-121915357D01*
X160621428Y-121915357D02*
X160585714Y-121986785D01*
X161585714Y-121915357D02*
X161692857Y-121951071D01*
X161692857Y-121951071D02*
X161728571Y-121986785D01*
X161728571Y-121986785D02*
X161764285Y-122058214D01*
X161764285Y-122058214D02*
X161764285Y-122165357D01*
X161764285Y-122165357D02*
X161728571Y-122236785D01*
X161728571Y-122236785D02*
X161692857Y-122272500D01*
X161692857Y-122272500D02*
X161621428Y-122308214D01*
X161621428Y-122308214D02*
X161335714Y-122308214D01*
X161335714Y-122308214D02*
X161335714Y-121558214D01*
X161335714Y-121558214D02*
X161585714Y-121558214D01*
X161585714Y-121558214D02*
X161657143Y-121593928D01*
X161657143Y-121593928D02*
X161692857Y-121629642D01*
X161692857Y-121629642D02*
X161728571Y-121701071D01*
X161728571Y-121701071D02*
X161728571Y-121772500D01*
X161728571Y-121772500D02*
X161692857Y-121843928D01*
X161692857Y-121843928D02*
X161657143Y-121879642D01*
X161657143Y-121879642D02*
X161585714Y-121915357D01*
X161585714Y-121915357D02*
X161335714Y-121915357D01*
D12*
X109276190Y-136993333D02*
X110800000Y-136993333D01*
D11*
X117262857Y-125437619D02*
X117881904Y-125437619D01*
X117881904Y-125437619D02*
X117548571Y-125818571D01*
X117548571Y-125818571D02*
X117691428Y-125818571D01*
X117691428Y-125818571D02*
X117786666Y-125866190D01*
X117786666Y-125866190D02*
X117834285Y-125913809D01*
X117834285Y-125913809D02*
X117881904Y-126009047D01*
X117881904Y-126009047D02*
X117881904Y-126247142D01*
X117881904Y-126247142D02*
X117834285Y-126342380D01*
X117834285Y-126342380D02*
X117786666Y-126390000D01*
X117786666Y-126390000D02*
X117691428Y-126437619D01*
X117691428Y-126437619D02*
X117405714Y-126437619D01*
X117405714Y-126437619D02*
X117310476Y-126390000D01*
X117310476Y-126390000D02*
X117262857Y-126342380D01*
X118310476Y-126342380D02*
X118358095Y-126390000D01*
X118358095Y-126390000D02*
X118310476Y-126437619D01*
X118310476Y-126437619D02*
X118262857Y-126390000D01*
X118262857Y-126390000D02*
X118310476Y-126342380D01*
X118310476Y-126342380D02*
X118310476Y-126437619D01*
X118691428Y-125437619D02*
X119310475Y-125437619D01*
X119310475Y-125437619D02*
X118977142Y-125818571D01*
X118977142Y-125818571D02*
X119119999Y-125818571D01*
X119119999Y-125818571D02*
X119215237Y-125866190D01*
X119215237Y-125866190D02*
X119262856Y-125913809D01*
X119262856Y-125913809D02*
X119310475Y-126009047D01*
X119310475Y-126009047D02*
X119310475Y-126247142D01*
X119310475Y-126247142D02*
X119262856Y-126342380D01*
X119262856Y-126342380D02*
X119215237Y-126390000D01*
X119215237Y-126390000D02*
X119119999Y-126437619D01*
X119119999Y-126437619D02*
X118834285Y-126437619D01*
X118834285Y-126437619D02*
X118739047Y-126390000D01*
X118739047Y-126390000D02*
X118691428Y-126342380D01*
X156942857Y-124693928D02*
X157300000Y-124693928D01*
X156871428Y-124908214D02*
X157121428Y-124158214D01*
X157121428Y-124158214D02*
X157371428Y-124908214D01*
X157621428Y-124908214D02*
X157621428Y-124158214D01*
X157621428Y-124158214D02*
X157799999Y-124158214D01*
X157799999Y-124158214D02*
X157907142Y-124193928D01*
X157907142Y-124193928D02*
X157978571Y-124265357D01*
X157978571Y-124265357D02*
X158014285Y-124336785D01*
X158014285Y-124336785D02*
X158049999Y-124479642D01*
X158049999Y-124479642D02*
X158049999Y-124586785D01*
X158049999Y-124586785D02*
X158014285Y-124729642D01*
X158014285Y-124729642D02*
X157978571Y-124801071D01*
X157978571Y-124801071D02*
X157907142Y-124872500D01*
X157907142Y-124872500D02*
X157799999Y-124908214D01*
X157799999Y-124908214D02*
X157621428Y-124908214D01*
X158799999Y-124836785D02*
X158764285Y-124872500D01*
X158764285Y-124872500D02*
X158657142Y-124908214D01*
X158657142Y-124908214D02*
X158585714Y-124908214D01*
X158585714Y-124908214D02*
X158478571Y-124872500D01*
X158478571Y-124872500D02*
X158407142Y-124801071D01*
X158407142Y-124801071D02*
X158371428Y-124729642D01*
X158371428Y-124729642D02*
X158335714Y-124586785D01*
X158335714Y-124586785D02*
X158335714Y-124479642D01*
X158335714Y-124479642D02*
X158371428Y-124336785D01*
X158371428Y-124336785D02*
X158407142Y-124265357D01*
X158407142Y-124265357D02*
X158478571Y-124193928D01*
X158478571Y-124193928D02*
X158585714Y-124158214D01*
X158585714Y-124158214D02*
X158657142Y-124158214D01*
X158657142Y-124158214D02*
X158764285Y-124193928D01*
X158764285Y-124193928D02*
X158799999Y-124229642D01*
X159085714Y-124229642D02*
X159121428Y-124193928D01*
X159121428Y-124193928D02*
X159192857Y-124158214D01*
X159192857Y-124158214D02*
X159371428Y-124158214D01*
X159371428Y-124158214D02*
X159442857Y-124193928D01*
X159442857Y-124193928D02*
X159478571Y-124229642D01*
X159478571Y-124229642D02*
X159514285Y-124301071D01*
X159514285Y-124301071D02*
X159514285Y-124372500D01*
X159514285Y-124372500D02*
X159478571Y-124479642D01*
X159478571Y-124479642D02*
X159049999Y-124908214D01*
X159049999Y-124908214D02*
X159514285Y-124908214D01*
X160371428Y-124122500D02*
X159728571Y-125086785D01*
X160942857Y-124158214D02*
X160799999Y-124158214D01*
X160799999Y-124158214D02*
X160728571Y-124193928D01*
X160728571Y-124193928D02*
X160692857Y-124229642D01*
X160692857Y-124229642D02*
X160621428Y-124336785D01*
X160621428Y-124336785D02*
X160585714Y-124479642D01*
X160585714Y-124479642D02*
X160585714Y-124765357D01*
X160585714Y-124765357D02*
X160621428Y-124836785D01*
X160621428Y-124836785D02*
X160657142Y-124872500D01*
X160657142Y-124872500D02*
X160728571Y-124908214D01*
X160728571Y-124908214D02*
X160871428Y-124908214D01*
X160871428Y-124908214D02*
X160942857Y-124872500D01*
X160942857Y-124872500D02*
X160978571Y-124836785D01*
X160978571Y-124836785D02*
X161014285Y-124765357D01*
X161014285Y-124765357D02*
X161014285Y-124586785D01*
X161014285Y-124586785D02*
X160978571Y-124515357D01*
X160978571Y-124515357D02*
X160942857Y-124479642D01*
X160942857Y-124479642D02*
X160871428Y-124443928D01*
X160871428Y-124443928D02*
X160728571Y-124443928D01*
X160728571Y-124443928D02*
X160657142Y-124479642D01*
X160657142Y-124479642D02*
X160621428Y-124515357D01*
X160621428Y-124515357D02*
X160585714Y-124586785D01*
X161300000Y-124693928D02*
X161657143Y-124693928D01*
X161228571Y-124908214D02*
X161478571Y-124158214D01*
X161478571Y-124158214D02*
X161728571Y-124908214D01*
X168178571Y-135108214D02*
X168178571Y-134358214D01*
X169071429Y-134893928D02*
X169428572Y-134893928D01*
X169000000Y-135108214D02*
X169250000Y-134358214D01*
X169250000Y-134358214D02*
X169500000Y-135108214D01*
X169750000Y-135108214D02*
X169750000Y-134358214D01*
X169750000Y-134358214D02*
X169928571Y-134358214D01*
X169928571Y-134358214D02*
X170035714Y-134393928D01*
X170035714Y-134393928D02*
X170107143Y-134465357D01*
X170107143Y-134465357D02*
X170142857Y-134536785D01*
X170142857Y-134536785D02*
X170178571Y-134679642D01*
X170178571Y-134679642D02*
X170178571Y-134786785D01*
X170178571Y-134786785D02*
X170142857Y-134929642D01*
X170142857Y-134929642D02*
X170107143Y-135001071D01*
X170107143Y-135001071D02*
X170035714Y-135072500D01*
X170035714Y-135072500D02*
X169928571Y-135108214D01*
X169928571Y-135108214D02*
X169750000Y-135108214D01*
X170928571Y-135108214D02*
X170678571Y-134751071D01*
X170500000Y-135108214D02*
X170500000Y-134358214D01*
X170500000Y-134358214D02*
X170785714Y-134358214D01*
X170785714Y-134358214D02*
X170857143Y-134393928D01*
X170857143Y-134393928D02*
X170892857Y-134429642D01*
X170892857Y-134429642D02*
X170928571Y-134501071D01*
X170928571Y-134501071D02*
X170928571Y-134608214D01*
X170928571Y-134608214D02*
X170892857Y-134679642D01*
X170892857Y-134679642D02*
X170857143Y-134715357D01*
X170857143Y-134715357D02*
X170785714Y-134751071D01*
X170785714Y-134751071D02*
X170500000Y-134751071D01*
X139230000Y-139609523D02*
X139277619Y-139466666D01*
X139277619Y-139466666D02*
X139277619Y-139228571D01*
X139277619Y-139228571D02*
X139230000Y-139133333D01*
X139230000Y-139133333D02*
X139182380Y-139085714D01*
X139182380Y-139085714D02*
X139087142Y-139038095D01*
X139087142Y-139038095D02*
X138991904Y-139038095D01*
X138991904Y-139038095D02*
X138896666Y-139085714D01*
X138896666Y-139085714D02*
X138849047Y-139133333D01*
X138849047Y-139133333D02*
X138801428Y-139228571D01*
X138801428Y-139228571D02*
X138753809Y-139419047D01*
X138753809Y-139419047D02*
X138706190Y-139514285D01*
X138706190Y-139514285D02*
X138658571Y-139561904D01*
X138658571Y-139561904D02*
X138563333Y-139609523D01*
X138563333Y-139609523D02*
X138468095Y-139609523D01*
X138468095Y-139609523D02*
X138372857Y-139561904D01*
X138372857Y-139561904D02*
X138325238Y-139514285D01*
X138325238Y-139514285D02*
X138277619Y-139419047D01*
X138277619Y-139419047D02*
X138277619Y-139180952D01*
X138277619Y-139180952D02*
X138325238Y-139038095D01*
X138277619Y-138704761D02*
X139277619Y-138466666D01*
X139277619Y-138466666D02*
X138563333Y-138276190D01*
X138563333Y-138276190D02*
X139277619Y-138085714D01*
X139277619Y-138085714D02*
X138277619Y-137847619D01*
X139277619Y-137466666D02*
X138277619Y-137466666D01*
X138277619Y-137466666D02*
X138277619Y-137228571D01*
X138277619Y-137228571D02*
X138325238Y-137085714D01*
X138325238Y-137085714D02*
X138420476Y-136990476D01*
X138420476Y-136990476D02*
X138515714Y-136942857D01*
X138515714Y-136942857D02*
X138706190Y-136895238D01*
X138706190Y-136895238D02*
X138849047Y-136895238D01*
X138849047Y-136895238D02*
X139039523Y-136942857D01*
X139039523Y-136942857D02*
X139134761Y-136990476D01*
X139134761Y-136990476D02*
X139230000Y-137085714D01*
X139230000Y-137085714D02*
X139277619Y-137228571D01*
X139277619Y-137228571D02*
X139277619Y-137466666D01*
X139277619Y-136466666D02*
X138277619Y-136466666D01*
X138277619Y-135800000D02*
X138277619Y-135609524D01*
X138277619Y-135609524D02*
X138325238Y-135514286D01*
X138325238Y-135514286D02*
X138420476Y-135419048D01*
X138420476Y-135419048D02*
X138610952Y-135371429D01*
X138610952Y-135371429D02*
X138944285Y-135371429D01*
X138944285Y-135371429D02*
X139134761Y-135419048D01*
X139134761Y-135419048D02*
X139230000Y-135514286D01*
X139230000Y-135514286D02*
X139277619Y-135609524D01*
X139277619Y-135609524D02*
X139277619Y-135800000D01*
X139277619Y-135800000D02*
X139230000Y-135895238D01*
X139230000Y-135895238D02*
X139134761Y-135990476D01*
X139134761Y-135990476D02*
X138944285Y-136038095D01*
X138944285Y-136038095D02*
X138610952Y-136038095D01*
X138610952Y-136038095D02*
X138420476Y-135990476D01*
X138420476Y-135990476D02*
X138325238Y-135895238D01*
X138325238Y-135895238D02*
X138277619Y-135800000D01*
D12*
X171476190Y-143793333D02*
X173000000Y-143793333D01*
X104076190Y-136993333D02*
X105600000Y-136993333D01*
X114123809Y-106206666D02*
X112600000Y-106206666D01*
D11*
X168178571Y-121558214D02*
X168178571Y-122165357D01*
X168178571Y-122165357D02*
X168214285Y-122236785D01*
X168214285Y-122236785D02*
X168250000Y-122272500D01*
X168250000Y-122272500D02*
X168321428Y-122308214D01*
X168321428Y-122308214D02*
X168464285Y-122308214D01*
X168464285Y-122308214D02*
X168535714Y-122272500D01*
X168535714Y-122272500D02*
X168571428Y-122236785D01*
X168571428Y-122236785D02*
X168607142Y-122165357D01*
X168607142Y-122165357D02*
X168607142Y-121558214D01*
X168964285Y-122308214D02*
X168964285Y-121558214D01*
X168964285Y-121558214D02*
X169249999Y-121558214D01*
X169249999Y-121558214D02*
X169321428Y-121593928D01*
X169321428Y-121593928D02*
X169357142Y-121629642D01*
X169357142Y-121629642D02*
X169392856Y-121701071D01*
X169392856Y-121701071D02*
X169392856Y-121808214D01*
X169392856Y-121808214D02*
X169357142Y-121879642D01*
X169357142Y-121879642D02*
X169321428Y-121915357D01*
X169321428Y-121915357D02*
X169249999Y-121951071D01*
X169249999Y-121951071D02*
X168964285Y-121951071D01*
D12*
X160723809Y-118206666D02*
X159200000Y-118206666D01*
X174220000Y-112993333D02*
X175743810Y-112993333D01*
X104056190Y-112793333D02*
X105580000Y-112793333D01*
D11*
X115251904Y-126437619D02*
X114680476Y-126437619D01*
X114966190Y-126437619D02*
X114966190Y-125437619D01*
X114966190Y-125437619D02*
X114870952Y-125580476D01*
X114870952Y-125580476D02*
X114775714Y-125675714D01*
X114775714Y-125675714D02*
X114680476Y-125723333D01*
X115680476Y-126342380D02*
X115728095Y-126390000D01*
X115728095Y-126390000D02*
X115680476Y-126437619D01*
X115680476Y-126437619D02*
X115632857Y-126390000D01*
X115632857Y-126390000D02*
X115680476Y-126342380D01*
X115680476Y-126342380D02*
X115680476Y-126437619D01*
X116299523Y-125866190D02*
X116204285Y-125818571D01*
X116204285Y-125818571D02*
X116156666Y-125770952D01*
X116156666Y-125770952D02*
X116109047Y-125675714D01*
X116109047Y-125675714D02*
X116109047Y-125628095D01*
X116109047Y-125628095D02*
X116156666Y-125532857D01*
X116156666Y-125532857D02*
X116204285Y-125485238D01*
X116204285Y-125485238D02*
X116299523Y-125437619D01*
X116299523Y-125437619D02*
X116489999Y-125437619D01*
X116489999Y-125437619D02*
X116585237Y-125485238D01*
X116585237Y-125485238D02*
X116632856Y-125532857D01*
X116632856Y-125532857D02*
X116680475Y-125628095D01*
X116680475Y-125628095D02*
X116680475Y-125675714D01*
X116680475Y-125675714D02*
X116632856Y-125770952D01*
X116632856Y-125770952D02*
X116585237Y-125818571D01*
X116585237Y-125818571D02*
X116489999Y-125866190D01*
X116489999Y-125866190D02*
X116299523Y-125866190D01*
X116299523Y-125866190D02*
X116204285Y-125913809D01*
X116204285Y-125913809D02*
X116156666Y-125961428D01*
X116156666Y-125961428D02*
X116109047Y-126056666D01*
X116109047Y-126056666D02*
X116109047Y-126247142D01*
X116109047Y-126247142D02*
X116156666Y-126342380D01*
X116156666Y-126342380D02*
X116204285Y-126390000D01*
X116204285Y-126390000D02*
X116299523Y-126437619D01*
X116299523Y-126437619D02*
X116489999Y-126437619D01*
X116489999Y-126437619D02*
X116585237Y-126390000D01*
X116585237Y-126390000D02*
X116632856Y-126342380D01*
X116632856Y-126342380D02*
X116680475Y-126247142D01*
X116680475Y-126247142D02*
X116680475Y-126056666D01*
X116680475Y-126056666D02*
X116632856Y-125961428D01*
X116632856Y-125961428D02*
X116585237Y-125913809D01*
X116585237Y-125913809D02*
X116489999Y-125866190D01*
X160507142Y-134358214D02*
X161007142Y-134358214D01*
X161007142Y-134358214D02*
X160685714Y-135108214D01*
X161257143Y-134893928D02*
X161614286Y-134893928D01*
X161185714Y-135108214D02*
X161435714Y-134358214D01*
X161435714Y-134358214D02*
X161685714Y-135108214D01*
D12*
X120316428Y-114242857D02*
X121530714Y-114242857D01*
X121530714Y-114242857D02*
X121673571Y-114171428D01*
X121673571Y-114171428D02*
X121745000Y-114100000D01*
X121745000Y-114100000D02*
X121816428Y-113957142D01*
X121816428Y-113957142D02*
X121816428Y-113671428D01*
X121816428Y-113671428D02*
X121745000Y-113528571D01*
X121745000Y-113528571D02*
X121673571Y-113457142D01*
X121673571Y-113457142D02*
X121530714Y-113385714D01*
X121530714Y-113385714D02*
X120316428Y-113385714D01*
X121745000Y-112742856D02*
X121816428Y-112528571D01*
X121816428Y-112528571D02*
X121816428Y-112171428D01*
X121816428Y-112171428D02*
X121745000Y-112028571D01*
X121745000Y-112028571D02*
X121673571Y-111957142D01*
X121673571Y-111957142D02*
X121530714Y-111885713D01*
X121530714Y-111885713D02*
X121387857Y-111885713D01*
X121387857Y-111885713D02*
X121245000Y-111957142D01*
X121245000Y-111957142D02*
X121173571Y-112028571D01*
X121173571Y-112028571D02*
X121102142Y-112171428D01*
X121102142Y-112171428D02*
X121030714Y-112457142D01*
X121030714Y-112457142D02*
X120959285Y-112599999D01*
X120959285Y-112599999D02*
X120887857Y-112671428D01*
X120887857Y-112671428D02*
X120745000Y-112742856D01*
X120745000Y-112742856D02*
X120602142Y-112742856D01*
X120602142Y-112742856D02*
X120459285Y-112671428D01*
X120459285Y-112671428D02*
X120387857Y-112599999D01*
X120387857Y-112599999D02*
X120316428Y-112457142D01*
X120316428Y-112457142D02*
X120316428Y-112099999D01*
X120316428Y-112099999D02*
X120387857Y-111885713D01*
X121030714Y-110742857D02*
X121102142Y-110528571D01*
X121102142Y-110528571D02*
X121173571Y-110457142D01*
X121173571Y-110457142D02*
X121316428Y-110385714D01*
X121316428Y-110385714D02*
X121530714Y-110385714D01*
X121530714Y-110385714D02*
X121673571Y-110457142D01*
X121673571Y-110457142D02*
X121745000Y-110528571D01*
X121745000Y-110528571D02*
X121816428Y-110671428D01*
X121816428Y-110671428D02*
X121816428Y-111242857D01*
X121816428Y-111242857D02*
X120316428Y-111242857D01*
X120316428Y-111242857D02*
X120316428Y-110742857D01*
X120316428Y-110742857D02*
X120387857Y-110600000D01*
X120387857Y-110600000D02*
X120459285Y-110528571D01*
X120459285Y-110528571D02*
X120602142Y-110457142D01*
X120602142Y-110457142D02*
X120745000Y-110457142D01*
X120745000Y-110457142D02*
X120887857Y-110528571D01*
X120887857Y-110528571D02*
X120959285Y-110600000D01*
X120959285Y-110600000D02*
X121030714Y-110742857D01*
X121030714Y-110742857D02*
X121030714Y-111242857D01*
D11*
X168178571Y-129908214D02*
X168178571Y-129158214D01*
X169107143Y-129908214D02*
X169107143Y-129158214D01*
X169464286Y-129908214D02*
X169464286Y-129158214D01*
X169464286Y-129158214D02*
X169892857Y-129908214D01*
X169892857Y-129908214D02*
X169892857Y-129158214D01*
X170142857Y-129158214D02*
X170571429Y-129158214D01*
X170357143Y-129908214D02*
X170357143Y-129158214D01*
D12*
X167723809Y-118206666D02*
X166200000Y-118206666D01*
X166961904Y-117444761D02*
X166961904Y-118968571D01*
D14*
%TO.C,C3*%
X127064383Y-112644638D02*
X127045635Y-112663386D01*
X127045635Y-112663386D02*
X126989392Y-112682133D01*
X126989392Y-112682133D02*
X126951897Y-112682133D01*
X126951897Y-112682133D02*
X126895654Y-112663386D01*
X126895654Y-112663386D02*
X126858159Y-112625890D01*
X126858159Y-112625890D02*
X126839411Y-112588395D01*
X126839411Y-112588395D02*
X126820663Y-112513404D01*
X126820663Y-112513404D02*
X126820663Y-112457161D01*
X126820663Y-112457161D02*
X126839411Y-112382171D01*
X126839411Y-112382171D02*
X126858159Y-112344675D01*
X126858159Y-112344675D02*
X126895654Y-112307180D01*
X126895654Y-112307180D02*
X126951897Y-112288432D01*
X126951897Y-112288432D02*
X126989392Y-112288432D01*
X126989392Y-112288432D02*
X127045635Y-112307180D01*
X127045635Y-112307180D02*
X127064383Y-112325928D01*
X127195617Y-112288432D02*
X127439336Y-112288432D01*
X127439336Y-112288432D02*
X127308103Y-112438414D01*
X127308103Y-112438414D02*
X127364346Y-112438414D01*
X127364346Y-112438414D02*
X127401841Y-112457161D01*
X127401841Y-112457161D02*
X127420589Y-112475909D01*
X127420589Y-112475909D02*
X127439336Y-112513404D01*
X127439336Y-112513404D02*
X127439336Y-112607143D01*
X127439336Y-112607143D02*
X127420589Y-112644638D01*
X127420589Y-112644638D02*
X127401841Y-112663386D01*
X127401841Y-112663386D02*
X127364346Y-112682133D01*
X127364346Y-112682133D02*
X127251860Y-112682133D01*
X127251860Y-112682133D02*
X127214364Y-112663386D01*
X127214364Y-112663386D02*
X127195617Y-112644638D01*
D15*
%TO.C,R10*%
X160432570Y-140632109D02*
X160327441Y-140481924D01*
X160252348Y-140632109D02*
X160252348Y-140316720D01*
X160252348Y-140316720D02*
X160372496Y-140316720D01*
X160372496Y-140316720D02*
X160402533Y-140331739D01*
X160402533Y-140331739D02*
X160417552Y-140346757D01*
X160417552Y-140346757D02*
X160432570Y-140376794D01*
X160432570Y-140376794D02*
X160432570Y-140421850D01*
X160432570Y-140421850D02*
X160417552Y-140451887D01*
X160417552Y-140451887D02*
X160402533Y-140466905D01*
X160402533Y-140466905D02*
X160372496Y-140481924D01*
X160372496Y-140481924D02*
X160252348Y-140481924D01*
X160732941Y-140632109D02*
X160552719Y-140632109D01*
X160642830Y-140632109D02*
X160642830Y-140316720D01*
X160642830Y-140316720D02*
X160612793Y-140361776D01*
X160612793Y-140361776D02*
X160582756Y-140391813D01*
X160582756Y-140391813D02*
X160552719Y-140406831D01*
X160928181Y-140316720D02*
X160958218Y-140316720D01*
X160958218Y-140316720D02*
X160988255Y-140331739D01*
X160988255Y-140331739D02*
X161003274Y-140346757D01*
X161003274Y-140346757D02*
X161018292Y-140376794D01*
X161018292Y-140376794D02*
X161033311Y-140436868D01*
X161033311Y-140436868D02*
X161033311Y-140511961D01*
X161033311Y-140511961D02*
X161018292Y-140572035D01*
X161018292Y-140572035D02*
X161003274Y-140602072D01*
X161003274Y-140602072D02*
X160988255Y-140617091D01*
X160988255Y-140617091D02*
X160958218Y-140632109D01*
X160958218Y-140632109D02*
X160928181Y-140632109D01*
X160928181Y-140632109D02*
X160898144Y-140617091D01*
X160898144Y-140617091D02*
X160883126Y-140602072D01*
X160883126Y-140602072D02*
X160868107Y-140572035D01*
X160868107Y-140572035D02*
X160853089Y-140511961D01*
X160853089Y-140511961D02*
X160853089Y-140436868D01*
X160853089Y-140436868D02*
X160868107Y-140376794D01*
X160868107Y-140376794D02*
X160883126Y-140346757D01*
X160883126Y-140346757D02*
X160898144Y-140331739D01*
X160898144Y-140331739D02*
X160928181Y-140316720D01*
D14*
%TO.C,C8*%
X143744638Y-147865616D02*
X143763386Y-147884364D01*
X143763386Y-147884364D02*
X143782133Y-147940607D01*
X143782133Y-147940607D02*
X143782133Y-147978102D01*
X143782133Y-147978102D02*
X143763386Y-148034345D01*
X143763386Y-148034345D02*
X143725890Y-148071841D01*
X143725890Y-148071841D02*
X143688395Y-148090588D01*
X143688395Y-148090588D02*
X143613404Y-148109336D01*
X143613404Y-148109336D02*
X143557161Y-148109336D01*
X143557161Y-148109336D02*
X143482171Y-148090588D01*
X143482171Y-148090588D02*
X143444675Y-148071841D01*
X143444675Y-148071841D02*
X143407180Y-148034345D01*
X143407180Y-148034345D02*
X143388432Y-147978102D01*
X143388432Y-147978102D02*
X143388432Y-147940607D01*
X143388432Y-147940607D02*
X143407180Y-147884364D01*
X143407180Y-147884364D02*
X143425928Y-147865616D01*
X143557161Y-147640644D02*
X143538414Y-147678140D01*
X143538414Y-147678140D02*
X143519666Y-147696887D01*
X143519666Y-147696887D02*
X143482171Y-147715635D01*
X143482171Y-147715635D02*
X143463423Y-147715635D01*
X143463423Y-147715635D02*
X143425928Y-147696887D01*
X143425928Y-147696887D02*
X143407180Y-147678140D01*
X143407180Y-147678140D02*
X143388432Y-147640644D01*
X143388432Y-147640644D02*
X143388432Y-147565654D01*
X143388432Y-147565654D02*
X143407180Y-147528158D01*
X143407180Y-147528158D02*
X143425928Y-147509411D01*
X143425928Y-147509411D02*
X143463423Y-147490663D01*
X143463423Y-147490663D02*
X143482171Y-147490663D01*
X143482171Y-147490663D02*
X143519666Y-147509411D01*
X143519666Y-147509411D02*
X143538414Y-147528158D01*
X143538414Y-147528158D02*
X143557161Y-147565654D01*
X143557161Y-147565654D02*
X143557161Y-147640644D01*
X143557161Y-147640644D02*
X143575909Y-147678140D01*
X143575909Y-147678140D02*
X143594657Y-147696887D01*
X143594657Y-147696887D02*
X143632152Y-147715635D01*
X143632152Y-147715635D02*
X143707143Y-147715635D01*
X143707143Y-147715635D02*
X143744638Y-147696887D01*
X143744638Y-147696887D02*
X143763386Y-147678140D01*
X143763386Y-147678140D02*
X143782133Y-147640644D01*
X143782133Y-147640644D02*
X143782133Y-147565654D01*
X143782133Y-147565654D02*
X143763386Y-147528158D01*
X143763386Y-147528158D02*
X143744638Y-147509411D01*
X143744638Y-147509411D02*
X143707143Y-147490663D01*
X143707143Y-147490663D02*
X143632152Y-147490663D01*
X143632152Y-147490663D02*
X143594657Y-147509411D01*
X143594657Y-147509411D02*
X143575909Y-147528158D01*
X143575909Y-147528158D02*
X143557161Y-147565654D01*
D11*
%TO.C,J13*%
X162990476Y-114862619D02*
X162990476Y-115576904D01*
X162990476Y-115576904D02*
X162942857Y-115719761D01*
X162942857Y-115719761D02*
X162847619Y-115815000D01*
X162847619Y-115815000D02*
X162704762Y-115862619D01*
X162704762Y-115862619D02*
X162609524Y-115862619D01*
X163990476Y-115862619D02*
X163419048Y-115862619D01*
X163704762Y-115862619D02*
X163704762Y-114862619D01*
X163704762Y-114862619D02*
X163609524Y-115005476D01*
X163609524Y-115005476D02*
X163514286Y-115100714D01*
X163514286Y-115100714D02*
X163419048Y-115148333D01*
X164323810Y-114862619D02*
X164942857Y-114862619D01*
X164942857Y-114862619D02*
X164609524Y-115243571D01*
X164609524Y-115243571D02*
X164752381Y-115243571D01*
X164752381Y-115243571D02*
X164847619Y-115291190D01*
X164847619Y-115291190D02*
X164895238Y-115338809D01*
X164895238Y-115338809D02*
X164942857Y-115434047D01*
X164942857Y-115434047D02*
X164942857Y-115672142D01*
X164942857Y-115672142D02*
X164895238Y-115767380D01*
X164895238Y-115767380D02*
X164847619Y-115815000D01*
X164847619Y-115815000D02*
X164752381Y-115862619D01*
X164752381Y-115862619D02*
X164466667Y-115862619D01*
X164466667Y-115862619D02*
X164371429Y-115815000D01*
X164371429Y-115815000D02*
X164323810Y-115767380D01*
%TO.C,U2*%
X146862619Y-113961904D02*
X147672142Y-113961904D01*
X147672142Y-113961904D02*
X147767380Y-113914285D01*
X147767380Y-113914285D02*
X147815000Y-113866666D01*
X147815000Y-113866666D02*
X147862619Y-113771428D01*
X147862619Y-113771428D02*
X147862619Y-113580952D01*
X147862619Y-113580952D02*
X147815000Y-113485714D01*
X147815000Y-113485714D02*
X147767380Y-113438095D01*
X147767380Y-113438095D02*
X147672142Y-113390476D01*
X147672142Y-113390476D02*
X146862619Y-113390476D01*
X146957857Y-112961904D02*
X146910238Y-112914285D01*
X146910238Y-112914285D02*
X146862619Y-112819047D01*
X146862619Y-112819047D02*
X146862619Y-112580952D01*
X146862619Y-112580952D02*
X146910238Y-112485714D01*
X146910238Y-112485714D02*
X146957857Y-112438095D01*
X146957857Y-112438095D02*
X147053095Y-112390476D01*
X147053095Y-112390476D02*
X147148333Y-112390476D01*
X147148333Y-112390476D02*
X147291190Y-112438095D01*
X147291190Y-112438095D02*
X147862619Y-113009523D01*
X147862619Y-113009523D02*
X147862619Y-112390476D01*
%TO.C,Y1*%
X136047714Y-135536761D02*
X136352476Y-135536761D01*
X135712476Y-135750094D02*
X136047714Y-135536761D01*
X136047714Y-135536761D02*
X135712476Y-135323427D01*
X136352476Y-134774856D02*
X136352476Y-135140571D01*
X136352476Y-134957714D02*
X135712476Y-134957714D01*
X135712476Y-134957714D02*
X135803904Y-135018666D01*
X135803904Y-135018666D02*
X135864857Y-135079618D01*
X135864857Y-135079618D02*
X135895333Y-135140571D01*
%TO.C,SW5*%
X176924167Y-121715000D02*
X177067024Y-121762619D01*
X177067024Y-121762619D02*
X177305119Y-121762619D01*
X177305119Y-121762619D02*
X177400357Y-121715000D01*
X177400357Y-121715000D02*
X177447976Y-121667380D01*
X177447976Y-121667380D02*
X177495595Y-121572142D01*
X177495595Y-121572142D02*
X177495595Y-121476904D01*
X177495595Y-121476904D02*
X177447976Y-121381666D01*
X177447976Y-121381666D02*
X177400357Y-121334047D01*
X177400357Y-121334047D02*
X177305119Y-121286428D01*
X177305119Y-121286428D02*
X177114643Y-121238809D01*
X177114643Y-121238809D02*
X177019405Y-121191190D01*
X177019405Y-121191190D02*
X176971786Y-121143571D01*
X176971786Y-121143571D02*
X176924167Y-121048333D01*
X176924167Y-121048333D02*
X176924167Y-120953095D01*
X176924167Y-120953095D02*
X176971786Y-120857857D01*
X176971786Y-120857857D02*
X177019405Y-120810238D01*
X177019405Y-120810238D02*
X177114643Y-120762619D01*
X177114643Y-120762619D02*
X177352738Y-120762619D01*
X177352738Y-120762619D02*
X177495595Y-120810238D01*
X177828929Y-120762619D02*
X178067024Y-121762619D01*
X178067024Y-121762619D02*
X178257500Y-121048333D01*
X178257500Y-121048333D02*
X178447976Y-121762619D01*
X178447976Y-121762619D02*
X178686072Y-120762619D01*
X179543214Y-120762619D02*
X179067024Y-120762619D01*
X179067024Y-120762619D02*
X179019405Y-121238809D01*
X179019405Y-121238809D02*
X179067024Y-121191190D01*
X179067024Y-121191190D02*
X179162262Y-121143571D01*
X179162262Y-121143571D02*
X179400357Y-121143571D01*
X179400357Y-121143571D02*
X179495595Y-121191190D01*
X179495595Y-121191190D02*
X179543214Y-121238809D01*
X179543214Y-121238809D02*
X179590833Y-121334047D01*
X179590833Y-121334047D02*
X179590833Y-121572142D01*
X179590833Y-121572142D02*
X179543214Y-121667380D01*
X179543214Y-121667380D02*
X179495595Y-121715000D01*
X179495595Y-121715000D02*
X179400357Y-121762619D01*
X179400357Y-121762619D02*
X179162262Y-121762619D01*
X179162262Y-121762619D02*
X179067024Y-121715000D01*
X179067024Y-121715000D02*
X179019405Y-121667380D01*
X175146000Y-117129019D02*
X175146000Y-117367114D01*
X174907905Y-117271876D02*
X175146000Y-117367114D01*
X175146000Y-117367114D02*
X175384095Y-117271876D01*
X175003143Y-117557590D02*
X175146000Y-117367114D01*
X175146000Y-117367114D02*
X175288857Y-117557590D01*
X175146000Y-117129019D02*
X175146000Y-117367114D01*
X174907905Y-117271876D02*
X175146000Y-117367114D01*
X175146000Y-117367114D02*
X175384095Y-117271876D01*
X175003143Y-117557590D02*
X175146000Y-117367114D01*
X175146000Y-117367114D02*
X175288857Y-117557590D01*
%TO.C,SW2*%
X148415000Y-137333332D02*
X148462619Y-137190475D01*
X148462619Y-137190475D02*
X148462619Y-136952380D01*
X148462619Y-136952380D02*
X148415000Y-136857142D01*
X148415000Y-136857142D02*
X148367380Y-136809523D01*
X148367380Y-136809523D02*
X148272142Y-136761904D01*
X148272142Y-136761904D02*
X148176904Y-136761904D01*
X148176904Y-136761904D02*
X148081666Y-136809523D01*
X148081666Y-136809523D02*
X148034047Y-136857142D01*
X148034047Y-136857142D02*
X147986428Y-136952380D01*
X147986428Y-136952380D02*
X147938809Y-137142856D01*
X147938809Y-137142856D02*
X147891190Y-137238094D01*
X147891190Y-137238094D02*
X147843571Y-137285713D01*
X147843571Y-137285713D02*
X147748333Y-137333332D01*
X147748333Y-137333332D02*
X147653095Y-137333332D01*
X147653095Y-137333332D02*
X147557857Y-137285713D01*
X147557857Y-137285713D02*
X147510238Y-137238094D01*
X147510238Y-137238094D02*
X147462619Y-137142856D01*
X147462619Y-137142856D02*
X147462619Y-136904761D01*
X147462619Y-136904761D02*
X147510238Y-136761904D01*
X147462619Y-136428570D02*
X148462619Y-136190475D01*
X148462619Y-136190475D02*
X147748333Y-135999999D01*
X147748333Y-135999999D02*
X148462619Y-135809523D01*
X148462619Y-135809523D02*
X147462619Y-135571428D01*
X147557857Y-135238094D02*
X147510238Y-135190475D01*
X147510238Y-135190475D02*
X147462619Y-135095237D01*
X147462619Y-135095237D02*
X147462619Y-134857142D01*
X147462619Y-134857142D02*
X147510238Y-134761904D01*
X147510238Y-134761904D02*
X147557857Y-134714285D01*
X147557857Y-134714285D02*
X147653095Y-134666666D01*
X147653095Y-134666666D02*
X147748333Y-134666666D01*
X147748333Y-134666666D02*
X147891190Y-134714285D01*
X147891190Y-134714285D02*
X148462619Y-135285713D01*
X148462619Y-135285713D02*
X148462619Y-134666666D01*
X144262619Y-139199999D02*
X144500714Y-139199999D01*
X144405476Y-139438094D02*
X144500714Y-139199999D01*
X144500714Y-139199999D02*
X144405476Y-138961904D01*
X144691190Y-139342856D02*
X144500714Y-139199999D01*
X144500714Y-139199999D02*
X144691190Y-139057142D01*
D14*
%TO.C,C6*%
X148844638Y-124665616D02*
X148863386Y-124684364D01*
X148863386Y-124684364D02*
X148882133Y-124740607D01*
X148882133Y-124740607D02*
X148882133Y-124778102D01*
X148882133Y-124778102D02*
X148863386Y-124834345D01*
X148863386Y-124834345D02*
X148825890Y-124871841D01*
X148825890Y-124871841D02*
X148788395Y-124890588D01*
X148788395Y-124890588D02*
X148713404Y-124909336D01*
X148713404Y-124909336D02*
X148657161Y-124909336D01*
X148657161Y-124909336D02*
X148582171Y-124890588D01*
X148582171Y-124890588D02*
X148544675Y-124871841D01*
X148544675Y-124871841D02*
X148507180Y-124834345D01*
X148507180Y-124834345D02*
X148488432Y-124778102D01*
X148488432Y-124778102D02*
X148488432Y-124740607D01*
X148488432Y-124740607D02*
X148507180Y-124684364D01*
X148507180Y-124684364D02*
X148525928Y-124665616D01*
X148488432Y-124328158D02*
X148488432Y-124403149D01*
X148488432Y-124403149D02*
X148507180Y-124440644D01*
X148507180Y-124440644D02*
X148525928Y-124459392D01*
X148525928Y-124459392D02*
X148582171Y-124496887D01*
X148582171Y-124496887D02*
X148657161Y-124515635D01*
X148657161Y-124515635D02*
X148807143Y-124515635D01*
X148807143Y-124515635D02*
X148844638Y-124496887D01*
X148844638Y-124496887D02*
X148863386Y-124478140D01*
X148863386Y-124478140D02*
X148882133Y-124440644D01*
X148882133Y-124440644D02*
X148882133Y-124365654D01*
X148882133Y-124365654D02*
X148863386Y-124328158D01*
X148863386Y-124328158D02*
X148844638Y-124309411D01*
X148844638Y-124309411D02*
X148807143Y-124290663D01*
X148807143Y-124290663D02*
X148713404Y-124290663D01*
X148713404Y-124290663D02*
X148675909Y-124309411D01*
X148675909Y-124309411D02*
X148657161Y-124328158D01*
X148657161Y-124328158D02*
X148638414Y-124365654D01*
X148638414Y-124365654D02*
X148638414Y-124440644D01*
X148638414Y-124440644D02*
X148657161Y-124478140D01*
X148657161Y-124478140D02*
X148675909Y-124496887D01*
X148675909Y-124496887D02*
X148713404Y-124515635D01*
D15*
%TO.C,R6*%
X152382755Y-124432109D02*
X152277626Y-124281924D01*
X152202533Y-124432109D02*
X152202533Y-124116720D01*
X152202533Y-124116720D02*
X152322681Y-124116720D01*
X152322681Y-124116720D02*
X152352718Y-124131739D01*
X152352718Y-124131739D02*
X152367737Y-124146757D01*
X152367737Y-124146757D02*
X152382755Y-124176794D01*
X152382755Y-124176794D02*
X152382755Y-124221850D01*
X152382755Y-124221850D02*
X152367737Y-124251887D01*
X152367737Y-124251887D02*
X152352718Y-124266905D01*
X152352718Y-124266905D02*
X152322681Y-124281924D01*
X152322681Y-124281924D02*
X152202533Y-124281924D01*
X152653089Y-124116720D02*
X152593015Y-124116720D01*
X152593015Y-124116720D02*
X152562978Y-124131739D01*
X152562978Y-124131739D02*
X152547959Y-124146757D01*
X152547959Y-124146757D02*
X152517922Y-124191813D01*
X152517922Y-124191813D02*
X152502904Y-124251887D01*
X152502904Y-124251887D02*
X152502904Y-124372035D01*
X152502904Y-124372035D02*
X152517922Y-124402072D01*
X152517922Y-124402072D02*
X152532941Y-124417091D01*
X152532941Y-124417091D02*
X152562978Y-124432109D01*
X152562978Y-124432109D02*
X152623052Y-124432109D01*
X152623052Y-124432109D02*
X152653089Y-124417091D01*
X152653089Y-124417091D02*
X152668107Y-124402072D01*
X152668107Y-124402072D02*
X152683126Y-124372035D01*
X152683126Y-124372035D02*
X152683126Y-124296942D01*
X152683126Y-124296942D02*
X152668107Y-124266905D01*
X152668107Y-124266905D02*
X152653089Y-124251887D01*
X152653089Y-124251887D02*
X152623052Y-124236868D01*
X152623052Y-124236868D02*
X152562978Y-124236868D01*
X152562978Y-124236868D02*
X152532941Y-124251887D01*
X152532941Y-124251887D02*
X152517922Y-124266905D01*
X152517922Y-124266905D02*
X152502904Y-124296942D01*
D11*
%TO.C,U1*%
X135028571Y-122996964D02*
X135028571Y-123604107D01*
X135028571Y-123604107D02*
X135064285Y-123675535D01*
X135064285Y-123675535D02*
X135100000Y-123711250D01*
X135100000Y-123711250D02*
X135171428Y-123746964D01*
X135171428Y-123746964D02*
X135314285Y-123746964D01*
X135314285Y-123746964D02*
X135385714Y-123711250D01*
X135385714Y-123711250D02*
X135421428Y-123675535D01*
X135421428Y-123675535D02*
X135457142Y-123604107D01*
X135457142Y-123604107D02*
X135457142Y-122996964D01*
X136207142Y-123746964D02*
X135778571Y-123746964D01*
X135992856Y-123746964D02*
X135992856Y-122996964D01*
X135992856Y-122996964D02*
X135921428Y-123104107D01*
X135921428Y-123104107D02*
X135849999Y-123175535D01*
X135849999Y-123175535D02*
X135778571Y-123211250D01*
%TO.C,S1*%
X164145595Y-109900000D02*
X164288452Y-109947619D01*
X164288452Y-109947619D02*
X164526547Y-109947619D01*
X164526547Y-109947619D02*
X164621785Y-109900000D01*
X164621785Y-109900000D02*
X164669404Y-109852380D01*
X164669404Y-109852380D02*
X164717023Y-109757142D01*
X164717023Y-109757142D02*
X164717023Y-109661904D01*
X164717023Y-109661904D02*
X164669404Y-109566666D01*
X164669404Y-109566666D02*
X164621785Y-109519047D01*
X164621785Y-109519047D02*
X164526547Y-109471428D01*
X164526547Y-109471428D02*
X164336071Y-109423809D01*
X164336071Y-109423809D02*
X164240833Y-109376190D01*
X164240833Y-109376190D02*
X164193214Y-109328571D01*
X164193214Y-109328571D02*
X164145595Y-109233333D01*
X164145595Y-109233333D02*
X164145595Y-109138095D01*
X164145595Y-109138095D02*
X164193214Y-109042857D01*
X164193214Y-109042857D02*
X164240833Y-108995238D01*
X164240833Y-108995238D02*
X164336071Y-108947619D01*
X164336071Y-108947619D02*
X164574166Y-108947619D01*
X164574166Y-108947619D02*
X164717023Y-108995238D01*
X165669404Y-109947619D02*
X165097976Y-109947619D01*
X165383690Y-109947619D02*
X165383690Y-108947619D01*
X165383690Y-108947619D02*
X165288452Y-109090476D01*
X165288452Y-109090476D02*
X165193214Y-109185714D01*
X165193214Y-109185714D02*
X165097976Y-109233333D01*
D14*
%TO.C,C23*%
X143766907Y-120944638D02*
X143748159Y-120963386D01*
X143748159Y-120963386D02*
X143691916Y-120982133D01*
X143691916Y-120982133D02*
X143654421Y-120982133D01*
X143654421Y-120982133D02*
X143598178Y-120963386D01*
X143598178Y-120963386D02*
X143560683Y-120925890D01*
X143560683Y-120925890D02*
X143541935Y-120888395D01*
X143541935Y-120888395D02*
X143523187Y-120813404D01*
X143523187Y-120813404D02*
X143523187Y-120757161D01*
X143523187Y-120757161D02*
X143541935Y-120682171D01*
X143541935Y-120682171D02*
X143560683Y-120644675D01*
X143560683Y-120644675D02*
X143598178Y-120607180D01*
X143598178Y-120607180D02*
X143654421Y-120588432D01*
X143654421Y-120588432D02*
X143691916Y-120588432D01*
X143691916Y-120588432D02*
X143748159Y-120607180D01*
X143748159Y-120607180D02*
X143766907Y-120625928D01*
X143916888Y-120625928D02*
X143935636Y-120607180D01*
X143935636Y-120607180D02*
X143973131Y-120588432D01*
X143973131Y-120588432D02*
X144066870Y-120588432D01*
X144066870Y-120588432D02*
X144104365Y-120607180D01*
X144104365Y-120607180D02*
X144123113Y-120625928D01*
X144123113Y-120625928D02*
X144141860Y-120663423D01*
X144141860Y-120663423D02*
X144141860Y-120700918D01*
X144141860Y-120700918D02*
X144123113Y-120757161D01*
X144123113Y-120757161D02*
X143898141Y-120982133D01*
X143898141Y-120982133D02*
X144141860Y-120982133D01*
X144273094Y-120588432D02*
X144516813Y-120588432D01*
X144516813Y-120588432D02*
X144385580Y-120738414D01*
X144385580Y-120738414D02*
X144441823Y-120738414D01*
X144441823Y-120738414D02*
X144479318Y-120757161D01*
X144479318Y-120757161D02*
X144498066Y-120775909D01*
X144498066Y-120775909D02*
X144516813Y-120813404D01*
X144516813Y-120813404D02*
X144516813Y-120907143D01*
X144516813Y-120907143D02*
X144498066Y-120944638D01*
X144498066Y-120944638D02*
X144479318Y-120963386D01*
X144479318Y-120963386D02*
X144441823Y-120982133D01*
X144441823Y-120982133D02*
X144329337Y-120982133D01*
X144329337Y-120982133D02*
X144291841Y-120963386D01*
X144291841Y-120963386D02*
X144273094Y-120944638D01*
%TO.C,C20*%
X130146907Y-129444638D02*
X130128159Y-129463386D01*
X130128159Y-129463386D02*
X130071916Y-129482133D01*
X130071916Y-129482133D02*
X130034421Y-129482133D01*
X130034421Y-129482133D02*
X129978178Y-129463386D01*
X129978178Y-129463386D02*
X129940683Y-129425890D01*
X129940683Y-129425890D02*
X129921935Y-129388395D01*
X129921935Y-129388395D02*
X129903187Y-129313404D01*
X129903187Y-129313404D02*
X129903187Y-129257161D01*
X129903187Y-129257161D02*
X129921935Y-129182171D01*
X129921935Y-129182171D02*
X129940683Y-129144675D01*
X129940683Y-129144675D02*
X129978178Y-129107180D01*
X129978178Y-129107180D02*
X130034421Y-129088432D01*
X130034421Y-129088432D02*
X130071916Y-129088432D01*
X130071916Y-129088432D02*
X130128159Y-129107180D01*
X130128159Y-129107180D02*
X130146907Y-129125928D01*
X130296888Y-129125928D02*
X130315636Y-129107180D01*
X130315636Y-129107180D02*
X130353131Y-129088432D01*
X130353131Y-129088432D02*
X130446870Y-129088432D01*
X130446870Y-129088432D02*
X130484365Y-129107180D01*
X130484365Y-129107180D02*
X130503113Y-129125928D01*
X130503113Y-129125928D02*
X130521860Y-129163423D01*
X130521860Y-129163423D02*
X130521860Y-129200918D01*
X130521860Y-129200918D02*
X130503113Y-129257161D01*
X130503113Y-129257161D02*
X130278141Y-129482133D01*
X130278141Y-129482133D02*
X130521860Y-129482133D01*
X130765580Y-129088432D02*
X130803075Y-129088432D01*
X130803075Y-129088432D02*
X130840570Y-129107180D01*
X130840570Y-129107180D02*
X130859318Y-129125928D01*
X130859318Y-129125928D02*
X130878066Y-129163423D01*
X130878066Y-129163423D02*
X130896813Y-129238414D01*
X130896813Y-129238414D02*
X130896813Y-129332152D01*
X130896813Y-129332152D02*
X130878066Y-129407143D01*
X130878066Y-129407143D02*
X130859318Y-129444638D01*
X130859318Y-129444638D02*
X130840570Y-129463386D01*
X130840570Y-129463386D02*
X130803075Y-129482133D01*
X130803075Y-129482133D02*
X130765580Y-129482133D01*
X130765580Y-129482133D02*
X130728084Y-129463386D01*
X130728084Y-129463386D02*
X130709337Y-129444638D01*
X130709337Y-129444638D02*
X130690589Y-129407143D01*
X130690589Y-129407143D02*
X130671841Y-129332152D01*
X130671841Y-129332152D02*
X130671841Y-129238414D01*
X130671841Y-129238414D02*
X130690589Y-129163423D01*
X130690589Y-129163423D02*
X130709337Y-129125928D01*
X130709337Y-129125928D02*
X130728084Y-129107180D01*
X130728084Y-129107180D02*
X130765580Y-129088432D01*
%TO.C,C14*%
X142894638Y-117055592D02*
X142913386Y-117074340D01*
X142913386Y-117074340D02*
X142932133Y-117130583D01*
X142932133Y-117130583D02*
X142932133Y-117168078D01*
X142932133Y-117168078D02*
X142913386Y-117224321D01*
X142913386Y-117224321D02*
X142875890Y-117261817D01*
X142875890Y-117261817D02*
X142838395Y-117280564D01*
X142838395Y-117280564D02*
X142763404Y-117299312D01*
X142763404Y-117299312D02*
X142707161Y-117299312D01*
X142707161Y-117299312D02*
X142632171Y-117280564D01*
X142632171Y-117280564D02*
X142594675Y-117261817D01*
X142594675Y-117261817D02*
X142557180Y-117224321D01*
X142557180Y-117224321D02*
X142538432Y-117168078D01*
X142538432Y-117168078D02*
X142538432Y-117130583D01*
X142538432Y-117130583D02*
X142557180Y-117074340D01*
X142557180Y-117074340D02*
X142575928Y-117055592D01*
X142932133Y-116680639D02*
X142932133Y-116905611D01*
X142932133Y-116793125D02*
X142538432Y-116793125D01*
X142538432Y-116793125D02*
X142594675Y-116830620D01*
X142594675Y-116830620D02*
X142632171Y-116868116D01*
X142632171Y-116868116D02*
X142650918Y-116905611D01*
X142669666Y-116343181D02*
X142932133Y-116343181D01*
X142519685Y-116436920D02*
X142800900Y-116530658D01*
X142800900Y-116530658D02*
X142800900Y-116286938D01*
%TO.C,C16*%
X139444638Y-132143092D02*
X139463386Y-132161840D01*
X139463386Y-132161840D02*
X139482133Y-132218083D01*
X139482133Y-132218083D02*
X139482133Y-132255578D01*
X139482133Y-132255578D02*
X139463386Y-132311821D01*
X139463386Y-132311821D02*
X139425890Y-132349317D01*
X139425890Y-132349317D02*
X139388395Y-132368064D01*
X139388395Y-132368064D02*
X139313404Y-132386812D01*
X139313404Y-132386812D02*
X139257161Y-132386812D01*
X139257161Y-132386812D02*
X139182171Y-132368064D01*
X139182171Y-132368064D02*
X139144675Y-132349317D01*
X139144675Y-132349317D02*
X139107180Y-132311821D01*
X139107180Y-132311821D02*
X139088432Y-132255578D01*
X139088432Y-132255578D02*
X139088432Y-132218083D01*
X139088432Y-132218083D02*
X139107180Y-132161840D01*
X139107180Y-132161840D02*
X139125928Y-132143092D01*
X139482133Y-131768139D02*
X139482133Y-131993111D01*
X139482133Y-131880625D02*
X139088432Y-131880625D01*
X139088432Y-131880625D02*
X139144675Y-131918120D01*
X139144675Y-131918120D02*
X139182171Y-131955616D01*
X139182171Y-131955616D02*
X139200918Y-131993111D01*
X139088432Y-131430681D02*
X139088432Y-131505672D01*
X139088432Y-131505672D02*
X139107180Y-131543167D01*
X139107180Y-131543167D02*
X139125928Y-131561915D01*
X139125928Y-131561915D02*
X139182171Y-131599410D01*
X139182171Y-131599410D02*
X139257161Y-131618158D01*
X139257161Y-131618158D02*
X139407143Y-131618158D01*
X139407143Y-131618158D02*
X139444638Y-131599410D01*
X139444638Y-131599410D02*
X139463386Y-131580663D01*
X139463386Y-131580663D02*
X139482133Y-131543167D01*
X139482133Y-131543167D02*
X139482133Y-131468177D01*
X139482133Y-131468177D02*
X139463386Y-131430681D01*
X139463386Y-131430681D02*
X139444638Y-131411934D01*
X139444638Y-131411934D02*
X139407143Y-131393186D01*
X139407143Y-131393186D02*
X139313404Y-131393186D01*
X139313404Y-131393186D02*
X139275909Y-131411934D01*
X139275909Y-131411934D02*
X139257161Y-131430681D01*
X139257161Y-131430681D02*
X139238414Y-131468177D01*
X139238414Y-131468177D02*
X139238414Y-131543167D01*
X139238414Y-131543167D02*
X139257161Y-131580663D01*
X139257161Y-131580663D02*
X139275909Y-131599410D01*
X139275909Y-131599410D02*
X139313404Y-131618158D01*
D16*
%TO.C,C26*%
X152983690Y-106521428D02*
X153007500Y-106545237D01*
X153007500Y-106545237D02*
X153031309Y-106616666D01*
X153031309Y-106616666D02*
X153031309Y-106664285D01*
X153031309Y-106664285D02*
X153007500Y-106735713D01*
X153007500Y-106735713D02*
X152959880Y-106783332D01*
X152959880Y-106783332D02*
X152912261Y-106807142D01*
X152912261Y-106807142D02*
X152817023Y-106830951D01*
X152817023Y-106830951D02*
X152745595Y-106830951D01*
X152745595Y-106830951D02*
X152650357Y-106807142D01*
X152650357Y-106807142D02*
X152602738Y-106783332D01*
X152602738Y-106783332D02*
X152555119Y-106735713D01*
X152555119Y-106735713D02*
X152531309Y-106664285D01*
X152531309Y-106664285D02*
X152531309Y-106616666D01*
X152531309Y-106616666D02*
X152555119Y-106545237D01*
X152555119Y-106545237D02*
X152578928Y-106521428D01*
X152578928Y-106330951D02*
X152555119Y-106307142D01*
X152555119Y-106307142D02*
X152531309Y-106259523D01*
X152531309Y-106259523D02*
X152531309Y-106140475D01*
X152531309Y-106140475D02*
X152555119Y-106092856D01*
X152555119Y-106092856D02*
X152578928Y-106069047D01*
X152578928Y-106069047D02*
X152626547Y-106045237D01*
X152626547Y-106045237D02*
X152674166Y-106045237D01*
X152674166Y-106045237D02*
X152745595Y-106069047D01*
X152745595Y-106069047D02*
X153031309Y-106354761D01*
X153031309Y-106354761D02*
X153031309Y-106045237D01*
X152531309Y-105616666D02*
X152531309Y-105711904D01*
X152531309Y-105711904D02*
X152555119Y-105759523D01*
X152555119Y-105759523D02*
X152578928Y-105783333D01*
X152578928Y-105783333D02*
X152650357Y-105830952D01*
X152650357Y-105830952D02*
X152745595Y-105854761D01*
X152745595Y-105854761D02*
X152936071Y-105854761D01*
X152936071Y-105854761D02*
X152983690Y-105830952D01*
X152983690Y-105830952D02*
X153007500Y-105807142D01*
X153007500Y-105807142D02*
X153031309Y-105759523D01*
X153031309Y-105759523D02*
X153031309Y-105664285D01*
X153031309Y-105664285D02*
X153007500Y-105616666D01*
X153007500Y-105616666D02*
X152983690Y-105592857D01*
X152983690Y-105592857D02*
X152936071Y-105569047D01*
X152936071Y-105569047D02*
X152817023Y-105569047D01*
X152817023Y-105569047D02*
X152769404Y-105592857D01*
X152769404Y-105592857D02*
X152745595Y-105616666D01*
X152745595Y-105616666D02*
X152721785Y-105664285D01*
X152721785Y-105664285D02*
X152721785Y-105759523D01*
X152721785Y-105759523D02*
X152745595Y-105807142D01*
X152745595Y-105807142D02*
X152769404Y-105830952D01*
X152769404Y-105830952D02*
X152817023Y-105854761D01*
D11*
%TO.C,U5*%
X126475595Y-116300119D02*
X126475595Y-117109642D01*
X126475595Y-117109642D02*
X126523214Y-117204880D01*
X126523214Y-117204880D02*
X126570833Y-117252500D01*
X126570833Y-117252500D02*
X126666071Y-117300119D01*
X126666071Y-117300119D02*
X126856547Y-117300119D01*
X126856547Y-117300119D02*
X126951785Y-117252500D01*
X126951785Y-117252500D02*
X126999404Y-117204880D01*
X126999404Y-117204880D02*
X127047023Y-117109642D01*
X127047023Y-117109642D02*
X127047023Y-116300119D01*
X127999404Y-116300119D02*
X127523214Y-116300119D01*
X127523214Y-116300119D02*
X127475595Y-116776309D01*
X127475595Y-116776309D02*
X127523214Y-116728690D01*
X127523214Y-116728690D02*
X127618452Y-116681071D01*
X127618452Y-116681071D02*
X127856547Y-116681071D01*
X127856547Y-116681071D02*
X127951785Y-116728690D01*
X127951785Y-116728690D02*
X127999404Y-116776309D01*
X127999404Y-116776309D02*
X128047023Y-116871547D01*
X128047023Y-116871547D02*
X128047023Y-117109642D01*
X128047023Y-117109642D02*
X127999404Y-117204880D01*
X127999404Y-117204880D02*
X127951785Y-117252500D01*
X127951785Y-117252500D02*
X127856547Y-117300119D01*
X127856547Y-117300119D02*
X127618452Y-117300119D01*
X127618452Y-117300119D02*
X127523214Y-117252500D01*
X127523214Y-117252500D02*
X127475595Y-117204880D01*
X123338600Y-112718719D02*
X123338600Y-112956814D01*
X123100505Y-112861576D02*
X123338600Y-112956814D01*
X123338600Y-112956814D02*
X123576695Y-112861576D01*
X123195743Y-113147290D02*
X123338600Y-112956814D01*
X123338600Y-112956814D02*
X123481457Y-113147290D01*
X123338600Y-112718719D02*
X123338600Y-112956814D01*
X123100505Y-112861576D02*
X123338600Y-112956814D01*
X123338600Y-112956814D02*
X123576695Y-112861576D01*
X123195743Y-113147290D02*
X123338600Y-112956814D01*
X123338600Y-112956814D02*
X123481457Y-113147290D01*
%TO.C,C11*%
X134168780Y-105042857D02*
X134216400Y-105090476D01*
X134216400Y-105090476D02*
X134264019Y-105233333D01*
X134264019Y-105233333D02*
X134264019Y-105328571D01*
X134264019Y-105328571D02*
X134216400Y-105471428D01*
X134216400Y-105471428D02*
X134121161Y-105566666D01*
X134121161Y-105566666D02*
X134025923Y-105614285D01*
X134025923Y-105614285D02*
X133835447Y-105661904D01*
X133835447Y-105661904D02*
X133692590Y-105661904D01*
X133692590Y-105661904D02*
X133502114Y-105614285D01*
X133502114Y-105614285D02*
X133406876Y-105566666D01*
X133406876Y-105566666D02*
X133311638Y-105471428D01*
X133311638Y-105471428D02*
X133264019Y-105328571D01*
X133264019Y-105328571D02*
X133264019Y-105233333D01*
X133264019Y-105233333D02*
X133311638Y-105090476D01*
X133311638Y-105090476D02*
X133359257Y-105042857D01*
X134264019Y-104090476D02*
X134264019Y-104661904D01*
X134264019Y-104376190D02*
X133264019Y-104376190D01*
X133264019Y-104376190D02*
X133406876Y-104471428D01*
X133406876Y-104471428D02*
X133502114Y-104566666D01*
X133502114Y-104566666D02*
X133549733Y-104661904D01*
X134264019Y-103138095D02*
X134264019Y-103709523D01*
X134264019Y-103423809D02*
X133264019Y-103423809D01*
X133264019Y-103423809D02*
X133406876Y-103519047D01*
X133406876Y-103519047D02*
X133502114Y-103614285D01*
X133502114Y-103614285D02*
X133549733Y-103709523D01*
D14*
%TO.C,C13*%
X141144638Y-117073092D02*
X141163386Y-117091840D01*
X141163386Y-117091840D02*
X141182133Y-117148083D01*
X141182133Y-117148083D02*
X141182133Y-117185578D01*
X141182133Y-117185578D02*
X141163386Y-117241821D01*
X141163386Y-117241821D02*
X141125890Y-117279317D01*
X141125890Y-117279317D02*
X141088395Y-117298064D01*
X141088395Y-117298064D02*
X141013404Y-117316812D01*
X141013404Y-117316812D02*
X140957161Y-117316812D01*
X140957161Y-117316812D02*
X140882171Y-117298064D01*
X140882171Y-117298064D02*
X140844675Y-117279317D01*
X140844675Y-117279317D02*
X140807180Y-117241821D01*
X140807180Y-117241821D02*
X140788432Y-117185578D01*
X140788432Y-117185578D02*
X140788432Y-117148083D01*
X140788432Y-117148083D02*
X140807180Y-117091840D01*
X140807180Y-117091840D02*
X140825928Y-117073092D01*
X141182133Y-116698139D02*
X141182133Y-116923111D01*
X141182133Y-116810625D02*
X140788432Y-116810625D01*
X140788432Y-116810625D02*
X140844675Y-116848120D01*
X140844675Y-116848120D02*
X140882171Y-116885616D01*
X140882171Y-116885616D02*
X140900918Y-116923111D01*
X140788432Y-116566906D02*
X140788432Y-116323186D01*
X140788432Y-116323186D02*
X140938414Y-116454420D01*
X140938414Y-116454420D02*
X140938414Y-116398177D01*
X140938414Y-116398177D02*
X140957161Y-116360681D01*
X140957161Y-116360681D02*
X140975909Y-116341934D01*
X140975909Y-116341934D02*
X141013404Y-116323186D01*
X141013404Y-116323186D02*
X141107143Y-116323186D01*
X141107143Y-116323186D02*
X141144638Y-116341934D01*
X141144638Y-116341934D02*
X141163386Y-116360681D01*
X141163386Y-116360681D02*
X141182133Y-116398177D01*
X141182133Y-116398177D02*
X141182133Y-116510663D01*
X141182133Y-116510663D02*
X141163386Y-116548158D01*
X141163386Y-116548158D02*
X141144638Y-116566906D01*
D11*
%TO.C,SW1*%
X116785000Y-110866667D02*
X116737380Y-111009524D01*
X116737380Y-111009524D02*
X116737380Y-111247619D01*
X116737380Y-111247619D02*
X116785000Y-111342857D01*
X116785000Y-111342857D02*
X116832619Y-111390476D01*
X116832619Y-111390476D02*
X116927857Y-111438095D01*
X116927857Y-111438095D02*
X117023095Y-111438095D01*
X117023095Y-111438095D02*
X117118333Y-111390476D01*
X117118333Y-111390476D02*
X117165952Y-111342857D01*
X117165952Y-111342857D02*
X117213571Y-111247619D01*
X117213571Y-111247619D02*
X117261190Y-111057143D01*
X117261190Y-111057143D02*
X117308809Y-110961905D01*
X117308809Y-110961905D02*
X117356428Y-110914286D01*
X117356428Y-110914286D02*
X117451666Y-110866667D01*
X117451666Y-110866667D02*
X117546904Y-110866667D01*
X117546904Y-110866667D02*
X117642142Y-110914286D01*
X117642142Y-110914286D02*
X117689761Y-110961905D01*
X117689761Y-110961905D02*
X117737380Y-111057143D01*
X117737380Y-111057143D02*
X117737380Y-111295238D01*
X117737380Y-111295238D02*
X117689761Y-111438095D01*
X117737380Y-111771429D02*
X116737380Y-112009524D01*
X116737380Y-112009524D02*
X117451666Y-112200000D01*
X117451666Y-112200000D02*
X116737380Y-112390476D01*
X116737380Y-112390476D02*
X117737380Y-112628572D01*
X116737380Y-113533333D02*
X116737380Y-112961905D01*
X116737380Y-113247619D02*
X117737380Y-113247619D01*
X117737380Y-113247619D02*
X117594523Y-113152381D01*
X117594523Y-113152381D02*
X117499285Y-113057143D01*
X117499285Y-113057143D02*
X117451666Y-112961905D01*
X120296219Y-109088499D02*
X120534314Y-109088499D01*
X120439076Y-109326594D02*
X120534314Y-109088499D01*
X120534314Y-109088499D02*
X120439076Y-108850404D01*
X120724790Y-109231356D02*
X120534314Y-109088499D01*
X120534314Y-109088499D02*
X120724790Y-108945642D01*
X121370980Y-109088500D02*
X121132885Y-109088500D01*
X121228123Y-108850405D02*
X121132885Y-109088500D01*
X121132885Y-109088500D02*
X121228123Y-109326595D01*
X120942409Y-108945643D02*
X121132885Y-109088500D01*
X121132885Y-109088500D02*
X120942409Y-109231357D01*
D14*
%TO.C,R12*%
X152246907Y-130062133D02*
X152115673Y-129874657D01*
X152021935Y-130062133D02*
X152021935Y-129668432D01*
X152021935Y-129668432D02*
X152171916Y-129668432D01*
X152171916Y-129668432D02*
X152209412Y-129687180D01*
X152209412Y-129687180D02*
X152228159Y-129705928D01*
X152228159Y-129705928D02*
X152246907Y-129743423D01*
X152246907Y-129743423D02*
X152246907Y-129799666D01*
X152246907Y-129799666D02*
X152228159Y-129837161D01*
X152228159Y-129837161D02*
X152209412Y-129855909D01*
X152209412Y-129855909D02*
X152171916Y-129874657D01*
X152171916Y-129874657D02*
X152021935Y-129874657D01*
X152621860Y-130062133D02*
X152396888Y-130062133D01*
X152509374Y-130062133D02*
X152509374Y-129668432D01*
X152509374Y-129668432D02*
X152471879Y-129724675D01*
X152471879Y-129724675D02*
X152434384Y-129762171D01*
X152434384Y-129762171D02*
X152396888Y-129780918D01*
X152771841Y-129705928D02*
X152790589Y-129687180D01*
X152790589Y-129687180D02*
X152828084Y-129668432D01*
X152828084Y-129668432D02*
X152921823Y-129668432D01*
X152921823Y-129668432D02*
X152959318Y-129687180D01*
X152959318Y-129687180D02*
X152978066Y-129705928D01*
X152978066Y-129705928D02*
X152996813Y-129743423D01*
X152996813Y-129743423D02*
X152996813Y-129780918D01*
X152996813Y-129780918D02*
X152978066Y-129837161D01*
X152978066Y-129837161D02*
X152753094Y-130062133D01*
X152753094Y-130062133D02*
X152996813Y-130062133D01*
%TO.C,C18*%
X138344638Y-118053092D02*
X138363386Y-118071840D01*
X138363386Y-118071840D02*
X138382133Y-118128083D01*
X138382133Y-118128083D02*
X138382133Y-118165578D01*
X138382133Y-118165578D02*
X138363386Y-118221821D01*
X138363386Y-118221821D02*
X138325890Y-118259317D01*
X138325890Y-118259317D02*
X138288395Y-118278064D01*
X138288395Y-118278064D02*
X138213404Y-118296812D01*
X138213404Y-118296812D02*
X138157161Y-118296812D01*
X138157161Y-118296812D02*
X138082171Y-118278064D01*
X138082171Y-118278064D02*
X138044675Y-118259317D01*
X138044675Y-118259317D02*
X138007180Y-118221821D01*
X138007180Y-118221821D02*
X137988432Y-118165578D01*
X137988432Y-118165578D02*
X137988432Y-118128083D01*
X137988432Y-118128083D02*
X138007180Y-118071840D01*
X138007180Y-118071840D02*
X138025928Y-118053092D01*
X138382133Y-117678139D02*
X138382133Y-117903111D01*
X138382133Y-117790625D02*
X137988432Y-117790625D01*
X137988432Y-117790625D02*
X138044675Y-117828120D01*
X138044675Y-117828120D02*
X138082171Y-117865616D01*
X138082171Y-117865616D02*
X138100918Y-117903111D01*
X138157161Y-117453167D02*
X138138414Y-117490663D01*
X138138414Y-117490663D02*
X138119666Y-117509410D01*
X138119666Y-117509410D02*
X138082171Y-117528158D01*
X138082171Y-117528158D02*
X138063423Y-117528158D01*
X138063423Y-117528158D02*
X138025928Y-117509410D01*
X138025928Y-117509410D02*
X138007180Y-117490663D01*
X138007180Y-117490663D02*
X137988432Y-117453167D01*
X137988432Y-117453167D02*
X137988432Y-117378177D01*
X137988432Y-117378177D02*
X138007180Y-117340681D01*
X138007180Y-117340681D02*
X138025928Y-117321934D01*
X138025928Y-117321934D02*
X138063423Y-117303186D01*
X138063423Y-117303186D02*
X138082171Y-117303186D01*
X138082171Y-117303186D02*
X138119666Y-117321934D01*
X138119666Y-117321934D02*
X138138414Y-117340681D01*
X138138414Y-117340681D02*
X138157161Y-117378177D01*
X138157161Y-117378177D02*
X138157161Y-117453167D01*
X138157161Y-117453167D02*
X138175909Y-117490663D01*
X138175909Y-117490663D02*
X138194657Y-117509410D01*
X138194657Y-117509410D02*
X138232152Y-117528158D01*
X138232152Y-117528158D02*
X138307143Y-117528158D01*
X138307143Y-117528158D02*
X138344638Y-117509410D01*
X138344638Y-117509410D02*
X138363386Y-117490663D01*
X138363386Y-117490663D02*
X138382133Y-117453167D01*
X138382133Y-117453167D02*
X138382133Y-117378177D01*
X138382133Y-117378177D02*
X138363386Y-117340681D01*
X138363386Y-117340681D02*
X138344638Y-117321934D01*
X138344638Y-117321934D02*
X138307143Y-117303186D01*
X138307143Y-117303186D02*
X138232152Y-117303186D01*
X138232152Y-117303186D02*
X138194657Y-117321934D01*
X138194657Y-117321934D02*
X138175909Y-117340681D01*
X138175909Y-117340681D02*
X138157161Y-117378177D01*
D17*
%TO.C,C4*%
X136639118Y-138181889D02*
X136615542Y-138205466D01*
X136615542Y-138205466D02*
X136544814Y-138229042D01*
X136544814Y-138229042D02*
X136497662Y-138229042D01*
X136497662Y-138229042D02*
X136426933Y-138205466D01*
X136426933Y-138205466D02*
X136379781Y-138158313D01*
X136379781Y-138158313D02*
X136356205Y-138111161D01*
X136356205Y-138111161D02*
X136332629Y-138016857D01*
X136332629Y-138016857D02*
X136332629Y-137946128D01*
X136332629Y-137946128D02*
X136356205Y-137851824D01*
X136356205Y-137851824D02*
X136379781Y-137804672D01*
X136379781Y-137804672D02*
X136426933Y-137757520D01*
X136426933Y-137757520D02*
X136497662Y-137733944D01*
X136497662Y-137733944D02*
X136544814Y-137733944D01*
X136544814Y-137733944D02*
X136615542Y-137757520D01*
X136615542Y-137757520D02*
X136639118Y-137781096D01*
X137063488Y-137898976D02*
X137063488Y-138229042D01*
X136945607Y-137710368D02*
X136827727Y-138064009D01*
X136827727Y-138064009D02*
X137134216Y-138064009D01*
D14*
%TO.C,R11*%
X155846907Y-122902133D02*
X155715673Y-122714657D01*
X155621935Y-122902133D02*
X155621935Y-122508432D01*
X155621935Y-122508432D02*
X155771916Y-122508432D01*
X155771916Y-122508432D02*
X155809412Y-122527180D01*
X155809412Y-122527180D02*
X155828159Y-122545928D01*
X155828159Y-122545928D02*
X155846907Y-122583423D01*
X155846907Y-122583423D02*
X155846907Y-122639666D01*
X155846907Y-122639666D02*
X155828159Y-122677161D01*
X155828159Y-122677161D02*
X155809412Y-122695909D01*
X155809412Y-122695909D02*
X155771916Y-122714657D01*
X155771916Y-122714657D02*
X155621935Y-122714657D01*
X156221860Y-122902133D02*
X155996888Y-122902133D01*
X156109374Y-122902133D02*
X156109374Y-122508432D01*
X156109374Y-122508432D02*
X156071879Y-122564675D01*
X156071879Y-122564675D02*
X156034384Y-122602171D01*
X156034384Y-122602171D02*
X155996888Y-122620918D01*
X156596813Y-122902133D02*
X156371841Y-122902133D01*
X156484327Y-122902133D02*
X156484327Y-122508432D01*
X156484327Y-122508432D02*
X156446832Y-122564675D01*
X156446832Y-122564675D02*
X156409337Y-122602171D01*
X156409337Y-122602171D02*
X156371841Y-122620918D01*
%TO.C,C9*%
X141544638Y-147865616D02*
X141563386Y-147884364D01*
X141563386Y-147884364D02*
X141582133Y-147940607D01*
X141582133Y-147940607D02*
X141582133Y-147978102D01*
X141582133Y-147978102D02*
X141563386Y-148034345D01*
X141563386Y-148034345D02*
X141525890Y-148071841D01*
X141525890Y-148071841D02*
X141488395Y-148090588D01*
X141488395Y-148090588D02*
X141413404Y-148109336D01*
X141413404Y-148109336D02*
X141357161Y-148109336D01*
X141357161Y-148109336D02*
X141282171Y-148090588D01*
X141282171Y-148090588D02*
X141244675Y-148071841D01*
X141244675Y-148071841D02*
X141207180Y-148034345D01*
X141207180Y-148034345D02*
X141188432Y-147978102D01*
X141188432Y-147978102D02*
X141188432Y-147940607D01*
X141188432Y-147940607D02*
X141207180Y-147884364D01*
X141207180Y-147884364D02*
X141225928Y-147865616D01*
X141582133Y-147678140D02*
X141582133Y-147603149D01*
X141582133Y-147603149D02*
X141563386Y-147565654D01*
X141563386Y-147565654D02*
X141544638Y-147546906D01*
X141544638Y-147546906D02*
X141488395Y-147509411D01*
X141488395Y-147509411D02*
X141413404Y-147490663D01*
X141413404Y-147490663D02*
X141263423Y-147490663D01*
X141263423Y-147490663D02*
X141225928Y-147509411D01*
X141225928Y-147509411D02*
X141207180Y-147528158D01*
X141207180Y-147528158D02*
X141188432Y-147565654D01*
X141188432Y-147565654D02*
X141188432Y-147640644D01*
X141188432Y-147640644D02*
X141207180Y-147678140D01*
X141207180Y-147678140D02*
X141225928Y-147696887D01*
X141225928Y-147696887D02*
X141263423Y-147715635D01*
X141263423Y-147715635D02*
X141357161Y-147715635D01*
X141357161Y-147715635D02*
X141394657Y-147696887D01*
X141394657Y-147696887D02*
X141413404Y-147678140D01*
X141413404Y-147678140D02*
X141432152Y-147640644D01*
X141432152Y-147640644D02*
X141432152Y-147565654D01*
X141432152Y-147565654D02*
X141413404Y-147528158D01*
X141413404Y-147528158D02*
X141394657Y-147509411D01*
X141394657Y-147509411D02*
X141357161Y-147490663D01*
%TO.C,C15*%
X135144638Y-118253092D02*
X135163386Y-118271840D01*
X135163386Y-118271840D02*
X135182133Y-118328083D01*
X135182133Y-118328083D02*
X135182133Y-118365578D01*
X135182133Y-118365578D02*
X135163386Y-118421821D01*
X135163386Y-118421821D02*
X135125890Y-118459317D01*
X135125890Y-118459317D02*
X135088395Y-118478064D01*
X135088395Y-118478064D02*
X135013404Y-118496812D01*
X135013404Y-118496812D02*
X134957161Y-118496812D01*
X134957161Y-118496812D02*
X134882171Y-118478064D01*
X134882171Y-118478064D02*
X134844675Y-118459317D01*
X134844675Y-118459317D02*
X134807180Y-118421821D01*
X134807180Y-118421821D02*
X134788432Y-118365578D01*
X134788432Y-118365578D02*
X134788432Y-118328083D01*
X134788432Y-118328083D02*
X134807180Y-118271840D01*
X134807180Y-118271840D02*
X134825928Y-118253092D01*
X135182133Y-117878139D02*
X135182133Y-118103111D01*
X135182133Y-117990625D02*
X134788432Y-117990625D01*
X134788432Y-117990625D02*
X134844675Y-118028120D01*
X134844675Y-118028120D02*
X134882171Y-118065616D01*
X134882171Y-118065616D02*
X134900918Y-118103111D01*
X134788432Y-117521934D02*
X134788432Y-117709410D01*
X134788432Y-117709410D02*
X134975909Y-117728158D01*
X134975909Y-117728158D02*
X134957161Y-117709410D01*
X134957161Y-117709410D02*
X134938414Y-117671915D01*
X134938414Y-117671915D02*
X134938414Y-117578177D01*
X134938414Y-117578177D02*
X134957161Y-117540681D01*
X134957161Y-117540681D02*
X134975909Y-117521934D01*
X134975909Y-117521934D02*
X135013404Y-117503186D01*
X135013404Y-117503186D02*
X135107143Y-117503186D01*
X135107143Y-117503186D02*
X135144638Y-117521934D01*
X135144638Y-117521934D02*
X135163386Y-117540681D01*
X135163386Y-117540681D02*
X135182133Y-117578177D01*
X135182133Y-117578177D02*
X135182133Y-117671915D01*
X135182133Y-117671915D02*
X135163386Y-117709410D01*
X135163386Y-117709410D02*
X135144638Y-117728158D01*
%TO.C,C24*%
X148744638Y-127853092D02*
X148763386Y-127871840D01*
X148763386Y-127871840D02*
X148782133Y-127928083D01*
X148782133Y-127928083D02*
X148782133Y-127965578D01*
X148782133Y-127965578D02*
X148763386Y-128021821D01*
X148763386Y-128021821D02*
X148725890Y-128059317D01*
X148725890Y-128059317D02*
X148688395Y-128078064D01*
X148688395Y-128078064D02*
X148613404Y-128096812D01*
X148613404Y-128096812D02*
X148557161Y-128096812D01*
X148557161Y-128096812D02*
X148482171Y-128078064D01*
X148482171Y-128078064D02*
X148444675Y-128059317D01*
X148444675Y-128059317D02*
X148407180Y-128021821D01*
X148407180Y-128021821D02*
X148388432Y-127965578D01*
X148388432Y-127965578D02*
X148388432Y-127928083D01*
X148388432Y-127928083D02*
X148407180Y-127871840D01*
X148407180Y-127871840D02*
X148425928Y-127853092D01*
X148425928Y-127703111D02*
X148407180Y-127684363D01*
X148407180Y-127684363D02*
X148388432Y-127646868D01*
X148388432Y-127646868D02*
X148388432Y-127553130D01*
X148388432Y-127553130D02*
X148407180Y-127515634D01*
X148407180Y-127515634D02*
X148425928Y-127496887D01*
X148425928Y-127496887D02*
X148463423Y-127478139D01*
X148463423Y-127478139D02*
X148500918Y-127478139D01*
X148500918Y-127478139D02*
X148557161Y-127496887D01*
X148557161Y-127496887D02*
X148782133Y-127721859D01*
X148782133Y-127721859D02*
X148782133Y-127478139D01*
X148519666Y-127140681D02*
X148782133Y-127140681D01*
X148369685Y-127234420D02*
X148650900Y-127328158D01*
X148650900Y-127328158D02*
X148650900Y-127084438D01*
D18*
%TO.C,R3*%
X119912106Y-117259678D02*
X119806973Y-117109488D01*
X119731878Y-117259678D02*
X119731878Y-116944279D01*
X119731878Y-116944279D02*
X119852030Y-116944279D01*
X119852030Y-116944279D02*
X119882068Y-116959298D01*
X119882068Y-116959298D02*
X119897087Y-116974317D01*
X119897087Y-116974317D02*
X119912106Y-117004355D01*
X119912106Y-117004355D02*
X119912106Y-117049412D01*
X119912106Y-117049412D02*
X119897087Y-117079450D01*
X119897087Y-117079450D02*
X119882068Y-117094469D01*
X119882068Y-117094469D02*
X119852030Y-117109488D01*
X119852030Y-117109488D02*
X119731878Y-117109488D01*
X120017239Y-116944279D02*
X120212486Y-116944279D01*
X120212486Y-116944279D02*
X120107353Y-117064431D01*
X120107353Y-117064431D02*
X120152410Y-117064431D01*
X120152410Y-117064431D02*
X120182448Y-117079450D01*
X120182448Y-117079450D02*
X120197467Y-117094469D01*
X120197467Y-117094469D02*
X120212486Y-117124507D01*
X120212486Y-117124507D02*
X120212486Y-117199602D01*
X120212486Y-117199602D02*
X120197467Y-117229640D01*
X120197467Y-117229640D02*
X120182448Y-117244659D01*
X120182448Y-117244659D02*
X120152410Y-117259678D01*
X120152410Y-117259678D02*
X120062296Y-117259678D01*
X120062296Y-117259678D02*
X120032258Y-117244659D01*
X120032258Y-117244659D02*
X120017239Y-117229640D01*
D14*
%TO.C,C22*%
X131056907Y-123682138D02*
X131038159Y-123700886D01*
X131038159Y-123700886D02*
X130981916Y-123719633D01*
X130981916Y-123719633D02*
X130944421Y-123719633D01*
X130944421Y-123719633D02*
X130888178Y-123700886D01*
X130888178Y-123700886D02*
X130850683Y-123663390D01*
X130850683Y-123663390D02*
X130831935Y-123625895D01*
X130831935Y-123625895D02*
X130813187Y-123550904D01*
X130813187Y-123550904D02*
X130813187Y-123494661D01*
X130813187Y-123494661D02*
X130831935Y-123419671D01*
X130831935Y-123419671D02*
X130850683Y-123382175D01*
X130850683Y-123382175D02*
X130888178Y-123344680D01*
X130888178Y-123344680D02*
X130944421Y-123325932D01*
X130944421Y-123325932D02*
X130981916Y-123325932D01*
X130981916Y-123325932D02*
X131038159Y-123344680D01*
X131038159Y-123344680D02*
X131056907Y-123363428D01*
X131206888Y-123363428D02*
X131225636Y-123344680D01*
X131225636Y-123344680D02*
X131263131Y-123325932D01*
X131263131Y-123325932D02*
X131356870Y-123325932D01*
X131356870Y-123325932D02*
X131394365Y-123344680D01*
X131394365Y-123344680D02*
X131413113Y-123363428D01*
X131413113Y-123363428D02*
X131431860Y-123400923D01*
X131431860Y-123400923D02*
X131431860Y-123438418D01*
X131431860Y-123438418D02*
X131413113Y-123494661D01*
X131413113Y-123494661D02*
X131188141Y-123719633D01*
X131188141Y-123719633D02*
X131431860Y-123719633D01*
X131581841Y-123363428D02*
X131600589Y-123344680D01*
X131600589Y-123344680D02*
X131638084Y-123325932D01*
X131638084Y-123325932D02*
X131731823Y-123325932D01*
X131731823Y-123325932D02*
X131769318Y-123344680D01*
X131769318Y-123344680D02*
X131788066Y-123363428D01*
X131788066Y-123363428D02*
X131806813Y-123400923D01*
X131806813Y-123400923D02*
X131806813Y-123438418D01*
X131806813Y-123438418D02*
X131788066Y-123494661D01*
X131788066Y-123494661D02*
X131563094Y-123719633D01*
X131563094Y-123719633D02*
X131806813Y-123719633D01*
D16*
%TO.C,C25*%
X147078571Y-107183690D02*
X147054762Y-107207500D01*
X147054762Y-107207500D02*
X146983333Y-107231309D01*
X146983333Y-107231309D02*
X146935714Y-107231309D01*
X146935714Y-107231309D02*
X146864286Y-107207500D01*
X146864286Y-107207500D02*
X146816667Y-107159880D01*
X146816667Y-107159880D02*
X146792857Y-107112261D01*
X146792857Y-107112261D02*
X146769048Y-107017023D01*
X146769048Y-107017023D02*
X146769048Y-106945595D01*
X146769048Y-106945595D02*
X146792857Y-106850357D01*
X146792857Y-106850357D02*
X146816667Y-106802738D01*
X146816667Y-106802738D02*
X146864286Y-106755119D01*
X146864286Y-106755119D02*
X146935714Y-106731309D01*
X146935714Y-106731309D02*
X146983333Y-106731309D01*
X146983333Y-106731309D02*
X147054762Y-106755119D01*
X147054762Y-106755119D02*
X147078571Y-106778928D01*
X147269048Y-106778928D02*
X147292857Y-106755119D01*
X147292857Y-106755119D02*
X147340476Y-106731309D01*
X147340476Y-106731309D02*
X147459524Y-106731309D01*
X147459524Y-106731309D02*
X147507143Y-106755119D01*
X147507143Y-106755119D02*
X147530952Y-106778928D01*
X147530952Y-106778928D02*
X147554762Y-106826547D01*
X147554762Y-106826547D02*
X147554762Y-106874166D01*
X147554762Y-106874166D02*
X147530952Y-106945595D01*
X147530952Y-106945595D02*
X147245238Y-107231309D01*
X147245238Y-107231309D02*
X147554762Y-107231309D01*
X148007142Y-106731309D02*
X147769047Y-106731309D01*
X147769047Y-106731309D02*
X147745238Y-106969404D01*
X147745238Y-106969404D02*
X147769047Y-106945595D01*
X147769047Y-106945595D02*
X147816666Y-106921785D01*
X147816666Y-106921785D02*
X147935714Y-106921785D01*
X147935714Y-106921785D02*
X147983333Y-106945595D01*
X147983333Y-106945595D02*
X148007142Y-106969404D01*
X148007142Y-106969404D02*
X148030952Y-107017023D01*
X148030952Y-107017023D02*
X148030952Y-107136071D01*
X148030952Y-107136071D02*
X148007142Y-107183690D01*
X148007142Y-107183690D02*
X147983333Y-107207500D01*
X147983333Y-107207500D02*
X147935714Y-107231309D01*
X147935714Y-107231309D02*
X147816666Y-107231309D01*
X147816666Y-107231309D02*
X147769047Y-107207500D01*
X147769047Y-107207500D02*
X147745238Y-107183690D01*
D17*
%TO.C,C5*%
X136639118Y-135381889D02*
X136615542Y-135405466D01*
X136615542Y-135405466D02*
X136544814Y-135429042D01*
X136544814Y-135429042D02*
X136497662Y-135429042D01*
X136497662Y-135429042D02*
X136426933Y-135405466D01*
X136426933Y-135405466D02*
X136379781Y-135358313D01*
X136379781Y-135358313D02*
X136356205Y-135311161D01*
X136356205Y-135311161D02*
X136332629Y-135216857D01*
X136332629Y-135216857D02*
X136332629Y-135146128D01*
X136332629Y-135146128D02*
X136356205Y-135051824D01*
X136356205Y-135051824D02*
X136379781Y-135004672D01*
X136379781Y-135004672D02*
X136426933Y-134957520D01*
X136426933Y-134957520D02*
X136497662Y-134933944D01*
X136497662Y-134933944D02*
X136544814Y-134933944D01*
X136544814Y-134933944D02*
X136615542Y-134957520D01*
X136615542Y-134957520D02*
X136639118Y-134981096D01*
X137087064Y-134933944D02*
X136851303Y-134933944D01*
X136851303Y-134933944D02*
X136827727Y-135169705D01*
X136827727Y-135169705D02*
X136851303Y-135146128D01*
X136851303Y-135146128D02*
X136898455Y-135122552D01*
X136898455Y-135122552D02*
X137016336Y-135122552D01*
X137016336Y-135122552D02*
X137063488Y-135146128D01*
X137063488Y-135146128D02*
X137087064Y-135169705D01*
X137087064Y-135169705D02*
X137110640Y-135216857D01*
X137110640Y-135216857D02*
X137110640Y-135334737D01*
X137110640Y-135334737D02*
X137087064Y-135381889D01*
X137087064Y-135381889D02*
X137063488Y-135405466D01*
X137063488Y-135405466D02*
X137016336Y-135429042D01*
X137016336Y-135429042D02*
X136898455Y-135429042D01*
X136898455Y-135429042D02*
X136851303Y-135405466D01*
X136851303Y-135405466D02*
X136827727Y-135381889D01*
D15*
%TO.C,R5*%
X152382755Y-121832109D02*
X152277626Y-121681924D01*
X152202533Y-121832109D02*
X152202533Y-121516720D01*
X152202533Y-121516720D02*
X152322681Y-121516720D01*
X152322681Y-121516720D02*
X152352718Y-121531739D01*
X152352718Y-121531739D02*
X152367737Y-121546757D01*
X152367737Y-121546757D02*
X152382755Y-121576794D01*
X152382755Y-121576794D02*
X152382755Y-121621850D01*
X152382755Y-121621850D02*
X152367737Y-121651887D01*
X152367737Y-121651887D02*
X152352718Y-121666905D01*
X152352718Y-121666905D02*
X152322681Y-121681924D01*
X152322681Y-121681924D02*
X152202533Y-121681924D01*
X152668107Y-121516720D02*
X152517922Y-121516720D01*
X152517922Y-121516720D02*
X152502904Y-121666905D01*
X152502904Y-121666905D02*
X152517922Y-121651887D01*
X152517922Y-121651887D02*
X152547959Y-121636868D01*
X152547959Y-121636868D02*
X152623052Y-121636868D01*
X152623052Y-121636868D02*
X152653089Y-121651887D01*
X152653089Y-121651887D02*
X152668107Y-121666905D01*
X152668107Y-121666905D02*
X152683126Y-121696942D01*
X152683126Y-121696942D02*
X152683126Y-121772035D01*
X152683126Y-121772035D02*
X152668107Y-121802072D01*
X152668107Y-121802072D02*
X152653089Y-121817091D01*
X152653089Y-121817091D02*
X152623052Y-121832109D01*
X152623052Y-121832109D02*
X152547959Y-121832109D01*
X152547959Y-121832109D02*
X152517922Y-121817091D01*
X152517922Y-121817091D02*
X152502904Y-121802072D01*
D11*
%TO.C,U3*%
X144838095Y-141262619D02*
X144838095Y-142072142D01*
X144838095Y-142072142D02*
X144885714Y-142167380D01*
X144885714Y-142167380D02*
X144933333Y-142215000D01*
X144933333Y-142215000D02*
X145028571Y-142262619D01*
X145028571Y-142262619D02*
X145219047Y-142262619D01*
X145219047Y-142262619D02*
X145314285Y-142215000D01*
X145314285Y-142215000D02*
X145361904Y-142167380D01*
X145361904Y-142167380D02*
X145409523Y-142072142D01*
X145409523Y-142072142D02*
X145409523Y-141262619D01*
X145790476Y-141262619D02*
X146409523Y-141262619D01*
X146409523Y-141262619D02*
X146076190Y-141643571D01*
X146076190Y-141643571D02*
X146219047Y-141643571D01*
X146219047Y-141643571D02*
X146314285Y-141691190D01*
X146314285Y-141691190D02*
X146361904Y-141738809D01*
X146361904Y-141738809D02*
X146409523Y-141834047D01*
X146409523Y-141834047D02*
X146409523Y-142072142D01*
X146409523Y-142072142D02*
X146361904Y-142167380D01*
X146361904Y-142167380D02*
X146314285Y-142215000D01*
X146314285Y-142215000D02*
X146219047Y-142262619D01*
X146219047Y-142262619D02*
X145933333Y-142262619D01*
X145933333Y-142262619D02*
X145838095Y-142215000D01*
X145838095Y-142215000D02*
X145790476Y-142167380D01*
%TO.C,C10*%
X129232619Y-130157142D02*
X129185000Y-130109523D01*
X129185000Y-130109523D02*
X129137380Y-129966666D01*
X129137380Y-129966666D02*
X129137380Y-129871428D01*
X129137380Y-129871428D02*
X129185000Y-129728571D01*
X129185000Y-129728571D02*
X129280238Y-129633333D01*
X129280238Y-129633333D02*
X129375476Y-129585714D01*
X129375476Y-129585714D02*
X129565952Y-129538095D01*
X129565952Y-129538095D02*
X129708809Y-129538095D01*
X129708809Y-129538095D02*
X129899285Y-129585714D01*
X129899285Y-129585714D02*
X129994523Y-129633333D01*
X129994523Y-129633333D02*
X130089761Y-129728571D01*
X130089761Y-129728571D02*
X130137380Y-129871428D01*
X130137380Y-129871428D02*
X130137380Y-129966666D01*
X130137380Y-129966666D02*
X130089761Y-130109523D01*
X130089761Y-130109523D02*
X130042142Y-130157142D01*
X129137380Y-131109523D02*
X129137380Y-130538095D01*
X129137380Y-130823809D02*
X130137380Y-130823809D01*
X130137380Y-130823809D02*
X129994523Y-130728571D01*
X129994523Y-130728571D02*
X129899285Y-130633333D01*
X129899285Y-130633333D02*
X129851666Y-130538095D01*
X130137380Y-131728571D02*
X130137380Y-131823809D01*
X130137380Y-131823809D02*
X130089761Y-131919047D01*
X130089761Y-131919047D02*
X130042142Y-131966666D01*
X130042142Y-131966666D02*
X129946904Y-132014285D01*
X129946904Y-132014285D02*
X129756428Y-132061904D01*
X129756428Y-132061904D02*
X129518333Y-132061904D01*
X129518333Y-132061904D02*
X129327857Y-132014285D01*
X129327857Y-132014285D02*
X129232619Y-131966666D01*
X129232619Y-131966666D02*
X129185000Y-131919047D01*
X129185000Y-131919047D02*
X129137380Y-131823809D01*
X129137380Y-131823809D02*
X129137380Y-131728571D01*
X129137380Y-131728571D02*
X129185000Y-131633333D01*
X129185000Y-131633333D02*
X129232619Y-131585714D01*
X129232619Y-131585714D02*
X129327857Y-131538095D01*
X129327857Y-131538095D02*
X129518333Y-131490476D01*
X129518333Y-131490476D02*
X129756428Y-131490476D01*
X129756428Y-131490476D02*
X129946904Y-131538095D01*
X129946904Y-131538095D02*
X130042142Y-131585714D01*
X130042142Y-131585714D02*
X130089761Y-131633333D01*
X130089761Y-131633333D02*
X130137380Y-131728571D01*
D18*
%TO.C,R9*%
X164632142Y-143617238D02*
X164481952Y-143722371D01*
X164632142Y-143797466D02*
X164316743Y-143797466D01*
X164316743Y-143797466D02*
X164316743Y-143677314D01*
X164316743Y-143677314D02*
X164331762Y-143647276D01*
X164331762Y-143647276D02*
X164346781Y-143632257D01*
X164346781Y-143632257D02*
X164376819Y-143617238D01*
X164376819Y-143617238D02*
X164421876Y-143617238D01*
X164421876Y-143617238D02*
X164451914Y-143632257D01*
X164451914Y-143632257D02*
X164466933Y-143647276D01*
X164466933Y-143647276D02*
X164481952Y-143677314D01*
X164481952Y-143677314D02*
X164481952Y-143797466D01*
X164632142Y-143467048D02*
X164632142Y-143406972D01*
X164632142Y-143406972D02*
X164617123Y-143376934D01*
X164617123Y-143376934D02*
X164602104Y-143361915D01*
X164602104Y-143361915D02*
X164557047Y-143331877D01*
X164557047Y-143331877D02*
X164496971Y-143316858D01*
X164496971Y-143316858D02*
X164376819Y-143316858D01*
X164376819Y-143316858D02*
X164346781Y-143331877D01*
X164346781Y-143331877D02*
X164331762Y-143346896D01*
X164331762Y-143346896D02*
X164316743Y-143376934D01*
X164316743Y-143376934D02*
X164316743Y-143437010D01*
X164316743Y-143437010D02*
X164331762Y-143467048D01*
X164331762Y-143467048D02*
X164346781Y-143482067D01*
X164346781Y-143482067D02*
X164376819Y-143497086D01*
X164376819Y-143497086D02*
X164451914Y-143497086D01*
X164451914Y-143497086D02*
X164481952Y-143482067D01*
X164481952Y-143482067D02*
X164496971Y-143467048D01*
X164496971Y-143467048D02*
X164511990Y-143437010D01*
X164511990Y-143437010D02*
X164511990Y-143376934D01*
X164511990Y-143376934D02*
X164496971Y-143346896D01*
X164496971Y-143346896D02*
X164481952Y-143331877D01*
X164481952Y-143331877D02*
X164451914Y-143316858D01*
D14*
%TO.C,C17*%
X137544638Y-131853092D02*
X137563386Y-131871840D01*
X137563386Y-131871840D02*
X137582133Y-131928083D01*
X137582133Y-131928083D02*
X137582133Y-131965578D01*
X137582133Y-131965578D02*
X137563386Y-132021821D01*
X137563386Y-132021821D02*
X137525890Y-132059317D01*
X137525890Y-132059317D02*
X137488395Y-132078064D01*
X137488395Y-132078064D02*
X137413404Y-132096812D01*
X137413404Y-132096812D02*
X137357161Y-132096812D01*
X137357161Y-132096812D02*
X137282171Y-132078064D01*
X137282171Y-132078064D02*
X137244675Y-132059317D01*
X137244675Y-132059317D02*
X137207180Y-132021821D01*
X137207180Y-132021821D02*
X137188432Y-131965578D01*
X137188432Y-131965578D02*
X137188432Y-131928083D01*
X137188432Y-131928083D02*
X137207180Y-131871840D01*
X137207180Y-131871840D02*
X137225928Y-131853092D01*
X137582133Y-131478139D02*
X137582133Y-131703111D01*
X137582133Y-131590625D02*
X137188432Y-131590625D01*
X137188432Y-131590625D02*
X137244675Y-131628120D01*
X137244675Y-131628120D02*
X137282171Y-131665616D01*
X137282171Y-131665616D02*
X137300918Y-131703111D01*
X137188432Y-131346906D02*
X137188432Y-131084438D01*
X137188432Y-131084438D02*
X137582133Y-131253167D01*
%TO.C,R8*%
X140934383Y-136662133D02*
X140803149Y-136474657D01*
X140709411Y-136662133D02*
X140709411Y-136268432D01*
X140709411Y-136268432D02*
X140859392Y-136268432D01*
X140859392Y-136268432D02*
X140896888Y-136287180D01*
X140896888Y-136287180D02*
X140915635Y-136305928D01*
X140915635Y-136305928D02*
X140934383Y-136343423D01*
X140934383Y-136343423D02*
X140934383Y-136399666D01*
X140934383Y-136399666D02*
X140915635Y-136437161D01*
X140915635Y-136437161D02*
X140896888Y-136455909D01*
X140896888Y-136455909D02*
X140859392Y-136474657D01*
X140859392Y-136474657D02*
X140709411Y-136474657D01*
X141159355Y-136437161D02*
X141121860Y-136418414D01*
X141121860Y-136418414D02*
X141103112Y-136399666D01*
X141103112Y-136399666D02*
X141084364Y-136362171D01*
X141084364Y-136362171D02*
X141084364Y-136343423D01*
X141084364Y-136343423D02*
X141103112Y-136305928D01*
X141103112Y-136305928D02*
X141121860Y-136287180D01*
X141121860Y-136287180D02*
X141159355Y-136268432D01*
X141159355Y-136268432D02*
X141234346Y-136268432D01*
X141234346Y-136268432D02*
X141271841Y-136287180D01*
X141271841Y-136287180D02*
X141290589Y-136305928D01*
X141290589Y-136305928D02*
X141309336Y-136343423D01*
X141309336Y-136343423D02*
X141309336Y-136362171D01*
X141309336Y-136362171D02*
X141290589Y-136399666D01*
X141290589Y-136399666D02*
X141271841Y-136418414D01*
X141271841Y-136418414D02*
X141234346Y-136437161D01*
X141234346Y-136437161D02*
X141159355Y-136437161D01*
X141159355Y-136437161D02*
X141121860Y-136455909D01*
X141121860Y-136455909D02*
X141103112Y-136474657D01*
X141103112Y-136474657D02*
X141084364Y-136512152D01*
X141084364Y-136512152D02*
X141084364Y-136587143D01*
X141084364Y-136587143D02*
X141103112Y-136624638D01*
X141103112Y-136624638D02*
X141121860Y-136643386D01*
X141121860Y-136643386D02*
X141159355Y-136662133D01*
X141159355Y-136662133D02*
X141234346Y-136662133D01*
X141234346Y-136662133D02*
X141271841Y-136643386D01*
X141271841Y-136643386D02*
X141290589Y-136624638D01*
X141290589Y-136624638D02*
X141309336Y-136587143D01*
X141309336Y-136587143D02*
X141309336Y-136512152D01*
X141309336Y-136512152D02*
X141290589Y-136474657D01*
X141290589Y-136474657D02*
X141271841Y-136455909D01*
X141271841Y-136455909D02*
X141234346Y-136437161D01*
D11*
%TO.C,SW4*%
X176924167Y-128515000D02*
X177067024Y-128562619D01*
X177067024Y-128562619D02*
X177305119Y-128562619D01*
X177305119Y-128562619D02*
X177400357Y-128515000D01*
X177400357Y-128515000D02*
X177447976Y-128467380D01*
X177447976Y-128467380D02*
X177495595Y-128372142D01*
X177495595Y-128372142D02*
X177495595Y-128276904D01*
X177495595Y-128276904D02*
X177447976Y-128181666D01*
X177447976Y-128181666D02*
X177400357Y-128134047D01*
X177400357Y-128134047D02*
X177305119Y-128086428D01*
X177305119Y-128086428D02*
X177114643Y-128038809D01*
X177114643Y-128038809D02*
X177019405Y-127991190D01*
X177019405Y-127991190D02*
X176971786Y-127943571D01*
X176971786Y-127943571D02*
X176924167Y-127848333D01*
X176924167Y-127848333D02*
X176924167Y-127753095D01*
X176924167Y-127753095D02*
X176971786Y-127657857D01*
X176971786Y-127657857D02*
X177019405Y-127610238D01*
X177019405Y-127610238D02*
X177114643Y-127562619D01*
X177114643Y-127562619D02*
X177352738Y-127562619D01*
X177352738Y-127562619D02*
X177495595Y-127610238D01*
X177828929Y-127562619D02*
X178067024Y-128562619D01*
X178067024Y-128562619D02*
X178257500Y-127848333D01*
X178257500Y-127848333D02*
X178447976Y-128562619D01*
X178447976Y-128562619D02*
X178686072Y-127562619D01*
X179495595Y-127895952D02*
X179495595Y-128562619D01*
X179257500Y-127515000D02*
X179019405Y-128229285D01*
X179019405Y-128229285D02*
X179638452Y-128229285D01*
X175146000Y-123929019D02*
X175146000Y-124167114D01*
X174907905Y-124071876D02*
X175146000Y-124167114D01*
X175146000Y-124167114D02*
X175384095Y-124071876D01*
X175003143Y-124357590D02*
X175146000Y-124167114D01*
X175146000Y-124167114D02*
X175288857Y-124357590D01*
X175146000Y-123929019D02*
X175146000Y-124167114D01*
X174907905Y-124071876D02*
X175146000Y-124167114D01*
X175146000Y-124167114D02*
X175384095Y-124071876D01*
X175003143Y-124357590D02*
X175146000Y-124167114D01*
X175146000Y-124167114D02*
X175288857Y-124357590D01*
%TO.C,U7*%
X134062619Y-111161904D02*
X134872142Y-111161904D01*
X134872142Y-111161904D02*
X134967380Y-111114285D01*
X134967380Y-111114285D02*
X135015000Y-111066666D01*
X135015000Y-111066666D02*
X135062619Y-110971428D01*
X135062619Y-110971428D02*
X135062619Y-110780952D01*
X135062619Y-110780952D02*
X135015000Y-110685714D01*
X135015000Y-110685714D02*
X134967380Y-110638095D01*
X134967380Y-110638095D02*
X134872142Y-110590476D01*
X134872142Y-110590476D02*
X134062619Y-110590476D01*
X134062619Y-110209523D02*
X134062619Y-109542857D01*
X134062619Y-109542857D02*
X135062619Y-109971428D01*
%TO.C,J1*%
X121466666Y-141002619D02*
X121466666Y-141716904D01*
X121466666Y-141716904D02*
X121419047Y-141859761D01*
X121419047Y-141859761D02*
X121323809Y-141955000D01*
X121323809Y-141955000D02*
X121180952Y-142002619D01*
X121180952Y-142002619D02*
X121085714Y-142002619D01*
X122466666Y-142002619D02*
X121895238Y-142002619D01*
X122180952Y-142002619D02*
X122180952Y-141002619D01*
X122180952Y-141002619D02*
X122085714Y-141145476D01*
X122085714Y-141145476D02*
X121990476Y-141240714D01*
X121990476Y-141240714D02*
X121895238Y-141288333D01*
D14*
%TO.C,R2*%
X140544633Y-114685616D02*
X140357157Y-114816850D01*
X140544633Y-114910588D02*
X140150932Y-114910588D01*
X140150932Y-114910588D02*
X140150932Y-114760607D01*
X140150932Y-114760607D02*
X140169680Y-114723112D01*
X140169680Y-114723112D02*
X140188428Y-114704364D01*
X140188428Y-114704364D02*
X140225923Y-114685616D01*
X140225923Y-114685616D02*
X140282166Y-114685616D01*
X140282166Y-114685616D02*
X140319661Y-114704364D01*
X140319661Y-114704364D02*
X140338409Y-114723112D01*
X140338409Y-114723112D02*
X140357157Y-114760607D01*
X140357157Y-114760607D02*
X140357157Y-114910588D01*
X140188428Y-114535635D02*
X140169680Y-114516887D01*
X140169680Y-114516887D02*
X140150932Y-114479392D01*
X140150932Y-114479392D02*
X140150932Y-114385654D01*
X140150932Y-114385654D02*
X140169680Y-114348158D01*
X140169680Y-114348158D02*
X140188428Y-114329411D01*
X140188428Y-114329411D02*
X140225923Y-114310663D01*
X140225923Y-114310663D02*
X140263418Y-114310663D01*
X140263418Y-114310663D02*
X140319661Y-114329411D01*
X140319661Y-114329411D02*
X140544633Y-114554383D01*
X140544633Y-114554383D02*
X140544633Y-114310663D01*
D11*
%TO.C,U4*%
X147862619Y-103761904D02*
X148672142Y-103761904D01*
X148672142Y-103761904D02*
X148767380Y-103714285D01*
X148767380Y-103714285D02*
X148815000Y-103666666D01*
X148815000Y-103666666D02*
X148862619Y-103571428D01*
X148862619Y-103571428D02*
X148862619Y-103380952D01*
X148862619Y-103380952D02*
X148815000Y-103285714D01*
X148815000Y-103285714D02*
X148767380Y-103238095D01*
X148767380Y-103238095D02*
X148672142Y-103190476D01*
X148672142Y-103190476D02*
X147862619Y-103190476D01*
X148195952Y-102285714D02*
X148862619Y-102285714D01*
X147815000Y-102523809D02*
X148529285Y-102761904D01*
X148529285Y-102761904D02*
X148529285Y-102142857D01*
D14*
%TO.C,C19*%
X144766907Y-123544638D02*
X144748159Y-123563386D01*
X144748159Y-123563386D02*
X144691916Y-123582133D01*
X144691916Y-123582133D02*
X144654421Y-123582133D01*
X144654421Y-123582133D02*
X144598178Y-123563386D01*
X144598178Y-123563386D02*
X144560683Y-123525890D01*
X144560683Y-123525890D02*
X144541935Y-123488395D01*
X144541935Y-123488395D02*
X144523187Y-123413404D01*
X144523187Y-123413404D02*
X144523187Y-123357161D01*
X144523187Y-123357161D02*
X144541935Y-123282171D01*
X144541935Y-123282171D02*
X144560683Y-123244675D01*
X144560683Y-123244675D02*
X144598178Y-123207180D01*
X144598178Y-123207180D02*
X144654421Y-123188432D01*
X144654421Y-123188432D02*
X144691916Y-123188432D01*
X144691916Y-123188432D02*
X144748159Y-123207180D01*
X144748159Y-123207180D02*
X144766907Y-123225928D01*
X145141860Y-123582133D02*
X144916888Y-123582133D01*
X145029374Y-123582133D02*
X145029374Y-123188432D01*
X145029374Y-123188432D02*
X144991879Y-123244675D01*
X144991879Y-123244675D02*
X144954384Y-123282171D01*
X144954384Y-123282171D02*
X144916888Y-123300918D01*
X145329337Y-123582133D02*
X145404327Y-123582133D01*
X145404327Y-123582133D02*
X145441823Y-123563386D01*
X145441823Y-123563386D02*
X145460570Y-123544638D01*
X145460570Y-123544638D02*
X145498066Y-123488395D01*
X145498066Y-123488395D02*
X145516813Y-123413404D01*
X145516813Y-123413404D02*
X145516813Y-123263423D01*
X145516813Y-123263423D02*
X145498066Y-123225928D01*
X145498066Y-123225928D02*
X145479318Y-123207180D01*
X145479318Y-123207180D02*
X145441823Y-123188432D01*
X145441823Y-123188432D02*
X145366832Y-123188432D01*
X145366832Y-123188432D02*
X145329337Y-123207180D01*
X145329337Y-123207180D02*
X145310589Y-123225928D01*
X145310589Y-123225928D02*
X145291841Y-123263423D01*
X145291841Y-123263423D02*
X145291841Y-123357161D01*
X145291841Y-123357161D02*
X145310589Y-123394657D01*
X145310589Y-123394657D02*
X145329337Y-123413404D01*
X145329337Y-123413404D02*
X145366832Y-123432152D01*
X145366832Y-123432152D02*
X145441823Y-123432152D01*
X145441823Y-123432152D02*
X145479318Y-123413404D01*
X145479318Y-123413404D02*
X145498066Y-123394657D01*
X145498066Y-123394657D02*
X145516813Y-123357161D01*
D11*
%TO.C,C12*%
X141632619Y-110957142D02*
X141585000Y-110909523D01*
X141585000Y-110909523D02*
X141537380Y-110766666D01*
X141537380Y-110766666D02*
X141537380Y-110671428D01*
X141537380Y-110671428D02*
X141585000Y-110528571D01*
X141585000Y-110528571D02*
X141680238Y-110433333D01*
X141680238Y-110433333D02*
X141775476Y-110385714D01*
X141775476Y-110385714D02*
X141965952Y-110338095D01*
X141965952Y-110338095D02*
X142108809Y-110338095D01*
X142108809Y-110338095D02*
X142299285Y-110385714D01*
X142299285Y-110385714D02*
X142394523Y-110433333D01*
X142394523Y-110433333D02*
X142489761Y-110528571D01*
X142489761Y-110528571D02*
X142537380Y-110671428D01*
X142537380Y-110671428D02*
X142537380Y-110766666D01*
X142537380Y-110766666D02*
X142489761Y-110909523D01*
X142489761Y-110909523D02*
X142442142Y-110957142D01*
X141537380Y-111909523D02*
X141537380Y-111338095D01*
X141537380Y-111623809D02*
X142537380Y-111623809D01*
X142537380Y-111623809D02*
X142394523Y-111528571D01*
X142394523Y-111528571D02*
X142299285Y-111433333D01*
X142299285Y-111433333D02*
X142251666Y-111338095D01*
X142442142Y-112290476D02*
X142489761Y-112338095D01*
X142489761Y-112338095D02*
X142537380Y-112433333D01*
X142537380Y-112433333D02*
X142537380Y-112671428D01*
X142537380Y-112671428D02*
X142489761Y-112766666D01*
X142489761Y-112766666D02*
X142442142Y-112814285D01*
X142442142Y-112814285D02*
X142346904Y-112861904D01*
X142346904Y-112861904D02*
X142251666Y-112861904D01*
X142251666Y-112861904D02*
X142108809Y-112814285D01*
X142108809Y-112814285D02*
X141537380Y-112242857D01*
X141537380Y-112242857D02*
X141537380Y-112861904D01*
D18*
%TO.C,R4*%
X135345910Y-131452566D02*
X135195720Y-131557699D01*
X135345910Y-131632794D02*
X135030511Y-131632794D01*
X135030511Y-131632794D02*
X135030511Y-131512642D01*
X135030511Y-131512642D02*
X135045530Y-131482604D01*
X135045530Y-131482604D02*
X135060549Y-131467585D01*
X135060549Y-131467585D02*
X135090587Y-131452566D01*
X135090587Y-131452566D02*
X135135644Y-131452566D01*
X135135644Y-131452566D02*
X135165682Y-131467585D01*
X135165682Y-131467585D02*
X135180701Y-131482604D01*
X135180701Y-131482604D02*
X135195720Y-131512642D01*
X135195720Y-131512642D02*
X135195720Y-131632794D01*
X135135644Y-131182224D02*
X135345910Y-131182224D01*
X135015492Y-131257319D02*
X135240777Y-131332414D01*
X135240777Y-131332414D02*
X135240777Y-131137167D01*
D14*
%TO.C,C21*%
X143436907Y-126244638D02*
X143418159Y-126263386D01*
X143418159Y-126263386D02*
X143361916Y-126282133D01*
X143361916Y-126282133D02*
X143324421Y-126282133D01*
X143324421Y-126282133D02*
X143268178Y-126263386D01*
X143268178Y-126263386D02*
X143230683Y-126225890D01*
X143230683Y-126225890D02*
X143211935Y-126188395D01*
X143211935Y-126188395D02*
X143193187Y-126113404D01*
X143193187Y-126113404D02*
X143193187Y-126057161D01*
X143193187Y-126057161D02*
X143211935Y-125982171D01*
X143211935Y-125982171D02*
X143230683Y-125944675D01*
X143230683Y-125944675D02*
X143268178Y-125907180D01*
X143268178Y-125907180D02*
X143324421Y-125888432D01*
X143324421Y-125888432D02*
X143361916Y-125888432D01*
X143361916Y-125888432D02*
X143418159Y-125907180D01*
X143418159Y-125907180D02*
X143436907Y-125925928D01*
X143586888Y-125925928D02*
X143605636Y-125907180D01*
X143605636Y-125907180D02*
X143643131Y-125888432D01*
X143643131Y-125888432D02*
X143736870Y-125888432D01*
X143736870Y-125888432D02*
X143774365Y-125907180D01*
X143774365Y-125907180D02*
X143793113Y-125925928D01*
X143793113Y-125925928D02*
X143811860Y-125963423D01*
X143811860Y-125963423D02*
X143811860Y-126000918D01*
X143811860Y-126000918D02*
X143793113Y-126057161D01*
X143793113Y-126057161D02*
X143568141Y-126282133D01*
X143568141Y-126282133D02*
X143811860Y-126282133D01*
X144186813Y-126282133D02*
X143961841Y-126282133D01*
X144074327Y-126282133D02*
X144074327Y-125888432D01*
X144074327Y-125888432D02*
X144036832Y-125944675D01*
X144036832Y-125944675D02*
X143999337Y-125982171D01*
X143999337Y-125982171D02*
X143961841Y-126000918D01*
D11*
%TO.C,J2*%
X142811666Y-108562619D02*
X142811666Y-109276904D01*
X142811666Y-109276904D02*
X142764047Y-109419761D01*
X142764047Y-109419761D02*
X142668809Y-109515000D01*
X142668809Y-109515000D02*
X142525952Y-109562619D01*
X142525952Y-109562619D02*
X142430714Y-109562619D01*
X143240238Y-108657857D02*
X143287857Y-108610238D01*
X143287857Y-108610238D02*
X143383095Y-108562619D01*
X143383095Y-108562619D02*
X143621190Y-108562619D01*
X143621190Y-108562619D02*
X143716428Y-108610238D01*
X143716428Y-108610238D02*
X143764047Y-108657857D01*
X143764047Y-108657857D02*
X143811666Y-108753095D01*
X143811666Y-108753095D02*
X143811666Y-108848333D01*
X143811666Y-108848333D02*
X143764047Y-108991190D01*
X143764047Y-108991190D02*
X143192619Y-109562619D01*
X143192619Y-109562619D02*
X143811666Y-109562619D01*
%TO.C,C2*%
X153632619Y-110833333D02*
X153585000Y-110785714D01*
X153585000Y-110785714D02*
X153537380Y-110642857D01*
X153537380Y-110642857D02*
X153537380Y-110547619D01*
X153537380Y-110547619D02*
X153585000Y-110404762D01*
X153585000Y-110404762D02*
X153680238Y-110309524D01*
X153680238Y-110309524D02*
X153775476Y-110261905D01*
X153775476Y-110261905D02*
X153965952Y-110214286D01*
X153965952Y-110214286D02*
X154108809Y-110214286D01*
X154108809Y-110214286D02*
X154299285Y-110261905D01*
X154299285Y-110261905D02*
X154394523Y-110309524D01*
X154394523Y-110309524D02*
X154489761Y-110404762D01*
X154489761Y-110404762D02*
X154537380Y-110547619D01*
X154537380Y-110547619D02*
X154537380Y-110642857D01*
X154537380Y-110642857D02*
X154489761Y-110785714D01*
X154489761Y-110785714D02*
X154442142Y-110833333D01*
X154442142Y-111214286D02*
X154489761Y-111261905D01*
X154489761Y-111261905D02*
X154537380Y-111357143D01*
X154537380Y-111357143D02*
X154537380Y-111595238D01*
X154537380Y-111595238D02*
X154489761Y-111690476D01*
X154489761Y-111690476D02*
X154442142Y-111738095D01*
X154442142Y-111738095D02*
X154346904Y-111785714D01*
X154346904Y-111785714D02*
X154251666Y-111785714D01*
X154251666Y-111785714D02*
X154108809Y-111738095D01*
X154108809Y-111738095D02*
X153537380Y-111166667D01*
X153537380Y-111166667D02*
X153537380Y-111785714D01*
D14*
%TO.C,R1*%
X137382133Y-116265616D02*
X137194657Y-116396850D01*
X137382133Y-116490588D02*
X136988432Y-116490588D01*
X136988432Y-116490588D02*
X136988432Y-116340607D01*
X136988432Y-116340607D02*
X137007180Y-116303112D01*
X137007180Y-116303112D02*
X137025928Y-116284364D01*
X137025928Y-116284364D02*
X137063423Y-116265616D01*
X137063423Y-116265616D02*
X137119666Y-116265616D01*
X137119666Y-116265616D02*
X137157161Y-116284364D01*
X137157161Y-116284364D02*
X137175909Y-116303112D01*
X137175909Y-116303112D02*
X137194657Y-116340607D01*
X137194657Y-116340607D02*
X137194657Y-116490588D01*
X137382133Y-115890663D02*
X137382133Y-116115635D01*
X137382133Y-116003149D02*
X136988432Y-116003149D01*
X136988432Y-116003149D02*
X137044675Y-116040644D01*
X137044675Y-116040644D02*
X137082171Y-116078140D01*
X137082171Y-116078140D02*
X137100918Y-116115635D01*
D11*
%TO.C,C1*%
X153562419Y-114433333D02*
X153514800Y-114385714D01*
X153514800Y-114385714D02*
X153467180Y-114242857D01*
X153467180Y-114242857D02*
X153467180Y-114147619D01*
X153467180Y-114147619D02*
X153514800Y-114004762D01*
X153514800Y-114004762D02*
X153610038Y-113909524D01*
X153610038Y-113909524D02*
X153705276Y-113861905D01*
X153705276Y-113861905D02*
X153895752Y-113814286D01*
X153895752Y-113814286D02*
X154038609Y-113814286D01*
X154038609Y-113814286D02*
X154229085Y-113861905D01*
X154229085Y-113861905D02*
X154324323Y-113909524D01*
X154324323Y-113909524D02*
X154419561Y-114004762D01*
X154419561Y-114004762D02*
X154467180Y-114147619D01*
X154467180Y-114147619D02*
X154467180Y-114242857D01*
X154467180Y-114242857D02*
X154419561Y-114385714D01*
X154419561Y-114385714D02*
X154371942Y-114433333D01*
X153467180Y-115385714D02*
X153467180Y-114814286D01*
X153467180Y-115100000D02*
X154467180Y-115100000D01*
X154467180Y-115100000D02*
X154324323Y-115004762D01*
X154324323Y-115004762D02*
X154229085Y-114909524D01*
X154229085Y-114909524D02*
X154181466Y-114814286D01*
D14*
%TO.C,R7*%
X143234383Y-138982133D02*
X143103149Y-138794657D01*
X143009411Y-138982133D02*
X143009411Y-138588432D01*
X143009411Y-138588432D02*
X143159392Y-138588432D01*
X143159392Y-138588432D02*
X143196888Y-138607180D01*
X143196888Y-138607180D02*
X143215635Y-138625928D01*
X143215635Y-138625928D02*
X143234383Y-138663423D01*
X143234383Y-138663423D02*
X143234383Y-138719666D01*
X143234383Y-138719666D02*
X143215635Y-138757161D01*
X143215635Y-138757161D02*
X143196888Y-138775909D01*
X143196888Y-138775909D02*
X143159392Y-138794657D01*
X143159392Y-138794657D02*
X143009411Y-138794657D01*
X143365617Y-138588432D02*
X143628084Y-138588432D01*
X143628084Y-138588432D02*
X143459355Y-138982133D01*
D11*
%TO.C,SW3*%
X168515000Y-143733332D02*
X168562619Y-143590475D01*
X168562619Y-143590475D02*
X168562619Y-143352380D01*
X168562619Y-143352380D02*
X168515000Y-143257142D01*
X168515000Y-143257142D02*
X168467380Y-143209523D01*
X168467380Y-143209523D02*
X168372142Y-143161904D01*
X168372142Y-143161904D02*
X168276904Y-143161904D01*
X168276904Y-143161904D02*
X168181666Y-143209523D01*
X168181666Y-143209523D02*
X168134047Y-143257142D01*
X168134047Y-143257142D02*
X168086428Y-143352380D01*
X168086428Y-143352380D02*
X168038809Y-143542856D01*
X168038809Y-143542856D02*
X167991190Y-143638094D01*
X167991190Y-143638094D02*
X167943571Y-143685713D01*
X167943571Y-143685713D02*
X167848333Y-143733332D01*
X167848333Y-143733332D02*
X167753095Y-143733332D01*
X167753095Y-143733332D02*
X167657857Y-143685713D01*
X167657857Y-143685713D02*
X167610238Y-143638094D01*
X167610238Y-143638094D02*
X167562619Y-143542856D01*
X167562619Y-143542856D02*
X167562619Y-143304761D01*
X167562619Y-143304761D02*
X167610238Y-143161904D01*
X167562619Y-142828570D02*
X168562619Y-142590475D01*
X168562619Y-142590475D02*
X167848333Y-142399999D01*
X167848333Y-142399999D02*
X168562619Y-142209523D01*
X168562619Y-142209523D02*
X167562619Y-141971428D01*
X167562619Y-141685713D02*
X167562619Y-141066666D01*
X167562619Y-141066666D02*
X167943571Y-141399999D01*
X167943571Y-141399999D02*
X167943571Y-141257142D01*
X167943571Y-141257142D02*
X167991190Y-141161904D01*
X167991190Y-141161904D02*
X168038809Y-141114285D01*
X168038809Y-141114285D02*
X168134047Y-141066666D01*
X168134047Y-141066666D02*
X168372142Y-141066666D01*
X168372142Y-141066666D02*
X168467380Y-141114285D01*
X168467380Y-141114285D02*
X168515000Y-141161904D01*
X168515000Y-141161904D02*
X168562619Y-141257142D01*
X168562619Y-141257142D02*
X168562619Y-141542856D01*
X168562619Y-141542856D02*
X168515000Y-141638094D01*
X168515000Y-141638094D02*
X168467380Y-141685713D01*
X163929019Y-145511499D02*
X164167114Y-145511499D01*
X164071876Y-145749594D02*
X164167114Y-145511499D01*
X164167114Y-145511499D02*
X164071876Y-145273404D01*
X164357590Y-145654356D02*
X164167114Y-145511499D01*
X164167114Y-145511499D02*
X164357590Y-145368642D01*
X163929019Y-145511499D02*
X164167114Y-145511499D01*
X164071876Y-145749594D02*
X164167114Y-145511499D01*
X164167114Y-145511499D02*
X164071876Y-145273404D01*
X164357590Y-145654356D02*
X164167114Y-145511499D01*
X164167114Y-145511499D02*
X164357590Y-145368642D01*
D14*
%TO.C,C7*%
X147024383Y-143044638D02*
X147005635Y-143063386D01*
X147005635Y-143063386D02*
X146949392Y-143082133D01*
X146949392Y-143082133D02*
X146911897Y-143082133D01*
X146911897Y-143082133D02*
X146855654Y-143063386D01*
X146855654Y-143063386D02*
X146818159Y-143025890D01*
X146818159Y-143025890D02*
X146799411Y-142988395D01*
X146799411Y-142988395D02*
X146780663Y-142913404D01*
X146780663Y-142913404D02*
X146780663Y-142857161D01*
X146780663Y-142857161D02*
X146799411Y-142782171D01*
X146799411Y-142782171D02*
X146818159Y-142744675D01*
X146818159Y-142744675D02*
X146855654Y-142707180D01*
X146855654Y-142707180D02*
X146911897Y-142688432D01*
X146911897Y-142688432D02*
X146949392Y-142688432D01*
X146949392Y-142688432D02*
X147005635Y-142707180D01*
X147005635Y-142707180D02*
X147024383Y-142725928D01*
X147155617Y-142688432D02*
X147418084Y-142688432D01*
X147418084Y-142688432D02*
X147249355Y-143082133D01*
D10*
%TO.C,J4*%
X120530000Y-121930000D02*
X120530000Y-132210000D01*
X120530000Y-121930000D02*
X123130000Y-121930000D01*
X120530000Y-132210000D02*
X125730000Y-132210000D01*
X123130000Y-121930000D02*
X123130000Y-124530000D01*
X123130000Y-124530000D02*
X125730000Y-124530000D01*
X124400000Y-121930000D02*
X125730000Y-121930000D01*
X125730000Y-121930000D02*
X125730000Y-123260000D01*
X125730000Y-124530000D02*
X125730000Y-132210000D01*
%TO.C,J10*%
X101470000Y-121270000D02*
X102800000Y-121270000D01*
X101470000Y-122600000D02*
X101470000Y-121270000D01*
X101470000Y-123870000D02*
X101470000Y-131550000D01*
X101470000Y-123870000D02*
X104130000Y-123870000D01*
X101470000Y-131550000D02*
X104130000Y-131550000D01*
X104130000Y-123870000D02*
X104130000Y-131550000D01*
%TO.C,J13*%
X155550000Y-110600000D02*
X155550000Y-113750000D01*
X155550000Y-113750000D02*
X158400000Y-116350000D01*
X158400000Y-108050000D02*
X155550000Y-110600000D01*
X158400000Y-116350000D02*
X171250000Y-116350000D01*
X171250000Y-108050000D02*
X158400000Y-108050000D01*
X171250000Y-116350000D02*
X171250000Y-108050000D01*
D19*
%TO.C,U2*%
X150650000Y-111450000D02*
X150650000Y-114950000D01*
X150650000Y-114950000D02*
X149500000Y-114950000D01*
X145300000Y-114950000D02*
X144150000Y-114950000D01*
X144150000Y-114950000D02*
X144150000Y-111450000D01*
X149800000Y-108100000D02*
G75*
G03*
X149800000Y-108100000I-100000J0D01*
G01*
D20*
%TO.C,Y1*%
X135150000Y-135300000D02*
X135150000Y-146700000D01*
X130450000Y-135300000D02*
X130450000Y-146700000D01*
D21*
%TO.C,SW5*%
X175755600Y-118798100D02*
X175755600Y-118971960D01*
X175755600Y-120628040D02*
X175755600Y-121971960D01*
X175755600Y-123628040D02*
X175755600Y-123801900D01*
X175755600Y-123801900D02*
X180759400Y-123801900D01*
X180759400Y-118798100D02*
X175755600Y-118798100D01*
X180759400Y-118971960D02*
X180759400Y-118798100D01*
X180759400Y-121971960D02*
X180759400Y-120628040D01*
X180759400Y-123801900D02*
X180759400Y-123628040D01*
X179781500Y-121300000D02*
G75*
G03*
X179781500Y-121300000I-1524000J0D01*
G01*
D10*
%TO.C,J9*%
X183950000Y-108870000D02*
X183950000Y-110200000D01*
X182620000Y-108870000D02*
X183950000Y-108870000D01*
X181350000Y-108870000D02*
X173670000Y-108870000D01*
X181350000Y-108870000D02*
X181350000Y-111530000D01*
X173670000Y-108870000D02*
X173670000Y-111530000D01*
X181350000Y-111530000D02*
X173670000Y-111530000D01*
D21*
%TO.C,SW2*%
X145498100Y-138501900D02*
X145671960Y-138501900D01*
X147328040Y-138501900D02*
X148671960Y-138501900D01*
X150328040Y-138501900D02*
X150501900Y-138501900D01*
X150501900Y-138501900D02*
X150501900Y-133498100D01*
X145498100Y-133498100D02*
X145498100Y-138501900D01*
X145671960Y-133498100D02*
X145498100Y-133498100D01*
X148671960Y-133498100D02*
X147328040Y-133498100D01*
X150501900Y-133498100D02*
X150328040Y-133498100D01*
X149524000Y-136000000D02*
G75*
G03*
X149524000Y-136000000I-1524000J0D01*
G01*
D10*
%TO.C,U1*%
X133790000Y-129285000D02*
X133790000Y-128635000D01*
X134440000Y-122065000D02*
X133790000Y-122065000D01*
X134440000Y-129285000D02*
X133790000Y-129285000D01*
X140360000Y-122065000D02*
X141010000Y-122065000D01*
X140360000Y-129285000D02*
X141010000Y-129285000D01*
X141010000Y-122065000D02*
X141010000Y-122715000D01*
X141010000Y-129285000D02*
X141010000Y-128635000D01*
D20*
%TO.C,S1*%
X167000000Y-106400000D02*
X167000000Y-104852500D01*
X167000000Y-100400000D02*
X167000000Y-101947500D01*
X167000000Y-100400000D02*
X164300000Y-100400000D01*
X164300000Y-100400000D02*
X164300000Y-96400000D01*
X164300000Y-100400000D02*
X159300000Y-100400000D01*
X164300000Y-96400000D02*
X159300000Y-96400000D01*
X159300000Y-100400000D02*
X156600000Y-100400000D01*
X159300000Y-96400000D02*
X159300000Y-100400000D01*
X156600000Y-106400000D02*
X167000000Y-106400000D01*
X156600000Y-104852500D02*
X156600000Y-106400000D01*
X156600000Y-100400000D02*
X156600000Y-101947500D01*
D19*
X163900000Y-106950000D02*
G75*
G03*
X163900000Y-106950000I-100000J0D01*
G01*
D10*
%TO.C,J16*%
X173895000Y-145020000D02*
X173895000Y-147620000D01*
X173895000Y-145020000D02*
X176555000Y-145020000D01*
X173895000Y-147620000D02*
X176555000Y-147620000D01*
X175225000Y-142420000D02*
X176555000Y-142420000D01*
X176555000Y-142420000D02*
X176555000Y-143750000D01*
X176555000Y-145020000D02*
X176555000Y-147620000D01*
D21*
%TO.C,U5*%
X124418100Y-114018100D02*
X124418100Y-114339175D01*
X124418100Y-119335825D02*
X124418100Y-119656900D01*
X124418100Y-119656900D02*
X130056900Y-119656900D01*
X130056900Y-114018100D02*
X124418100Y-114018100D01*
X130056900Y-114339175D02*
X130056900Y-114018100D01*
X130056900Y-119656900D02*
X130056900Y-119335825D01*
%TO.C,C11*%
X134848000Y-104207550D02*
X134848000Y-104592450D01*
X136352000Y-104592450D02*
X136352000Y-104207550D01*
%TO.C,SW1*%
X119701900Y-109698100D02*
X119528040Y-109698100D01*
X117871960Y-109698100D02*
X116528040Y-109698100D01*
X114871960Y-109698100D02*
X114698100Y-109698100D01*
X114698100Y-109698100D02*
X114698100Y-114701900D01*
X119701900Y-114701900D02*
X119701900Y-109698100D01*
X119528040Y-114701900D02*
X119701900Y-114701900D01*
X116528040Y-114701900D02*
X117871960Y-114701900D01*
X114698100Y-114701900D02*
X114871960Y-114701900D01*
X118724000Y-112200000D02*
G75*
G03*
X118724000Y-112200000I-1524000J0D01*
G01*
D10*
%TO.C,J17*%
X108695000Y-145020000D02*
X108695000Y-147620000D01*
X108695000Y-145020000D02*
X111355000Y-145020000D01*
X108695000Y-147620000D02*
X111355000Y-147620000D01*
X110025000Y-142420000D02*
X111355000Y-142420000D01*
X111355000Y-142420000D02*
X111355000Y-143750000D01*
X111355000Y-145020000D02*
X111355000Y-147620000D01*
%TO.C,J15*%
X176355000Y-104980000D02*
X176355000Y-102380000D01*
X176355000Y-104980000D02*
X173695000Y-104980000D01*
X176355000Y-102380000D02*
X173695000Y-102380000D01*
X175025000Y-107580000D02*
X173695000Y-107580000D01*
X173695000Y-107580000D02*
X173695000Y-106250000D01*
X173695000Y-104980000D02*
X173695000Y-102380000D01*
%TO.C,J8*%
X184150000Y-138470000D02*
X184150000Y-139800000D01*
X182820000Y-138470000D02*
X184150000Y-138470000D01*
X181550000Y-138470000D02*
X173870000Y-138470000D01*
X181550000Y-138470000D02*
X181550000Y-141130000D01*
X173870000Y-138470000D02*
X173870000Y-141130000D01*
X181550000Y-141130000D02*
X173870000Y-141130000D01*
%TO.C,J3*%
X138930000Y-148130000D02*
X137600000Y-148130000D01*
X138930000Y-146800000D02*
X138930000Y-148130000D01*
X138930000Y-145530000D02*
X138930000Y-140390000D01*
X138930000Y-145530000D02*
X136270000Y-145530000D01*
X138930000Y-140390000D02*
X136270000Y-140390000D01*
X136270000Y-145530000D02*
X136270000Y-140390000D01*
D20*
%TO.C,U3*%
X141000000Y-141000000D02*
X141000000Y-141070000D01*
X141000000Y-143930000D02*
X141000000Y-144000000D01*
X141000000Y-144000000D02*
X141070000Y-144000000D01*
X141070000Y-141000000D02*
X141000000Y-141000000D01*
X143930000Y-144000000D02*
X144000000Y-144000000D01*
X144000000Y-141000000D02*
X143930000Y-141000000D01*
X144000000Y-141070000D02*
X144000000Y-141000000D01*
X144000000Y-144000000D02*
X144000000Y-143930000D01*
D19*
X140200000Y-141500000D02*
G75*
G03*
X140200000Y-141500000I-100000J0D01*
G01*
D21*
%TO.C,C10*%
X127048000Y-130607550D02*
X127048000Y-130992450D01*
X128552000Y-130992450D02*
X128552000Y-130607550D01*
D10*
%TO.C,J7*%
X101050000Y-141130000D02*
X101050000Y-139800000D01*
X102380000Y-141130000D02*
X101050000Y-141130000D01*
X103650000Y-141130000D02*
X111330000Y-141130000D01*
X103650000Y-141130000D02*
X103650000Y-138470000D01*
X111330000Y-141130000D02*
X111330000Y-138470000D01*
X103650000Y-138470000D02*
X111330000Y-138470000D01*
D21*
%TO.C,SW4*%
X175755600Y-125598100D02*
X175755600Y-125771960D01*
X175755600Y-127428040D02*
X175755600Y-128771960D01*
X175755600Y-130428040D02*
X175755600Y-130601900D01*
X175755600Y-130601900D02*
X180759400Y-130601900D01*
X180759400Y-125598100D02*
X175755600Y-125598100D01*
X180759400Y-125771960D02*
X180759400Y-125598100D01*
X180759400Y-128771960D02*
X180759400Y-127428040D01*
X180759400Y-130601900D02*
X180759400Y-130428040D01*
X179781500Y-128100000D02*
G75*
G03*
X179781500Y-128100000I-1524000J0D01*
G01*
%TO.C,U7*%
X132631500Y-113867100D02*
X136568500Y-113867100D01*
X136568500Y-113867100D02*
X136568500Y-106932900D01*
X132631500Y-106932900D02*
X132631500Y-113867100D01*
X136568500Y-106932900D02*
X132631500Y-106932900D01*
X138371900Y-115010100D02*
G75*
G03*
X138371900Y-115010100I-127000J0D01*
G01*
D10*
%TO.C,J6*%
X101050000Y-111530000D02*
X101050000Y-110200000D01*
X102380000Y-111530000D02*
X101050000Y-111530000D01*
X103650000Y-111530000D02*
X111330000Y-111530000D01*
X103650000Y-111530000D02*
X103650000Y-108870000D01*
X111330000Y-111530000D02*
X111330000Y-108870000D01*
X103650000Y-108870000D02*
X111330000Y-108870000D01*
%TO.C,J12*%
X181530000Y-132870000D02*
X173850000Y-132870000D01*
X181530000Y-132870000D02*
X181530000Y-135530000D01*
X173850000Y-132870000D02*
X173850000Y-135530000D01*
X184130000Y-134200000D02*
X184130000Y-135530000D01*
X184130000Y-135530000D02*
X182800000Y-135530000D01*
X181530000Y-135530000D02*
X173850000Y-135530000D01*
%TO.C,J14*%
X111355000Y-104980000D02*
X111355000Y-102380000D01*
X111355000Y-104980000D02*
X108695000Y-104980000D01*
X111355000Y-102380000D02*
X108695000Y-102380000D01*
X110025000Y-107580000D02*
X108695000Y-107580000D01*
X108695000Y-107580000D02*
X108695000Y-106250000D01*
X108695000Y-104980000D02*
X108695000Y-102380000D01*
D19*
%TO.C,J1*%
X128740000Y-149200000D02*
X128740000Y-137000000D01*
X127740000Y-149200000D02*
X128740000Y-149200000D01*
X127240000Y-135000000D02*
X117240000Y-135000000D01*
X122140000Y-149200000D02*
X124440000Y-149200000D01*
X117240000Y-135000000D02*
X117240000Y-134000000D01*
X117240000Y-134000000D02*
X116240000Y-134000000D01*
X114740000Y-149200000D02*
X119940000Y-149200000D01*
X114740000Y-135900000D02*
X114740000Y-149200000D01*
D21*
%TO.C,U4*%
X147574300Y-101577600D02*
X147574300Y-104422400D01*
X147574300Y-104422400D02*
X147930960Y-104422400D01*
X148727460Y-101577600D02*
X147574300Y-101577600D01*
X149079040Y-104422400D02*
X149387860Y-104422400D01*
X150612140Y-104422400D02*
X150920960Y-104422400D01*
X152069040Y-104422400D02*
X152425700Y-104422400D01*
X152425700Y-101577600D02*
X151272540Y-101577600D01*
X152425700Y-104422400D02*
X152425700Y-101577600D01*
X146558300Y-105120900D02*
G75*
G03*
X146558300Y-105120900I-127000J0D01*
G01*
%TO.C,C12*%
X139448000Y-111407550D02*
X139448000Y-111792450D01*
X140952000Y-111792450D02*
X140952000Y-111407550D01*
D20*
%TO.C,J2*%
X145800000Y-100275000D02*
X145800000Y-100505000D01*
X145800000Y-100275000D02*
X138200000Y-100275000D01*
X138200000Y-100275000D02*
X138200000Y-100505000D01*
D19*
X143400000Y-105775000D02*
G75*
G03*
X143400000Y-105775000I-100000J0D01*
G01*
D10*
%TO.C,J11*%
X167670000Y-135950000D02*
X167670000Y-120590000D01*
X167670000Y-135950000D02*
X165070000Y-135950000D01*
X167670000Y-120590000D02*
X162470000Y-120590000D01*
X165070000Y-135950000D02*
X165070000Y-133350000D01*
X165070000Y-133350000D02*
X162470000Y-133350000D01*
X163800000Y-135950000D02*
X162470000Y-135950000D01*
X162470000Y-135950000D02*
X162470000Y-134620000D01*
X162470000Y-133350000D02*
X162470000Y-120590000D01*
D21*
%TO.C,C2*%
X151448000Y-110807550D02*
X151448000Y-111192450D01*
X152952000Y-111192450D02*
X152952000Y-110807550D01*
%TO.C,C1*%
X152952000Y-114792450D02*
X152952000Y-114407550D01*
X151448000Y-114407550D02*
X151448000Y-114792450D01*
D10*
%TO.C,J5*%
X151070000Y-146870000D02*
X161350000Y-146870000D01*
X151070000Y-146870000D02*
X151070000Y-144270000D01*
X161350000Y-146870000D02*
X161350000Y-141670000D01*
X151070000Y-144270000D02*
X153670000Y-144270000D01*
X153670000Y-144270000D02*
X153670000Y-141670000D01*
X151070000Y-143000000D02*
X151070000Y-141670000D01*
X151070000Y-141670000D02*
X152400000Y-141670000D01*
X153670000Y-141670000D02*
X161350000Y-141670000D01*
D21*
%TO.C,SW3*%
X165598100Y-144901900D02*
X165771960Y-144901900D01*
X167428040Y-144901900D02*
X168771960Y-144901900D01*
X170428040Y-144901900D02*
X170601900Y-144901900D01*
X170601900Y-144901900D02*
X170601900Y-139898100D01*
X165598100Y-139898100D02*
X165598100Y-144901900D01*
X165771960Y-139898100D02*
X165598100Y-139898100D01*
X168771960Y-139898100D02*
X167428040Y-139898100D01*
X170601900Y-139898100D02*
X170428040Y-139898100D01*
X169624000Y-142400000D02*
G75*
G03*
X169624000Y-142400000I-1524000J0D01*
G01*
%TD*%
M02*
