%TF.GenerationSoftware,KiCad,Pcbnew,7.0.1*%
%TF.CreationDate,2023-05-24T15:14:26-04:00*%
%TF.ProjectId,Drone_PCB,44726f6e-655f-4504-9342-2e6b69636164,rev?*%
%TF.SameCoordinates,Original*%
%TF.FileFunction,Soldermask,Bot*%
%TF.FilePolarity,Negative*%
%FSLAX46Y46*%
G04 Gerber Fmt 4.6, Leading zero omitted, Abs format (unit mm)*
G04 Created by KiCad (PCBNEW 7.0.1) date 2023-05-24 15:14:26*
%MOMM*%
%LPD*%
G01*
G04 APERTURE LIST*
G04 Aperture macros list*
%AMRoundRect*
0 Rectangle with rounded corners*
0 $1 Rounding radius*
0 $2 $3 $4 $5 $6 $7 $8 $9 X,Y pos of 4 corners*
0 Add a 4 corners polygon primitive as box body*
4,1,4,$2,$3,$4,$5,$6,$7,$8,$9,$2,$3,0*
0 Add four circle primitives for the rounded corners*
1,1,$1+$1,$2,$3*
1,1,$1+$1,$4,$5*
1,1,$1+$1,$6,$7*
1,1,$1+$1,$8,$9*
0 Add four rect primitives between the rounded corners*
20,1,$1+$1,$2,$3,$4,$5,0*
20,1,$1+$1,$4,$5,$6,$7,0*
20,1,$1+$1,$6,$7,$8,$9,0*
20,1,$1+$1,$8,$9,$2,$3,0*%
G04 Aperture macros list end*
%ADD10C,0.010000*%
%ADD11R,1.700000X1.700000*%
%ADD12O,1.700000X1.700000*%
%ADD13RoundRect,1.500000X-1.500000X-1.500000X1.500000X-1.500000X1.500000X1.500000X-1.500000X1.500000X0*%
%ADD14C,6.000000*%
%ADD15C,2.200000*%
%ADD16R,1.438000X1.438000*%
%ADD17C,1.438000*%
%ADD18C,2.265000*%
%ADD19O,0.900000X1.800000*%
%ADD20R,0.500000X0.500000*%
G04 APERTURE END LIST*
%TO.C,U6*%
D10*
X151550000Y-127350000D02*
X150850000Y-127350000D01*
X150850000Y-127100000D01*
X150770000Y-127100000D01*
X150770000Y-126650000D01*
X151550000Y-126650000D01*
X151550000Y-127350000D01*
G36*
X151550000Y-127350000D02*
G01*
X150850000Y-127350000D01*
X150850000Y-127100000D01*
X150770000Y-127100000D01*
X150770000Y-126650000D01*
X151550000Y-126650000D01*
X151550000Y-127350000D01*
G37*
%TD*%
D11*
%TO.C,J4*%
X124400000Y-123260000D03*
D12*
X121860000Y-123260000D03*
X124400000Y-125800000D03*
X121860000Y-125800000D03*
X124400000Y-128340000D03*
X121860000Y-128340000D03*
X124400000Y-130880000D03*
X121860000Y-130880000D03*
%TD*%
D11*
%TO.C,J10*%
X102800000Y-122600000D03*
D12*
X102800000Y-125140000D03*
X102800000Y-127680000D03*
X102800000Y-130220000D03*
%TD*%
D13*
%TO.C,J13*%
X159800000Y-112200000D03*
D14*
X167000000Y-112200000D03*
%TD*%
D15*
%TO.C,H4*%
X180000000Y-145000000D03*
%TD*%
D11*
%TO.C,J9*%
X182620000Y-110200000D03*
D12*
X180080000Y-110200000D03*
X177540000Y-110200000D03*
X175000000Y-110200000D03*
%TD*%
D16*
%TO.C,S1*%
X163800000Y-104650000D03*
D17*
X161800000Y-104650000D03*
X159800000Y-104650000D03*
X163800000Y-102150000D03*
X161800000Y-102150000D03*
X159800000Y-102150000D03*
D18*
X166800000Y-103400000D03*
X156800000Y-103400000D03*
%TD*%
D11*
%TO.C,J16*%
X175225000Y-143750000D03*
D12*
X175225000Y-146290000D03*
%TD*%
D11*
%TO.C,J17*%
X110025000Y-143750000D03*
D12*
X110025000Y-146290000D03*
%TD*%
D11*
%TO.C,J15*%
X175025000Y-106250000D03*
D12*
X175025000Y-103710000D03*
%TD*%
D11*
%TO.C,J8*%
X182820000Y-139800000D03*
D12*
X180280000Y-139800000D03*
X177740000Y-139800000D03*
X175200000Y-139800000D03*
%TD*%
D11*
%TO.C,J3*%
X137600000Y-146800000D03*
D12*
X137600000Y-144260000D03*
X137600000Y-141720000D03*
%TD*%
D11*
%TO.C,J7*%
X102380000Y-139800000D03*
D12*
X104920000Y-139800000D03*
X107460000Y-139800000D03*
X110000000Y-139800000D03*
%TD*%
D15*
%TO.C,H3*%
X180000000Y-105000000D03*
%TD*%
%TO.C,H2*%
X105000000Y-145000000D03*
%TD*%
D11*
%TO.C,J6*%
X102380000Y-110200000D03*
D12*
X104920000Y-110200000D03*
X107460000Y-110200000D03*
X110000000Y-110200000D03*
%TD*%
D11*
%TO.C,J12*%
X182800000Y-134200000D03*
D12*
X180260000Y-134200000D03*
X177720000Y-134200000D03*
X175180000Y-134200000D03*
%TD*%
D11*
%TO.C,J14*%
X110025000Y-106250000D03*
D12*
X110025000Y-103710000D03*
%TD*%
D15*
%TO.C,H1*%
X105000000Y-105000000D03*
%TD*%
D19*
%TO.C,J2*%
X145300000Y-101725000D03*
X138700000Y-101725000D03*
%TD*%
D11*
%TO.C,J11*%
X163800000Y-134620000D03*
D12*
X166340000Y-134620000D03*
X163800000Y-132080000D03*
X166340000Y-132080000D03*
X163800000Y-129540000D03*
X166340000Y-129540000D03*
X163800000Y-127000000D03*
X166340000Y-127000000D03*
X163800000Y-124460000D03*
X166340000Y-124460000D03*
X163800000Y-121920000D03*
X166340000Y-121920000D03*
%TD*%
D11*
%TO.C,J5*%
X152400000Y-143000000D03*
D12*
X152400000Y-145540000D03*
X154940000Y-143000000D03*
X154940000Y-145540000D03*
X157480000Y-143000000D03*
X157480000Y-145540000D03*
X160020000Y-143000000D03*
X160020000Y-145540000D03*
%TD*%
D20*
%TO.C,U6*%
X152000000Y-127000000D03*
X152800000Y-127000000D03*
X153600000Y-127000000D03*
X154400000Y-127000000D03*
X154400000Y-126200000D03*
X154400000Y-125400000D03*
X153600000Y-125400000D03*
X152800000Y-125400000D03*
X152000000Y-125400000D03*
X151200000Y-125400000D03*
X151200000Y-126200000D03*
%TD*%
M02*
