M48
; DRILL file {KiCad 7.0.1} date Wed 24 May 2023 04:10:50 PM EDT
; FORMAT={-:-/ absolute / inch / decimal}
; #@! TF.CreationDate,2023-05-24T16:10:50-04:00
; #@! TF.GenerationSoftware,Kicad,Pcbnew,7.0.1
; #@! TF.FileFunction,Plated,1,2,PTH
FMAT,2
INCH
; #@! TA.AperFunction,Plated,PTH,ViaDrill
T1C0.0138
; #@! TA.AperFunction,Plated,PTH,ComponentDrill
T2C0.0138
; #@! TA.AperFunction,Plated,PTH,ComponentDrill
T3C0.0197
; #@! TA.AperFunction,Plated,PTH,ComponentDrill
T4C0.0366
; #@! TA.AperFunction,Plated,PTH,ComponentDrill
T5C0.0394
; #@! TA.AperFunction,Plated,PTH,ComponentDrill
T6C0.0594
; #@! TA.AperFunction,Plated,PTH,ComponentDrill
T7C0.1772
%
G90
G05
T1
X4.6063Y-5.2047
X4.6759Y-5.0241
X4.685Y-5.5669
X4.6929Y-5.0
X4.7244Y-4.7008
X4.7638Y-5.5039
X4.7874Y-4.7087
X4.8031Y-5.378
X4.9291Y-4.5748
X4.9528Y-4.3937
X4.9685Y-4.6693
X5.0157Y-4.9055
X5.0236Y-5.0157
X5.0236Y-5.0709
X5.0315Y-5.5669
X5.0429Y-4.894
X5.0551Y-4.7717
X5.0709Y-4.9036
X5.0866Y-5.0551
X5.0945Y-4.7402
X5.1102Y-5.0
X5.126Y-4.8268
X5.1417Y-4.8702
X5.1496Y-5.0157
X5.2047Y-4.8661
X5.2205Y-5.063
X5.2362Y-5.1811
X5.2397Y-5.1137
X5.315Y-4.9764
X5.315Y-5.0394
X5.3228Y-5.0079
X5.3543Y-4.2992
X5.3543Y-5.0315
X5.3622Y-4.6142
X5.3701Y-5.4016
X5.4724Y-5.2913
X5.4961Y-4.8583
X5.5039Y-4.9055
X5.5197Y-5.6929
X5.5512Y-4.252
X5.5591Y-5.189
X5.5591Y-5.5039
X5.5669Y-5.1496
X5.5906Y-4.8671
X5.5906Y-4.9026
X5.5906Y-5.4961
X5.6063Y-5.748
X5.685Y-4.9026
X5.6929Y-5.1496
X5.7008Y-5.7087
X5.7008Y-5.7559
X5.7047Y-5.2165
X5.7087Y-5.0315
X5.7165Y-4.1811
X5.7165Y-4.9134
X5.7638Y-4.9213
X5.8268Y-5.1073
X5.8661Y-5.5276
X5.8819Y-5.126
X5.8819Y-5.5669
X5.8898Y-4.9606
X5.8976Y-4.8504
X5.8976Y-4.8504
X5.8976Y-5.6063
X5.9291Y-5.0472
X6.063Y-4.0866
X6.063Y-4.7638
X6.063Y-4.8661
X6.0709Y-5.063
X6.0787Y-5.315
X6.1417Y-4.937
X6.1654Y-5.189
X6.1654Y-5.4016
X6.1969Y-5.8189
X6.2126Y-5.0551
X6.2431Y-5.1934
X6.3071Y-5.3858
X6.7008Y-5.4094
X7.1339Y-4.7717
X7.1339Y-5.0315
T2
X5.3593Y-4.8976
X5.3593Y-4.9478
X5.3593Y-4.998
X5.4094Y-4.8976
X5.4094Y-4.9478
X5.4094Y-4.998
X5.4596Y-4.8976
X5.4596Y-4.9478
X5.4596Y-4.998
T4
X6.2913Y-4.0217
X6.2913Y-4.1201
X6.3701Y-4.0217
X6.3701Y-4.1201
X6.4488Y-4.0217
X6.4488Y-4.1201
T5
X4.0307Y-4.3386
X4.0307Y-5.5039
X4.0472Y-4.8268
X4.0472Y-4.9268
X4.0472Y-5.0268
X4.0472Y-5.1268
X4.1307Y-4.3386
X4.1307Y-5.5039
X4.2307Y-4.3386
X4.2307Y-5.5039
X4.3307Y-4.3386
X4.3307Y-5.5039
X4.3317Y-4.0831
X4.3317Y-4.1831
X4.3317Y-5.6594
X4.3317Y-5.7594
X4.7976Y-4.8528
X4.7976Y-4.9528
X4.7976Y-5.0528
X4.7976Y-5.1528
X4.8976Y-4.8528
X4.8976Y-4.9528
X4.8976Y-5.0528
X4.8976Y-5.1528
X5.4173Y-5.5795
X5.4173Y-5.6795
X5.4173Y-5.7795
X6.0Y-5.6299
X6.0Y-5.7299
X6.1Y-5.6299
X6.1Y-5.7299
X6.2Y-5.6299
X6.2Y-5.7299
X6.3Y-5.6299
X6.3Y-5.7299
X6.4488Y-4.8
X6.4488Y-4.9
X6.4488Y-5.0
X6.4488Y-5.1
X6.4488Y-5.2
X6.4488Y-5.3
X6.5488Y-4.8
X6.5488Y-4.9
X6.5488Y-5.0
X6.5488Y-5.1
X6.5488Y-5.2
X6.5488Y-5.3
X6.8898Y-4.3386
X6.8907Y-4.0831
X6.8907Y-4.1831
X6.8969Y-5.2835
X6.8976Y-5.5039
X6.8986Y-5.6594
X6.8986Y-5.7594
X6.9898Y-4.3386
X6.9969Y-5.2835
X6.9976Y-5.5039
X7.0898Y-4.3386
X7.0969Y-5.2835
X7.0976Y-5.5039
X7.1898Y-4.3386
X7.1969Y-5.2835
X7.1976Y-5.5039
T6
X6.1732Y-4.0709
X6.5669Y-4.0709
T7
X6.2913Y-4.4173
X6.5748Y-4.4173
T3
G00X5.4606Y-4.0187
M15
G01X5.4606Y-3.9911
M16
G05
G00X5.7205Y-4.0187
M15
G01X5.7205Y-3.9911
M16
G05
T0
M30
