%TF.GenerationSoftware,KiCad,Pcbnew,7.0.1*%
%TF.CreationDate,2023-05-22T19:39:57-04:00*%
%TF.ProjectId,Drone_PCB,44726f6e-655f-4504-9342-2e6b69636164,rev?*%
%TF.SameCoordinates,Original*%
%TF.FileFunction,Legend,Bot*%
%TF.FilePolarity,Positive*%
%FSLAX46Y46*%
G04 Gerber Fmt 4.6, Leading zero omitted, Abs format (unit mm)*
G04 Created by KiCad (PCBNEW 7.0.1) date 2023-05-22 19:39:57*
%MOMM*%
%LPD*%
G01*
G04 APERTURE LIST*
%ADD10C,0.150000*%
%ADD11C,0.200000*%
%ADD12C,0.127000*%
G04 APERTURE END LIST*
D10*
%TO.C,U6*%
X216827619Y-100563095D02*
X217637142Y-100563095D01*
X217637142Y-100563095D02*
X217732380Y-100610714D01*
X217732380Y-100610714D02*
X217780000Y-100658333D01*
X217780000Y-100658333D02*
X217827619Y-100753571D01*
X217827619Y-100753571D02*
X217827619Y-100944047D01*
X217827619Y-100944047D02*
X217780000Y-101039285D01*
X217780000Y-101039285D02*
X217732380Y-101086904D01*
X217732380Y-101086904D02*
X217637142Y-101134523D01*
X217637142Y-101134523D02*
X216827619Y-101134523D01*
X216827619Y-102039285D02*
X216827619Y-101848809D01*
X216827619Y-101848809D02*
X216875238Y-101753571D01*
X216875238Y-101753571D02*
X216922857Y-101705952D01*
X216922857Y-101705952D02*
X217065714Y-101610714D01*
X217065714Y-101610714D02*
X217256190Y-101563095D01*
X217256190Y-101563095D02*
X217637142Y-101563095D01*
X217637142Y-101563095D02*
X217732380Y-101610714D01*
X217732380Y-101610714D02*
X217780000Y-101658333D01*
X217780000Y-101658333D02*
X217827619Y-101753571D01*
X217827619Y-101753571D02*
X217827619Y-101944047D01*
X217827619Y-101944047D02*
X217780000Y-102039285D01*
X217780000Y-102039285D02*
X217732380Y-102086904D01*
X217732380Y-102086904D02*
X217637142Y-102134523D01*
X217637142Y-102134523D02*
X217399047Y-102134523D01*
X217399047Y-102134523D02*
X217303809Y-102086904D01*
X217303809Y-102086904D02*
X217256190Y-102039285D01*
X217256190Y-102039285D02*
X217208571Y-101944047D01*
X217208571Y-101944047D02*
X217208571Y-101753571D01*
X217208571Y-101753571D02*
X217256190Y-101658333D01*
X217256190Y-101658333D02*
X217303809Y-101610714D01*
X217303809Y-101610714D02*
X217399047Y-101563095D01*
D11*
X221850000Y-102200000D02*
G75*
G03*
X221850000Y-102200000I-100000J0D01*
G01*
D12*
X218800000Y-102800000D02*
X220230000Y-102800000D01*
X221200000Y-98400000D02*
X218800000Y-98400000D01*
%TD*%
M02*
