%TF.GenerationSoftware,KiCad,Pcbnew,7.0.1*%
%TF.CreationDate,2023-05-22T19:39:57-04:00*%
%TF.ProjectId,Drone_PCB,44726f6e-655f-4504-9342-2e6b69636164,rev?*%
%TF.SameCoordinates,Original*%
%TF.FileFunction,Legend,Top*%
%TF.FilePolarity,Positive*%
%FSLAX46Y46*%
G04 Gerber Fmt 4.6, Leading zero omitted, Abs format (unit mm)*
G04 Created by KiCad (PCBNEW 7.0.1) date 2023-05-22 19:39:57*
%MOMM*%
%LPD*%
G01*
G04 APERTURE LIST*
%ADD10C,0.300000*%
%ADD11C,0.250000*%
%ADD12C,0.150000*%
%ADD13C,0.098425*%
%ADD14C,0.078850*%
%ADD15C,0.123775*%
%ADD16C,0.100000*%
%ADD17C,0.078847*%
%ADD18C,0.125000*%
%ADD19C,0.120000*%
%ADD20C,0.127000*%
%ADD21C,0.200000*%
%ADD22C,0.152400*%
G04 APERTURE END LIST*
D10*
X217757142Y-88316428D02*
X217757142Y-89530714D01*
X217757142Y-89530714D02*
X217828571Y-89673571D01*
X217828571Y-89673571D02*
X217900000Y-89745000D01*
X217900000Y-89745000D02*
X218042857Y-89816428D01*
X218042857Y-89816428D02*
X218328571Y-89816428D01*
X218328571Y-89816428D02*
X218471428Y-89745000D01*
X218471428Y-89745000D02*
X218542857Y-89673571D01*
X218542857Y-89673571D02*
X218614285Y-89530714D01*
X218614285Y-89530714D02*
X218614285Y-88316428D01*
X219328571Y-89816428D02*
X219328571Y-88316428D01*
X219328571Y-88316428D02*
X219900000Y-88316428D01*
X219900000Y-88316428D02*
X220042857Y-88387857D01*
X220042857Y-88387857D02*
X220114286Y-88459285D01*
X220114286Y-88459285D02*
X220185714Y-88602142D01*
X220185714Y-88602142D02*
X220185714Y-88816428D01*
X220185714Y-88816428D02*
X220114286Y-88959285D01*
X220114286Y-88959285D02*
X220042857Y-89030714D01*
X220042857Y-89030714D02*
X219900000Y-89102142D01*
X219900000Y-89102142D02*
X219328571Y-89102142D01*
X228016428Y-98042857D02*
X226516428Y-98042857D01*
X226516428Y-98042857D02*
X226516428Y-97685714D01*
X226516428Y-97685714D02*
X226587857Y-97471428D01*
X226587857Y-97471428D02*
X226730714Y-97328571D01*
X226730714Y-97328571D02*
X226873571Y-97257142D01*
X226873571Y-97257142D02*
X227159285Y-97185714D01*
X227159285Y-97185714D02*
X227373571Y-97185714D01*
X227373571Y-97185714D02*
X227659285Y-97257142D01*
X227659285Y-97257142D02*
X227802142Y-97328571D01*
X227802142Y-97328571D02*
X227945000Y-97471428D01*
X227945000Y-97471428D02*
X228016428Y-97685714D01*
X228016428Y-97685714D02*
X228016428Y-98042857D01*
X226516428Y-96257142D02*
X226516428Y-95971428D01*
X226516428Y-95971428D02*
X226587857Y-95828571D01*
X226587857Y-95828571D02*
X226730714Y-95685714D01*
X226730714Y-95685714D02*
X227016428Y-95614285D01*
X227016428Y-95614285D02*
X227516428Y-95614285D01*
X227516428Y-95614285D02*
X227802142Y-95685714D01*
X227802142Y-95685714D02*
X227945000Y-95828571D01*
X227945000Y-95828571D02*
X228016428Y-95971428D01*
X228016428Y-95971428D02*
X228016428Y-96257142D01*
X228016428Y-96257142D02*
X227945000Y-96400000D01*
X227945000Y-96400000D02*
X227802142Y-96542857D01*
X227802142Y-96542857D02*
X227516428Y-96614285D01*
X227516428Y-96614285D02*
X227016428Y-96614285D01*
X227016428Y-96614285D02*
X226730714Y-96542857D01*
X226730714Y-96542857D02*
X226587857Y-96400000D01*
X226587857Y-96400000D02*
X226516428Y-96257142D01*
X226516428Y-95114285D02*
X228016428Y-94757142D01*
X228016428Y-94757142D02*
X226945000Y-94471428D01*
X226945000Y-94471428D02*
X228016428Y-94185713D01*
X228016428Y-94185713D02*
X226516428Y-93828571D01*
X228016428Y-93257142D02*
X226516428Y-93257142D01*
X226516428Y-93257142D02*
X228016428Y-92399999D01*
X228016428Y-92399999D02*
X226516428Y-92399999D01*
D11*
X168477619Y-73561904D02*
X169287142Y-73561904D01*
X169287142Y-73561904D02*
X169382380Y-73514285D01*
X169382380Y-73514285D02*
X169430000Y-73466666D01*
X169430000Y-73466666D02*
X169477619Y-73371428D01*
X169477619Y-73371428D02*
X169477619Y-73180952D01*
X169477619Y-73180952D02*
X169430000Y-73085714D01*
X169430000Y-73085714D02*
X169382380Y-73038095D01*
X169382380Y-73038095D02*
X169287142Y-72990476D01*
X169287142Y-72990476D02*
X168477619Y-72990476D01*
X169430000Y-72561904D02*
X169477619Y-72419047D01*
X169477619Y-72419047D02*
X169477619Y-72180952D01*
X169477619Y-72180952D02*
X169430000Y-72085714D01*
X169430000Y-72085714D02*
X169382380Y-72038095D01*
X169382380Y-72038095D02*
X169287142Y-71990476D01*
X169287142Y-71990476D02*
X169191904Y-71990476D01*
X169191904Y-71990476D02*
X169096666Y-72038095D01*
X169096666Y-72038095D02*
X169049047Y-72085714D01*
X169049047Y-72085714D02*
X169001428Y-72180952D01*
X169001428Y-72180952D02*
X168953809Y-72371428D01*
X168953809Y-72371428D02*
X168906190Y-72466666D01*
X168906190Y-72466666D02*
X168858571Y-72514285D01*
X168858571Y-72514285D02*
X168763333Y-72561904D01*
X168763333Y-72561904D02*
X168668095Y-72561904D01*
X168668095Y-72561904D02*
X168572857Y-72514285D01*
X168572857Y-72514285D02*
X168525238Y-72466666D01*
X168525238Y-72466666D02*
X168477619Y-72371428D01*
X168477619Y-72371428D02*
X168477619Y-72133333D01*
X168477619Y-72133333D02*
X168525238Y-71990476D01*
X168953809Y-71228571D02*
X169001428Y-71085714D01*
X169001428Y-71085714D02*
X169049047Y-71038095D01*
X169049047Y-71038095D02*
X169144285Y-70990476D01*
X169144285Y-70990476D02*
X169287142Y-70990476D01*
X169287142Y-70990476D02*
X169382380Y-71038095D01*
X169382380Y-71038095D02*
X169430000Y-71085714D01*
X169430000Y-71085714D02*
X169477619Y-71180952D01*
X169477619Y-71180952D02*
X169477619Y-71561904D01*
X169477619Y-71561904D02*
X168477619Y-71561904D01*
X168477619Y-71561904D02*
X168477619Y-71228571D01*
X168477619Y-71228571D02*
X168525238Y-71133333D01*
X168525238Y-71133333D02*
X168572857Y-71085714D01*
X168572857Y-71085714D02*
X168668095Y-71038095D01*
X168668095Y-71038095D02*
X168763333Y-71038095D01*
X168763333Y-71038095D02*
X168858571Y-71085714D01*
X168858571Y-71085714D02*
X168906190Y-71133333D01*
X168906190Y-71133333D02*
X168953809Y-71228571D01*
X168953809Y-71228571D02*
X168953809Y-71561904D01*
X196600000Y-102416428D02*
X196600000Y-100916428D01*
X196600000Y-102345000D02*
X196457142Y-102416428D01*
X196457142Y-102416428D02*
X196171428Y-102416428D01*
X196171428Y-102416428D02*
X196028571Y-102345000D01*
X196028571Y-102345000D02*
X195957142Y-102273571D01*
X195957142Y-102273571D02*
X195885714Y-102130714D01*
X195885714Y-102130714D02*
X195885714Y-101702142D01*
X195885714Y-101702142D02*
X195957142Y-101559285D01*
X195957142Y-101559285D02*
X196028571Y-101487857D01*
X196028571Y-101487857D02*
X196171428Y-101416428D01*
X196171428Y-101416428D02*
X196457142Y-101416428D01*
X196457142Y-101416428D02*
X196600000Y-101487857D01*
X197885714Y-102345000D02*
X197742857Y-102416428D01*
X197742857Y-102416428D02*
X197457143Y-102416428D01*
X197457143Y-102416428D02*
X197314285Y-102345000D01*
X197314285Y-102345000D02*
X197242857Y-102202142D01*
X197242857Y-102202142D02*
X197242857Y-101630714D01*
X197242857Y-101630714D02*
X197314285Y-101487857D01*
X197314285Y-101487857D02*
X197457143Y-101416428D01*
X197457143Y-101416428D02*
X197742857Y-101416428D01*
X197742857Y-101416428D02*
X197885714Y-101487857D01*
X197885714Y-101487857D02*
X197957143Y-101630714D01*
X197957143Y-101630714D02*
X197957143Y-101773571D01*
X197957143Y-101773571D02*
X197242857Y-101916428D01*
X199242857Y-101416428D02*
X199242857Y-102630714D01*
X199242857Y-102630714D02*
X199171428Y-102773571D01*
X199171428Y-102773571D02*
X199099999Y-102845000D01*
X199099999Y-102845000D02*
X198957142Y-102916428D01*
X198957142Y-102916428D02*
X198742857Y-102916428D01*
X198742857Y-102916428D02*
X198599999Y-102845000D01*
X199242857Y-102345000D02*
X199099999Y-102416428D01*
X199099999Y-102416428D02*
X198814285Y-102416428D01*
X198814285Y-102416428D02*
X198671428Y-102345000D01*
X198671428Y-102345000D02*
X198599999Y-102273571D01*
X198599999Y-102273571D02*
X198528571Y-102130714D01*
X198528571Y-102130714D02*
X198528571Y-101702142D01*
X198528571Y-101702142D02*
X198599999Y-101559285D01*
X198599999Y-101559285D02*
X198671428Y-101487857D01*
X198671428Y-101487857D02*
X198814285Y-101416428D01*
X198814285Y-101416428D02*
X199099999Y-101416428D01*
X199099999Y-101416428D02*
X199242857Y-101487857D01*
X200600000Y-101416428D02*
X200600000Y-102416428D01*
X199957142Y-101416428D02*
X199957142Y-102202142D01*
X199957142Y-102202142D02*
X200028571Y-102345000D01*
X200028571Y-102345000D02*
X200171428Y-102416428D01*
X200171428Y-102416428D02*
X200385714Y-102416428D01*
X200385714Y-102416428D02*
X200528571Y-102345000D01*
X200528571Y-102345000D02*
X200600000Y-102273571D01*
X201314285Y-102416428D02*
X201314285Y-100916428D01*
X201314285Y-101487857D02*
X201457143Y-101416428D01*
X201457143Y-101416428D02*
X201742857Y-101416428D01*
X201742857Y-101416428D02*
X201885714Y-101487857D01*
X201885714Y-101487857D02*
X201957143Y-101559285D01*
X201957143Y-101559285D02*
X202028571Y-101702142D01*
X202028571Y-101702142D02*
X202028571Y-102130714D01*
X202028571Y-102130714D02*
X201957143Y-102273571D01*
X201957143Y-102273571D02*
X201885714Y-102345000D01*
X201885714Y-102345000D02*
X201742857Y-102416428D01*
X201742857Y-102416428D02*
X201457143Y-102416428D01*
X201457143Y-102416428D02*
X201314285Y-102345000D01*
X198609523Y-99877619D02*
X198276190Y-99401428D01*
X198038095Y-99877619D02*
X198038095Y-98877619D01*
X198038095Y-98877619D02*
X198419047Y-98877619D01*
X198419047Y-98877619D02*
X198514285Y-98925238D01*
X198514285Y-98925238D02*
X198561904Y-98972857D01*
X198561904Y-98972857D02*
X198609523Y-99068095D01*
X198609523Y-99068095D02*
X198609523Y-99210952D01*
X198609523Y-99210952D02*
X198561904Y-99306190D01*
X198561904Y-99306190D02*
X198514285Y-99353809D01*
X198514285Y-99353809D02*
X198419047Y-99401428D01*
X198419047Y-99401428D02*
X198038095Y-99401428D01*
X199038095Y-99353809D02*
X199371428Y-99353809D01*
X199514285Y-99877619D02*
X199038095Y-99877619D01*
X199038095Y-99877619D02*
X199038095Y-98877619D01*
X199038095Y-98877619D02*
X199514285Y-98877619D01*
X199895238Y-99830000D02*
X200038095Y-99877619D01*
X200038095Y-99877619D02*
X200276190Y-99877619D01*
X200276190Y-99877619D02*
X200371428Y-99830000D01*
X200371428Y-99830000D02*
X200419047Y-99782380D01*
X200419047Y-99782380D02*
X200466666Y-99687142D01*
X200466666Y-99687142D02*
X200466666Y-99591904D01*
X200466666Y-99591904D02*
X200419047Y-99496666D01*
X200419047Y-99496666D02*
X200371428Y-99449047D01*
X200371428Y-99449047D02*
X200276190Y-99401428D01*
X200276190Y-99401428D02*
X200085714Y-99353809D01*
X200085714Y-99353809D02*
X199990476Y-99306190D01*
X199990476Y-99306190D02*
X199942857Y-99258571D01*
X199942857Y-99258571D02*
X199895238Y-99163333D01*
X199895238Y-99163333D02*
X199895238Y-99068095D01*
X199895238Y-99068095D02*
X199942857Y-98972857D01*
X199942857Y-98972857D02*
X199990476Y-98925238D01*
X199990476Y-98925238D02*
X200085714Y-98877619D01*
X200085714Y-98877619D02*
X200323809Y-98877619D01*
X200323809Y-98877619D02*
X200466666Y-98925238D01*
X200895238Y-99353809D02*
X201228571Y-99353809D01*
X201371428Y-99877619D02*
X200895238Y-99877619D01*
X200895238Y-99877619D02*
X200895238Y-98877619D01*
X200895238Y-98877619D02*
X201371428Y-98877619D01*
X201657143Y-98877619D02*
X202228571Y-98877619D01*
X201942857Y-99877619D02*
X201942857Y-98877619D01*
D10*
X168042857Y-80316428D02*
X168185714Y-80316428D01*
X168185714Y-80316428D02*
X168328571Y-80387857D01*
X168328571Y-80387857D02*
X168400000Y-80459285D01*
X168400000Y-80459285D02*
X168471428Y-80602142D01*
X168471428Y-80602142D02*
X168542857Y-80887857D01*
X168542857Y-80887857D02*
X168542857Y-81245000D01*
X168542857Y-81245000D02*
X168471428Y-81530714D01*
X168471428Y-81530714D02*
X168400000Y-81673571D01*
X168400000Y-81673571D02*
X168328571Y-81745000D01*
X168328571Y-81745000D02*
X168185714Y-81816428D01*
X168185714Y-81816428D02*
X168042857Y-81816428D01*
X168042857Y-81816428D02*
X167900000Y-81745000D01*
X167900000Y-81745000D02*
X167828571Y-81673571D01*
X167828571Y-81673571D02*
X167757142Y-81530714D01*
X167757142Y-81530714D02*
X167685714Y-81245000D01*
X167685714Y-81245000D02*
X167685714Y-80887857D01*
X167685714Y-80887857D02*
X167757142Y-80602142D01*
X167757142Y-80602142D02*
X167828571Y-80459285D01*
X167828571Y-80459285D02*
X167900000Y-80387857D01*
X167900000Y-80387857D02*
X168042857Y-80316428D01*
X169685713Y-81030714D02*
X169899999Y-81102142D01*
X169899999Y-81102142D02*
X169971428Y-81173571D01*
X169971428Y-81173571D02*
X170042856Y-81316428D01*
X170042856Y-81316428D02*
X170042856Y-81530714D01*
X170042856Y-81530714D02*
X169971428Y-81673571D01*
X169971428Y-81673571D02*
X169899999Y-81745000D01*
X169899999Y-81745000D02*
X169757142Y-81816428D01*
X169757142Y-81816428D02*
X169185713Y-81816428D01*
X169185713Y-81816428D02*
X169185713Y-80316428D01*
X169185713Y-80316428D02*
X169685713Y-80316428D01*
X169685713Y-80316428D02*
X169828571Y-80387857D01*
X169828571Y-80387857D02*
X169899999Y-80459285D01*
X169899999Y-80459285D02*
X169971428Y-80602142D01*
X169971428Y-80602142D02*
X169971428Y-80745000D01*
X169971428Y-80745000D02*
X169899999Y-80887857D01*
X169899999Y-80887857D02*
X169828571Y-80959285D01*
X169828571Y-80959285D02*
X169685713Y-81030714D01*
X169685713Y-81030714D02*
X169185713Y-81030714D01*
X198242857Y-73516428D02*
X198528571Y-73516428D01*
X198528571Y-73516428D02*
X198671428Y-73587857D01*
X198671428Y-73587857D02*
X198814285Y-73730714D01*
X198814285Y-73730714D02*
X198885714Y-74016428D01*
X198885714Y-74016428D02*
X198885714Y-74516428D01*
X198885714Y-74516428D02*
X198814285Y-74802142D01*
X198814285Y-74802142D02*
X198671428Y-74945000D01*
X198671428Y-74945000D02*
X198528571Y-75016428D01*
X198528571Y-75016428D02*
X198242857Y-75016428D01*
X198242857Y-75016428D02*
X198100000Y-74945000D01*
X198100000Y-74945000D02*
X197957142Y-74802142D01*
X197957142Y-74802142D02*
X197885714Y-74516428D01*
X197885714Y-74516428D02*
X197885714Y-74016428D01*
X197885714Y-74016428D02*
X197957142Y-73730714D01*
X197957142Y-73730714D02*
X198100000Y-73587857D01*
X198100000Y-73587857D02*
X198242857Y-73516428D01*
X199528571Y-75016428D02*
X199528571Y-73516428D01*
X199528571Y-73516428D02*
X200385714Y-75016428D01*
X200385714Y-75016428D02*
X200385714Y-73516428D01*
X205452142Y-67638900D02*
X206595000Y-67638900D01*
X206023571Y-68210328D02*
X206023571Y-67067471D01*
X206614285Y-116516428D02*
X206971428Y-118016428D01*
X206971428Y-118016428D02*
X207257142Y-116945000D01*
X207257142Y-116945000D02*
X207542857Y-118016428D01*
X207542857Y-118016428D02*
X207900000Y-116516428D01*
X208471428Y-118016428D02*
X208471428Y-117016428D01*
X208471428Y-116516428D02*
X208400000Y-116587857D01*
X208400000Y-116587857D02*
X208471428Y-116659285D01*
X208471428Y-116659285D02*
X208542857Y-116587857D01*
X208542857Y-116587857D02*
X208471428Y-116516428D01*
X208471428Y-116516428D02*
X208471428Y-116659285D01*
X209685714Y-117230714D02*
X209185714Y-117230714D01*
X209185714Y-118016428D02*
X209185714Y-116516428D01*
X209185714Y-116516428D02*
X209900000Y-116516428D01*
X210471428Y-118016428D02*
X210471428Y-117016428D01*
X210471428Y-116516428D02*
X210400000Y-116587857D01*
X210400000Y-116587857D02*
X210471428Y-116659285D01*
X210471428Y-116659285D02*
X210542857Y-116587857D01*
X210542857Y-116587857D02*
X210471428Y-116516428D01*
X210471428Y-116516428D02*
X210471428Y-116659285D01*
X213185714Y-118016428D02*
X212685714Y-117302142D01*
X212328571Y-118016428D02*
X212328571Y-116516428D01*
X212328571Y-116516428D02*
X212900000Y-116516428D01*
X212900000Y-116516428D02*
X213042857Y-116587857D01*
X213042857Y-116587857D02*
X213114286Y-116659285D01*
X213114286Y-116659285D02*
X213185714Y-116802142D01*
X213185714Y-116802142D02*
X213185714Y-117016428D01*
X213185714Y-117016428D02*
X213114286Y-117159285D01*
X213114286Y-117159285D02*
X213042857Y-117230714D01*
X213042857Y-117230714D02*
X212900000Y-117302142D01*
X212900000Y-117302142D02*
X212328571Y-117302142D01*
X213828571Y-117230714D02*
X214328571Y-117230714D01*
X214542857Y-118016428D02*
X213828571Y-118016428D01*
X213828571Y-118016428D02*
X213828571Y-116516428D01*
X213828571Y-116516428D02*
X214542857Y-116516428D01*
X215114286Y-117945000D02*
X215328572Y-118016428D01*
X215328572Y-118016428D02*
X215685714Y-118016428D01*
X215685714Y-118016428D02*
X215828572Y-117945000D01*
X215828572Y-117945000D02*
X215900000Y-117873571D01*
X215900000Y-117873571D02*
X215971429Y-117730714D01*
X215971429Y-117730714D02*
X215971429Y-117587857D01*
X215971429Y-117587857D02*
X215900000Y-117445000D01*
X215900000Y-117445000D02*
X215828572Y-117373571D01*
X215828572Y-117373571D02*
X215685714Y-117302142D01*
X215685714Y-117302142D02*
X215400000Y-117230714D01*
X215400000Y-117230714D02*
X215257143Y-117159285D01*
X215257143Y-117159285D02*
X215185714Y-117087857D01*
X215185714Y-117087857D02*
X215114286Y-116945000D01*
X215114286Y-116945000D02*
X215114286Y-116802142D01*
X215114286Y-116802142D02*
X215185714Y-116659285D01*
X215185714Y-116659285D02*
X215257143Y-116587857D01*
X215257143Y-116587857D02*
X215400000Y-116516428D01*
X215400000Y-116516428D02*
X215757143Y-116516428D01*
X215757143Y-116516428D02*
X215971429Y-116587857D01*
X216614285Y-117230714D02*
X217114285Y-117230714D01*
X217328571Y-118016428D02*
X216614285Y-118016428D01*
X216614285Y-118016428D02*
X216614285Y-116516428D01*
X216614285Y-116516428D02*
X217328571Y-116516428D01*
X217757143Y-116516428D02*
X218614286Y-116516428D01*
X218185714Y-118016428D02*
X218185714Y-116516428D01*
X168042857Y-75116428D02*
X168185714Y-75116428D01*
X168185714Y-75116428D02*
X168328571Y-75187857D01*
X168328571Y-75187857D02*
X168400000Y-75259285D01*
X168400000Y-75259285D02*
X168471428Y-75402142D01*
X168471428Y-75402142D02*
X168542857Y-75687857D01*
X168542857Y-75687857D02*
X168542857Y-76045000D01*
X168542857Y-76045000D02*
X168471428Y-76330714D01*
X168471428Y-76330714D02*
X168400000Y-76473571D01*
X168400000Y-76473571D02*
X168328571Y-76545000D01*
X168328571Y-76545000D02*
X168185714Y-76616428D01*
X168185714Y-76616428D02*
X168042857Y-76616428D01*
X168042857Y-76616428D02*
X167900000Y-76545000D01*
X167900000Y-76545000D02*
X167828571Y-76473571D01*
X167828571Y-76473571D02*
X167757142Y-76330714D01*
X167757142Y-76330714D02*
X167685714Y-76045000D01*
X167685714Y-76045000D02*
X167685714Y-75687857D01*
X167685714Y-75687857D02*
X167757142Y-75402142D01*
X167757142Y-75402142D02*
X167828571Y-75259285D01*
X167828571Y-75259285D02*
X167900000Y-75187857D01*
X167900000Y-75187857D02*
X168042857Y-75116428D01*
X169114285Y-76187857D02*
X169828571Y-76187857D01*
X168971428Y-76616428D02*
X169471428Y-75116428D01*
X169471428Y-75116428D02*
X169971428Y-76616428D01*
X212452142Y-67838900D02*
X213595000Y-67838900D01*
D12*
%TO.C,J13*%
X208485476Y-67256519D02*
X208485476Y-67970804D01*
X208485476Y-67970804D02*
X208437857Y-68113661D01*
X208437857Y-68113661D02*
X208342619Y-68208900D01*
X208342619Y-68208900D02*
X208199762Y-68256519D01*
X208199762Y-68256519D02*
X208104524Y-68256519D01*
X209485476Y-68256519D02*
X208914048Y-68256519D01*
X209199762Y-68256519D02*
X209199762Y-67256519D01*
X209199762Y-67256519D02*
X209104524Y-67399376D01*
X209104524Y-67399376D02*
X209009286Y-67494614D01*
X209009286Y-67494614D02*
X208914048Y-67542233D01*
X209818810Y-67256519D02*
X210437857Y-67256519D01*
X210437857Y-67256519D02*
X210104524Y-67637471D01*
X210104524Y-67637471D02*
X210247381Y-67637471D01*
X210247381Y-67637471D02*
X210342619Y-67685090D01*
X210342619Y-67685090D02*
X210390238Y-67732709D01*
X210390238Y-67732709D02*
X210437857Y-67827947D01*
X210437857Y-67827947D02*
X210437857Y-68066042D01*
X210437857Y-68066042D02*
X210390238Y-68161280D01*
X210390238Y-68161280D02*
X210342619Y-68208900D01*
X210342619Y-68208900D02*
X210247381Y-68256519D01*
X210247381Y-68256519D02*
X209961667Y-68256519D01*
X209961667Y-68256519D02*
X209866429Y-68208900D01*
X209866429Y-68208900D02*
X209818810Y-68161280D01*
%TO.C,S1*%
X196440595Y-76293900D02*
X196583452Y-76341519D01*
X196583452Y-76341519D02*
X196821547Y-76341519D01*
X196821547Y-76341519D02*
X196916785Y-76293900D01*
X196916785Y-76293900D02*
X196964404Y-76246280D01*
X196964404Y-76246280D02*
X197012023Y-76151042D01*
X197012023Y-76151042D02*
X197012023Y-76055804D01*
X197012023Y-76055804D02*
X196964404Y-75960566D01*
X196964404Y-75960566D02*
X196916785Y-75912947D01*
X196916785Y-75912947D02*
X196821547Y-75865328D01*
X196821547Y-75865328D02*
X196631071Y-75817709D01*
X196631071Y-75817709D02*
X196535833Y-75770090D01*
X196535833Y-75770090D02*
X196488214Y-75722471D01*
X196488214Y-75722471D02*
X196440595Y-75627233D01*
X196440595Y-75627233D02*
X196440595Y-75531995D01*
X196440595Y-75531995D02*
X196488214Y-75436757D01*
X196488214Y-75436757D02*
X196535833Y-75389138D01*
X196535833Y-75389138D02*
X196631071Y-75341519D01*
X196631071Y-75341519D02*
X196869166Y-75341519D01*
X196869166Y-75341519D02*
X197012023Y-75389138D01*
X197964404Y-76341519D02*
X197392976Y-76341519D01*
X197678690Y-76341519D02*
X197678690Y-75341519D01*
X197678690Y-75341519D02*
X197583452Y-75484376D01*
X197583452Y-75484376D02*
X197488214Y-75579614D01*
X197488214Y-75579614D02*
X197392976Y-75627233D01*
%TO.C,C13*%
X194675535Y-87882143D02*
X194711250Y-87917857D01*
X194711250Y-87917857D02*
X194746964Y-88025000D01*
X194746964Y-88025000D02*
X194746964Y-88096428D01*
X194746964Y-88096428D02*
X194711250Y-88203571D01*
X194711250Y-88203571D02*
X194639821Y-88275000D01*
X194639821Y-88275000D02*
X194568392Y-88310714D01*
X194568392Y-88310714D02*
X194425535Y-88346428D01*
X194425535Y-88346428D02*
X194318392Y-88346428D01*
X194318392Y-88346428D02*
X194175535Y-88310714D01*
X194175535Y-88310714D02*
X194104107Y-88275000D01*
X194104107Y-88275000D02*
X194032678Y-88203571D01*
X194032678Y-88203571D02*
X193996964Y-88096428D01*
X193996964Y-88096428D02*
X193996964Y-88025000D01*
X193996964Y-88025000D02*
X194032678Y-87917857D01*
X194032678Y-87917857D02*
X194068392Y-87882143D01*
X194746964Y-87167857D02*
X194746964Y-87596428D01*
X194746964Y-87382143D02*
X193996964Y-87382143D01*
X193996964Y-87382143D02*
X194104107Y-87453571D01*
X194104107Y-87453571D02*
X194175535Y-87525000D01*
X194175535Y-87525000D02*
X194211250Y-87596428D01*
X193996964Y-86917857D02*
X193996964Y-86453571D01*
X193996964Y-86453571D02*
X194282678Y-86703571D01*
X194282678Y-86703571D02*
X194282678Y-86596428D01*
X194282678Y-86596428D02*
X194318392Y-86525000D01*
X194318392Y-86525000D02*
X194354107Y-86489285D01*
X194354107Y-86489285D02*
X194425535Y-86453571D01*
X194425535Y-86453571D02*
X194604107Y-86453571D01*
X194604107Y-86453571D02*
X194675535Y-86489285D01*
X194675535Y-86489285D02*
X194711250Y-86525000D01*
X194711250Y-86525000D02*
X194746964Y-86596428D01*
X194746964Y-86596428D02*
X194746964Y-86810714D01*
X194746964Y-86810714D02*
X194711250Y-86882142D01*
X194711250Y-86882142D02*
X194675535Y-86917857D01*
%TO.C,J11*%
X213570476Y-103957619D02*
X213570476Y-104671904D01*
X213570476Y-104671904D02*
X213522857Y-104814761D01*
X213522857Y-104814761D02*
X213427619Y-104910000D01*
X213427619Y-104910000D02*
X213284762Y-104957619D01*
X213284762Y-104957619D02*
X213189524Y-104957619D01*
X214570476Y-104957619D02*
X213999048Y-104957619D01*
X214284762Y-104957619D02*
X214284762Y-103957619D01*
X214284762Y-103957619D02*
X214189524Y-104100476D01*
X214189524Y-104100476D02*
X214094286Y-104195714D01*
X214094286Y-104195714D02*
X213999048Y-104243333D01*
X215522857Y-104957619D02*
X214951429Y-104957619D01*
X215237143Y-104957619D02*
X215237143Y-103957619D01*
X215237143Y-103957619D02*
X215141905Y-104100476D01*
X215141905Y-104100476D02*
X215046667Y-104195714D01*
X215046667Y-104195714D02*
X214951429Y-104243333D01*
%TO.C,J5*%
X189602619Y-114333333D02*
X190316904Y-114333333D01*
X190316904Y-114333333D02*
X190459761Y-114380952D01*
X190459761Y-114380952D02*
X190555000Y-114476190D01*
X190555000Y-114476190D02*
X190602619Y-114619047D01*
X190602619Y-114619047D02*
X190602619Y-114714285D01*
X189602619Y-113380952D02*
X189602619Y-113857142D01*
X189602619Y-113857142D02*
X190078809Y-113904761D01*
X190078809Y-113904761D02*
X190031190Y-113857142D01*
X190031190Y-113857142D02*
X189983571Y-113761904D01*
X189983571Y-113761904D02*
X189983571Y-113523809D01*
X189983571Y-113523809D02*
X190031190Y-113428571D01*
X190031190Y-113428571D02*
X190078809Y-113380952D01*
X190078809Y-113380952D02*
X190174047Y-113333333D01*
X190174047Y-113333333D02*
X190412142Y-113333333D01*
X190412142Y-113333333D02*
X190507380Y-113380952D01*
X190507380Y-113380952D02*
X190555000Y-113428571D01*
X190555000Y-113428571D02*
X190602619Y-113523809D01*
X190602619Y-113523809D02*
X190602619Y-113761904D01*
X190602619Y-113761904D02*
X190555000Y-113857142D01*
X190555000Y-113857142D02*
X190507380Y-113904761D01*
%TO.C,U1*%
X190638095Y-89262619D02*
X190638095Y-90072142D01*
X190638095Y-90072142D02*
X190685714Y-90167380D01*
X190685714Y-90167380D02*
X190733333Y-90215000D01*
X190733333Y-90215000D02*
X190828571Y-90262619D01*
X190828571Y-90262619D02*
X191019047Y-90262619D01*
X191019047Y-90262619D02*
X191114285Y-90215000D01*
X191114285Y-90215000D02*
X191161904Y-90167380D01*
X191161904Y-90167380D02*
X191209523Y-90072142D01*
X191209523Y-90072142D02*
X191209523Y-89262619D01*
X192209523Y-90262619D02*
X191638095Y-90262619D01*
X191923809Y-90262619D02*
X191923809Y-89262619D01*
X191923809Y-89262619D02*
X191828571Y-89405476D01*
X191828571Y-89405476D02*
X191733333Y-89500714D01*
X191733333Y-89500714D02*
X191638095Y-89548333D01*
%TO.C,C25*%
X193262380Y-82036757D02*
X193310000Y-82084376D01*
X193310000Y-82084376D02*
X193357619Y-82227233D01*
X193357619Y-82227233D02*
X193357619Y-82322471D01*
X193357619Y-82322471D02*
X193310000Y-82465328D01*
X193310000Y-82465328D02*
X193214761Y-82560566D01*
X193214761Y-82560566D02*
X193119523Y-82608185D01*
X193119523Y-82608185D02*
X192929047Y-82655804D01*
X192929047Y-82655804D02*
X192786190Y-82655804D01*
X192786190Y-82655804D02*
X192595714Y-82608185D01*
X192595714Y-82608185D02*
X192500476Y-82560566D01*
X192500476Y-82560566D02*
X192405238Y-82465328D01*
X192405238Y-82465328D02*
X192357619Y-82322471D01*
X192357619Y-82322471D02*
X192357619Y-82227233D01*
X192357619Y-82227233D02*
X192405238Y-82084376D01*
X192405238Y-82084376D02*
X192452857Y-82036757D01*
X192452857Y-81655804D02*
X192405238Y-81608185D01*
X192405238Y-81608185D02*
X192357619Y-81512947D01*
X192357619Y-81512947D02*
X192357619Y-81274852D01*
X192357619Y-81274852D02*
X192405238Y-81179614D01*
X192405238Y-81179614D02*
X192452857Y-81131995D01*
X192452857Y-81131995D02*
X192548095Y-81084376D01*
X192548095Y-81084376D02*
X192643333Y-81084376D01*
X192643333Y-81084376D02*
X192786190Y-81131995D01*
X192786190Y-81131995D02*
X193357619Y-81703423D01*
X193357619Y-81703423D02*
X193357619Y-81084376D01*
X192357619Y-80179614D02*
X192357619Y-80655804D01*
X192357619Y-80655804D02*
X192833809Y-80703423D01*
X192833809Y-80703423D02*
X192786190Y-80655804D01*
X192786190Y-80655804D02*
X192738571Y-80560566D01*
X192738571Y-80560566D02*
X192738571Y-80322471D01*
X192738571Y-80322471D02*
X192786190Y-80227233D01*
X192786190Y-80227233D02*
X192833809Y-80179614D01*
X192833809Y-80179614D02*
X192929047Y-80131995D01*
X192929047Y-80131995D02*
X193167142Y-80131995D01*
X193167142Y-80131995D02*
X193262380Y-80179614D01*
X193262380Y-80179614D02*
X193310000Y-80227233D01*
X193310000Y-80227233D02*
X193357619Y-80322471D01*
X193357619Y-80322471D02*
X193357619Y-80560566D01*
X193357619Y-80560566D02*
X193310000Y-80655804D01*
X193310000Y-80655804D02*
X193262380Y-80703423D01*
%TO.C,C19*%
X185957142Y-95567380D02*
X185909523Y-95615000D01*
X185909523Y-95615000D02*
X185766666Y-95662619D01*
X185766666Y-95662619D02*
X185671428Y-95662619D01*
X185671428Y-95662619D02*
X185528571Y-95615000D01*
X185528571Y-95615000D02*
X185433333Y-95519761D01*
X185433333Y-95519761D02*
X185385714Y-95424523D01*
X185385714Y-95424523D02*
X185338095Y-95234047D01*
X185338095Y-95234047D02*
X185338095Y-95091190D01*
X185338095Y-95091190D02*
X185385714Y-94900714D01*
X185385714Y-94900714D02*
X185433333Y-94805476D01*
X185433333Y-94805476D02*
X185528571Y-94710238D01*
X185528571Y-94710238D02*
X185671428Y-94662619D01*
X185671428Y-94662619D02*
X185766666Y-94662619D01*
X185766666Y-94662619D02*
X185909523Y-94710238D01*
X185909523Y-94710238D02*
X185957142Y-94757857D01*
X186909523Y-95662619D02*
X186338095Y-95662619D01*
X186623809Y-95662619D02*
X186623809Y-94662619D01*
X186623809Y-94662619D02*
X186528571Y-94805476D01*
X186528571Y-94805476D02*
X186433333Y-94900714D01*
X186433333Y-94900714D02*
X186338095Y-94948333D01*
X187385714Y-95662619D02*
X187576190Y-95662619D01*
X187576190Y-95662619D02*
X187671428Y-95615000D01*
X187671428Y-95615000D02*
X187719047Y-95567380D01*
X187719047Y-95567380D02*
X187814285Y-95424523D01*
X187814285Y-95424523D02*
X187861904Y-95234047D01*
X187861904Y-95234047D02*
X187861904Y-94853095D01*
X187861904Y-94853095D02*
X187814285Y-94757857D01*
X187814285Y-94757857D02*
X187766666Y-94710238D01*
X187766666Y-94710238D02*
X187671428Y-94662619D01*
X187671428Y-94662619D02*
X187480952Y-94662619D01*
X187480952Y-94662619D02*
X187385714Y-94710238D01*
X187385714Y-94710238D02*
X187338095Y-94757857D01*
X187338095Y-94757857D02*
X187290476Y-94853095D01*
X187290476Y-94853095D02*
X187290476Y-95091190D01*
X187290476Y-95091190D02*
X187338095Y-95186428D01*
X187338095Y-95186428D02*
X187385714Y-95234047D01*
X187385714Y-95234047D02*
X187480952Y-95281666D01*
X187480952Y-95281666D02*
X187671428Y-95281666D01*
X187671428Y-95281666D02*
X187766666Y-95234047D01*
X187766666Y-95234047D02*
X187814285Y-95186428D01*
X187814285Y-95186428D02*
X187861904Y-95091190D01*
%TO.C,J7*%
X171866666Y-101732619D02*
X171866666Y-102446904D01*
X171866666Y-102446904D02*
X171819047Y-102589761D01*
X171819047Y-102589761D02*
X171723809Y-102685000D01*
X171723809Y-102685000D02*
X171580952Y-102732619D01*
X171580952Y-102732619D02*
X171485714Y-102732619D01*
X172247619Y-101732619D02*
X172914285Y-101732619D01*
X172914285Y-101732619D02*
X172485714Y-102732619D01*
%TO.C,C11*%
X186519157Y-74972619D02*
X186566776Y-74925000D01*
X186566776Y-74925000D02*
X186709633Y-74877380D01*
X186709633Y-74877380D02*
X186804871Y-74877380D01*
X186804871Y-74877380D02*
X186947728Y-74925000D01*
X186947728Y-74925000D02*
X187042966Y-75020238D01*
X187042966Y-75020238D02*
X187090585Y-75115476D01*
X187090585Y-75115476D02*
X187138204Y-75305952D01*
X187138204Y-75305952D02*
X187138204Y-75448809D01*
X187138204Y-75448809D02*
X187090585Y-75639285D01*
X187090585Y-75639285D02*
X187042966Y-75734523D01*
X187042966Y-75734523D02*
X186947728Y-75829761D01*
X186947728Y-75829761D02*
X186804871Y-75877380D01*
X186804871Y-75877380D02*
X186709633Y-75877380D01*
X186709633Y-75877380D02*
X186566776Y-75829761D01*
X186566776Y-75829761D02*
X186519157Y-75782142D01*
X185566776Y-74877380D02*
X186138204Y-74877380D01*
X185852490Y-74877380D02*
X185852490Y-75877380D01*
X185852490Y-75877380D02*
X185947728Y-75734523D01*
X185947728Y-75734523D02*
X186042966Y-75639285D01*
X186042966Y-75639285D02*
X186138204Y-75591666D01*
X184614395Y-74877380D02*
X185185823Y-74877380D01*
X184900109Y-74877380D02*
X184900109Y-75877380D01*
X184900109Y-75877380D02*
X184995347Y-75734523D01*
X184995347Y-75734523D02*
X185090585Y-75639285D01*
X185090585Y-75639285D02*
X185185823Y-75591666D01*
D13*
%TO.C,C24*%
X221044638Y-105178092D02*
X221063386Y-105196840D01*
X221063386Y-105196840D02*
X221082133Y-105253083D01*
X221082133Y-105253083D02*
X221082133Y-105290578D01*
X221082133Y-105290578D02*
X221063386Y-105346821D01*
X221063386Y-105346821D02*
X221025890Y-105384317D01*
X221025890Y-105384317D02*
X220988395Y-105403064D01*
X220988395Y-105403064D02*
X220913404Y-105421812D01*
X220913404Y-105421812D02*
X220857161Y-105421812D01*
X220857161Y-105421812D02*
X220782171Y-105403064D01*
X220782171Y-105403064D02*
X220744675Y-105384317D01*
X220744675Y-105384317D02*
X220707180Y-105346821D01*
X220707180Y-105346821D02*
X220688432Y-105290578D01*
X220688432Y-105290578D02*
X220688432Y-105253083D01*
X220688432Y-105253083D02*
X220707180Y-105196840D01*
X220707180Y-105196840D02*
X220725928Y-105178092D01*
X220725928Y-105028111D02*
X220707180Y-105009363D01*
X220707180Y-105009363D02*
X220688432Y-104971868D01*
X220688432Y-104971868D02*
X220688432Y-104878130D01*
X220688432Y-104878130D02*
X220707180Y-104840634D01*
X220707180Y-104840634D02*
X220725928Y-104821887D01*
X220725928Y-104821887D02*
X220763423Y-104803139D01*
X220763423Y-104803139D02*
X220800918Y-104803139D01*
X220800918Y-104803139D02*
X220857161Y-104821887D01*
X220857161Y-104821887D02*
X221082133Y-105046859D01*
X221082133Y-105046859D02*
X221082133Y-104803139D01*
X220819666Y-104465681D02*
X221082133Y-104465681D01*
X220669685Y-104559420D02*
X220950900Y-104653158D01*
X220950900Y-104653158D02*
X220950900Y-104409438D01*
D14*
%TO.C,R3*%
X176032142Y-76067238D02*
X175881952Y-76172371D01*
X176032142Y-76247466D02*
X175716743Y-76247466D01*
X175716743Y-76247466D02*
X175716743Y-76127314D01*
X175716743Y-76127314D02*
X175731762Y-76097276D01*
X175731762Y-76097276D02*
X175746781Y-76082257D01*
X175746781Y-76082257D02*
X175776819Y-76067238D01*
X175776819Y-76067238D02*
X175821876Y-76067238D01*
X175821876Y-76067238D02*
X175851914Y-76082257D01*
X175851914Y-76082257D02*
X175866933Y-76097276D01*
X175866933Y-76097276D02*
X175881952Y-76127314D01*
X175881952Y-76127314D02*
X175881952Y-76247466D01*
X175716743Y-75962105D02*
X175716743Y-75766858D01*
X175716743Y-75766858D02*
X175836895Y-75871991D01*
X175836895Y-75871991D02*
X175836895Y-75826934D01*
X175836895Y-75826934D02*
X175851914Y-75796896D01*
X175851914Y-75796896D02*
X175866933Y-75781877D01*
X175866933Y-75781877D02*
X175896971Y-75766858D01*
X175896971Y-75766858D02*
X175972066Y-75766858D01*
X175972066Y-75766858D02*
X176002104Y-75781877D01*
X176002104Y-75781877D02*
X176017123Y-75796896D01*
X176017123Y-75796896D02*
X176032142Y-75826934D01*
X176032142Y-75826934D02*
X176032142Y-75917048D01*
X176032142Y-75917048D02*
X176017123Y-75947086D01*
X176017123Y-75947086D02*
X176002104Y-75962105D01*
D12*
%TO.C,C10*%
X178357142Y-101767380D02*
X178309523Y-101815000D01*
X178309523Y-101815000D02*
X178166666Y-101862619D01*
X178166666Y-101862619D02*
X178071428Y-101862619D01*
X178071428Y-101862619D02*
X177928571Y-101815000D01*
X177928571Y-101815000D02*
X177833333Y-101719761D01*
X177833333Y-101719761D02*
X177785714Y-101624523D01*
X177785714Y-101624523D02*
X177738095Y-101434047D01*
X177738095Y-101434047D02*
X177738095Y-101291190D01*
X177738095Y-101291190D02*
X177785714Y-101100714D01*
X177785714Y-101100714D02*
X177833333Y-101005476D01*
X177833333Y-101005476D02*
X177928571Y-100910238D01*
X177928571Y-100910238D02*
X178071428Y-100862619D01*
X178071428Y-100862619D02*
X178166666Y-100862619D01*
X178166666Y-100862619D02*
X178309523Y-100910238D01*
X178309523Y-100910238D02*
X178357142Y-100957857D01*
X179309523Y-101862619D02*
X178738095Y-101862619D01*
X179023809Y-101862619D02*
X179023809Y-100862619D01*
X179023809Y-100862619D02*
X178928571Y-101005476D01*
X178928571Y-101005476D02*
X178833333Y-101100714D01*
X178833333Y-101100714D02*
X178738095Y-101148333D01*
X179928571Y-100862619D02*
X180023809Y-100862619D01*
X180023809Y-100862619D02*
X180119047Y-100910238D01*
X180119047Y-100910238D02*
X180166666Y-100957857D01*
X180166666Y-100957857D02*
X180214285Y-101053095D01*
X180214285Y-101053095D02*
X180261904Y-101243571D01*
X180261904Y-101243571D02*
X180261904Y-101481666D01*
X180261904Y-101481666D02*
X180214285Y-101672142D01*
X180214285Y-101672142D02*
X180166666Y-101767380D01*
X180166666Y-101767380D02*
X180119047Y-101815000D01*
X180119047Y-101815000D02*
X180023809Y-101862619D01*
X180023809Y-101862619D02*
X179928571Y-101862619D01*
X179928571Y-101862619D02*
X179833333Y-101815000D01*
X179833333Y-101815000D02*
X179785714Y-101767380D01*
X179785714Y-101767380D02*
X179738095Y-101672142D01*
X179738095Y-101672142D02*
X179690476Y-101481666D01*
X179690476Y-101481666D02*
X179690476Y-101243571D01*
X179690476Y-101243571D02*
X179738095Y-101053095D01*
X179738095Y-101053095D02*
X179785714Y-100957857D01*
X179785714Y-100957857D02*
X179833333Y-100910238D01*
X179833333Y-100910238D02*
X179928571Y-100862619D01*
%TO.C,R2*%
X193746964Y-85725000D02*
X193389821Y-85975000D01*
X193746964Y-86153571D02*
X192996964Y-86153571D01*
X192996964Y-86153571D02*
X192996964Y-85867857D01*
X192996964Y-85867857D02*
X193032678Y-85796428D01*
X193032678Y-85796428D02*
X193068392Y-85760714D01*
X193068392Y-85760714D02*
X193139821Y-85725000D01*
X193139821Y-85725000D02*
X193246964Y-85725000D01*
X193246964Y-85725000D02*
X193318392Y-85760714D01*
X193318392Y-85760714D02*
X193354107Y-85796428D01*
X193354107Y-85796428D02*
X193389821Y-85867857D01*
X193389821Y-85867857D02*
X193389821Y-86153571D01*
X193068392Y-85439285D02*
X193032678Y-85403571D01*
X193032678Y-85403571D02*
X192996964Y-85332143D01*
X192996964Y-85332143D02*
X192996964Y-85153571D01*
X192996964Y-85153571D02*
X193032678Y-85082143D01*
X193032678Y-85082143D02*
X193068392Y-85046428D01*
X193068392Y-85046428D02*
X193139821Y-85010714D01*
X193139821Y-85010714D02*
X193211250Y-85010714D01*
X193211250Y-85010714D02*
X193318392Y-85046428D01*
X193318392Y-85046428D02*
X193746964Y-85475000D01*
X193746964Y-85475000D02*
X193746964Y-85010714D01*
D15*
%TO.C,C4*%
X190717483Y-106581889D02*
X190693907Y-106605466D01*
X190693907Y-106605466D02*
X190623179Y-106629042D01*
X190623179Y-106629042D02*
X190576027Y-106629042D01*
X190576027Y-106629042D02*
X190505298Y-106605466D01*
X190505298Y-106605466D02*
X190458146Y-106558313D01*
X190458146Y-106558313D02*
X190434570Y-106511161D01*
X190434570Y-106511161D02*
X190410994Y-106416857D01*
X190410994Y-106416857D02*
X190410994Y-106346128D01*
X190410994Y-106346128D02*
X190434570Y-106251824D01*
X190434570Y-106251824D02*
X190458146Y-106204672D01*
X190458146Y-106204672D02*
X190505298Y-106157520D01*
X190505298Y-106157520D02*
X190576027Y-106133944D01*
X190576027Y-106133944D02*
X190623179Y-106133944D01*
X190623179Y-106133944D02*
X190693907Y-106157520D01*
X190693907Y-106157520D02*
X190717483Y-106181096D01*
X191141853Y-106298976D02*
X191141853Y-106629042D01*
X191023972Y-106110368D02*
X190906092Y-106464009D01*
X190906092Y-106464009D02*
X191212581Y-106464009D01*
D12*
%TO.C,C22*%
X196557142Y-89567380D02*
X196509523Y-89615000D01*
X196509523Y-89615000D02*
X196366666Y-89662619D01*
X196366666Y-89662619D02*
X196271428Y-89662619D01*
X196271428Y-89662619D02*
X196128571Y-89615000D01*
X196128571Y-89615000D02*
X196033333Y-89519761D01*
X196033333Y-89519761D02*
X195985714Y-89424523D01*
X195985714Y-89424523D02*
X195938095Y-89234047D01*
X195938095Y-89234047D02*
X195938095Y-89091190D01*
X195938095Y-89091190D02*
X195985714Y-88900714D01*
X195985714Y-88900714D02*
X196033333Y-88805476D01*
X196033333Y-88805476D02*
X196128571Y-88710238D01*
X196128571Y-88710238D02*
X196271428Y-88662619D01*
X196271428Y-88662619D02*
X196366666Y-88662619D01*
X196366666Y-88662619D02*
X196509523Y-88710238D01*
X196509523Y-88710238D02*
X196557142Y-88757857D01*
X196938095Y-88757857D02*
X196985714Y-88710238D01*
X196985714Y-88710238D02*
X197080952Y-88662619D01*
X197080952Y-88662619D02*
X197319047Y-88662619D01*
X197319047Y-88662619D02*
X197414285Y-88710238D01*
X197414285Y-88710238D02*
X197461904Y-88757857D01*
X197461904Y-88757857D02*
X197509523Y-88853095D01*
X197509523Y-88853095D02*
X197509523Y-88948333D01*
X197509523Y-88948333D02*
X197461904Y-89091190D01*
X197461904Y-89091190D02*
X196890476Y-89662619D01*
X196890476Y-89662619D02*
X197509523Y-89662619D01*
X197890476Y-88757857D02*
X197938095Y-88710238D01*
X197938095Y-88710238D02*
X198033333Y-88662619D01*
X198033333Y-88662619D02*
X198271428Y-88662619D01*
X198271428Y-88662619D02*
X198366666Y-88710238D01*
X198366666Y-88710238D02*
X198414285Y-88757857D01*
X198414285Y-88757857D02*
X198461904Y-88853095D01*
X198461904Y-88853095D02*
X198461904Y-88948333D01*
X198461904Y-88948333D02*
X198414285Y-89091190D01*
X198414285Y-89091190D02*
X197842857Y-89662619D01*
X197842857Y-89662619D02*
X198461904Y-89662619D01*
%TO.C,U4*%
X195038095Y-76462619D02*
X195038095Y-77272142D01*
X195038095Y-77272142D02*
X195085714Y-77367380D01*
X195085714Y-77367380D02*
X195133333Y-77415000D01*
X195133333Y-77415000D02*
X195228571Y-77462619D01*
X195228571Y-77462619D02*
X195419047Y-77462619D01*
X195419047Y-77462619D02*
X195514285Y-77415000D01*
X195514285Y-77415000D02*
X195561904Y-77367380D01*
X195561904Y-77367380D02*
X195609523Y-77272142D01*
X195609523Y-77272142D02*
X195609523Y-76462619D01*
X196514285Y-76795952D02*
X196514285Y-77462619D01*
X196276190Y-76415000D02*
X196038095Y-77129285D01*
X196038095Y-77129285D02*
X196657142Y-77129285D01*
D15*
%TO.C,C5*%
X190487483Y-102381889D02*
X190463907Y-102405466D01*
X190463907Y-102405466D02*
X190393179Y-102429042D01*
X190393179Y-102429042D02*
X190346027Y-102429042D01*
X190346027Y-102429042D02*
X190275298Y-102405466D01*
X190275298Y-102405466D02*
X190228146Y-102358313D01*
X190228146Y-102358313D02*
X190204570Y-102311161D01*
X190204570Y-102311161D02*
X190180994Y-102216857D01*
X190180994Y-102216857D02*
X190180994Y-102146128D01*
X190180994Y-102146128D02*
X190204570Y-102051824D01*
X190204570Y-102051824D02*
X190228146Y-102004672D01*
X190228146Y-102004672D02*
X190275298Y-101957520D01*
X190275298Y-101957520D02*
X190346027Y-101933944D01*
X190346027Y-101933944D02*
X190393179Y-101933944D01*
X190393179Y-101933944D02*
X190463907Y-101957520D01*
X190463907Y-101957520D02*
X190487483Y-101981096D01*
X190935429Y-101933944D02*
X190699668Y-101933944D01*
X190699668Y-101933944D02*
X190676092Y-102169705D01*
X190676092Y-102169705D02*
X190699668Y-102146128D01*
X190699668Y-102146128D02*
X190746820Y-102122552D01*
X190746820Y-102122552D02*
X190864701Y-102122552D01*
X190864701Y-102122552D02*
X190911853Y-102146128D01*
X190911853Y-102146128D02*
X190935429Y-102169705D01*
X190935429Y-102169705D02*
X190959005Y-102216857D01*
X190959005Y-102216857D02*
X190959005Y-102334737D01*
X190959005Y-102334737D02*
X190935429Y-102381889D01*
X190935429Y-102381889D02*
X190911853Y-102405466D01*
X190911853Y-102405466D02*
X190864701Y-102429042D01*
X190864701Y-102429042D02*
X190746820Y-102429042D01*
X190746820Y-102429042D02*
X190699668Y-102405466D01*
X190699668Y-102405466D02*
X190676092Y-102381889D01*
D12*
%TO.C,U7*%
X190025904Y-78612280D02*
X190025904Y-77802757D01*
X190025904Y-77802757D02*
X189978285Y-77707519D01*
X189978285Y-77707519D02*
X189930666Y-77659900D01*
X189930666Y-77659900D02*
X189835428Y-77612280D01*
X189835428Y-77612280D02*
X189644952Y-77612280D01*
X189644952Y-77612280D02*
X189549714Y-77659900D01*
X189549714Y-77659900D02*
X189502095Y-77707519D01*
X189502095Y-77707519D02*
X189454476Y-77802757D01*
X189454476Y-77802757D02*
X189454476Y-78612280D01*
X189073523Y-78612280D02*
X188406857Y-78612280D01*
X188406857Y-78612280D02*
X188835428Y-77612280D01*
%TO.C,J9*%
X224066666Y-73932619D02*
X224066666Y-74646904D01*
X224066666Y-74646904D02*
X224019047Y-74789761D01*
X224019047Y-74789761D02*
X223923809Y-74885000D01*
X223923809Y-74885000D02*
X223780952Y-74932619D01*
X223780952Y-74932619D02*
X223685714Y-74932619D01*
X224590476Y-74932619D02*
X224780952Y-74932619D01*
X224780952Y-74932619D02*
X224876190Y-74885000D01*
X224876190Y-74885000D02*
X224923809Y-74837380D01*
X224923809Y-74837380D02*
X225019047Y-74694523D01*
X225019047Y-74694523D02*
X225066666Y-74504047D01*
X225066666Y-74504047D02*
X225066666Y-74123095D01*
X225066666Y-74123095D02*
X225019047Y-74027857D01*
X225019047Y-74027857D02*
X224971428Y-73980238D01*
X224971428Y-73980238D02*
X224876190Y-73932619D01*
X224876190Y-73932619D02*
X224685714Y-73932619D01*
X224685714Y-73932619D02*
X224590476Y-73980238D01*
X224590476Y-73980238D02*
X224542857Y-74027857D01*
X224542857Y-74027857D02*
X224495238Y-74123095D01*
X224495238Y-74123095D02*
X224495238Y-74361190D01*
X224495238Y-74361190D02*
X224542857Y-74456428D01*
X224542857Y-74456428D02*
X224590476Y-74504047D01*
X224590476Y-74504047D02*
X224685714Y-74551666D01*
X224685714Y-74551666D02*
X224876190Y-74551666D01*
X224876190Y-74551666D02*
X224971428Y-74504047D01*
X224971428Y-74504047D02*
X225019047Y-74456428D01*
X225019047Y-74456428D02*
X225066666Y-74361190D01*
%TO.C,SW4*%
X220466667Y-95015000D02*
X220609524Y-95062619D01*
X220609524Y-95062619D02*
X220847619Y-95062619D01*
X220847619Y-95062619D02*
X220942857Y-95015000D01*
X220942857Y-95015000D02*
X220990476Y-94967380D01*
X220990476Y-94967380D02*
X221038095Y-94872142D01*
X221038095Y-94872142D02*
X221038095Y-94776904D01*
X221038095Y-94776904D02*
X220990476Y-94681666D01*
X220990476Y-94681666D02*
X220942857Y-94634047D01*
X220942857Y-94634047D02*
X220847619Y-94586428D01*
X220847619Y-94586428D02*
X220657143Y-94538809D01*
X220657143Y-94538809D02*
X220561905Y-94491190D01*
X220561905Y-94491190D02*
X220514286Y-94443571D01*
X220514286Y-94443571D02*
X220466667Y-94348333D01*
X220466667Y-94348333D02*
X220466667Y-94253095D01*
X220466667Y-94253095D02*
X220514286Y-94157857D01*
X220514286Y-94157857D02*
X220561905Y-94110238D01*
X220561905Y-94110238D02*
X220657143Y-94062619D01*
X220657143Y-94062619D02*
X220895238Y-94062619D01*
X220895238Y-94062619D02*
X221038095Y-94110238D01*
X221371429Y-94062619D02*
X221609524Y-95062619D01*
X221609524Y-95062619D02*
X221800000Y-94348333D01*
X221800000Y-94348333D02*
X221990476Y-95062619D01*
X221990476Y-95062619D02*
X222228572Y-94062619D01*
X223038095Y-94395952D02*
X223038095Y-95062619D01*
X222800000Y-94015000D02*
X222561905Y-94729285D01*
X222561905Y-94729285D02*
X223180952Y-94729285D01*
X218688500Y-90429019D02*
X218688500Y-90667114D01*
X218450405Y-90571876D02*
X218688500Y-90667114D01*
X218688500Y-90667114D02*
X218926595Y-90571876D01*
X218545643Y-90857590D02*
X218688500Y-90667114D01*
X218688500Y-90667114D02*
X218831357Y-90857590D01*
X218688500Y-90429019D02*
X218688500Y-90667114D01*
X218450405Y-90571876D02*
X218688500Y-90667114D01*
X218688500Y-90667114D02*
X218926595Y-90571876D01*
X218545643Y-90857590D02*
X218688500Y-90667114D01*
X218688500Y-90667114D02*
X218831357Y-90857590D01*
D13*
%TO.C,R12*%
X223278907Y-98102133D02*
X223147673Y-97914657D01*
X223053935Y-98102133D02*
X223053935Y-97708432D01*
X223053935Y-97708432D02*
X223203916Y-97708432D01*
X223203916Y-97708432D02*
X223241412Y-97727180D01*
X223241412Y-97727180D02*
X223260159Y-97745928D01*
X223260159Y-97745928D02*
X223278907Y-97783423D01*
X223278907Y-97783423D02*
X223278907Y-97839666D01*
X223278907Y-97839666D02*
X223260159Y-97877161D01*
X223260159Y-97877161D02*
X223241412Y-97895909D01*
X223241412Y-97895909D02*
X223203916Y-97914657D01*
X223203916Y-97914657D02*
X223053935Y-97914657D01*
X223653860Y-98102133D02*
X223428888Y-98102133D01*
X223541374Y-98102133D02*
X223541374Y-97708432D01*
X223541374Y-97708432D02*
X223503879Y-97764675D01*
X223503879Y-97764675D02*
X223466384Y-97802171D01*
X223466384Y-97802171D02*
X223428888Y-97820918D01*
X223803841Y-97745928D02*
X223822589Y-97727180D01*
X223822589Y-97727180D02*
X223860084Y-97708432D01*
X223860084Y-97708432D02*
X223953823Y-97708432D01*
X223953823Y-97708432D02*
X223991318Y-97727180D01*
X223991318Y-97727180D02*
X224010066Y-97745928D01*
X224010066Y-97745928D02*
X224028813Y-97783423D01*
X224028813Y-97783423D02*
X224028813Y-97820918D01*
X224028813Y-97820918D02*
X224010066Y-97877161D01*
X224010066Y-97877161D02*
X223785094Y-98102133D01*
X223785094Y-98102133D02*
X224028813Y-98102133D01*
D12*
%TO.C,J12*%
X217052619Y-107609523D02*
X217766904Y-107609523D01*
X217766904Y-107609523D02*
X217909761Y-107657142D01*
X217909761Y-107657142D02*
X218005000Y-107752380D01*
X218005000Y-107752380D02*
X218052619Y-107895237D01*
X218052619Y-107895237D02*
X218052619Y-107990475D01*
X218052619Y-106609523D02*
X218052619Y-107180951D01*
X218052619Y-106895237D02*
X217052619Y-106895237D01*
X217052619Y-106895237D02*
X217195476Y-106990475D01*
X217195476Y-106990475D02*
X217290714Y-107085713D01*
X217290714Y-107085713D02*
X217338333Y-107180951D01*
X217147857Y-106228570D02*
X217100238Y-106180951D01*
X217100238Y-106180951D02*
X217052619Y-106085713D01*
X217052619Y-106085713D02*
X217052619Y-105847618D01*
X217052619Y-105847618D02*
X217100238Y-105752380D01*
X217100238Y-105752380D02*
X217147857Y-105704761D01*
X217147857Y-105704761D02*
X217243095Y-105657142D01*
X217243095Y-105657142D02*
X217338333Y-105657142D01*
X217338333Y-105657142D02*
X217481190Y-105704761D01*
X217481190Y-105704761D02*
X218052619Y-106276189D01*
X218052619Y-106276189D02*
X218052619Y-105657142D01*
%TO.C,J1*%
X182006666Y-109922619D02*
X182006666Y-110636904D01*
X182006666Y-110636904D02*
X181959047Y-110779761D01*
X181959047Y-110779761D02*
X181863809Y-110875000D01*
X181863809Y-110875000D02*
X181720952Y-110922619D01*
X181720952Y-110922619D02*
X181625714Y-110922619D01*
X183006666Y-110922619D02*
X182435238Y-110922619D01*
X182720952Y-110922619D02*
X182720952Y-109922619D01*
X182720952Y-109922619D02*
X182625714Y-110065476D01*
X182625714Y-110065476D02*
X182530476Y-110160714D01*
X182530476Y-110160714D02*
X182435238Y-110208333D01*
%TO.C,J8*%
X224066666Y-100992619D02*
X224066666Y-101706904D01*
X224066666Y-101706904D02*
X224019047Y-101849761D01*
X224019047Y-101849761D02*
X223923809Y-101945000D01*
X223923809Y-101945000D02*
X223780952Y-101992619D01*
X223780952Y-101992619D02*
X223685714Y-101992619D01*
X224685714Y-101421190D02*
X224590476Y-101373571D01*
X224590476Y-101373571D02*
X224542857Y-101325952D01*
X224542857Y-101325952D02*
X224495238Y-101230714D01*
X224495238Y-101230714D02*
X224495238Y-101183095D01*
X224495238Y-101183095D02*
X224542857Y-101087857D01*
X224542857Y-101087857D02*
X224590476Y-101040238D01*
X224590476Y-101040238D02*
X224685714Y-100992619D01*
X224685714Y-100992619D02*
X224876190Y-100992619D01*
X224876190Y-100992619D02*
X224971428Y-101040238D01*
X224971428Y-101040238D02*
X225019047Y-101087857D01*
X225019047Y-101087857D02*
X225066666Y-101183095D01*
X225066666Y-101183095D02*
X225066666Y-101230714D01*
X225066666Y-101230714D02*
X225019047Y-101325952D01*
X225019047Y-101325952D02*
X224971428Y-101373571D01*
X224971428Y-101373571D02*
X224876190Y-101421190D01*
X224876190Y-101421190D02*
X224685714Y-101421190D01*
X224685714Y-101421190D02*
X224590476Y-101468809D01*
X224590476Y-101468809D02*
X224542857Y-101516428D01*
X224542857Y-101516428D02*
X224495238Y-101611666D01*
X224495238Y-101611666D02*
X224495238Y-101802142D01*
X224495238Y-101802142D02*
X224542857Y-101897380D01*
X224542857Y-101897380D02*
X224590476Y-101945000D01*
X224590476Y-101945000D02*
X224685714Y-101992619D01*
X224685714Y-101992619D02*
X224876190Y-101992619D01*
X224876190Y-101992619D02*
X224971428Y-101945000D01*
X224971428Y-101945000D02*
X225019047Y-101897380D01*
X225019047Y-101897380D02*
X225066666Y-101802142D01*
X225066666Y-101802142D02*
X225066666Y-101611666D01*
X225066666Y-101611666D02*
X225019047Y-101516428D01*
X225019047Y-101516428D02*
X224971428Y-101468809D01*
X224971428Y-101468809D02*
X224876190Y-101421190D01*
%TO.C,U3*%
X199127619Y-94086904D02*
X199937142Y-94086904D01*
X199937142Y-94086904D02*
X200032380Y-94039285D01*
X200032380Y-94039285D02*
X200080000Y-93991666D01*
X200080000Y-93991666D02*
X200127619Y-93896428D01*
X200127619Y-93896428D02*
X200127619Y-93705952D01*
X200127619Y-93705952D02*
X200080000Y-93610714D01*
X200080000Y-93610714D02*
X200032380Y-93563095D01*
X200032380Y-93563095D02*
X199937142Y-93515476D01*
X199937142Y-93515476D02*
X199127619Y-93515476D01*
X199127619Y-93134523D02*
X199127619Y-92515476D01*
X199127619Y-92515476D02*
X199508571Y-92848809D01*
X199508571Y-92848809D02*
X199508571Y-92705952D01*
X199508571Y-92705952D02*
X199556190Y-92610714D01*
X199556190Y-92610714D02*
X199603809Y-92563095D01*
X199603809Y-92563095D02*
X199699047Y-92515476D01*
X199699047Y-92515476D02*
X199937142Y-92515476D01*
X199937142Y-92515476D02*
X200032380Y-92563095D01*
X200032380Y-92563095D02*
X200080000Y-92610714D01*
X200080000Y-92610714D02*
X200127619Y-92705952D01*
X200127619Y-92705952D02*
X200127619Y-92991666D01*
X200127619Y-92991666D02*
X200080000Y-93086904D01*
X200080000Y-93086904D02*
X200032380Y-93134523D01*
%TO.C,Y1*%
X191127238Y-106134914D02*
X191127238Y-106439676D01*
X190913905Y-105799676D02*
X191127238Y-106134914D01*
X191127238Y-106134914D02*
X191340572Y-105799676D01*
X191889143Y-106439676D02*
X191523428Y-106439676D01*
X191706285Y-106439676D02*
X191706285Y-105799676D01*
X191706285Y-105799676D02*
X191645333Y-105891104D01*
X191645333Y-105891104D02*
X191584381Y-105952057D01*
X191584381Y-105952057D02*
X191523428Y-105982533D01*
%TO.C,J15*%
X205485476Y-78486519D02*
X205485476Y-79200804D01*
X205485476Y-79200804D02*
X205437857Y-79343661D01*
X205437857Y-79343661D02*
X205342619Y-79438900D01*
X205342619Y-79438900D02*
X205199762Y-79486519D01*
X205199762Y-79486519D02*
X205104524Y-79486519D01*
X206485476Y-79486519D02*
X205914048Y-79486519D01*
X206199762Y-79486519D02*
X206199762Y-78486519D01*
X206199762Y-78486519D02*
X206104524Y-78629376D01*
X206104524Y-78629376D02*
X206009286Y-78724614D01*
X206009286Y-78724614D02*
X205914048Y-78772233D01*
X207390238Y-78486519D02*
X206914048Y-78486519D01*
X206914048Y-78486519D02*
X206866429Y-78962709D01*
X206866429Y-78962709D02*
X206914048Y-78915090D01*
X206914048Y-78915090D02*
X207009286Y-78867471D01*
X207009286Y-78867471D02*
X207247381Y-78867471D01*
X207247381Y-78867471D02*
X207342619Y-78915090D01*
X207342619Y-78915090D02*
X207390238Y-78962709D01*
X207390238Y-78962709D02*
X207437857Y-79057947D01*
X207437857Y-79057947D02*
X207437857Y-79296042D01*
X207437857Y-79296042D02*
X207390238Y-79391280D01*
X207390238Y-79391280D02*
X207342619Y-79438900D01*
X207342619Y-79438900D02*
X207247381Y-79486519D01*
X207247381Y-79486519D02*
X207009286Y-79486519D01*
X207009286Y-79486519D02*
X206914048Y-79438900D01*
X206914048Y-79438900D02*
X206866429Y-79391280D01*
%TO.C,C7*%
X200233333Y-87567380D02*
X200185714Y-87615000D01*
X200185714Y-87615000D02*
X200042857Y-87662619D01*
X200042857Y-87662619D02*
X199947619Y-87662619D01*
X199947619Y-87662619D02*
X199804762Y-87615000D01*
X199804762Y-87615000D02*
X199709524Y-87519761D01*
X199709524Y-87519761D02*
X199661905Y-87424523D01*
X199661905Y-87424523D02*
X199614286Y-87234047D01*
X199614286Y-87234047D02*
X199614286Y-87091190D01*
X199614286Y-87091190D02*
X199661905Y-86900714D01*
X199661905Y-86900714D02*
X199709524Y-86805476D01*
X199709524Y-86805476D02*
X199804762Y-86710238D01*
X199804762Y-86710238D02*
X199947619Y-86662619D01*
X199947619Y-86662619D02*
X200042857Y-86662619D01*
X200042857Y-86662619D02*
X200185714Y-86710238D01*
X200185714Y-86710238D02*
X200233333Y-86757857D01*
X200566667Y-86662619D02*
X201233333Y-86662619D01*
X201233333Y-86662619D02*
X200804762Y-87662619D01*
%TO.C,SW3*%
X210066667Y-113615000D02*
X210209524Y-113662619D01*
X210209524Y-113662619D02*
X210447619Y-113662619D01*
X210447619Y-113662619D02*
X210542857Y-113615000D01*
X210542857Y-113615000D02*
X210590476Y-113567380D01*
X210590476Y-113567380D02*
X210638095Y-113472142D01*
X210638095Y-113472142D02*
X210638095Y-113376904D01*
X210638095Y-113376904D02*
X210590476Y-113281666D01*
X210590476Y-113281666D02*
X210542857Y-113234047D01*
X210542857Y-113234047D02*
X210447619Y-113186428D01*
X210447619Y-113186428D02*
X210257143Y-113138809D01*
X210257143Y-113138809D02*
X210161905Y-113091190D01*
X210161905Y-113091190D02*
X210114286Y-113043571D01*
X210114286Y-113043571D02*
X210066667Y-112948333D01*
X210066667Y-112948333D02*
X210066667Y-112853095D01*
X210066667Y-112853095D02*
X210114286Y-112757857D01*
X210114286Y-112757857D02*
X210161905Y-112710238D01*
X210161905Y-112710238D02*
X210257143Y-112662619D01*
X210257143Y-112662619D02*
X210495238Y-112662619D01*
X210495238Y-112662619D02*
X210638095Y-112710238D01*
X210971429Y-112662619D02*
X211209524Y-113662619D01*
X211209524Y-113662619D02*
X211400000Y-112948333D01*
X211400000Y-112948333D02*
X211590476Y-113662619D01*
X211590476Y-113662619D02*
X211828572Y-112662619D01*
X212114286Y-112662619D02*
X212733333Y-112662619D01*
X212733333Y-112662619D02*
X212400000Y-113043571D01*
X212400000Y-113043571D02*
X212542857Y-113043571D01*
X212542857Y-113043571D02*
X212638095Y-113091190D01*
X212638095Y-113091190D02*
X212685714Y-113138809D01*
X212685714Y-113138809D02*
X212733333Y-113234047D01*
X212733333Y-113234047D02*
X212733333Y-113472142D01*
X212733333Y-113472142D02*
X212685714Y-113567380D01*
X212685714Y-113567380D02*
X212638095Y-113615000D01*
X212638095Y-113615000D02*
X212542857Y-113662619D01*
X212542857Y-113662619D02*
X212257143Y-113662619D01*
X212257143Y-113662619D02*
X212161905Y-113615000D01*
X212161905Y-113615000D02*
X212114286Y-113567380D01*
X208288500Y-109029019D02*
X208288500Y-109267114D01*
X208050405Y-109171876D02*
X208288500Y-109267114D01*
X208288500Y-109267114D02*
X208526595Y-109171876D01*
X208145643Y-109457590D02*
X208288500Y-109267114D01*
X208288500Y-109267114D02*
X208431357Y-109457590D01*
X208288500Y-109029019D02*
X208288500Y-109267114D01*
X208050405Y-109171876D02*
X208288500Y-109267114D01*
X208288500Y-109267114D02*
X208526595Y-109171876D01*
X208145643Y-109457590D02*
X208288500Y-109267114D01*
X208288500Y-109267114D02*
X208431357Y-109457590D01*
%TO.C,C17*%
X197157142Y-97967380D02*
X197109523Y-98015000D01*
X197109523Y-98015000D02*
X196966666Y-98062619D01*
X196966666Y-98062619D02*
X196871428Y-98062619D01*
X196871428Y-98062619D02*
X196728571Y-98015000D01*
X196728571Y-98015000D02*
X196633333Y-97919761D01*
X196633333Y-97919761D02*
X196585714Y-97824523D01*
X196585714Y-97824523D02*
X196538095Y-97634047D01*
X196538095Y-97634047D02*
X196538095Y-97491190D01*
X196538095Y-97491190D02*
X196585714Y-97300714D01*
X196585714Y-97300714D02*
X196633333Y-97205476D01*
X196633333Y-97205476D02*
X196728571Y-97110238D01*
X196728571Y-97110238D02*
X196871428Y-97062619D01*
X196871428Y-97062619D02*
X196966666Y-97062619D01*
X196966666Y-97062619D02*
X197109523Y-97110238D01*
X197109523Y-97110238D02*
X197157142Y-97157857D01*
X198109523Y-98062619D02*
X197538095Y-98062619D01*
X197823809Y-98062619D02*
X197823809Y-97062619D01*
X197823809Y-97062619D02*
X197728571Y-97205476D01*
X197728571Y-97205476D02*
X197633333Y-97300714D01*
X197633333Y-97300714D02*
X197538095Y-97348333D01*
X198442857Y-97062619D02*
X199109523Y-97062619D01*
X199109523Y-97062619D02*
X198680952Y-98062619D01*
%TO.C,C26*%
X199062380Y-81836757D02*
X199110000Y-81884376D01*
X199110000Y-81884376D02*
X199157619Y-82027233D01*
X199157619Y-82027233D02*
X199157619Y-82122471D01*
X199157619Y-82122471D02*
X199110000Y-82265328D01*
X199110000Y-82265328D02*
X199014761Y-82360566D01*
X199014761Y-82360566D02*
X198919523Y-82408185D01*
X198919523Y-82408185D02*
X198729047Y-82455804D01*
X198729047Y-82455804D02*
X198586190Y-82455804D01*
X198586190Y-82455804D02*
X198395714Y-82408185D01*
X198395714Y-82408185D02*
X198300476Y-82360566D01*
X198300476Y-82360566D02*
X198205238Y-82265328D01*
X198205238Y-82265328D02*
X198157619Y-82122471D01*
X198157619Y-82122471D02*
X198157619Y-82027233D01*
X198157619Y-82027233D02*
X198205238Y-81884376D01*
X198205238Y-81884376D02*
X198252857Y-81836757D01*
X198252857Y-81455804D02*
X198205238Y-81408185D01*
X198205238Y-81408185D02*
X198157619Y-81312947D01*
X198157619Y-81312947D02*
X198157619Y-81074852D01*
X198157619Y-81074852D02*
X198205238Y-80979614D01*
X198205238Y-80979614D02*
X198252857Y-80931995D01*
X198252857Y-80931995D02*
X198348095Y-80884376D01*
X198348095Y-80884376D02*
X198443333Y-80884376D01*
X198443333Y-80884376D02*
X198586190Y-80931995D01*
X198586190Y-80931995D02*
X199157619Y-81503423D01*
X199157619Y-81503423D02*
X199157619Y-80884376D01*
X198157619Y-80027233D02*
X198157619Y-80217709D01*
X198157619Y-80217709D02*
X198205238Y-80312947D01*
X198205238Y-80312947D02*
X198252857Y-80360566D01*
X198252857Y-80360566D02*
X198395714Y-80455804D01*
X198395714Y-80455804D02*
X198586190Y-80503423D01*
X198586190Y-80503423D02*
X198967142Y-80503423D01*
X198967142Y-80503423D02*
X199062380Y-80455804D01*
X199062380Y-80455804D02*
X199110000Y-80408185D01*
X199110000Y-80408185D02*
X199157619Y-80312947D01*
X199157619Y-80312947D02*
X199157619Y-80122471D01*
X199157619Y-80122471D02*
X199110000Y-80027233D01*
X199110000Y-80027233D02*
X199062380Y-79979614D01*
X199062380Y-79979614D02*
X198967142Y-79931995D01*
X198967142Y-79931995D02*
X198729047Y-79931995D01*
X198729047Y-79931995D02*
X198633809Y-79979614D01*
X198633809Y-79979614D02*
X198586190Y-80027233D01*
X198586190Y-80027233D02*
X198538571Y-80122471D01*
X198538571Y-80122471D02*
X198538571Y-80312947D01*
X198538571Y-80312947D02*
X198586190Y-80408185D01*
X198586190Y-80408185D02*
X198633809Y-80455804D01*
X198633809Y-80455804D02*
X198729047Y-80503423D01*
%TO.C,C3*%
X188033333Y-86767380D02*
X187985714Y-86815000D01*
X187985714Y-86815000D02*
X187842857Y-86862619D01*
X187842857Y-86862619D02*
X187747619Y-86862619D01*
X187747619Y-86862619D02*
X187604762Y-86815000D01*
X187604762Y-86815000D02*
X187509524Y-86719761D01*
X187509524Y-86719761D02*
X187461905Y-86624523D01*
X187461905Y-86624523D02*
X187414286Y-86434047D01*
X187414286Y-86434047D02*
X187414286Y-86291190D01*
X187414286Y-86291190D02*
X187461905Y-86100714D01*
X187461905Y-86100714D02*
X187509524Y-86005476D01*
X187509524Y-86005476D02*
X187604762Y-85910238D01*
X187604762Y-85910238D02*
X187747619Y-85862619D01*
X187747619Y-85862619D02*
X187842857Y-85862619D01*
X187842857Y-85862619D02*
X187985714Y-85910238D01*
X187985714Y-85910238D02*
X188033333Y-85957857D01*
X188366667Y-85862619D02*
X188985714Y-85862619D01*
X188985714Y-85862619D02*
X188652381Y-86243571D01*
X188652381Y-86243571D02*
X188795238Y-86243571D01*
X188795238Y-86243571D02*
X188890476Y-86291190D01*
X188890476Y-86291190D02*
X188938095Y-86338809D01*
X188938095Y-86338809D02*
X188985714Y-86434047D01*
X188985714Y-86434047D02*
X188985714Y-86672142D01*
X188985714Y-86672142D02*
X188938095Y-86767380D01*
X188938095Y-86767380D02*
X188890476Y-86815000D01*
X188890476Y-86815000D02*
X188795238Y-86862619D01*
X188795238Y-86862619D02*
X188509524Y-86862619D01*
X188509524Y-86862619D02*
X188414286Y-86815000D01*
X188414286Y-86815000D02*
X188366667Y-86767380D01*
D14*
%TO.C,R4*%
X189745910Y-101052566D02*
X189595720Y-101157699D01*
X189745910Y-101232794D02*
X189430511Y-101232794D01*
X189430511Y-101232794D02*
X189430511Y-101112642D01*
X189430511Y-101112642D02*
X189445530Y-101082604D01*
X189445530Y-101082604D02*
X189460549Y-101067585D01*
X189460549Y-101067585D02*
X189490587Y-101052566D01*
X189490587Y-101052566D02*
X189535644Y-101052566D01*
X189535644Y-101052566D02*
X189565682Y-101067585D01*
X189565682Y-101067585D02*
X189580701Y-101082604D01*
X189580701Y-101082604D02*
X189595720Y-101112642D01*
X189595720Y-101112642D02*
X189595720Y-101232794D01*
X189535644Y-100782224D02*
X189745910Y-100782224D01*
X189415492Y-100857319D02*
X189640777Y-100932414D01*
X189640777Y-100932414D02*
X189640777Y-100737167D01*
D12*
%TO.C,C8*%
X207433333Y-92367380D02*
X207385714Y-92415000D01*
X207385714Y-92415000D02*
X207242857Y-92462619D01*
X207242857Y-92462619D02*
X207147619Y-92462619D01*
X207147619Y-92462619D02*
X207004762Y-92415000D01*
X207004762Y-92415000D02*
X206909524Y-92319761D01*
X206909524Y-92319761D02*
X206861905Y-92224523D01*
X206861905Y-92224523D02*
X206814286Y-92034047D01*
X206814286Y-92034047D02*
X206814286Y-91891190D01*
X206814286Y-91891190D02*
X206861905Y-91700714D01*
X206861905Y-91700714D02*
X206909524Y-91605476D01*
X206909524Y-91605476D02*
X207004762Y-91510238D01*
X207004762Y-91510238D02*
X207147619Y-91462619D01*
X207147619Y-91462619D02*
X207242857Y-91462619D01*
X207242857Y-91462619D02*
X207385714Y-91510238D01*
X207385714Y-91510238D02*
X207433333Y-91557857D01*
X208004762Y-91891190D02*
X207909524Y-91843571D01*
X207909524Y-91843571D02*
X207861905Y-91795952D01*
X207861905Y-91795952D02*
X207814286Y-91700714D01*
X207814286Y-91700714D02*
X207814286Y-91653095D01*
X207814286Y-91653095D02*
X207861905Y-91557857D01*
X207861905Y-91557857D02*
X207909524Y-91510238D01*
X207909524Y-91510238D02*
X208004762Y-91462619D01*
X208004762Y-91462619D02*
X208195238Y-91462619D01*
X208195238Y-91462619D02*
X208290476Y-91510238D01*
X208290476Y-91510238D02*
X208338095Y-91557857D01*
X208338095Y-91557857D02*
X208385714Y-91653095D01*
X208385714Y-91653095D02*
X208385714Y-91700714D01*
X208385714Y-91700714D02*
X208338095Y-91795952D01*
X208338095Y-91795952D02*
X208290476Y-91843571D01*
X208290476Y-91843571D02*
X208195238Y-91891190D01*
X208195238Y-91891190D02*
X208004762Y-91891190D01*
X208004762Y-91891190D02*
X207909524Y-91938809D01*
X207909524Y-91938809D02*
X207861905Y-91986428D01*
X207861905Y-91986428D02*
X207814286Y-92081666D01*
X207814286Y-92081666D02*
X207814286Y-92272142D01*
X207814286Y-92272142D02*
X207861905Y-92367380D01*
X207861905Y-92367380D02*
X207909524Y-92415000D01*
X207909524Y-92415000D02*
X208004762Y-92462619D01*
X208004762Y-92462619D02*
X208195238Y-92462619D01*
X208195238Y-92462619D02*
X208290476Y-92415000D01*
X208290476Y-92415000D02*
X208338095Y-92367380D01*
X208338095Y-92367380D02*
X208385714Y-92272142D01*
X208385714Y-92272142D02*
X208385714Y-92081666D01*
X208385714Y-92081666D02*
X208338095Y-91986428D01*
X208338095Y-91986428D02*
X208290476Y-91938809D01*
X208290476Y-91938809D02*
X208195238Y-91891190D01*
%TO.C,J10*%
X180990476Y-95662619D02*
X180990476Y-96376904D01*
X180990476Y-96376904D02*
X180942857Y-96519761D01*
X180942857Y-96519761D02*
X180847619Y-96615000D01*
X180847619Y-96615000D02*
X180704762Y-96662619D01*
X180704762Y-96662619D02*
X180609524Y-96662619D01*
X181990476Y-96662619D02*
X181419048Y-96662619D01*
X181704762Y-96662619D02*
X181704762Y-95662619D01*
X181704762Y-95662619D02*
X181609524Y-95805476D01*
X181609524Y-95805476D02*
X181514286Y-95900714D01*
X181514286Y-95900714D02*
X181419048Y-95948333D01*
X182609524Y-95662619D02*
X182704762Y-95662619D01*
X182704762Y-95662619D02*
X182800000Y-95710238D01*
X182800000Y-95710238D02*
X182847619Y-95757857D01*
X182847619Y-95757857D02*
X182895238Y-95853095D01*
X182895238Y-95853095D02*
X182942857Y-96043571D01*
X182942857Y-96043571D02*
X182942857Y-96281666D01*
X182942857Y-96281666D02*
X182895238Y-96472142D01*
X182895238Y-96472142D02*
X182847619Y-96567380D01*
X182847619Y-96567380D02*
X182800000Y-96615000D01*
X182800000Y-96615000D02*
X182704762Y-96662619D01*
X182704762Y-96662619D02*
X182609524Y-96662619D01*
X182609524Y-96662619D02*
X182514286Y-96615000D01*
X182514286Y-96615000D02*
X182466667Y-96567380D01*
X182466667Y-96567380D02*
X182419048Y-96472142D01*
X182419048Y-96472142D02*
X182371429Y-96281666D01*
X182371429Y-96281666D02*
X182371429Y-96043571D01*
X182371429Y-96043571D02*
X182419048Y-95853095D01*
X182419048Y-95853095D02*
X182466667Y-95757857D01*
X182466667Y-95757857D02*
X182514286Y-95710238D01*
X182514286Y-95710238D02*
X182609524Y-95662619D01*
D13*
%TO.C,R11*%
X223246907Y-100102133D02*
X223115673Y-99914657D01*
X223021935Y-100102133D02*
X223021935Y-99708432D01*
X223021935Y-99708432D02*
X223171916Y-99708432D01*
X223171916Y-99708432D02*
X223209412Y-99727180D01*
X223209412Y-99727180D02*
X223228159Y-99745928D01*
X223228159Y-99745928D02*
X223246907Y-99783423D01*
X223246907Y-99783423D02*
X223246907Y-99839666D01*
X223246907Y-99839666D02*
X223228159Y-99877161D01*
X223228159Y-99877161D02*
X223209412Y-99895909D01*
X223209412Y-99895909D02*
X223171916Y-99914657D01*
X223171916Y-99914657D02*
X223021935Y-99914657D01*
X223621860Y-100102133D02*
X223396888Y-100102133D01*
X223509374Y-100102133D02*
X223509374Y-99708432D01*
X223509374Y-99708432D02*
X223471879Y-99764675D01*
X223471879Y-99764675D02*
X223434384Y-99802171D01*
X223434384Y-99802171D02*
X223396888Y-99820918D01*
X223996813Y-100102133D02*
X223771841Y-100102133D01*
X223884327Y-100102133D02*
X223884327Y-99708432D01*
X223884327Y-99708432D02*
X223846832Y-99764675D01*
X223846832Y-99764675D02*
X223809337Y-99802171D01*
X223809337Y-99802171D02*
X223771841Y-99820918D01*
D12*
%TO.C,C9*%
X207767380Y-96366666D02*
X207815000Y-96414285D01*
X207815000Y-96414285D02*
X207862619Y-96557142D01*
X207862619Y-96557142D02*
X207862619Y-96652380D01*
X207862619Y-96652380D02*
X207815000Y-96795237D01*
X207815000Y-96795237D02*
X207719761Y-96890475D01*
X207719761Y-96890475D02*
X207624523Y-96938094D01*
X207624523Y-96938094D02*
X207434047Y-96985713D01*
X207434047Y-96985713D02*
X207291190Y-96985713D01*
X207291190Y-96985713D02*
X207100714Y-96938094D01*
X207100714Y-96938094D02*
X207005476Y-96890475D01*
X207005476Y-96890475D02*
X206910238Y-96795237D01*
X206910238Y-96795237D02*
X206862619Y-96652380D01*
X206862619Y-96652380D02*
X206862619Y-96557142D01*
X206862619Y-96557142D02*
X206910238Y-96414285D01*
X206910238Y-96414285D02*
X206957857Y-96366666D01*
X207862619Y-95890475D02*
X207862619Y-95699999D01*
X207862619Y-95699999D02*
X207815000Y-95604761D01*
X207815000Y-95604761D02*
X207767380Y-95557142D01*
X207767380Y-95557142D02*
X207624523Y-95461904D01*
X207624523Y-95461904D02*
X207434047Y-95414285D01*
X207434047Y-95414285D02*
X207053095Y-95414285D01*
X207053095Y-95414285D02*
X206957857Y-95461904D01*
X206957857Y-95461904D02*
X206910238Y-95509523D01*
X206910238Y-95509523D02*
X206862619Y-95604761D01*
X206862619Y-95604761D02*
X206862619Y-95795237D01*
X206862619Y-95795237D02*
X206910238Y-95890475D01*
X206910238Y-95890475D02*
X206957857Y-95938094D01*
X206957857Y-95938094D02*
X207053095Y-95985713D01*
X207053095Y-95985713D02*
X207291190Y-95985713D01*
X207291190Y-95985713D02*
X207386428Y-95938094D01*
X207386428Y-95938094D02*
X207434047Y-95890475D01*
X207434047Y-95890475D02*
X207481666Y-95795237D01*
X207481666Y-95795237D02*
X207481666Y-95604761D01*
X207481666Y-95604761D02*
X207434047Y-95509523D01*
X207434047Y-95509523D02*
X207386428Y-95461904D01*
X207386428Y-95461904D02*
X207291190Y-95414285D01*
%TO.C,J14*%
X200910476Y-78376519D02*
X200910476Y-79090804D01*
X200910476Y-79090804D02*
X200862857Y-79233661D01*
X200862857Y-79233661D02*
X200767619Y-79328900D01*
X200767619Y-79328900D02*
X200624762Y-79376519D01*
X200624762Y-79376519D02*
X200529524Y-79376519D01*
X201910476Y-79376519D02*
X201339048Y-79376519D01*
X201624762Y-79376519D02*
X201624762Y-78376519D01*
X201624762Y-78376519D02*
X201529524Y-78519376D01*
X201529524Y-78519376D02*
X201434286Y-78614614D01*
X201434286Y-78614614D02*
X201339048Y-78662233D01*
X202767619Y-78709852D02*
X202767619Y-79376519D01*
X202529524Y-78328900D02*
X202291429Y-79043185D01*
X202291429Y-79043185D02*
X202910476Y-79043185D01*
%TO.C,J4*%
X173086666Y-87892619D02*
X173086666Y-88606904D01*
X173086666Y-88606904D02*
X173039047Y-88749761D01*
X173039047Y-88749761D02*
X172943809Y-88845000D01*
X172943809Y-88845000D02*
X172800952Y-88892619D01*
X172800952Y-88892619D02*
X172705714Y-88892619D01*
X173991428Y-88225952D02*
X173991428Y-88892619D01*
X173753333Y-87845000D02*
X173515238Y-88559285D01*
X173515238Y-88559285D02*
X174134285Y-88559285D01*
%TO.C,C2*%
X182633333Y-82567380D02*
X182585714Y-82615000D01*
X182585714Y-82615000D02*
X182442857Y-82662619D01*
X182442857Y-82662619D02*
X182347619Y-82662619D01*
X182347619Y-82662619D02*
X182204762Y-82615000D01*
X182204762Y-82615000D02*
X182109524Y-82519761D01*
X182109524Y-82519761D02*
X182061905Y-82424523D01*
X182061905Y-82424523D02*
X182014286Y-82234047D01*
X182014286Y-82234047D02*
X182014286Y-82091190D01*
X182014286Y-82091190D02*
X182061905Y-81900714D01*
X182061905Y-81900714D02*
X182109524Y-81805476D01*
X182109524Y-81805476D02*
X182204762Y-81710238D01*
X182204762Y-81710238D02*
X182347619Y-81662619D01*
X182347619Y-81662619D02*
X182442857Y-81662619D01*
X182442857Y-81662619D02*
X182585714Y-81710238D01*
X182585714Y-81710238D02*
X182633333Y-81757857D01*
X183014286Y-81757857D02*
X183061905Y-81710238D01*
X183061905Y-81710238D02*
X183157143Y-81662619D01*
X183157143Y-81662619D02*
X183395238Y-81662619D01*
X183395238Y-81662619D02*
X183490476Y-81710238D01*
X183490476Y-81710238D02*
X183538095Y-81757857D01*
X183538095Y-81757857D02*
X183585714Y-81853095D01*
X183585714Y-81853095D02*
X183585714Y-81948333D01*
X183585714Y-81948333D02*
X183538095Y-82091190D01*
X183538095Y-82091190D02*
X182966667Y-82662619D01*
X182966667Y-82662619D02*
X183585714Y-82662619D01*
%TO.C,C16*%
X188967380Y-88842857D02*
X189015000Y-88890476D01*
X189015000Y-88890476D02*
X189062619Y-89033333D01*
X189062619Y-89033333D02*
X189062619Y-89128571D01*
X189062619Y-89128571D02*
X189015000Y-89271428D01*
X189015000Y-89271428D02*
X188919761Y-89366666D01*
X188919761Y-89366666D02*
X188824523Y-89414285D01*
X188824523Y-89414285D02*
X188634047Y-89461904D01*
X188634047Y-89461904D02*
X188491190Y-89461904D01*
X188491190Y-89461904D02*
X188300714Y-89414285D01*
X188300714Y-89414285D02*
X188205476Y-89366666D01*
X188205476Y-89366666D02*
X188110238Y-89271428D01*
X188110238Y-89271428D02*
X188062619Y-89128571D01*
X188062619Y-89128571D02*
X188062619Y-89033333D01*
X188062619Y-89033333D02*
X188110238Y-88890476D01*
X188110238Y-88890476D02*
X188157857Y-88842857D01*
X189062619Y-87890476D02*
X189062619Y-88461904D01*
X189062619Y-88176190D02*
X188062619Y-88176190D01*
X188062619Y-88176190D02*
X188205476Y-88271428D01*
X188205476Y-88271428D02*
X188300714Y-88366666D01*
X188300714Y-88366666D02*
X188348333Y-88461904D01*
X188062619Y-87033333D02*
X188062619Y-87223809D01*
X188062619Y-87223809D02*
X188110238Y-87319047D01*
X188110238Y-87319047D02*
X188157857Y-87366666D01*
X188157857Y-87366666D02*
X188300714Y-87461904D01*
X188300714Y-87461904D02*
X188491190Y-87509523D01*
X188491190Y-87509523D02*
X188872142Y-87509523D01*
X188872142Y-87509523D02*
X188967380Y-87461904D01*
X188967380Y-87461904D02*
X189015000Y-87414285D01*
X189015000Y-87414285D02*
X189062619Y-87319047D01*
X189062619Y-87319047D02*
X189062619Y-87128571D01*
X189062619Y-87128571D02*
X189015000Y-87033333D01*
X189015000Y-87033333D02*
X188967380Y-86985714D01*
X188967380Y-86985714D02*
X188872142Y-86938095D01*
X188872142Y-86938095D02*
X188634047Y-86938095D01*
X188634047Y-86938095D02*
X188538809Y-86985714D01*
X188538809Y-86985714D02*
X188491190Y-87033333D01*
X188491190Y-87033333D02*
X188443571Y-87128571D01*
X188443571Y-87128571D02*
X188443571Y-87319047D01*
X188443571Y-87319047D02*
X188491190Y-87414285D01*
X188491190Y-87414285D02*
X188538809Y-87461904D01*
X188538809Y-87461904D02*
X188634047Y-87509523D01*
D16*
%TO.C,R1*%
X192546964Y-85525000D02*
X192189821Y-85775000D01*
X192546964Y-85953571D02*
X191796964Y-85953571D01*
X191796964Y-85953571D02*
X191796964Y-85667857D01*
X191796964Y-85667857D02*
X191832678Y-85596428D01*
X191832678Y-85596428D02*
X191868392Y-85560714D01*
X191868392Y-85560714D02*
X191939821Y-85525000D01*
X191939821Y-85525000D02*
X192046964Y-85525000D01*
X192046964Y-85525000D02*
X192118392Y-85560714D01*
X192118392Y-85560714D02*
X192154107Y-85596428D01*
X192154107Y-85596428D02*
X192189821Y-85667857D01*
X192189821Y-85667857D02*
X192189821Y-85953571D01*
X192546964Y-84810714D02*
X192546964Y-85239285D01*
X192546964Y-85025000D02*
X191796964Y-85025000D01*
X191796964Y-85025000D02*
X191904107Y-85096428D01*
X191904107Y-85096428D02*
X191975535Y-85167857D01*
X191975535Y-85167857D02*
X192011250Y-85239285D01*
D12*
%TO.C,C15*%
X195167380Y-101842857D02*
X195215000Y-101890476D01*
X195215000Y-101890476D02*
X195262619Y-102033333D01*
X195262619Y-102033333D02*
X195262619Y-102128571D01*
X195262619Y-102128571D02*
X195215000Y-102271428D01*
X195215000Y-102271428D02*
X195119761Y-102366666D01*
X195119761Y-102366666D02*
X195024523Y-102414285D01*
X195024523Y-102414285D02*
X194834047Y-102461904D01*
X194834047Y-102461904D02*
X194691190Y-102461904D01*
X194691190Y-102461904D02*
X194500714Y-102414285D01*
X194500714Y-102414285D02*
X194405476Y-102366666D01*
X194405476Y-102366666D02*
X194310238Y-102271428D01*
X194310238Y-102271428D02*
X194262619Y-102128571D01*
X194262619Y-102128571D02*
X194262619Y-102033333D01*
X194262619Y-102033333D02*
X194310238Y-101890476D01*
X194310238Y-101890476D02*
X194357857Y-101842857D01*
X195262619Y-100890476D02*
X195262619Y-101461904D01*
X195262619Y-101176190D02*
X194262619Y-101176190D01*
X194262619Y-101176190D02*
X194405476Y-101271428D01*
X194405476Y-101271428D02*
X194500714Y-101366666D01*
X194500714Y-101366666D02*
X194548333Y-101461904D01*
X194262619Y-99985714D02*
X194262619Y-100461904D01*
X194262619Y-100461904D02*
X194738809Y-100509523D01*
X194738809Y-100509523D02*
X194691190Y-100461904D01*
X194691190Y-100461904D02*
X194643571Y-100366666D01*
X194643571Y-100366666D02*
X194643571Y-100128571D01*
X194643571Y-100128571D02*
X194691190Y-100033333D01*
X194691190Y-100033333D02*
X194738809Y-99985714D01*
X194738809Y-99985714D02*
X194834047Y-99938095D01*
X194834047Y-99938095D02*
X195072142Y-99938095D01*
X195072142Y-99938095D02*
X195167380Y-99985714D01*
X195167380Y-99985714D02*
X195215000Y-100033333D01*
X195215000Y-100033333D02*
X195262619Y-100128571D01*
X195262619Y-100128571D02*
X195262619Y-100366666D01*
X195262619Y-100366666D02*
X195215000Y-100461904D01*
X195215000Y-100461904D02*
X195167380Y-100509523D01*
%TO.C,U2*%
X179750101Y-77829733D02*
X179750101Y-78877251D01*
X179750101Y-78877251D02*
X179811720Y-79000488D01*
X179811720Y-79000488D02*
X179873338Y-79062107D01*
X179873338Y-79062107D02*
X179996576Y-79123725D01*
X179996576Y-79123725D02*
X180243050Y-79123725D01*
X180243050Y-79123725D02*
X180366288Y-79062107D01*
X180366288Y-79062107D02*
X180427906Y-79000488D01*
X180427906Y-79000488D02*
X180489525Y-78877251D01*
X180489525Y-78877251D02*
X180489525Y-77829733D01*
X181044093Y-77952971D02*
X181105712Y-77891352D01*
X181105712Y-77891352D02*
X181228949Y-77829733D01*
X181228949Y-77829733D02*
X181537043Y-77829733D01*
X181537043Y-77829733D02*
X181660280Y-77891352D01*
X181660280Y-77891352D02*
X181721899Y-77952971D01*
X181721899Y-77952971D02*
X181783517Y-78076208D01*
X181783517Y-78076208D02*
X181783517Y-78199445D01*
X181783517Y-78199445D02*
X181721899Y-78384301D01*
X181721899Y-78384301D02*
X180982475Y-79123725D01*
X180982475Y-79123725D02*
X181783517Y-79123725D01*
%TO.C,C6*%
X219367380Y-106966666D02*
X219415000Y-107014285D01*
X219415000Y-107014285D02*
X219462619Y-107157142D01*
X219462619Y-107157142D02*
X219462619Y-107252380D01*
X219462619Y-107252380D02*
X219415000Y-107395237D01*
X219415000Y-107395237D02*
X219319761Y-107490475D01*
X219319761Y-107490475D02*
X219224523Y-107538094D01*
X219224523Y-107538094D02*
X219034047Y-107585713D01*
X219034047Y-107585713D02*
X218891190Y-107585713D01*
X218891190Y-107585713D02*
X218700714Y-107538094D01*
X218700714Y-107538094D02*
X218605476Y-107490475D01*
X218605476Y-107490475D02*
X218510238Y-107395237D01*
X218510238Y-107395237D02*
X218462619Y-107252380D01*
X218462619Y-107252380D02*
X218462619Y-107157142D01*
X218462619Y-107157142D02*
X218510238Y-107014285D01*
X218510238Y-107014285D02*
X218557857Y-106966666D01*
X218462619Y-106109523D02*
X218462619Y-106299999D01*
X218462619Y-106299999D02*
X218510238Y-106395237D01*
X218510238Y-106395237D02*
X218557857Y-106442856D01*
X218557857Y-106442856D02*
X218700714Y-106538094D01*
X218700714Y-106538094D02*
X218891190Y-106585713D01*
X218891190Y-106585713D02*
X219272142Y-106585713D01*
X219272142Y-106585713D02*
X219367380Y-106538094D01*
X219367380Y-106538094D02*
X219415000Y-106490475D01*
X219415000Y-106490475D02*
X219462619Y-106395237D01*
X219462619Y-106395237D02*
X219462619Y-106204761D01*
X219462619Y-106204761D02*
X219415000Y-106109523D01*
X219415000Y-106109523D02*
X219367380Y-106061904D01*
X219367380Y-106061904D02*
X219272142Y-106014285D01*
X219272142Y-106014285D02*
X219034047Y-106014285D01*
X219034047Y-106014285D02*
X218938809Y-106061904D01*
X218938809Y-106061904D02*
X218891190Y-106109523D01*
X218891190Y-106109523D02*
X218843571Y-106204761D01*
X218843571Y-106204761D02*
X218843571Y-106395237D01*
X218843571Y-106395237D02*
X218891190Y-106490475D01*
X218891190Y-106490475D02*
X218938809Y-106538094D01*
X218938809Y-106538094D02*
X219034047Y-106585713D01*
%TO.C,SW1*%
X172866667Y-71615000D02*
X173009524Y-71662619D01*
X173009524Y-71662619D02*
X173247619Y-71662619D01*
X173247619Y-71662619D02*
X173342857Y-71615000D01*
X173342857Y-71615000D02*
X173390476Y-71567380D01*
X173390476Y-71567380D02*
X173438095Y-71472142D01*
X173438095Y-71472142D02*
X173438095Y-71376904D01*
X173438095Y-71376904D02*
X173390476Y-71281666D01*
X173390476Y-71281666D02*
X173342857Y-71234047D01*
X173342857Y-71234047D02*
X173247619Y-71186428D01*
X173247619Y-71186428D02*
X173057143Y-71138809D01*
X173057143Y-71138809D02*
X172961905Y-71091190D01*
X172961905Y-71091190D02*
X172914286Y-71043571D01*
X172914286Y-71043571D02*
X172866667Y-70948333D01*
X172866667Y-70948333D02*
X172866667Y-70853095D01*
X172866667Y-70853095D02*
X172914286Y-70757857D01*
X172914286Y-70757857D02*
X172961905Y-70710238D01*
X172961905Y-70710238D02*
X173057143Y-70662619D01*
X173057143Y-70662619D02*
X173295238Y-70662619D01*
X173295238Y-70662619D02*
X173438095Y-70710238D01*
X173771429Y-70662619D02*
X174009524Y-71662619D01*
X174009524Y-71662619D02*
X174200000Y-70948333D01*
X174200000Y-70948333D02*
X174390476Y-71662619D01*
X174390476Y-71662619D02*
X174628572Y-70662619D01*
X175533333Y-71662619D02*
X174961905Y-71662619D01*
X175247619Y-71662619D02*
X175247619Y-70662619D01*
X175247619Y-70662619D02*
X175152381Y-70805476D01*
X175152381Y-70805476D02*
X175057143Y-70900714D01*
X175057143Y-70900714D02*
X174961905Y-70948333D01*
X171088500Y-67029019D02*
X171088500Y-67267114D01*
X170850405Y-67171876D02*
X171088500Y-67267114D01*
X171088500Y-67267114D02*
X171326595Y-67171876D01*
X170945643Y-67457590D02*
X171088500Y-67267114D01*
X171088500Y-67267114D02*
X171231357Y-67457590D01*
%TO.C,J2*%
X178866666Y-71662619D02*
X178866666Y-72376904D01*
X178866666Y-72376904D02*
X178819047Y-72519761D01*
X178819047Y-72519761D02*
X178723809Y-72615000D01*
X178723809Y-72615000D02*
X178580952Y-72662619D01*
X178580952Y-72662619D02*
X178485714Y-72662619D01*
X179295238Y-71757857D02*
X179342857Y-71710238D01*
X179342857Y-71710238D02*
X179438095Y-71662619D01*
X179438095Y-71662619D02*
X179676190Y-71662619D01*
X179676190Y-71662619D02*
X179771428Y-71710238D01*
X179771428Y-71710238D02*
X179819047Y-71757857D01*
X179819047Y-71757857D02*
X179866666Y-71853095D01*
X179866666Y-71853095D02*
X179866666Y-71948333D01*
X179866666Y-71948333D02*
X179819047Y-72091190D01*
X179819047Y-72091190D02*
X179247619Y-72662619D01*
X179247619Y-72662619D02*
X179866666Y-72662619D01*
%TO.C,J3*%
X200862619Y-104933333D02*
X201576904Y-104933333D01*
X201576904Y-104933333D02*
X201719761Y-104980952D01*
X201719761Y-104980952D02*
X201815000Y-105076190D01*
X201815000Y-105076190D02*
X201862619Y-105219047D01*
X201862619Y-105219047D02*
X201862619Y-105314285D01*
X200862619Y-104552380D02*
X200862619Y-103933333D01*
X200862619Y-103933333D02*
X201243571Y-104266666D01*
X201243571Y-104266666D02*
X201243571Y-104123809D01*
X201243571Y-104123809D02*
X201291190Y-104028571D01*
X201291190Y-104028571D02*
X201338809Y-103980952D01*
X201338809Y-103980952D02*
X201434047Y-103933333D01*
X201434047Y-103933333D02*
X201672142Y-103933333D01*
X201672142Y-103933333D02*
X201767380Y-103980952D01*
X201767380Y-103980952D02*
X201815000Y-104028571D01*
X201815000Y-104028571D02*
X201862619Y-104123809D01*
X201862619Y-104123809D02*
X201862619Y-104409523D01*
X201862619Y-104409523D02*
X201815000Y-104504761D01*
X201815000Y-104504761D02*
X201767380Y-104552380D01*
D17*
%TO.C,R10*%
X204659701Y-116238069D02*
X204509516Y-116343198D01*
X204659701Y-116418291D02*
X204344312Y-116418291D01*
X204344312Y-116418291D02*
X204344312Y-116298143D01*
X204344312Y-116298143D02*
X204359331Y-116268106D01*
X204359331Y-116268106D02*
X204374349Y-116253087D01*
X204374349Y-116253087D02*
X204404386Y-116238069D01*
X204404386Y-116238069D02*
X204449442Y-116238069D01*
X204449442Y-116238069D02*
X204479479Y-116253087D01*
X204479479Y-116253087D02*
X204494497Y-116268106D01*
X204494497Y-116268106D02*
X204509516Y-116298143D01*
X204509516Y-116298143D02*
X204509516Y-116418291D01*
X204659701Y-115937698D02*
X204659701Y-116117920D01*
X204659701Y-116027809D02*
X204344312Y-116027809D01*
X204344312Y-116027809D02*
X204389368Y-116057846D01*
X204389368Y-116057846D02*
X204419405Y-116087883D01*
X204419405Y-116087883D02*
X204434423Y-116117920D01*
X204344312Y-115742458D02*
X204344312Y-115712421D01*
X204344312Y-115712421D02*
X204359331Y-115682384D01*
X204359331Y-115682384D02*
X204374349Y-115667365D01*
X204374349Y-115667365D02*
X204404386Y-115652347D01*
X204404386Y-115652347D02*
X204464460Y-115637328D01*
X204464460Y-115637328D02*
X204539553Y-115637328D01*
X204539553Y-115637328D02*
X204599627Y-115652347D01*
X204599627Y-115652347D02*
X204629664Y-115667365D01*
X204629664Y-115667365D02*
X204644683Y-115682384D01*
X204644683Y-115682384D02*
X204659701Y-115712421D01*
X204659701Y-115712421D02*
X204659701Y-115742458D01*
X204659701Y-115742458D02*
X204644683Y-115772495D01*
X204644683Y-115772495D02*
X204629664Y-115787513D01*
X204629664Y-115787513D02*
X204599627Y-115802532D01*
X204599627Y-115802532D02*
X204539553Y-115817550D01*
X204539553Y-115817550D02*
X204464460Y-115817550D01*
X204464460Y-115817550D02*
X204404386Y-115802532D01*
X204404386Y-115802532D02*
X204374349Y-115787513D01*
X204374349Y-115787513D02*
X204359331Y-115772495D01*
X204359331Y-115772495D02*
X204344312Y-115742458D01*
D12*
%TO.C,C21*%
X199157142Y-91167380D02*
X199109523Y-91215000D01*
X199109523Y-91215000D02*
X198966666Y-91262619D01*
X198966666Y-91262619D02*
X198871428Y-91262619D01*
X198871428Y-91262619D02*
X198728571Y-91215000D01*
X198728571Y-91215000D02*
X198633333Y-91119761D01*
X198633333Y-91119761D02*
X198585714Y-91024523D01*
X198585714Y-91024523D02*
X198538095Y-90834047D01*
X198538095Y-90834047D02*
X198538095Y-90691190D01*
X198538095Y-90691190D02*
X198585714Y-90500714D01*
X198585714Y-90500714D02*
X198633333Y-90405476D01*
X198633333Y-90405476D02*
X198728571Y-90310238D01*
X198728571Y-90310238D02*
X198871428Y-90262619D01*
X198871428Y-90262619D02*
X198966666Y-90262619D01*
X198966666Y-90262619D02*
X199109523Y-90310238D01*
X199109523Y-90310238D02*
X199157142Y-90357857D01*
X199538095Y-90357857D02*
X199585714Y-90310238D01*
X199585714Y-90310238D02*
X199680952Y-90262619D01*
X199680952Y-90262619D02*
X199919047Y-90262619D01*
X199919047Y-90262619D02*
X200014285Y-90310238D01*
X200014285Y-90310238D02*
X200061904Y-90357857D01*
X200061904Y-90357857D02*
X200109523Y-90453095D01*
X200109523Y-90453095D02*
X200109523Y-90548333D01*
X200109523Y-90548333D02*
X200061904Y-90691190D01*
X200061904Y-90691190D02*
X199490476Y-91262619D01*
X199490476Y-91262619D02*
X200109523Y-91262619D01*
X201061904Y-91262619D02*
X200490476Y-91262619D01*
X200776190Y-91262619D02*
X200776190Y-90262619D01*
X200776190Y-90262619D02*
X200680952Y-90405476D01*
X200680952Y-90405476D02*
X200585714Y-90500714D01*
X200585714Y-90500714D02*
X200490476Y-90548333D01*
%TO.C,SW5*%
X222924167Y-89515000D02*
X223067024Y-89562619D01*
X223067024Y-89562619D02*
X223305119Y-89562619D01*
X223305119Y-89562619D02*
X223400357Y-89515000D01*
X223400357Y-89515000D02*
X223447976Y-89467380D01*
X223447976Y-89467380D02*
X223495595Y-89372142D01*
X223495595Y-89372142D02*
X223495595Y-89276904D01*
X223495595Y-89276904D02*
X223447976Y-89181666D01*
X223447976Y-89181666D02*
X223400357Y-89134047D01*
X223400357Y-89134047D02*
X223305119Y-89086428D01*
X223305119Y-89086428D02*
X223114643Y-89038809D01*
X223114643Y-89038809D02*
X223019405Y-88991190D01*
X223019405Y-88991190D02*
X222971786Y-88943571D01*
X222971786Y-88943571D02*
X222924167Y-88848333D01*
X222924167Y-88848333D02*
X222924167Y-88753095D01*
X222924167Y-88753095D02*
X222971786Y-88657857D01*
X222971786Y-88657857D02*
X223019405Y-88610238D01*
X223019405Y-88610238D02*
X223114643Y-88562619D01*
X223114643Y-88562619D02*
X223352738Y-88562619D01*
X223352738Y-88562619D02*
X223495595Y-88610238D01*
X223828929Y-88562619D02*
X224067024Y-89562619D01*
X224067024Y-89562619D02*
X224257500Y-88848333D01*
X224257500Y-88848333D02*
X224447976Y-89562619D01*
X224447976Y-89562619D02*
X224686072Y-88562619D01*
X225543214Y-88562619D02*
X225067024Y-88562619D01*
X225067024Y-88562619D02*
X225019405Y-89038809D01*
X225019405Y-89038809D02*
X225067024Y-88991190D01*
X225067024Y-88991190D02*
X225162262Y-88943571D01*
X225162262Y-88943571D02*
X225400357Y-88943571D01*
X225400357Y-88943571D02*
X225495595Y-88991190D01*
X225495595Y-88991190D02*
X225543214Y-89038809D01*
X225543214Y-89038809D02*
X225590833Y-89134047D01*
X225590833Y-89134047D02*
X225590833Y-89372142D01*
X225590833Y-89372142D02*
X225543214Y-89467380D01*
X225543214Y-89467380D02*
X225495595Y-89515000D01*
X225495595Y-89515000D02*
X225400357Y-89562619D01*
X225400357Y-89562619D02*
X225162262Y-89562619D01*
X225162262Y-89562619D02*
X225067024Y-89515000D01*
X225067024Y-89515000D02*
X225019405Y-89467380D01*
X221146000Y-84929019D02*
X221146000Y-85167114D01*
X220907905Y-85071876D02*
X221146000Y-85167114D01*
X221146000Y-85167114D02*
X221384095Y-85071876D01*
X221003143Y-85357590D02*
X221146000Y-85167114D01*
X221146000Y-85167114D02*
X221288857Y-85357590D01*
X221146000Y-84929019D02*
X221146000Y-85167114D01*
X220907905Y-85071876D02*
X221146000Y-85167114D01*
X221146000Y-85167114D02*
X221384095Y-85071876D01*
X221003143Y-85357590D02*
X221146000Y-85167114D01*
X221146000Y-85167114D02*
X221288857Y-85357590D01*
%TO.C,C20*%
X191367380Y-85242857D02*
X191415000Y-85290476D01*
X191415000Y-85290476D02*
X191462619Y-85433333D01*
X191462619Y-85433333D02*
X191462619Y-85528571D01*
X191462619Y-85528571D02*
X191415000Y-85671428D01*
X191415000Y-85671428D02*
X191319761Y-85766666D01*
X191319761Y-85766666D02*
X191224523Y-85814285D01*
X191224523Y-85814285D02*
X191034047Y-85861904D01*
X191034047Y-85861904D02*
X190891190Y-85861904D01*
X190891190Y-85861904D02*
X190700714Y-85814285D01*
X190700714Y-85814285D02*
X190605476Y-85766666D01*
X190605476Y-85766666D02*
X190510238Y-85671428D01*
X190510238Y-85671428D02*
X190462619Y-85528571D01*
X190462619Y-85528571D02*
X190462619Y-85433333D01*
X190462619Y-85433333D02*
X190510238Y-85290476D01*
X190510238Y-85290476D02*
X190557857Y-85242857D01*
X190557857Y-84861904D02*
X190510238Y-84814285D01*
X190510238Y-84814285D02*
X190462619Y-84719047D01*
X190462619Y-84719047D02*
X190462619Y-84480952D01*
X190462619Y-84480952D02*
X190510238Y-84385714D01*
X190510238Y-84385714D02*
X190557857Y-84338095D01*
X190557857Y-84338095D02*
X190653095Y-84290476D01*
X190653095Y-84290476D02*
X190748333Y-84290476D01*
X190748333Y-84290476D02*
X190891190Y-84338095D01*
X190891190Y-84338095D02*
X191462619Y-84909523D01*
X191462619Y-84909523D02*
X191462619Y-84290476D01*
X190462619Y-83671428D02*
X190462619Y-83576190D01*
X190462619Y-83576190D02*
X190510238Y-83480952D01*
X190510238Y-83480952D02*
X190557857Y-83433333D01*
X190557857Y-83433333D02*
X190653095Y-83385714D01*
X190653095Y-83385714D02*
X190843571Y-83338095D01*
X190843571Y-83338095D02*
X191081666Y-83338095D01*
X191081666Y-83338095D02*
X191272142Y-83385714D01*
X191272142Y-83385714D02*
X191367380Y-83433333D01*
X191367380Y-83433333D02*
X191415000Y-83480952D01*
X191415000Y-83480952D02*
X191462619Y-83576190D01*
X191462619Y-83576190D02*
X191462619Y-83671428D01*
X191462619Y-83671428D02*
X191415000Y-83766666D01*
X191415000Y-83766666D02*
X191367380Y-83814285D01*
X191367380Y-83814285D02*
X191272142Y-83861904D01*
X191272142Y-83861904D02*
X191081666Y-83909523D01*
X191081666Y-83909523D02*
X190843571Y-83909523D01*
X190843571Y-83909523D02*
X190653095Y-83861904D01*
X190653095Y-83861904D02*
X190557857Y-83814285D01*
X190557857Y-83814285D02*
X190510238Y-83766666D01*
X190510238Y-83766666D02*
X190462619Y-83671428D01*
%TO.C,C18*%
X183757142Y-90767380D02*
X183709523Y-90815000D01*
X183709523Y-90815000D02*
X183566666Y-90862619D01*
X183566666Y-90862619D02*
X183471428Y-90862619D01*
X183471428Y-90862619D02*
X183328571Y-90815000D01*
X183328571Y-90815000D02*
X183233333Y-90719761D01*
X183233333Y-90719761D02*
X183185714Y-90624523D01*
X183185714Y-90624523D02*
X183138095Y-90434047D01*
X183138095Y-90434047D02*
X183138095Y-90291190D01*
X183138095Y-90291190D02*
X183185714Y-90100714D01*
X183185714Y-90100714D02*
X183233333Y-90005476D01*
X183233333Y-90005476D02*
X183328571Y-89910238D01*
X183328571Y-89910238D02*
X183471428Y-89862619D01*
X183471428Y-89862619D02*
X183566666Y-89862619D01*
X183566666Y-89862619D02*
X183709523Y-89910238D01*
X183709523Y-89910238D02*
X183757142Y-89957857D01*
X184709523Y-90862619D02*
X184138095Y-90862619D01*
X184423809Y-90862619D02*
X184423809Y-89862619D01*
X184423809Y-89862619D02*
X184328571Y-90005476D01*
X184328571Y-90005476D02*
X184233333Y-90100714D01*
X184233333Y-90100714D02*
X184138095Y-90148333D01*
X185280952Y-90291190D02*
X185185714Y-90243571D01*
X185185714Y-90243571D02*
X185138095Y-90195952D01*
X185138095Y-90195952D02*
X185090476Y-90100714D01*
X185090476Y-90100714D02*
X185090476Y-90053095D01*
X185090476Y-90053095D02*
X185138095Y-89957857D01*
X185138095Y-89957857D02*
X185185714Y-89910238D01*
X185185714Y-89910238D02*
X185280952Y-89862619D01*
X185280952Y-89862619D02*
X185471428Y-89862619D01*
X185471428Y-89862619D02*
X185566666Y-89910238D01*
X185566666Y-89910238D02*
X185614285Y-89957857D01*
X185614285Y-89957857D02*
X185661904Y-90053095D01*
X185661904Y-90053095D02*
X185661904Y-90100714D01*
X185661904Y-90100714D02*
X185614285Y-90195952D01*
X185614285Y-90195952D02*
X185566666Y-90243571D01*
X185566666Y-90243571D02*
X185471428Y-90291190D01*
X185471428Y-90291190D02*
X185280952Y-90291190D01*
X185280952Y-90291190D02*
X185185714Y-90338809D01*
X185185714Y-90338809D02*
X185138095Y-90386428D01*
X185138095Y-90386428D02*
X185090476Y-90481666D01*
X185090476Y-90481666D02*
X185090476Y-90672142D01*
X185090476Y-90672142D02*
X185138095Y-90767380D01*
X185138095Y-90767380D02*
X185185714Y-90815000D01*
X185185714Y-90815000D02*
X185280952Y-90862619D01*
X185280952Y-90862619D02*
X185471428Y-90862619D01*
X185471428Y-90862619D02*
X185566666Y-90815000D01*
X185566666Y-90815000D02*
X185614285Y-90767380D01*
X185614285Y-90767380D02*
X185661904Y-90672142D01*
X185661904Y-90672142D02*
X185661904Y-90481666D01*
X185661904Y-90481666D02*
X185614285Y-90386428D01*
X185614285Y-90386428D02*
X185566666Y-90338809D01*
X185566666Y-90338809D02*
X185471428Y-90291190D01*
D18*
%TO.C,C23*%
X192383690Y-103121428D02*
X192407500Y-103145237D01*
X192407500Y-103145237D02*
X192431309Y-103216666D01*
X192431309Y-103216666D02*
X192431309Y-103264285D01*
X192431309Y-103264285D02*
X192407500Y-103335713D01*
X192407500Y-103335713D02*
X192359880Y-103383332D01*
X192359880Y-103383332D02*
X192312261Y-103407142D01*
X192312261Y-103407142D02*
X192217023Y-103430951D01*
X192217023Y-103430951D02*
X192145595Y-103430951D01*
X192145595Y-103430951D02*
X192050357Y-103407142D01*
X192050357Y-103407142D02*
X192002738Y-103383332D01*
X192002738Y-103383332D02*
X191955119Y-103335713D01*
X191955119Y-103335713D02*
X191931309Y-103264285D01*
X191931309Y-103264285D02*
X191931309Y-103216666D01*
X191931309Y-103216666D02*
X191955119Y-103145237D01*
X191955119Y-103145237D02*
X191978928Y-103121428D01*
X191978928Y-102930951D02*
X191955119Y-102907142D01*
X191955119Y-102907142D02*
X191931309Y-102859523D01*
X191931309Y-102859523D02*
X191931309Y-102740475D01*
X191931309Y-102740475D02*
X191955119Y-102692856D01*
X191955119Y-102692856D02*
X191978928Y-102669047D01*
X191978928Y-102669047D02*
X192026547Y-102645237D01*
X192026547Y-102645237D02*
X192074166Y-102645237D01*
X192074166Y-102645237D02*
X192145595Y-102669047D01*
X192145595Y-102669047D02*
X192431309Y-102954761D01*
X192431309Y-102954761D02*
X192431309Y-102645237D01*
X191931309Y-102478571D02*
X191931309Y-102169047D01*
X191931309Y-102169047D02*
X192121785Y-102335714D01*
X192121785Y-102335714D02*
X192121785Y-102264285D01*
X192121785Y-102264285D02*
X192145595Y-102216666D01*
X192145595Y-102216666D02*
X192169404Y-102192857D01*
X192169404Y-102192857D02*
X192217023Y-102169047D01*
X192217023Y-102169047D02*
X192336071Y-102169047D01*
X192336071Y-102169047D02*
X192383690Y-102192857D01*
X192383690Y-102192857D02*
X192407500Y-102216666D01*
X192407500Y-102216666D02*
X192431309Y-102264285D01*
X192431309Y-102264285D02*
X192431309Y-102407142D01*
X192431309Y-102407142D02*
X192407500Y-102454761D01*
X192407500Y-102454761D02*
X192383690Y-102478571D01*
D12*
%TO.C,J17*%
X214685476Y-78486519D02*
X214685476Y-79200804D01*
X214685476Y-79200804D02*
X214637857Y-79343661D01*
X214637857Y-79343661D02*
X214542619Y-79438900D01*
X214542619Y-79438900D02*
X214399762Y-79486519D01*
X214399762Y-79486519D02*
X214304524Y-79486519D01*
X215685476Y-79486519D02*
X215114048Y-79486519D01*
X215399762Y-79486519D02*
X215399762Y-78486519D01*
X215399762Y-78486519D02*
X215304524Y-78629376D01*
X215304524Y-78629376D02*
X215209286Y-78724614D01*
X215209286Y-78724614D02*
X215114048Y-78772233D01*
X216018810Y-78486519D02*
X216685476Y-78486519D01*
X216685476Y-78486519D02*
X216256905Y-79486519D01*
%TO.C,U5*%
X181638095Y-86062619D02*
X181638095Y-86872142D01*
X181638095Y-86872142D02*
X181685714Y-86967380D01*
X181685714Y-86967380D02*
X181733333Y-87015000D01*
X181733333Y-87015000D02*
X181828571Y-87062619D01*
X181828571Y-87062619D02*
X182019047Y-87062619D01*
X182019047Y-87062619D02*
X182114285Y-87015000D01*
X182114285Y-87015000D02*
X182161904Y-86967380D01*
X182161904Y-86967380D02*
X182209523Y-86872142D01*
X182209523Y-86872142D02*
X182209523Y-86062619D01*
X183161904Y-86062619D02*
X182685714Y-86062619D01*
X182685714Y-86062619D02*
X182638095Y-86538809D01*
X182638095Y-86538809D02*
X182685714Y-86491190D01*
X182685714Y-86491190D02*
X182780952Y-86443571D01*
X182780952Y-86443571D02*
X183019047Y-86443571D01*
X183019047Y-86443571D02*
X183114285Y-86491190D01*
X183114285Y-86491190D02*
X183161904Y-86538809D01*
X183161904Y-86538809D02*
X183209523Y-86634047D01*
X183209523Y-86634047D02*
X183209523Y-86872142D01*
X183209523Y-86872142D02*
X183161904Y-86967380D01*
X183161904Y-86967380D02*
X183114285Y-87015000D01*
X183114285Y-87015000D02*
X183019047Y-87062619D01*
X183019047Y-87062619D02*
X182780952Y-87062619D01*
X182780952Y-87062619D02*
X182685714Y-87015000D01*
X182685714Y-87015000D02*
X182638095Y-86967380D01*
X178501100Y-82481219D02*
X178501100Y-82719314D01*
X178263005Y-82624076D02*
X178501100Y-82719314D01*
X178501100Y-82719314D02*
X178739195Y-82624076D01*
X178358243Y-82909790D02*
X178501100Y-82719314D01*
X178501100Y-82719314D02*
X178643957Y-82909790D01*
X178501100Y-82481219D02*
X178501100Y-82719314D01*
X178263005Y-82624076D02*
X178501100Y-82719314D01*
X178501100Y-82719314D02*
X178739195Y-82624076D01*
X178358243Y-82909790D02*
X178501100Y-82719314D01*
X178501100Y-82719314D02*
X178643957Y-82909790D01*
D14*
%TO.C,R9*%
X202659678Y-116087894D02*
X202509488Y-116193027D01*
X202659678Y-116268122D02*
X202344279Y-116268122D01*
X202344279Y-116268122D02*
X202344279Y-116147970D01*
X202344279Y-116147970D02*
X202359298Y-116117932D01*
X202359298Y-116117932D02*
X202374317Y-116102913D01*
X202374317Y-116102913D02*
X202404355Y-116087894D01*
X202404355Y-116087894D02*
X202449412Y-116087894D01*
X202449412Y-116087894D02*
X202479450Y-116102913D01*
X202479450Y-116102913D02*
X202494469Y-116117932D01*
X202494469Y-116117932D02*
X202509488Y-116147970D01*
X202509488Y-116147970D02*
X202509488Y-116268122D01*
X202659678Y-115937704D02*
X202659678Y-115877628D01*
X202659678Y-115877628D02*
X202644659Y-115847590D01*
X202644659Y-115847590D02*
X202629640Y-115832571D01*
X202629640Y-115832571D02*
X202584583Y-115802533D01*
X202584583Y-115802533D02*
X202524507Y-115787514D01*
X202524507Y-115787514D02*
X202404355Y-115787514D01*
X202404355Y-115787514D02*
X202374317Y-115802533D01*
X202374317Y-115802533D02*
X202359298Y-115817552D01*
X202359298Y-115817552D02*
X202344279Y-115847590D01*
X202344279Y-115847590D02*
X202344279Y-115907666D01*
X202344279Y-115907666D02*
X202359298Y-115937704D01*
X202359298Y-115937704D02*
X202374317Y-115952723D01*
X202374317Y-115952723D02*
X202404355Y-115967742D01*
X202404355Y-115967742D02*
X202479450Y-115967742D01*
X202479450Y-115967742D02*
X202509488Y-115952723D01*
X202509488Y-115952723D02*
X202524507Y-115937704D01*
X202524507Y-115937704D02*
X202539526Y-115907666D01*
X202539526Y-115907666D02*
X202539526Y-115847590D01*
X202539526Y-115847590D02*
X202524507Y-115817552D01*
X202524507Y-115817552D02*
X202509488Y-115802533D01*
X202509488Y-115802533D02*
X202479450Y-115787514D01*
D12*
%TO.C,J16*%
X210085476Y-78486519D02*
X210085476Y-79200804D01*
X210085476Y-79200804D02*
X210037857Y-79343661D01*
X210037857Y-79343661D02*
X209942619Y-79438900D01*
X209942619Y-79438900D02*
X209799762Y-79486519D01*
X209799762Y-79486519D02*
X209704524Y-79486519D01*
X211085476Y-79486519D02*
X210514048Y-79486519D01*
X210799762Y-79486519D02*
X210799762Y-78486519D01*
X210799762Y-78486519D02*
X210704524Y-78629376D01*
X210704524Y-78629376D02*
X210609286Y-78724614D01*
X210609286Y-78724614D02*
X210514048Y-78772233D01*
X211942619Y-78486519D02*
X211752143Y-78486519D01*
X211752143Y-78486519D02*
X211656905Y-78534138D01*
X211656905Y-78534138D02*
X211609286Y-78581757D01*
X211609286Y-78581757D02*
X211514048Y-78724614D01*
X211514048Y-78724614D02*
X211466429Y-78915090D01*
X211466429Y-78915090D02*
X211466429Y-79296042D01*
X211466429Y-79296042D02*
X211514048Y-79391280D01*
X211514048Y-79391280D02*
X211561667Y-79438900D01*
X211561667Y-79438900D02*
X211656905Y-79486519D01*
X211656905Y-79486519D02*
X211847381Y-79486519D01*
X211847381Y-79486519D02*
X211942619Y-79438900D01*
X211942619Y-79438900D02*
X211990238Y-79391280D01*
X211990238Y-79391280D02*
X212037857Y-79296042D01*
X212037857Y-79296042D02*
X212037857Y-79057947D01*
X212037857Y-79057947D02*
X211990238Y-78962709D01*
X211990238Y-78962709D02*
X211942619Y-78915090D01*
X211942619Y-78915090D02*
X211847381Y-78867471D01*
X211847381Y-78867471D02*
X211656905Y-78867471D01*
X211656905Y-78867471D02*
X211561667Y-78915090D01*
X211561667Y-78915090D02*
X211514048Y-78962709D01*
X211514048Y-78962709D02*
X211466429Y-79057947D01*
%TO.C,C1*%
X179757033Y-73367380D02*
X179709414Y-73415000D01*
X179709414Y-73415000D02*
X179566557Y-73462619D01*
X179566557Y-73462619D02*
X179471319Y-73462619D01*
X179471319Y-73462619D02*
X179328462Y-73415000D01*
X179328462Y-73415000D02*
X179233224Y-73319761D01*
X179233224Y-73319761D02*
X179185605Y-73224523D01*
X179185605Y-73224523D02*
X179137986Y-73034047D01*
X179137986Y-73034047D02*
X179137986Y-72891190D01*
X179137986Y-72891190D02*
X179185605Y-72700714D01*
X179185605Y-72700714D02*
X179233224Y-72605476D01*
X179233224Y-72605476D02*
X179328462Y-72510238D01*
X179328462Y-72510238D02*
X179471319Y-72462619D01*
X179471319Y-72462619D02*
X179566557Y-72462619D01*
X179566557Y-72462619D02*
X179709414Y-72510238D01*
X179709414Y-72510238D02*
X179757033Y-72557857D01*
X180709414Y-73462619D02*
X180137986Y-73462619D01*
X180423700Y-73462619D02*
X180423700Y-72462619D01*
X180423700Y-72462619D02*
X180328462Y-72605476D01*
X180328462Y-72605476D02*
X180233224Y-72700714D01*
X180233224Y-72700714D02*
X180137986Y-72748333D01*
%TO.C,C12*%
X193080842Y-71627380D02*
X193033223Y-71675000D01*
X193033223Y-71675000D02*
X192890366Y-71722619D01*
X192890366Y-71722619D02*
X192795128Y-71722619D01*
X192795128Y-71722619D02*
X192652271Y-71675000D01*
X192652271Y-71675000D02*
X192557033Y-71579761D01*
X192557033Y-71579761D02*
X192509414Y-71484523D01*
X192509414Y-71484523D02*
X192461795Y-71294047D01*
X192461795Y-71294047D02*
X192461795Y-71151190D01*
X192461795Y-71151190D02*
X192509414Y-70960714D01*
X192509414Y-70960714D02*
X192557033Y-70865476D01*
X192557033Y-70865476D02*
X192652271Y-70770238D01*
X192652271Y-70770238D02*
X192795128Y-70722619D01*
X192795128Y-70722619D02*
X192890366Y-70722619D01*
X192890366Y-70722619D02*
X193033223Y-70770238D01*
X193033223Y-70770238D02*
X193080842Y-70817857D01*
X194033223Y-71722619D02*
X193461795Y-71722619D01*
X193747509Y-71722619D02*
X193747509Y-70722619D01*
X193747509Y-70722619D02*
X193652271Y-70865476D01*
X193652271Y-70865476D02*
X193557033Y-70960714D01*
X193557033Y-70960714D02*
X193461795Y-71008333D01*
X194414176Y-70817857D02*
X194461795Y-70770238D01*
X194461795Y-70770238D02*
X194557033Y-70722619D01*
X194557033Y-70722619D02*
X194795128Y-70722619D01*
X194795128Y-70722619D02*
X194890366Y-70770238D01*
X194890366Y-70770238D02*
X194937985Y-70817857D01*
X194937985Y-70817857D02*
X194985604Y-70913095D01*
X194985604Y-70913095D02*
X194985604Y-71008333D01*
X194985604Y-71008333D02*
X194937985Y-71151190D01*
X194937985Y-71151190D02*
X194366557Y-71722619D01*
X194366557Y-71722619D02*
X194985604Y-71722619D01*
%TO.C,SW2*%
X207733332Y-100385000D02*
X207590475Y-100337380D01*
X207590475Y-100337380D02*
X207352380Y-100337380D01*
X207352380Y-100337380D02*
X207257142Y-100385000D01*
X207257142Y-100385000D02*
X207209523Y-100432619D01*
X207209523Y-100432619D02*
X207161904Y-100527857D01*
X207161904Y-100527857D02*
X207161904Y-100623095D01*
X207161904Y-100623095D02*
X207209523Y-100718333D01*
X207209523Y-100718333D02*
X207257142Y-100765952D01*
X207257142Y-100765952D02*
X207352380Y-100813571D01*
X207352380Y-100813571D02*
X207542856Y-100861190D01*
X207542856Y-100861190D02*
X207638094Y-100908809D01*
X207638094Y-100908809D02*
X207685713Y-100956428D01*
X207685713Y-100956428D02*
X207733332Y-101051666D01*
X207733332Y-101051666D02*
X207733332Y-101146904D01*
X207733332Y-101146904D02*
X207685713Y-101242142D01*
X207685713Y-101242142D02*
X207638094Y-101289761D01*
X207638094Y-101289761D02*
X207542856Y-101337380D01*
X207542856Y-101337380D02*
X207304761Y-101337380D01*
X207304761Y-101337380D02*
X207161904Y-101289761D01*
X206828570Y-101337380D02*
X206590475Y-100337380D01*
X206590475Y-100337380D02*
X206399999Y-101051666D01*
X206399999Y-101051666D02*
X206209523Y-100337380D01*
X206209523Y-100337380D02*
X205971428Y-101337380D01*
X205638094Y-101242142D02*
X205590475Y-101289761D01*
X205590475Y-101289761D02*
X205495237Y-101337380D01*
X205495237Y-101337380D02*
X205257142Y-101337380D01*
X205257142Y-101337380D02*
X205161904Y-101289761D01*
X205161904Y-101289761D02*
X205114285Y-101242142D01*
X205114285Y-101242142D02*
X205066666Y-101146904D01*
X205066666Y-101146904D02*
X205066666Y-101051666D01*
X205066666Y-101051666D02*
X205114285Y-100908809D01*
X205114285Y-100908809D02*
X205685713Y-100337380D01*
X205685713Y-100337380D02*
X205066666Y-100337380D01*
X209511500Y-103896219D02*
X209511500Y-104134314D01*
X209273405Y-104039076D02*
X209511500Y-104134314D01*
X209511500Y-104134314D02*
X209749595Y-104039076D01*
X209368643Y-104324790D02*
X209511500Y-104134314D01*
X209511500Y-104134314D02*
X209654357Y-104324790D01*
%TO.C,J6*%
X174066666Y-79862619D02*
X174066666Y-80576904D01*
X174066666Y-80576904D02*
X174019047Y-80719761D01*
X174019047Y-80719761D02*
X173923809Y-80815000D01*
X173923809Y-80815000D02*
X173780952Y-80862619D01*
X173780952Y-80862619D02*
X173685714Y-80862619D01*
X174971428Y-79862619D02*
X174780952Y-79862619D01*
X174780952Y-79862619D02*
X174685714Y-79910238D01*
X174685714Y-79910238D02*
X174638095Y-79957857D01*
X174638095Y-79957857D02*
X174542857Y-80100714D01*
X174542857Y-80100714D02*
X174495238Y-80291190D01*
X174495238Y-80291190D02*
X174495238Y-80672142D01*
X174495238Y-80672142D02*
X174542857Y-80767380D01*
X174542857Y-80767380D02*
X174590476Y-80815000D01*
X174590476Y-80815000D02*
X174685714Y-80862619D01*
X174685714Y-80862619D02*
X174876190Y-80862619D01*
X174876190Y-80862619D02*
X174971428Y-80815000D01*
X174971428Y-80815000D02*
X175019047Y-80767380D01*
X175019047Y-80767380D02*
X175066666Y-80672142D01*
X175066666Y-80672142D02*
X175066666Y-80434047D01*
X175066666Y-80434047D02*
X175019047Y-80338809D01*
X175019047Y-80338809D02*
X174971428Y-80291190D01*
X174971428Y-80291190D02*
X174876190Y-80243571D01*
X174876190Y-80243571D02*
X174685714Y-80243571D01*
X174685714Y-80243571D02*
X174590476Y-80291190D01*
X174590476Y-80291190D02*
X174542857Y-80338809D01*
X174542857Y-80338809D02*
X174495238Y-80434047D01*
%TO.C,C14*%
X195875535Y-87882143D02*
X195911250Y-87917857D01*
X195911250Y-87917857D02*
X195946964Y-88025000D01*
X195946964Y-88025000D02*
X195946964Y-88096428D01*
X195946964Y-88096428D02*
X195911250Y-88203571D01*
X195911250Y-88203571D02*
X195839821Y-88275000D01*
X195839821Y-88275000D02*
X195768392Y-88310714D01*
X195768392Y-88310714D02*
X195625535Y-88346428D01*
X195625535Y-88346428D02*
X195518392Y-88346428D01*
X195518392Y-88346428D02*
X195375535Y-88310714D01*
X195375535Y-88310714D02*
X195304107Y-88275000D01*
X195304107Y-88275000D02*
X195232678Y-88203571D01*
X195232678Y-88203571D02*
X195196964Y-88096428D01*
X195196964Y-88096428D02*
X195196964Y-88025000D01*
X195196964Y-88025000D02*
X195232678Y-87917857D01*
X195232678Y-87917857D02*
X195268392Y-87882143D01*
X195946964Y-87167857D02*
X195946964Y-87596428D01*
X195946964Y-87382143D02*
X195196964Y-87382143D01*
X195196964Y-87382143D02*
X195304107Y-87453571D01*
X195304107Y-87453571D02*
X195375535Y-87525000D01*
X195375535Y-87525000D02*
X195411250Y-87596428D01*
X195446964Y-86525000D02*
X195946964Y-86525000D01*
X195161250Y-86703571D02*
X195696964Y-86882142D01*
X195696964Y-86882142D02*
X195696964Y-86417857D01*
D19*
%TO.C,J13*%
X217545000Y-74993900D02*
X217545000Y-71843900D01*
X217545000Y-71843900D02*
X214695000Y-69243900D01*
X214695000Y-77543900D02*
X217545000Y-74993900D01*
X214695000Y-69243900D02*
X201845000Y-69243900D01*
X201845000Y-77543900D02*
X214695000Y-77543900D01*
X201845000Y-69243900D02*
X201845000Y-77543900D01*
D20*
%TO.C,S1*%
X199295000Y-72793900D02*
X199295000Y-71246400D01*
X199295000Y-66793900D02*
X199295000Y-68341400D01*
X199295000Y-66793900D02*
X196595000Y-66793900D01*
X196595000Y-66793900D02*
X196595000Y-62793900D01*
X196595000Y-66793900D02*
X191595000Y-66793900D01*
X196595000Y-62793900D02*
X191595000Y-62793900D01*
X191595000Y-66793900D02*
X188895000Y-66793900D01*
X191595000Y-62793900D02*
X191595000Y-66793900D01*
X188895000Y-72793900D02*
X199295000Y-72793900D01*
X188895000Y-71246400D02*
X188895000Y-72793900D01*
X188895000Y-66793900D02*
X188895000Y-68341400D01*
D21*
X196195000Y-73343900D02*
G75*
G03*
X196195000Y-73343900I-100000J0D01*
G01*
D19*
%TO.C,J11*%
X216980000Y-103055000D02*
X216980000Y-87695000D01*
X216980000Y-103055000D02*
X214380000Y-103055000D01*
X216980000Y-87695000D02*
X211780000Y-87695000D01*
X214380000Y-103055000D02*
X214380000Y-100455000D01*
X214380000Y-100455000D02*
X211780000Y-100455000D01*
X213110000Y-103055000D02*
X211780000Y-103055000D01*
X211780000Y-103055000D02*
X211780000Y-101725000D01*
X211780000Y-100455000D02*
X211780000Y-87695000D01*
%TO.C,J5*%
X191270000Y-118070000D02*
X201550000Y-118070000D01*
X191270000Y-118070000D02*
X191270000Y-115470000D01*
X201550000Y-118070000D02*
X201550000Y-112870000D01*
X191270000Y-115470000D02*
X193870000Y-115470000D01*
X193870000Y-115470000D02*
X193870000Y-112870000D01*
X191270000Y-114200000D02*
X191270000Y-112870000D01*
X191270000Y-112870000D02*
X192600000Y-112870000D01*
X193870000Y-112870000D02*
X201550000Y-112870000D01*
%TO.C,U1*%
X188752500Y-98810000D02*
X188752500Y-98160000D01*
X189402500Y-91590000D02*
X188752500Y-91590000D01*
X189402500Y-98810000D02*
X188752500Y-98810000D01*
X195322500Y-91590000D02*
X195972500Y-91590000D01*
X195322500Y-98810000D02*
X195972500Y-98810000D01*
X195972500Y-91590000D02*
X195972500Y-92240000D01*
X195972500Y-98810000D02*
X195972500Y-98160000D01*
%TO.C,J7*%
X170870000Y-103270000D02*
X172200000Y-103270000D01*
X170870000Y-104600000D02*
X170870000Y-103270000D01*
X170870000Y-105870000D02*
X170870000Y-113550000D01*
X170870000Y-105870000D02*
X173530000Y-105870000D01*
X170870000Y-113550000D02*
X173530000Y-113550000D01*
X173530000Y-105870000D02*
X173530000Y-113550000D01*
D22*
%TO.C,C11*%
X186064050Y-72177700D02*
X185688550Y-72177700D01*
X185688550Y-73422300D02*
X186064050Y-73422300D01*
%TO.C,C10*%
X181812250Y-102022300D02*
X182187750Y-102022300D01*
X182187750Y-100777700D02*
X181812250Y-100777700D01*
%TO.C,U4*%
X193374300Y-75577600D02*
X193374300Y-78422400D01*
X193374300Y-78422400D02*
X193730960Y-78422400D01*
X194527460Y-75577600D02*
X193374300Y-75577600D01*
X194879040Y-78422400D02*
X195187860Y-78422400D01*
X196412140Y-78422400D02*
X196720960Y-78422400D01*
X197869040Y-78422400D02*
X198225700Y-78422400D01*
X198225700Y-75577600D02*
X197072540Y-75577600D01*
X198225700Y-78422400D02*
X198225700Y-75577600D01*
X192358300Y-79120900D02*
G75*
G03*
X192358300Y-79120900I-127000J0D01*
G01*
%TO.C,U7*%
X192731100Y-80043400D02*
X192731100Y-76106400D01*
X192731100Y-76106400D02*
X185796900Y-76106400D01*
X185796900Y-80043400D02*
X192731100Y-80043400D01*
X185796900Y-76106400D02*
X185796900Y-80043400D01*
X194001100Y-74430000D02*
G75*
G03*
X194001100Y-74430000I-127000J0D01*
G01*
D19*
%TO.C,J9*%
X223070000Y-75470000D02*
X224400000Y-75470000D01*
X223070000Y-76800000D02*
X223070000Y-75470000D01*
X223070000Y-78070000D02*
X223070000Y-85750000D01*
X223070000Y-78070000D02*
X225730000Y-78070000D01*
X223070000Y-85750000D02*
X225730000Y-85750000D01*
X225730000Y-78070000D02*
X225730000Y-85750000D01*
D22*
%TO.C,SW4*%
X219298100Y-92098100D02*
X219298100Y-92271960D01*
X219298100Y-93928040D02*
X219298100Y-95271960D01*
X219298100Y-96928040D02*
X219298100Y-97101900D01*
X219298100Y-97101900D02*
X224301900Y-97101900D01*
X224301900Y-92098100D02*
X219298100Y-92098100D01*
X224301900Y-92271960D02*
X224301900Y-92098100D01*
X224301900Y-95271960D02*
X224301900Y-93928040D01*
X224301900Y-97101900D02*
X224301900Y-96928040D01*
X223324000Y-94600000D02*
G75*
G03*
X223324000Y-94600000I-1524000J0D01*
G01*
D19*
%TO.C,J12*%
X213550000Y-105470000D02*
X205870000Y-105470000D01*
X213550000Y-105470000D02*
X213550000Y-108130000D01*
X205870000Y-105470000D02*
X205870000Y-108130000D01*
X216150000Y-106800000D02*
X216150000Y-108130000D01*
X216150000Y-108130000D02*
X214820000Y-108130000D01*
X213550000Y-108130000D02*
X205870000Y-108130000D01*
D21*
%TO.C,J1*%
X188740000Y-116660000D02*
X188740000Y-104460000D01*
X187740000Y-116660000D02*
X188740000Y-116660000D01*
X187240000Y-102460000D02*
X177240000Y-102460000D01*
X182140000Y-116660000D02*
X184440000Y-116660000D01*
X177240000Y-102460000D02*
X177240000Y-101460000D01*
X177240000Y-101460000D02*
X176240000Y-101460000D01*
X174740000Y-116660000D02*
X179940000Y-116660000D01*
X174740000Y-103360000D02*
X174740000Y-116660000D01*
D19*
%TO.C,J8*%
X223070000Y-102530000D02*
X224400000Y-102530000D01*
X223070000Y-103860000D02*
X223070000Y-102530000D01*
X223070000Y-105130000D02*
X223070000Y-112810000D01*
X223070000Y-105130000D02*
X225730000Y-105130000D01*
X223070000Y-112810000D02*
X225730000Y-112810000D01*
X225730000Y-105130000D02*
X225730000Y-112810000D01*
D20*
%TO.C,U3*%
X201300000Y-95500000D02*
X201370000Y-95500000D01*
X204230000Y-95500000D02*
X204300000Y-95500000D01*
X204300000Y-95500000D02*
X204300000Y-95430000D01*
X201300000Y-95430000D02*
X201300000Y-95500000D01*
X204300000Y-92570000D02*
X204300000Y-92500000D01*
X201300000Y-92500000D02*
X201300000Y-92570000D01*
X201370000Y-92500000D02*
X201300000Y-92500000D01*
X204300000Y-92500000D02*
X204230000Y-92500000D01*
D21*
X201900000Y-96400000D02*
G75*
G03*
X201900000Y-96400000I-100000J0D01*
G01*
D20*
%TO.C,Y1*%
X191500000Y-107050000D02*
X202900000Y-107050000D01*
X191500000Y-111750000D02*
X202900000Y-111750000D01*
D19*
%TO.C,J15*%
X204965000Y-83063900D02*
X204965000Y-85663900D01*
X204965000Y-83063900D02*
X207625000Y-83063900D01*
X204965000Y-85663900D02*
X207625000Y-85663900D01*
X206295000Y-80463900D02*
X207625000Y-80463900D01*
X207625000Y-80463900D02*
X207625000Y-81793900D01*
X207625000Y-83063900D02*
X207625000Y-85663900D01*
D22*
%TO.C,SW3*%
X208898100Y-110698100D02*
X208898100Y-110871960D01*
X208898100Y-112528040D02*
X208898100Y-113871960D01*
X208898100Y-115528040D02*
X208898100Y-115701900D01*
X208898100Y-115701900D02*
X213901900Y-115701900D01*
X213901900Y-110698100D02*
X208898100Y-110698100D01*
X213901900Y-110871960D02*
X213901900Y-110698100D01*
X213901900Y-113871960D02*
X213901900Y-112528040D01*
X213901900Y-115701900D02*
X213901900Y-115528040D01*
X212924000Y-113200000D02*
G75*
G03*
X212924000Y-113200000I-1524000J0D01*
G01*
D19*
%TO.C,J10*%
X177270000Y-99930000D02*
X177270000Y-98600000D01*
X178600000Y-99930000D02*
X177270000Y-99930000D01*
X179870000Y-99930000D02*
X187550000Y-99930000D01*
X179870000Y-99930000D02*
X179870000Y-97270000D01*
X187550000Y-99930000D02*
X187550000Y-97270000D01*
X179870000Y-97270000D02*
X187550000Y-97270000D01*
%TO.C,J14*%
X200390000Y-82953900D02*
X200390000Y-85553900D01*
X200390000Y-82953900D02*
X203050000Y-82953900D01*
X200390000Y-85553900D02*
X203050000Y-85553900D01*
X201720000Y-80353900D02*
X203050000Y-80353900D01*
X203050000Y-80353900D02*
X203050000Y-81683900D01*
X203050000Y-82953900D02*
X203050000Y-85553900D01*
%TO.C,J4*%
X170820000Y-89870000D02*
X170820000Y-100150000D01*
X170820000Y-89870000D02*
X173420000Y-89870000D01*
X170820000Y-100150000D02*
X176020000Y-100150000D01*
X173420000Y-89870000D02*
X173420000Y-92470000D01*
X173420000Y-92470000D02*
X176020000Y-92470000D01*
X174690000Y-89870000D02*
X176020000Y-89870000D01*
X176020000Y-89870000D02*
X176020000Y-91200000D01*
X176020000Y-92470000D02*
X176020000Y-100150000D01*
D22*
%TO.C,C2*%
X185511450Y-81577700D02*
X185135950Y-81577700D01*
X185135950Y-82822300D02*
X185511450Y-82822300D01*
D20*
%TO.C,U2*%
X182550000Y-81050000D02*
X179050000Y-81050000D01*
X182550000Y-74550000D02*
X182550000Y-81050000D01*
X179050000Y-81050000D02*
X179050000Y-74550000D01*
X179050000Y-74550000D02*
X182550000Y-74550000D01*
D21*
X184650000Y-81300000D02*
G75*
G03*
X184650000Y-81300000I-100000J0D01*
G01*
D22*
%TO.C,SW1*%
X175724000Y-71200000D02*
G75*
G03*
X175724000Y-71200000I-1524000J0D01*
G01*
X176701900Y-73701900D02*
X176701900Y-73528040D01*
X176701900Y-71871960D02*
X176701900Y-70528040D01*
X176701900Y-68871960D02*
X176701900Y-68698100D01*
X176701900Y-68698100D02*
X171698100Y-68698100D01*
X171698100Y-73701900D02*
X176701900Y-73701900D01*
X171698100Y-73528040D02*
X171698100Y-73701900D01*
X171698100Y-70528040D02*
X171698100Y-71871960D01*
X171698100Y-68698100D02*
X171698100Y-68871960D01*
D20*
%TO.C,J2*%
X186664000Y-66824900D02*
X186664000Y-67054900D01*
X186664000Y-66824900D02*
X179064000Y-66824900D01*
X179064000Y-66824900D02*
X179064000Y-67054900D01*
D21*
X184264000Y-72324900D02*
G75*
G03*
X184264000Y-72324900I-100000J0D01*
G01*
D19*
%TO.C,J3*%
X192390000Y-105930000D02*
X192390000Y-104600000D01*
X193720000Y-105930000D02*
X192390000Y-105930000D01*
X194990000Y-105930000D02*
X200130000Y-105930000D01*
X194990000Y-105930000D02*
X194990000Y-103270000D01*
X200130000Y-105930000D02*
X200130000Y-103270000D01*
X194990000Y-103270000D02*
X200130000Y-103270000D01*
D22*
%TO.C,SW5*%
X221755600Y-86598100D02*
X221755600Y-86771960D01*
X221755600Y-88428040D02*
X221755600Y-89771960D01*
X221755600Y-91428040D02*
X221755600Y-91601900D01*
X221755600Y-91601900D02*
X226759400Y-91601900D01*
X226759400Y-86598100D02*
X221755600Y-86598100D01*
X226759400Y-86771960D02*
X226759400Y-86598100D01*
X226759400Y-89771960D02*
X226759400Y-88428040D01*
X226759400Y-91601900D02*
X226759400Y-91428040D01*
X225781500Y-89100000D02*
G75*
G03*
X225781500Y-89100000I-1524000J0D01*
G01*
D19*
%TO.C,J17*%
X214165000Y-83063900D02*
X214165000Y-85663900D01*
X214165000Y-83063900D02*
X216825000Y-83063900D01*
X214165000Y-85663900D02*
X216825000Y-85663900D01*
X215495000Y-80463900D02*
X216825000Y-80463900D01*
X216825000Y-80463900D02*
X216825000Y-81793900D01*
X216825000Y-83063900D02*
X216825000Y-85663900D01*
D22*
%TO.C,U5*%
X179580600Y-83780600D02*
X179580600Y-84101675D01*
X179580600Y-89098325D02*
X179580600Y-89419400D01*
X179580600Y-89419400D02*
X185219400Y-89419400D01*
X185219400Y-83780600D02*
X179580600Y-83780600D01*
X185219400Y-84101675D02*
X185219400Y-83780600D01*
X185219400Y-89419400D02*
X185219400Y-89098325D01*
D19*
%TO.C,J16*%
X209565000Y-83063900D02*
X209565000Y-85663900D01*
X209565000Y-83063900D02*
X212225000Y-83063900D01*
X209565000Y-85663900D02*
X212225000Y-85663900D01*
X210895000Y-80463900D02*
X212225000Y-80463900D01*
X212225000Y-80463900D02*
X212225000Y-81793900D01*
X212225000Y-83063900D02*
X212225000Y-85663900D01*
D22*
%TO.C,C1*%
X182787750Y-72577700D02*
X182412250Y-72577700D01*
X182412250Y-73822300D02*
X182787750Y-73822300D01*
%TO.C,C12*%
X193535950Y-74422300D02*
X193911450Y-74422300D01*
X193911450Y-73177700D02*
X193535950Y-73177700D01*
%TO.C,SW2*%
X208901900Y-103301900D02*
X208901900Y-103128040D01*
X208901900Y-101471960D02*
X208901900Y-100128040D01*
X208901900Y-98471960D02*
X208901900Y-98298100D01*
X208901900Y-98298100D02*
X203898100Y-98298100D01*
X203898100Y-103301900D02*
X208901900Y-103301900D01*
X203898100Y-103128040D02*
X203898100Y-103301900D01*
X203898100Y-100128040D02*
X203898100Y-101471960D01*
X203898100Y-98298100D02*
X203898100Y-98471960D01*
X207924000Y-100800000D02*
G75*
G03*
X207924000Y-100800000I-1524000J0D01*
G01*
D19*
%TO.C,J6*%
X170870000Y-74670000D02*
X172200000Y-74670000D01*
X170870000Y-76000000D02*
X170870000Y-74670000D01*
X170870000Y-77270000D02*
X170870000Y-84950000D01*
X170870000Y-77270000D02*
X173530000Y-77270000D01*
X170870000Y-84950000D02*
X173530000Y-84950000D01*
X173530000Y-77270000D02*
X173530000Y-84950000D01*
%TD*%
M02*
